<svg xmlns="http://www.w3.org/2000/svg" width="289" height="37">
         <defs>
            <style type="text/css">
    @namespace "http://www.w3.org/2000/svg";
    .line                 {fill: none; stroke: #262626;}
    .bold-line            {stroke: #0A0A0A; shape-rendering: crispEdges; stroke-width: 2; }
    .thin-line            {stroke: #0F0F0F; shape-rendering: crispEdges}
    .filled               {fill: #262626; stroke: none;}
    text.terminal         {font-family: Verdana, Sans-serif;
                            font-size: 12px;
                            fill: #0A0A0A;
                            font-weight: bold;
                          }
    text.nonterminal      {font-family: Verdana, Sans-serif;
                            font-size: 12px;
                            fill: #0D0D0D;
                            font-weight: normal;
                          }
    text.regexp           {font-family: Verdana, Sans-serif;
                            font-size: 12px;
                            fill: #0F0F0F;
                            font-weight: normal;
                          }
    rect, circle, polygon {fill: #262626; stroke: #262626;}
    rect.terminal         {fill: #FFFFFF; stroke: #262626;}
    rect.nonterminal      {fill: #FFFFFF; stroke: #262626;}
    rect.text             {fill: none; stroke: none;}    
    polygon.regexp        {fill: #FFFFFF; stroke: #262626;}
  </style>
         </defs>
         <polygon points="9,17 1,13 1,21" />
         <polygon points="17,17 9,13 9,21" /><a xmlns:xlink="http://www.w3.org/1999/xlink" xlink:title="identifier" xlink:href="#identifier">
            <rect x="31" y="3" width="76" height="32" />
            <rect class="nonterminal" x="29" y="1" width="76" height="32" />
            <text class="nonterminal" x="39" y="21">identifier</text></a><rect x="127" y="3" width="24" height="32" rx="10" />
         <rect class="terminal" x="125" y="1" width="24" height="32" rx="10" />
         <text class="terminal" x="135" y="21">:</text><a xmlns:xlink="http://www.w3.org/1999/xlink" xlink:title="expression" xlink:href="#expression">
            <rect x="171" y="3" width="90" height="32" />
            <rect class="nonterminal" x="169" y="1" width="90" height="32" />
            <text class="nonterminal" x="179" y="21">expression</text></a><path class="line" d="m 17 17 h 2 m 0 0 h 10 m 76 0 h 10 m 0 0 h 10 m 24 0 h 10 m 0 0 h 10 m 90 0 h 10 m 3 0 h -3" />
         <polygon points="279,17 287,13 287,21" />
         <polygon points="279,17 271,13 271,21" /></svg>