<svg xmlns="http://www.w3.org/2000/svg" width="265" height="609">
         <defs>
            <style type="text/css">
    @namespace "http://www.w3.org/2000/svg";
    .line                 {fill: none; stroke: #332900;}
    .bold-line            {stroke: #141000; shape-rendering: crispEdges; stroke-width: 2; }
    .thin-line            {stroke: #1F1800; shape-rendering: crispEdges}
    .filled               {fill: #332900; stroke: none;}
    text.terminal         {font-family: Verdana, Sans-serif;
                            font-size: 12px;
                            fill: #141000;
                            font-weight: bold;
                          }
    text.nonterminal      {font-family: Verdana, Sans-serif;
                            font-size: 12px;
                            fill: #1A1400;
                            font-weight: normal;
                          }
    text.regexp           {font-family: Verdana, Sans-serif;
                            font-size: 12px;
                            fill: #1F1800;
                            font-weight: normal;
                          }
    rect, circle, polygon {fill: #332900; stroke: #332900;}
    rect.terminal         {fill: #FFDB4D; stroke: #332900;}
    rect.nonterminal      {fill: #FFEC9E; stroke: #332900;}
    rect.text             {fill: none; stroke: none;}    
    polygon.regexp        {fill: #FFF4C7; stroke: #332900;}
  </style>
         </defs>
         <polygon points="9 17 1 13 1 21"/>
         <polygon points="17 17 9 13 9 21"/><a xmlns:xlink="http://www.w3.org/1999/xlink" xlink:href="#set_mark" xlink:title="set_mark">
            <rect x="51" y="3" width="80" height="32"/>
            <rect x="49" y="1" width="80" height="32" class="nonterminal"/>
            <text class="nonterminal" x="59" y="21">set_mark</text></a><a xmlns:xlink="http://www.w3.org/1999/xlink" xlink:href="#set_text" xlink:title="set_text">
            <rect x="51" y="47" width="72" height="32"/>
            <rect x="49" y="45" width="72" height="32" class="nonterminal"/>
            <text class="nonterminal" x="59" y="65">set_text</text></a><a xmlns:xlink="http://www.w3.org/1999/xlink" xlink:href="#set_indent" xlink:title="set_indent">
            <rect x="51" y="91" width="88" height="32"/>
            <rect x="49" y="89" width="88" height="32" class="nonterminal"/>
            <text class="nonterminal" x="59" y="109">set_indent</text></a><a xmlns:xlink="http://www.w3.org/1999/xlink" xlink:href="#set_value" xlink:title="set_value">
            <rect x="51" y="135" width="82" height="32"/>
            <rect x="49" y="133" width="82" height="32" class="nonterminal"/>
            <text class="nonterminal" x="59" y="153">set_value</text></a><a xmlns:xlink="http://www.w3.org/1999/xlink" xlink:href="#split" xlink:title="split">
            <rect x="51" y="179" width="46" height="32"/>
            <rect x="49" y="177" width="46" height="32" class="nonterminal"/>
            <text class="nonterminal" x="59" y="197">split</text></a><a xmlns:xlink="http://www.w3.org/1999/xlink" xlink:href="#merge" xlink:title="merge">
            <rect x="51" y="223" width="60" height="32"/>
            <rect x="49" y="221" width="60" height="32" class="nonterminal"/>
            <text class="nonterminal" x="59" y="241">merge</text></a><a xmlns:xlink="http://www.w3.org/1999/xlink" xlink:href="#new_label" xlink:title="new_label">
            <rect x="51" y="267" width="84" height="32"/>
            <rect x="49" y="265" width="84" height="32" class="nonterminal"/>
            <text class="nonterminal" x="59" y="285">new_label</text></a><a xmlns:xlink="http://www.w3.org/1999/xlink" xlink:href="#add_label" xlink:title="add_label">
            <rect x="51" y="311" width="82" height="32"/>
            <rect x="49" y="309" width="82" height="32" class="nonterminal"/>
            <text class="nonterminal" x="59" y="329">add_label</text></a><a xmlns:xlink="http://www.w3.org/1999/xlink" xlink:href="#set_category" xlink:title="set_category">
            <rect x="51" y="355" width="102" height="32"/>
            <rect x="49" y="353" width="102" height="32" class="nonterminal"/>
            <text class="nonterminal" x="59" y="373">set_category</text></a><a xmlns:xlink="http://www.w3.org/1999/xlink" xlink:href="#set_parent" xlink:title="set_parent">
            <rect x="51" y="399" width="90" height="32"/>
            <rect x="49" y="397" width="90" height="32" class="nonterminal"/>
            <text class="nonterminal" x="59" y="417">set_parent</text></a><a xmlns:xlink="http://www.w3.org/1999/xlink" xlink:href="#new_entry" xlink:title="new_entry">
            <rect x="51" y="443" width="86" height="32"/>
            <rect x="49" y="441" width="86" height="32" class="nonterminal"/>
            <text class="nonterminal" x="59" y="461">new_entry</text></a><a xmlns:xlink="http://www.w3.org/1999/xlink" xlink:href="#group" xlink:title="group">
            <rect x="51" y="487" width="56" height="32"/>
            <rect x="49" y="485" width="56" height="32" class="nonterminal"/>
            <text class="nonterminal" x="59" y="505">group</text></a><a xmlns:xlink="http://www.w3.org/1999/xlink" xlink:href="#c_print" xlink:title="c_print">
            <rect x="51" y="531" width="64" height="32"/>
            <rect x="49" y="529" width="64" height="32" class="nonterminal"/>
            <text class="nonterminal" x="59" y="549">c_print</text></a><a xmlns:xlink="http://www.w3.org/1999/xlink" xlink:href="#update" xlink:title="update">
            <rect x="51" y="575" width="64" height="32"/>
            <rect x="49" y="573" width="64" height="32" class="nonterminal"/>
            <text class="nonterminal" x="59" y="593">update</text></a><a xmlns:xlink="http://www.w3.org/1999/xlink" xlink:href="#EOL" xlink:title="EOL">
            <rect x="193" y="3" width="44" height="32"/>
            <rect x="191" y="1" width="44" height="32" class="nonterminal"/>
            <text class="nonterminal" x="201" y="21">EOL</text></a><svg:path xmlns:svg="http://www.w3.org/2000/svg" class="line" d="m17 17 h2 m20 0 h10 m80 0 h10 m0 0 h22 m-142 0 h20 m122 0 h20 m-162 0 q10 0 10 10 m142 0 q0 -10 10 -10 m-152 10 v24 m142 0 v-24 m-142 24 q0 10 10 10 m122 0 q10 0 10 -10 m-132 10 h10 m72 0 h10 m0 0 h30 m-132 -10 v20 m142 0 v-20 m-142 20 v24 m142 0 v-24 m-142 24 q0 10 10 10 m122 0 q10 0 10 -10 m-132 10 h10 m88 0 h10 m0 0 h14 m-132 -10 v20 m142 0 v-20 m-142 20 v24 m142 0 v-24 m-142 24 q0 10 10 10 m122 0 q10 0 10 -10 m-132 10 h10 m82 0 h10 m0 0 h20 m-132 -10 v20 m142 0 v-20 m-142 20 v24 m142 0 v-24 m-142 24 q0 10 10 10 m122 0 q10 0 10 -10 m-132 10 h10 m46 0 h10 m0 0 h56 m-132 -10 v20 m142 0 v-20 m-142 20 v24 m142 0 v-24 m-142 24 q0 10 10 10 m122 0 q10 0 10 -10 m-132 10 h10 m60 0 h10 m0 0 h42 m-132 -10 v20 m142 0 v-20 m-142 20 v24 m142 0 v-24 m-142 24 q0 10 10 10 m122 0 q10 0 10 -10 m-132 10 h10 m84 0 h10 m0 0 h18 m-132 -10 v20 m142 0 v-20 m-142 20 v24 m142 0 v-24 m-142 24 q0 10 10 10 m122 0 q10 0 10 -10 m-132 10 h10 m82 0 h10 m0 0 h20 m-132 -10 v20 m142 0 v-20 m-142 20 v24 m142 0 v-24 m-142 24 q0 10 10 10 m122 0 q10 0 10 -10 m-132 10 h10 m102 0 h10 m-132 -10 v20 m142 0 v-20 m-142 20 v24 m142 0 v-24 m-142 24 q0 10 10 10 m122 0 q10 0 10 -10 m-132 10 h10 m90 0 h10 m0 0 h12 m-132 -10 v20 m142 0 v-20 m-142 20 v24 m142 0 v-24 m-142 24 q0 10 10 10 m122 0 q10 0 10 -10 m-132 10 h10 m86 0 h10 m0 0 h16 m-132 -10 v20 m142 0 v-20 m-142 20 v24 m142 0 v-24 m-142 24 q0 10 10 10 m122 0 q10 0 10 -10 m-132 10 h10 m56 0 h10 m0 0 h46 m-132 -10 v20 m142 0 v-20 m-142 20 v24 m142 0 v-24 m-142 24 q0 10 10 10 m122 0 q10 0 10 -10 m-132 10 h10 m64 0 h10 m0 0 h38 m-132 -10 v20 m142 0 v-20 m-142 20 v24 m142 0 v-24 m-142 24 q0 10 10 10 m122 0 q10 0 10 -10 m-132 10 h10 m64 0 h10 m0 0 h38 m20 -572 h10 m44 0 h10 m3 0 h-3"/>
         <polygon points="255 17 263 13 263 21"/>
         <polygon points="255 17 247 13 247 21"/></svg>