<svg xmlns="http://www.w3.org/2000/svg" width="739" height="69">
         <defs>
            <style type="text/css">
    @namespace "http://www.w3.org/2000/svg";
    .line                 {fill: none; stroke: #332900;}
    .bold-line            {stroke: #141000; shape-rendering: crispEdges; stroke-width: 2; }
    .thin-line            {stroke: #1F1800; shape-rendering: crispEdges}
    .filled               {fill: #332900; stroke: none;}
    text.terminal         {font-family: Verdana, Sans-serif;
                            font-size: 12px;
                            fill: #141000;
                            font-weight: bold;
                          }
    text.nonterminal      {font-family: Verdana, Sans-serif;
                            font-size: 12px;
                            fill: #1A1400;
                            font-weight: normal;
                          }
    text.regexp           {font-family: Verdana, Sans-serif;
                            font-size: 12px;
                            fill: #1F1800;
                            font-weight: normal;
                          }
    rect, circle, polygon {fill: #332900; stroke: #332900;}
    rect.terminal         {fill: #FFDB4D; stroke: #332900;}
    rect.nonterminal      {fill: #FFEC9E; stroke: #332900;}
    rect.text             {fill: none; stroke: none;}    
    polygon.regexp        {fill: #FFF4C7; stroke: #332900;}
  </style>
         </defs>
         <polygon points="9 17 1 13 1 21"/>
         <polygon points="17 17 9 13 9 21"/>
         <rect x="31" y="3" width="80" height="32" rx="10"/>
         <rect x="29" y="1" width="80" height="32" class="terminal" rx="10"/>
         <text class="terminal" x="39" y="21">add label</text><a xmlns:xlink="http://www.w3.org/1999/xlink" xlink:href="#java_expression" xlink:title="java_expression">
            <rect x="131" y="3" width="124" height="32"/>
            <rect x="129" y="1" width="124" height="32" class="nonterminal"/>
            <text class="nonterminal" x="139" y="21">java_expression</text></a><rect x="295" y="35" width="32" height="32" rx="10"/>
         <rect x="293" y="33" width="32" height="32" class="terminal" rx="10"/>
         <text class="terminal" x="303" y="53">of</text><a xmlns:xlink="http://www.w3.org/1999/xlink" xlink:href="#java_expression" xlink:title="java_expression">
            <rect x="347" y="35" width="124" height="32"/>
            <rect x="345" y="33" width="124" height="32" class="nonterminal"/>
            <text class="nonterminal" x="355" y="53">java_expression</text></a><rect x="511" y="3" width="34" height="32" rx="10"/>
         <rect x="509" y="1" width="34" height="32" class="terminal" rx="10"/>
         <text class="terminal" x="519" y="21">to</text><a xmlns:xlink="http://www.w3.org/1999/xlink" xlink:href="#advanced_identifier" xlink:title="advanced_identifier">
            <rect x="565" y="3" width="146" height="32"/>
            <rect x="563" y="1" width="146" height="32" class="nonterminal"/>
            <text class="nonterminal" x="573" y="21">advanced_identifier</text></a><svg:path xmlns:svg="http://www.w3.org/2000/svg" class="line" d="m17 17 h2 m0 0 h10 m80 0 h10 m0 0 h10 m124 0 h10 m20 0 h10 m0 0 h186 m-216 0 h20 m196 0 h20 m-236 0 q10 0 10 10 m216 0 q0 -10 10 -10 m-226 10 v12 m216 0 v-12 m-216 12 q0 10 10 10 m196 0 q10 0 10 -10 m-206 10 h10 m32 0 h10 m0 0 h10 m124 0 h10 m20 -32 h10 m34 0 h10 m0 0 h10 m146 0 h10 m3 0 h-3"/>
         <polygon points="729 17 737 13 737 21"/>
         <polygon points="729 17 721 13 721 21"/></svg>