<svg xmlns="http://www.w3.org/2000/svg" width="411" height="101">
         <defs>
            <style type="text/css">
    @namespace "http://www.w3.org/2000/svg";
    .line                 {fill: none; stroke: #332900;}
    .bold-line            {stroke: #141000; shape-rendering: crispEdges; stroke-width: 2; }
    .thin-line            {stroke: #1F1800; shape-rendering: crispEdges}
    .filled               {fill: #332900; stroke: none;}
    text.terminal         {font-family: Verdana, Sans-serif;
                            font-size: 12px;
                            fill: #141000;
                            font-weight: bold;
                          }
    text.nonterminal      {font-family: Verdana, Sans-serif;
                            font-size: 12px;
                            fill: #1A1400;
                            font-weight: normal;
                          }
    text.regexp           {font-family: Verdana, Sans-serif;
                            font-size: 12px;
                            fill: #1F1800;
                            font-weight: normal;
                          }
    rect, circle, polygon {fill: #332900; stroke: #332900;}
    rect.terminal         {fill: #FFDB4D; stroke: #332900;}
    rect.nonterminal      {fill: #FFEC9E; stroke: #332900;}
    rect.text             {fill: none; stroke: none;}    
    polygon.regexp        {fill: #FFF4C7; stroke: #332900;}
  </style>
         </defs>
         <polygon points="9 17 1 13 1 21"/>
         <polygon points="17 17 9 13 9 21"/><a xmlns:xlink="http://www.w3.org/1999/xlink" xlink:href="#Identifier" xlink:title="Identifier">
            <rect x="31" y="3" width="78" height="32"/>
            <rect x="29" y="1" width="78" height="32" class="nonterminal"/>
            <text class="nonterminal" x="39" y="21">Identifier</text></a><rect x="149" y="35" width="24" height="32" rx="10"/>
         <rect x="147" y="33" width="24" height="32" class="terminal" rx="10"/>
         <text class="terminal" x="157" y="53">.</text><a xmlns:xlink="http://www.w3.org/1999/xlink" xlink:href="#query" xlink:title="query">
            <rect x="193" y="35" width="56" height="32"/>
            <rect x="191" y="33" width="56" height="32" class="nonterminal"/>
            <text class="nonterminal" x="201" y="53">query</text></a><a xmlns:xlink="http://www.w3.org/1999/xlink" xlink:href="#index" xlink:title="index">
            <rect x="289" y="67" width="54" height="32"/>
            <rect x="287" y="65" width="54" height="32" class="nonterminal"/>
            <text class="nonterminal" x="297" y="85">index</text></a><svg:path xmlns:svg="http://www.w3.org/2000/svg" class="line" d="m17 17 h2 m0 0 h10 m78 0 h10 m20 0 h10 m0 0 h224 m-254 0 h20 m234 0 h20 m-274 0 q10 0 10 10 m254 0 q0 -10 10 -10 m-264 10 v12 m254 0 v-12 m-254 12 q0 10 10 10 m234 0 q10 0 10 -10 m-244 10 h10 m24 0 h10 m0 0 h10 m56 0 h10 m20 0 h10 m0 0 h64 m-94 0 h20 m74 0 h20 m-114 0 q10 0 10 10 m94 0 q0 -10 10 -10 m-104 10 v12 m94 0 v-12 m-94 12 q0 10 10 10 m74 0 q10 0 10 -10 m-84 10 h10 m54 0 h10 m43 -64 h-3"/>
         <polygon points="401 17 409 13 409 21"/>
         <polygon points="401 17 393 13 393 21"/></svg>