<svg xmlns="http://www.w3.org/2000/svg" width="301" height="81">
         <defs>
            <style type="text/css">
    @namespace "http://www.w3.org/2000/svg";
    .line                 {fill: none; stroke: #332900;}
    .bold-line            {stroke: #141000; shape-rendering: crispEdges; stroke-width: 2; }
    .thin-line            {stroke: #1F1800; shape-rendering: crispEdges}
    .filled               {fill: #332900; stroke: none;}
    text.terminal         {font-family: Verdana, Sans-serif;
                            font-size: 12px;
                            fill: #141000;
                            font-weight: bold;
                          }
    text.nonterminal      {font-family: Verdana, Sans-serif;
                            font-size: 12px;
                            fill: #1A1400;
                            font-weight: normal;
                          }
    text.regexp           {font-family: Verdana, Sans-serif;
                            font-size: 12px;
                            fill: #1F1800;
                            font-weight: normal;
                          }
    rect, circle, polygon {fill: #332900; stroke: #332900;}
    rect.terminal         {fill: #FFDB4D; stroke: #332900;}
    rect.nonterminal      {fill: #FFEC9E; stroke: #332900;}
    rect.text             {fill: none; stroke: none;}    
    polygon.regexp        {fill: #FFF4C7; stroke: #332900;}
  </style>
         </defs>
         <polygon points="9 17 1 13 1 21"/>
         <polygon points="17 17 9 13 9 21"/>
         <rect x="51" y="3" width="52" height="32" rx="10"/>
         <rect x="49" y="1" width="52" height="32" class="terminal" rx="10"/>
         <text class="terminal" x="59" y="21">print</text>
         <rect x="51" y="47" width="58" height="32" rx="10"/>
         <rect x="49" y="45" width="58" height="32" class="terminal" rx="10"/>
         <text class="terminal" x="59" y="65">printf</text><a xmlns:xlink="http://www.w3.org/1999/xlink" xlink:href="#java_expression" xlink:title="java_expression">
            <rect x="149" y="3" width="124" height="32"/>
            <rect x="147" y="1" width="124" height="32" class="nonterminal"/>
            <text class="nonterminal" x="157" y="21">java_expression</text></a><svg:path xmlns:svg="http://www.w3.org/2000/svg" class="line" d="m17 17 h2 m20 0 h10 m52 0 h10 m0 0 h6 m-98 0 h20 m78 0 h20 m-118 0 q10 0 10 10 m98 0 q0 -10 10 -10 m-108 10 v24 m98 0 v-24 m-98 24 q0 10 10 10 m78 0 q10 0 10 -10 m-88 10 h10 m58 0 h10 m20 -44 h10 m124 0 h10 m3 0 h-3"/>
         <polygon points="291 17 299 13 299 21"/>
         <polygon points="291 17 283 13 283 21"/></svg>