<svg xmlns="http://www.w3.org/2000/svg" width="983" height="85">
         <defs>
            <style type="text/css">
    @namespace "http://www.w3.org/2000/svg";
    .line                 {fill: none; stroke: #332900;}
    .bold-line            {stroke: #141000; shape-rendering: crispEdges; stroke-width: 2; }
    .thin-line            {stroke: #1F1800; shape-rendering: crispEdges}
    .filled               {fill: #332900; stroke: none;}
    text.terminal         {font-family: Verdana, Sans-serif;
                            font-size: 12px;
                            fill: #141000;
                            font-weight: bold;
                          }
    text.nonterminal      {font-family: Verdana, Sans-serif;
                            font-size: 12px;
                            fill: #1A1400;
                            font-weight: normal;
                          }
    text.regexp           {font-family: Verdana, Sans-serif;
                            font-size: 12px;
                            fill: #1F1800;
                            font-weight: normal;
                          }
    rect, circle, polygon {fill: #332900; stroke: #332900;}
    rect.terminal         {fill: #FFDB4D; stroke: #332900;}
    rect.nonterminal      {fill: #FFEC9E; stroke: #332900;}
    rect.text             {fill: none; stroke: none;}    
    polygon.regexp        {fill: #FFF4C7; stroke: #332900;}
  </style>
         </defs>
         <polygon points="9 33 1 29 1 37"/>
         <polygon points="17 33 9 29 9 37"/>
         <rect x="31" y="19" width="60" height="32" rx="10"/>
         <rect x="29" y="17" width="60" height="32" class="terminal" rx="10"/>
         <text class="terminal" x="39" y="37">rule #</text><a xmlns:xlink="http://www.w3.org/1999/xlink" xlink:href="#Int_literal" xlink:title="Int_literal">
            <rect x="111" y="19" width="82" height="32"/>
            <rect x="109" y="17" width="82" height="32" class="nonterminal"/>
            <text class="nonterminal" x="119" y="37">Int_literal</text></a><a xmlns:xlink="http://www.w3.org/1999/xlink" xlink:href="#EOL" xlink:title="EOL">
            <rect x="213" y="19" width="44" height="32"/>
            <rect x="211" y="17" width="44" height="32" class="nonterminal"/>
            <text class="nonterminal" x="221" y="37">EOL</text></a><rect x="277" y="19" width="56" height="32" rx="10"/>
         <rect x="275" y="17" width="56" height="32" class="terminal" rx="10"/>
         <text class="terminal" x="285" y="37">when</text><a xmlns:xlink="http://www.w3.org/1999/xlink" xlink:href="#EOL" xlink:title="EOL">
            <rect x="353" y="19" width="44" height="32"/>
            <rect x="351" y="17" width="44" height="32" class="nonterminal"/>
            <text class="nonterminal" x="361" y="37">EOL</text></a><a xmlns:xlink="http://www.w3.org/1999/xlink" xlink:href="#condition" xlink:title="condition">
            <rect x="437" y="19" width="78" height="32"/>
            <rect x="435" y="17" width="78" height="32" class="nonterminal"/>
            <text class="nonterminal" x="445" y="37">condition</text></a><rect x="555" y="19" width="50" height="32" rx="10"/>
         <rect x="553" y="17" width="50" height="32" class="terminal" rx="10"/>
         <text class="terminal" x="563" y="37">then</text><a xmlns:xlink="http://www.w3.org/1999/xlink" xlink:href="#EOL" xlink:title="EOL">
            <rect x="625" y="19" width="44" height="32"/>
            <rect x="623" y="17" width="44" height="32" class="nonterminal"/>
            <text class="nonterminal" x="633" y="37">EOL</text></a><a xmlns:xlink="http://www.w3.org/1999/xlink" xlink:href="#action" xlink:title="action">
            <rect x="709" y="19" width="58" height="32"/>
            <rect x="707" y="17" width="58" height="32" class="nonterminal"/>
            <text class="nonterminal" x="717" y="37">action</text></a><rect x="807" y="19" width="44" height="32" rx="10"/>
         <rect x="805" y="17" width="44" height="32" class="terminal" rx="10"/>
         <text class="terminal" x="815" y="37">end</text><a xmlns:xlink="http://www.w3.org/1999/xlink" xlink:href="#EOL" xlink:title="EOL">
            <rect x="891" y="51" width="44" height="32"/>
            <rect x="889" y="49" width="44" height="32" class="nonterminal"/>
            <text class="nonterminal" x="899" y="69">EOL</text></a><svg:path xmlns:svg="http://www.w3.org/2000/svg" class="line" d="m17 33 h2 m0 0 h10 m60 0 h10 m0 0 h10 m82 0 h10 m0 0 h10 m44 0 h10 m0 0 h10 m56 0 h10 m0 0 h10 m44 0 h10 m20 0 h10 m78 0 h10 m-118 0 l20 0 m-1 0 q-9 0 -9 -10 l0 -12 q0 -10 10 -10 m98 32 l20 0 m-20 0 q10 0 10 -10 l0 -12 q0 -10 -10 -10 m-98 0 h10 m0 0 h88 m20 32 h10 m50 0 h10 m0 0 h10 m44 0 h10 m20 0 h10 m58 0 h10 m-98 0 l20 0 m-1 0 q-9 0 -9 -10 l0 -12 q0 -10 10 -10 m78 32 l20 0 m-20 0 q10 0 10 -10 l0 -12 q0 -10 -10 -10 m-78 0 h10 m0 0 h68 m20 32 h10 m44 0 h10 m20 0 h10 m0 0 h54 m-84 0 h20 m64 0 h20 m-104 0 q10 0 10 10 m84 0 q0 -10 10 -10 m-94 10 v12 m84 0 v-12 m-84 12 q0 10 10 10 m64 0 q10 0 10 -10 m-74 10 h10 m44 0 h10 m23 -32 h-3"/>
         <polygon points="973 33 981 29 981 37"/>
         <polygon points="973 33 965 29 965 37"/></svg>