<svg xmlns="http://www.w3.org/2000/svg" width="323" height="71">
         <defs>
            <style type="text/css">
    @namespace "http://www.w3.org/2000/svg";
    .line                 {fill: none; stroke: #332900;}
    .bold-line            {stroke: #141000; shape-rendering: crispEdges; stroke-width: 2; }
    .thin-line            {stroke: #1F1800; shape-rendering: crispEdges}
    .filled               {fill: #332900; stroke: none;}
    text.terminal         {font-family: Verdana, Sans-serif;
                            font-size: 12px;
                            fill: #141000;
                            font-weight: bold;
                          }
    text.nonterminal      {font-family: Verdana, Sans-serif;
                            font-size: 12px;
                            fill: #1A1400;
                            font-weight: normal;
                          }
    text.regexp           {font-family: Verdana, Sans-serif;
                            font-size: 12px;
                            fill: #1F1800;
                            font-weight: normal;
                          }
    rect, circle, polygon {fill: #332900; stroke: #332900;}
    rect.terminal         {fill: #FFDB4D; stroke: #332900;}
    rect.nonterminal      {fill: #FFEC9E; stroke: #332900;}
    rect.text             {fill: none; stroke: none;}    
    polygon.regexp        {fill: #FFF4C7; stroke: #332900;}
  </style>
         </defs>
         <polygon points="9 51 1 47 1 55"/>
         <polygon points="17 51 9 47 9 55"/><a xmlns:xlink="http://www.w3.org/1999/xlink" xlink:href="#import_stmt" xlink:title="import_stmt">
            <rect x="51" y="3" width="98" height="32"/>
            <rect x="49" y="1" width="98" height="32" class="nonterminal"/>
            <text class="nonterminal" x="59" y="21">import_stmt</text></a><a xmlns:xlink="http://www.w3.org/1999/xlink" xlink:href="#crl_rule" xlink:title="crl_rule">
            <rect x="209" y="37" width="66" height="32"/>
            <rect x="207" y="35" width="66" height="32" class="nonterminal"/>
            <text class="nonterminal" x="217" y="55">crl_rule</text></a><svg:path xmlns:svg="http://www.w3.org/2000/svg" class="line" d="m17 51 h2 m20 0 h10 m0 0 h108 m-138 0 l20 0 m-1 0 q-9 0 -9 -10 l0 -14 q0 -10 10 -10 m118 34 l20 0 m-20 0 q10 0 10 -10 l0 -14 q0 -10 -10 -10 m-118 0 h10 m98 0 h10 m40 34 h10 m66 0 h10 m-106 0 l20 0 m-1 0 q-9 0 -9 -10 l0 -12 q0 -10 10 -10 m86 32 l20 0 m-20 0 q10 0 10 -10 l0 -12 q0 -10 -10 -10 m-86 0 h10 m0 0 h76 m23 32 h-3"/>
         <polygon points="313 51 321 47 321 55"/>
         <polygon points="313 51 305 47 305 55"/></svg>