<?xml version="1.0" encoding="utf-8"?>
<!-- Generator: Adobe Illustrator 15.0.0, SVG Export Plug-In . SVG Version: 6.00 Build 0)  -->
<!DOCTYPE svg PUBLIC "-//W3C//DTD SVG 1.0//EN" "http://www.w3.org/TR/2001/REC-SVG-20010904/DTD/svg10.dtd">
<svg version="1.0" id="Layer_1" xmlns="http://www.w3.org/2000/svg" xmlns:xlink="http://www.w3.org/1999/xlink" x="0px" y="0px"
	 width="181.4px" height="120.24px" viewBox="0 0 181.4 120.24" enable-background="new 0 0 181.4 120.24" xml:space="preserve">
<g>
	<g>
		<g>
			<path d="M13.888,13.852v5.718H15.5c0.101,0,0.172,0.019,0.215,0.056s0.063,0.087,0.063,0.149c0,0.059-0.021,0.107-0.063,0.146
				S15.601,19.98,15.5,19.98h-3.633c-0.098,0-0.167-0.02-0.21-0.059s-0.063-0.088-0.063-0.146c0-0.062,0.021-0.111,0.063-0.149
				s0.112-0.056,0.21-0.056h1.611v-5.303h-1.182c-0.098,0-0.168-0.02-0.212-0.059s-0.066-0.089-0.066-0.151
				c0-0.059,0.021-0.107,0.063-0.146s0.114-0.059,0.215-0.059H13.888z"/>
			<path d="M19.875,13.769v5.801h1.406c0.098,0,0.167,0.019,0.21,0.056s0.063,0.087,0.063,0.149c0,0.059-0.021,0.107-0.063,0.146
				s-0.112,0.059-0.21,0.059h-3.223c-0.098,0-0.167-0.02-0.21-0.059s-0.063-0.088-0.063-0.146c0-0.062,0.021-0.111,0.063-0.149
				s0.112-0.056,0.21-0.056h1.406v-5.234l-1.338,0.42c-0.065,0.02-0.112,0.029-0.142,0.029c-0.049,0-0.094-0.021-0.134-0.061
				s-0.061-0.089-0.061-0.144c0-0.049,0.016-0.094,0.049-0.137c0.026-0.026,0.08-0.054,0.161-0.083L19.875,13.769z"/>
		</g>
		<g>
			<path d="M40.979,17.963H36.8c0.072,0.531,0.294,0.958,0.667,1.282s0.834,0.486,1.384,0.486c0.306,0,0.626-0.05,0.962-0.151
				s0.609-0.234,0.82-0.4c0.062-0.049,0.116-0.073,0.161-0.073c0.052,0,0.098,0.021,0.137,0.061s0.059,0.089,0.059,0.144
				s-0.026,0.109-0.078,0.161c-0.156,0.163-0.434,0.315-0.833,0.457s-0.808,0.212-1.228,0.212c-0.703,0-1.29-0.23-1.76-0.691
				s-0.706-1.018-0.706-1.672c0-0.596,0.221-1.107,0.662-1.533s0.987-0.64,1.638-0.64c0.67,0,1.222,0.219,1.655,0.657
				S40.986,17.267,40.979,17.963z M40.564,17.548c-0.082-0.453-0.295-0.82-0.642-1.104s-0.759-0.425-1.238-0.425
				s-0.89,0.14-1.235,0.42s-0.56,0.649-0.645,1.108H40.564z"/>
			<path d="M44.984,13.769v5.801h1.406c0.098,0,0.167,0.019,0.21,0.056s0.063,0.087,0.063,0.149c0,0.059-0.021,0.107-0.063,0.146
				s-0.112,0.059-0.21,0.059h-3.223c-0.098,0-0.167-0.02-0.21-0.059s-0.063-0.088-0.063-0.146c0-0.062,0.021-0.111,0.063-0.149
				s0.112-0.056,0.21-0.056h1.406v-5.234l-1.338,0.42c-0.065,0.02-0.112,0.029-0.142,0.029c-0.049,0-0.094-0.021-0.134-0.061
				s-0.061-0.089-0.061-0.144c0-0.049,0.016-0.094,0.049-0.137c0.026-0.026,0.08-0.054,0.161-0.083L44.984,13.769z"/>
		</g>
	</g>
	<g>
		<g>
			<path d="M13.888,28.732v5.718H15.5c0.101,0,0.172,0.019,0.215,0.056s0.063,0.087,0.063,0.149c0,0.059-0.021,0.107-0.063,0.146
				S15.601,34.86,15.5,34.86h-3.633c-0.098,0-0.167-0.02-0.21-0.059s-0.063-0.088-0.063-0.146c0-0.062,0.021-0.111,0.063-0.149
				s0.112-0.056,0.21-0.056h1.611v-5.303h-1.182c-0.098,0-0.168-0.02-0.212-0.059S12.018,29,12.018,28.938
				c0-0.059,0.021-0.107,0.063-0.146s0.114-0.059,0.215-0.059H13.888z"/>
			<path d="M17.907,34.45h3.149v-0.161c0-0.098,0.02-0.167,0.059-0.21s0.089-0.063,0.151-0.063c0.059,0,0.107,0.021,0.146,0.063
				s0.059,0.112,0.059,0.21v0.571h-3.965v-0.605c0.833-0.749,1.644-1.51,2.432-2.285c0.368-0.361,0.62-0.626,0.757-0.796
				s0.23-0.318,0.281-0.447s0.076-0.258,0.076-0.388c0-0.352-0.142-0.663-0.425-0.933s-0.625-0.405-1.025-0.405
				c-0.358,0-0.675,0.103-0.952,0.308s-0.456,0.459-0.537,0.762c-0.02,0.078-0.044,0.128-0.073,0.151
				c-0.039,0.033-0.084,0.049-0.137,0.049c-0.055,0-0.102-0.019-0.139-0.056s-0.056-0.082-0.056-0.134
				c0-0.156,0.085-0.368,0.256-0.635s0.407-0.477,0.708-0.63s0.609-0.229,0.925-0.229c0.511,0,0.951,0.177,1.318,0.532
				s0.552,0.757,0.552,1.206c0,0.189-0.031,0.362-0.093,0.52s-0.167,0.331-0.315,0.518s-0.414,0.47-0.798,0.847
				c-0.963,0.951-1.748,1.688-2.354,2.212V34.45z"/>
		</g>
		<g>
			<path d="M40.979,32.844H36.8c0.072,0.531,0.294,0.958,0.667,1.282s0.834,0.486,1.384,0.486c0.306,0,0.626-0.05,0.962-0.151
				s0.609-0.234,0.82-0.4c0.062-0.049,0.116-0.073,0.161-0.073c0.052,0,0.098,0.021,0.137,0.061s0.059,0.089,0.059,0.144
				s-0.026,0.109-0.078,0.161c-0.156,0.163-0.434,0.315-0.833,0.457s-0.808,0.212-1.228,0.212c-0.703,0-1.29-0.23-1.76-0.691
				s-0.706-1.018-0.706-1.672c0-0.596,0.221-1.107,0.662-1.533s0.987-0.64,1.638-0.64c0.67,0,1.222,0.219,1.655,0.657
				S40.986,32.147,40.979,32.844z M40.564,32.429c-0.082-0.453-0.295-0.82-0.642-1.104S39.163,30.9,38.685,30.9
				s-0.89,0.14-1.235,0.42s-0.56,0.649-0.645,1.108H40.564z"/>
			<path d="M43.016,34.45h3.149v-0.161c0-0.098,0.02-0.167,0.059-0.21s0.089-0.063,0.151-0.063c0.059,0,0.107,0.021,0.146,0.063
				s0.059,0.112,0.059,0.21v0.571h-3.965v-0.605c0.833-0.749,1.644-1.51,2.432-2.285c0.368-0.361,0.62-0.626,0.757-0.796
				s0.23-0.318,0.281-0.447s0.076-0.258,0.076-0.388c0-0.352-0.142-0.663-0.425-0.933s-0.625-0.405-1.025-0.405
				c-0.358,0-0.675,0.103-0.952,0.308s-0.456,0.459-0.537,0.762c-0.02,0.078-0.044,0.128-0.073,0.151
				c-0.039,0.033-0.084,0.049-0.137,0.049c-0.055,0-0.102-0.019-0.139-0.056s-0.056-0.082-0.056-0.134
				c0-0.156,0.085-0.368,0.256-0.635s0.407-0.477,0.708-0.63s0.609-0.229,0.925-0.229c0.511,0,0.951,0.177,1.318,0.532
				s0.552,0.757,0.552,1.206c0,0.189-0.031,0.362-0.093,0.52s-0.167,0.331-0.315,0.518s-0.414,0.47-0.798,0.847
				c-0.963,0.951-1.748,1.688-2.354,2.212V34.45z"/>
		</g>
	</g>
	<g>
		<g>
			<path d="M13.888,43.252v5.718H15.5c0.101,0,0.172,0.019,0.215,0.056s0.063,0.087,0.063,0.149c0,0.059-0.021,0.107-0.063,0.146
				S15.601,49.38,15.5,49.38h-3.633c-0.098,0-0.167-0.02-0.21-0.059s-0.063-0.088-0.063-0.146c0-0.062,0.021-0.111,0.063-0.149
				s0.112-0.056,0.21-0.056h1.611v-5.303h-1.182c-0.098,0-0.168-0.02-0.212-0.059s-0.066-0.089-0.066-0.151
				c0-0.059,0.021-0.107,0.063-0.146s0.114-0.059,0.215-0.059H13.888z"/>
			<path d="M20.514,46.045c0.377,0.169,0.666,0.401,0.864,0.696s0.298,0.602,0.298,0.92c0,0.492-0.199,0.925-0.598,1.301
				s-0.897,0.564-1.497,0.564c-0.352,0-0.716-0.075-1.094-0.225S17.847,49,17.697,48.843c-0.049-0.052-0.073-0.107-0.073-0.166
				c0-0.052,0.019-0.098,0.056-0.137s0.082-0.059,0.134-0.059s0.111,0.024,0.176,0.073c0.504,0.375,1.039,0.562,1.602,0.562
				c0.475,0,0.873-0.149,1.194-0.447s0.481-0.629,0.481-0.994c0-0.244-0.079-0.483-0.237-0.718s-0.385-0.419-0.681-0.554
				s-0.596-0.203-0.898-0.203c-0.098,0-0.167-0.019-0.21-0.056s-0.063-0.087-0.063-0.149c0-0.059,0.021-0.107,0.061-0.146
				s0.102-0.059,0.183-0.059l0.352,0.005c0.368,0,0.671-0.112,0.911-0.337s0.359-0.485,0.359-0.781c0-0.306-0.125-0.576-0.376-0.811
				s-0.578-0.352-0.981-0.352c-0.283,0-0.543,0.049-0.781,0.146s-0.428,0.231-0.571,0.4c-0.052,0.065-0.092,0.105-0.12,0.12
				s-0.06,0.022-0.095,0.022c-0.055,0-0.103-0.019-0.142-0.056s-0.059-0.082-0.059-0.134c0-0.13,0.142-0.294,0.425-0.493
				c0.394-0.277,0.841-0.415,1.343-0.415c0.518,0,0.942,0.155,1.274,0.466s0.498,0.681,0.498,1.111c0,0.273-0.08,0.532-0.239,0.776
				S20.823,45.899,20.514,46.045z"/>
		</g>
		<g>
			<path d="M40.979,47.364H36.8c0.072,0.531,0.294,0.958,0.667,1.282s0.834,0.486,1.384,0.486c0.306,0,0.626-0.05,0.962-0.151
				s0.609-0.234,0.82-0.4c0.062-0.049,0.116-0.073,0.161-0.073c0.052,0,0.098,0.021,0.137,0.061s0.059,0.089,0.059,0.144
				s-0.026,0.109-0.078,0.161c-0.156,0.163-0.434,0.315-0.833,0.457s-0.808,0.212-1.228,0.212c-0.703,0-1.29-0.23-1.76-0.691
				s-0.706-1.018-0.706-1.672c0-0.596,0.221-1.107,0.662-1.533s0.987-0.64,1.638-0.64c0.67,0,1.222,0.219,1.655,0.657
				S40.986,46.667,40.979,47.364z M40.564,46.949c-0.082-0.453-0.295-0.82-0.642-1.104s-0.759-0.425-1.238-0.425
				s-0.89,0.14-1.235,0.42s-0.56,0.649-0.645,1.108H40.564z"/>
			<path d="M45.624,46.045c0.377,0.169,0.666,0.401,0.864,0.696s0.298,0.602,0.298,0.92c0,0.492-0.199,0.925-0.598,1.301
				s-0.897,0.564-1.497,0.564c-0.352,0-0.716-0.075-1.094-0.225S42.956,49,42.806,48.843c-0.049-0.052-0.073-0.107-0.073-0.166
				c0-0.052,0.019-0.098,0.056-0.137s0.082-0.059,0.134-0.059s0.111,0.024,0.176,0.073c0.504,0.375,1.039,0.562,1.602,0.562
				c0.475,0,0.873-0.149,1.194-0.447s0.481-0.629,0.481-0.994c0-0.244-0.079-0.483-0.237-0.718s-0.385-0.419-0.681-0.554
				s-0.596-0.203-0.898-0.203c-0.098,0-0.167-0.019-0.21-0.056s-0.063-0.087-0.063-0.149c0-0.059,0.021-0.107,0.061-0.146
				s0.102-0.059,0.183-0.059l0.352,0.005c0.368,0,0.671-0.112,0.911-0.337s0.359-0.485,0.359-0.781c0-0.306-0.125-0.576-0.376-0.811
				s-0.578-0.352-0.981-0.352c-0.283,0-0.543,0.049-0.781,0.146s-0.428,0.231-0.571,0.4c-0.052,0.065-0.092,0.105-0.12,0.12
				s-0.06,0.022-0.095,0.022c-0.055,0-0.103-0.019-0.142-0.056s-0.059-0.082-0.059-0.134c0-0.13,0.142-0.294,0.425-0.493
				c0.394-0.277,0.841-0.415,1.343-0.415c0.518,0,0.942,0.155,1.274,0.466s0.498,0.681,0.498,1.111c0,0.273-0.08,0.532-0.239,0.776
				S45.933,45.899,45.624,46.045z"/>
		</g>
	</g>
	<g>
		<g>
			<path d="M13.888,57.772v5.718H15.5c0.101,0,0.172,0.019,0.215,0.056s0.063,0.087,0.063,0.149c0,0.059-0.021,0.107-0.063,0.146
				S15.601,63.9,15.5,63.9h-3.633c-0.098,0-0.167-0.02-0.21-0.059s-0.063-0.088-0.063-0.146c0-0.062,0.021-0.111,0.063-0.149
				s0.112-0.056,0.21-0.056h1.611v-5.303h-1.182c-0.098,0-0.168-0.02-0.212-0.059s-0.066-0.089-0.066-0.151
				c0-0.059,0.021-0.107,0.063-0.146s0.114-0.059,0.215-0.059H13.888z"/>
			<path d="M20.436,62.187h-2.72v-0.474l2.28-3.94h0.854v4.004h0.342c0.101,0,0.172,0.019,0.215,0.056s0.063,0.087,0.063,0.149
				c0,0.059-0.021,0.107-0.063,0.146s-0.114,0.059-0.215,0.059h-0.342v1.304h0.342c0.101,0,0.172,0.019,0.215,0.056
				s0.063,0.087,0.063,0.149c0,0.059-0.021,0.107-0.063,0.146S21.294,63.9,21.193,63.9h-1.523c-0.101,0-0.172-0.02-0.215-0.059
				s-0.063-0.088-0.063-0.146c0-0.062,0.021-0.111,0.063-0.149s0.114-0.056,0.215-0.056h0.767V62.187z M20.436,61.776v-3.589h-0.215
				l-2.075,3.589H20.436z"/>
		</g>
		<g>
			<path d="M40.979,61.884H36.8c0.072,0.531,0.294,0.958,0.667,1.282s0.834,0.486,1.384,0.486c0.306,0,0.626-0.05,0.962-0.151
				s0.609-0.234,0.82-0.4c0.062-0.049,0.116-0.073,0.161-0.073c0.052,0,0.098,0.021,0.137,0.061s0.059,0.089,0.059,0.144
				s-0.026,0.109-0.078,0.161c-0.156,0.163-0.434,0.315-0.833,0.457s-0.808,0.212-1.228,0.212c-0.703,0-1.29-0.23-1.76-0.691
				s-0.706-1.018-0.706-1.672c0-0.596,0.221-1.107,0.662-1.533s0.987-0.64,1.638-0.64c0.67,0,1.222,0.219,1.655,0.657
				S40.986,61.187,40.979,61.884z M40.564,61.469c-0.082-0.453-0.295-0.82-0.642-1.104s-0.759-0.425-1.238-0.425
				s-0.89,0.14-1.235,0.42s-0.56,0.649-0.645,1.108H40.564z"/>
			<path d="M45.545,62.187h-2.72v-0.474l2.28-3.94h0.854v4.004h0.342c0.101,0,0.172,0.019,0.215,0.056s0.063,0.087,0.063,0.149
				c0,0.059-0.021,0.107-0.063,0.146s-0.114,0.059-0.215,0.059H45.96v1.304h0.342c0.101,0,0.172,0.019,0.215,0.056
				s0.063,0.087,0.063,0.149c0,0.059-0.021,0.107-0.063,0.146S46.403,63.9,46.302,63.9h-1.523c-0.101,0-0.172-0.02-0.215-0.059
				S44.5,63.754,44.5,63.695c0-0.062,0.021-0.111,0.063-0.149s0.114-0.056,0.215-0.056h0.767V62.187z M45.545,61.776v-3.589h-0.215
				l-2.075,3.589H45.545z"/>
		</g>
	</g>
	<g>
		<g>
			<path d="M13.888,72.292v5.718H15.5c0.101,0,0.172,0.019,0.215,0.056s0.063,0.087,0.063,0.149c0,0.059-0.021,0.107-0.063,0.146
				S15.601,78.42,15.5,78.42h-3.633c-0.098,0-0.167-0.02-0.21-0.059s-0.063-0.088-0.063-0.146c0-0.062,0.021-0.111,0.063-0.149
				s0.112-0.056,0.21-0.056h1.611v-5.303h-1.182c-0.098,0-0.168-0.02-0.212-0.059s-0.066-0.089-0.066-0.151
				c0-0.059,0.021-0.107,0.063-0.146s0.114-0.059,0.215-0.059H13.888z"/>
			<path d="M18.542,72.708v2.007c0.241-0.101,0.472-0.177,0.693-0.227s0.431-0.076,0.63-0.076c0.514,0,0.945,0.181,1.292,0.542
				s0.52,0.836,0.52,1.426c0,0.651-0.195,1.178-0.586,1.582s-0.879,0.605-1.465,0.605c-0.387,0-0.76-0.086-1.118-0.259
				c-0.254-0.121-0.485-0.27-0.693-0.449c-0.124-0.107-0.186-0.197-0.186-0.269c0-0.059,0.02-0.108,0.059-0.149
				s0.084-0.061,0.137-0.061c0.055,0,0.114,0.029,0.176,0.088c0.492,0.459,1.027,0.688,1.606,0.688c0.479,0,0.874-0.164,1.187-0.491
				s0.469-0.763,0.469-1.306c0-0.462-0.135-0.834-0.405-1.116s-0.614-0.422-1.03-0.422c-0.426,0-0.853,0.112-1.279,0.337
				c-0.104,0.052-0.177,0.078-0.22,0.078c-0.059,0-0.106-0.02-0.142-0.059s-0.054-0.094-0.054-0.166v-2.72h2.861
				c0.098,0,0.167,0.02,0.21,0.059s0.063,0.089,0.063,0.151c0,0.059-0.021,0.107-0.063,0.146s-0.112,0.059-0.21,0.059H18.542z"/>
		</g>
		<g>
			<path d="M40.979,76.404H36.8c0.072,0.531,0.294,0.958,0.667,1.282s0.834,0.486,1.384,0.486c0.306,0,0.626-0.05,0.962-0.151
				s0.609-0.234,0.82-0.4c0.062-0.049,0.116-0.073,0.161-0.073c0.052,0,0.098,0.021,0.137,0.061s0.059,0.089,0.059,0.144
				s-0.026,0.109-0.078,0.161c-0.156,0.163-0.434,0.315-0.833,0.457s-0.808,0.212-1.228,0.212c-0.703,0-1.29-0.23-1.76-0.691
				s-0.706-1.018-0.706-1.672c0-0.596,0.221-1.107,0.662-1.533s0.987-0.64,1.638-0.64c0.67,0,1.222,0.219,1.655,0.657
				S40.986,75.707,40.979,76.404z M40.564,75.989c-0.082-0.453-0.295-0.82-0.642-1.104s-0.759-0.425-1.238-0.425
				s-0.89,0.14-1.235,0.42s-0.56,0.649-0.645,1.108H40.564z"/>
			<path d="M43.651,72.708v2.007c0.241-0.101,0.472-0.177,0.693-0.227s0.431-0.076,0.63-0.076c0.514,0,0.945,0.181,1.292,0.542
				s0.52,0.836,0.52,1.426c0,0.651-0.195,1.178-0.586,1.582s-0.879,0.605-1.465,0.605c-0.387,0-0.76-0.086-1.118-0.259
				c-0.254-0.121-0.485-0.27-0.693-0.449c-0.124-0.107-0.186-0.197-0.186-0.269c0-0.059,0.02-0.108,0.059-0.149
				s0.084-0.061,0.137-0.061c0.055,0,0.114,0.029,0.176,0.088c0.492,0.459,1.027,0.688,1.606,0.688c0.479,0,0.874-0.164,1.187-0.491
				s0.469-0.763,0.469-1.306c0-0.462-0.135-0.834-0.405-1.116s-0.614-0.422-1.03-0.422c-0.426,0-0.853,0.112-1.279,0.337
				c-0.104,0.052-0.177,0.078-0.22,0.078c-0.059,0-0.106-0.02-0.142-0.059s-0.054-0.094-0.054-0.166v-2.72h2.861
				c0.098,0,0.167,0.02,0.21,0.059s0.063,0.089,0.063,0.151c0,0.059-0.021,0.107-0.063,0.146s-0.112,0.059-0.21,0.059H43.651z"/>
		</g>
	</g>
	<g>
		<g>
			<path d="M13.888,86.813v5.718H15.5c0.101,0,0.172,0.019,0.215,0.056c0.042,0.038,0.063,0.088,0.063,0.149
				c0,0.059-0.021,0.107-0.063,0.146S15.601,92.94,15.5,92.94h-3.633c-0.098,0-0.167-0.02-0.21-0.059s-0.063-0.088-0.063-0.146
				c0-0.062,0.021-0.111,0.063-0.149c0.042-0.037,0.112-0.056,0.21-0.056h1.611v-5.303h-1.182c-0.098,0-0.168-0.02-0.212-0.059
				s-0.066-0.089-0.066-0.151c0-0.059,0.021-0.107,0.063-0.146s0.114-0.059,0.215-0.059H13.888z"/>
			<path d="M18.449,90.348c0.254-0.375,0.515-0.65,0.784-0.83s0.567-0.269,0.896-0.269c0.436,0,0.824,0.182,1.162,0.544
				c0.338,0.363,0.508,0.813,0.508,1.346c0,0.488-0.155,0.936-0.464,1.34c-0.309,0.406-0.736,0.608-1.279,0.608
				c-0.355,0-0.686-0.108-0.994-0.327s-0.549-0.553-0.725-1.006c-0.218-0.563-0.327-1.187-0.327-1.87
				c0-0.515,0.103-0.993,0.308-1.436c0.156-0.342,0.365-0.642,0.625-0.901c0.26-0.258,0.564-0.47,0.911-0.635
				c0.347-0.164,0.722-0.246,1.125-0.246c0.273,0,0.501,0.055,0.684,0.166c0.078,0.049,0.117,0.113,0.117,0.195
				c0,0.059-0.018,0.106-0.054,0.145c-0.036,0.037-0.082,0.056-0.137,0.056c-0.042,0-0.093-0.017-0.151-0.049
				c-0.133-0.065-0.299-0.098-0.498-0.098c-0.635,0-1.213,0.272-1.736,0.817c-0.522,0.546-0.784,1.194-0.784,1.946
				C18.419,89.952,18.429,90.119,18.449,90.348z M18.542,91.026c0.124,0.593,0.318,1.016,0.583,1.27s0.579,0.381,0.94,0.381
				c0.365,0,0.676-0.143,0.935-0.427c0.259-0.285,0.388-0.656,0.388-1.111c0-0.426-0.13-0.779-0.391-1.06s-0.555-0.42-0.884-0.42
				c-0.316,0-0.62,0.136-0.913,0.405C19.005,90.244,18.786,90.564,18.542,91.026z"/>
		</g>
		<g>
			<path d="M40.979,90.924H36.8c0.072,0.531,0.294,0.958,0.667,1.281c0.373,0.324,0.834,0.486,1.384,0.486
				c0.306,0,0.626-0.051,0.962-0.151s0.609-0.234,0.82-0.4c0.062-0.049,0.116-0.073,0.161-0.073c0.052,0,0.098,0.021,0.137,0.061
				c0.039,0.041,0.059,0.09,0.059,0.145s-0.026,0.109-0.078,0.161c-0.156,0.163-0.434,0.315-0.833,0.456
				c-0.399,0.143-0.808,0.213-1.228,0.213c-0.703,0-1.29-0.23-1.76-0.691c-0.47-0.46-0.706-1.018-0.706-1.672
				c0-0.596,0.221-1.107,0.662-1.533s0.987-0.64,1.638-0.64c0.67,0,1.222,0.219,1.655,0.657
				C40.773,89.66,40.986,90.227,40.979,90.924z M40.564,90.509c-0.082-0.452-0.295-0.82-0.642-1.104s-0.759-0.425-1.238-0.425
				s-0.89,0.141-1.235,0.42s-0.56,0.649-0.645,1.108H40.564z"/>
			<path d="M43.558,90.348c0.254-0.375,0.515-0.65,0.784-0.83s0.567-0.269,0.896-0.269c0.436,0,0.824,0.182,1.162,0.544
				c0.338,0.363,0.508,0.813,0.508,1.346c0,0.488-0.155,0.936-0.464,1.34c-0.309,0.406-0.736,0.608-1.279,0.608
				c-0.355,0-0.686-0.108-0.994-0.327s-0.549-0.553-0.725-1.006c-0.218-0.563-0.327-1.187-0.327-1.87
				c0-0.515,0.103-0.993,0.308-1.436c0.156-0.342,0.365-0.642,0.625-0.901c0.26-0.258,0.564-0.47,0.911-0.635
				c0.347-0.164,0.722-0.246,1.125-0.246c0.273,0,0.501,0.055,0.684,0.166c0.078,0.049,0.117,0.113,0.117,0.195
				c0,0.059-0.018,0.106-0.054,0.145c-0.036,0.037-0.082,0.056-0.137,0.056c-0.042,0-0.093-0.017-0.151-0.049
				c-0.133-0.065-0.299-0.098-0.498-0.098c-0.635,0-1.213,0.272-1.736,0.817c-0.522,0.546-0.784,1.194-0.784,1.946
				C43.529,89.952,43.539,90.119,43.558,90.348z M43.651,91.026c0.124,0.593,0.318,1.016,0.583,1.27s0.579,0.381,0.94,0.381
				c0.365,0,0.676-0.143,0.935-0.427c0.259-0.285,0.388-0.656,0.388-1.111c0-0.426-0.13-0.779-0.391-1.06s-0.555-0.42-0.884-0.42
				c-0.316,0-0.62,0.136-0.913,0.405C44.115,90.244,43.895,90.564,43.651,91.026z"/>
		</g>
	</g>
	<g>
		<g>
			<path d="M13.888,101.692v5.718H15.5c0.101,0,0.172,0.019,0.215,0.057c0.042,0.037,0.063,0.086,0.063,0.148
				c0,0.059-0.021,0.107-0.063,0.146s-0.114,0.059-0.215,0.059h-3.633c-0.098,0-0.167-0.02-0.21-0.059s-0.063-0.088-0.063-0.146
				c0-0.063,0.021-0.111,0.063-0.148c0.042-0.038,0.112-0.057,0.21-0.057h1.611v-5.303h-1.182c-0.098,0-0.168-0.02-0.212-0.059
				s-0.066-0.09-0.066-0.151c0-0.059,0.021-0.107,0.063-0.146s0.114-0.059,0.215-0.059H13.888z"/>
			<path d="M21.051,102.293v-0.186h-2.939v0.361c0,0.098-0.019,0.168-0.056,0.21s-0.087,0.063-0.149,0.063
				c-0.059,0-0.107-0.021-0.146-0.063s-0.059-0.112-0.059-0.21v-0.776h3.765v0.654l-1.65,5.273
				c-0.026,0.085-0.057,0.141-0.093,0.168c-0.036,0.028-0.077,0.042-0.122,0.042c-0.059,0-0.107-0.02-0.146-0.059
				s-0.059-0.084-0.059-0.137c0-0.033,0.01-0.078,0.029-0.137L21.051,102.293z"/>
		</g>
		<g>
			<path d="M40.979,105.804H36.8c0.072,0.53,0.294,0.958,0.667,1.282c0.373,0.323,0.834,0.485,1.384,0.485
				c0.306,0,0.626-0.05,0.962-0.151s0.609-0.234,0.82-0.4c0.062-0.049,0.116-0.073,0.161-0.073c0.052,0,0.098,0.021,0.137,0.062
				c0.039,0.04,0.059,0.088,0.059,0.144s-0.026,0.108-0.078,0.161c-0.156,0.162-0.434,0.314-0.833,0.456
				c-0.399,0.143-0.808,0.213-1.228,0.213c-0.703,0-1.29-0.23-1.76-0.69c-0.47-0.461-0.706-1.019-0.706-1.673
				c0-0.596,0.221-1.106,0.662-1.533s0.987-0.64,1.638-0.64c0.67,0,1.222,0.219,1.655,0.656
				C40.773,104.54,40.986,105.107,40.979,105.804z M40.564,105.389c-0.082-0.453-0.295-0.82-0.642-1.104s-0.759-0.425-1.238-0.425
				s-0.89,0.14-1.235,0.42s-0.56,0.649-0.645,1.108H40.564z"/>
			<path d="M46.161,102.293v-0.186h-2.939v0.361c0,0.098-0.019,0.168-0.056,0.21s-0.087,0.063-0.149,0.063
				c-0.059,0-0.107-0.021-0.146-0.063s-0.059-0.112-0.059-0.21v-0.776h3.765v0.654l-1.65,5.273
				c-0.026,0.085-0.057,0.141-0.093,0.168c-0.036,0.028-0.077,0.042-0.122,0.042c-0.059,0-0.107-0.02-0.146-0.059
				s-0.059-0.084-0.059-0.137c0-0.033,0.01-0.078,0.029-0.137L46.161,102.293z"/>
		</g>
	</g>
	<rect y="111.181" fill-rule="evenodd" clip-rule="evenodd" width="1.92" height="1.439"/>
	<rect y="95.94" fill-rule="evenodd" clip-rule="evenodd" width="1.92" height="0.96"/>
	<rect y="96.9" fill-rule="evenodd" clip-rule="evenodd" width="1.92" height="14.28"/>
	<rect y="82.38" fill-rule="evenodd" clip-rule="evenodd" width="1.92" height="13.561"/>
	<rect y="81.421" fill-rule="evenodd" clip-rule="evenodd" width="1.92" height="0.959"/>
	<rect y="66.9" fill-rule="evenodd" clip-rule="evenodd" width="1.92" height="0.961"/>
	<rect y="67.861" fill-rule="evenodd" clip-rule="evenodd" width="1.92" height="13.56"/>
	<rect y="53.34" fill-rule="evenodd" clip-rule="evenodd" width="1.92" height="13.561"/>
	<rect y="52.38" fill-rule="evenodd" clip-rule="evenodd" width="1.92" height="0.96"/>
	<rect y="37.86" fill-rule="evenodd" clip-rule="evenodd" width="1.92" height="0.96"/>
	<rect y="38.82" fill-rule="evenodd" clip-rule="evenodd" width="1.92" height="13.56"/>
	<rect y="23.34" fill-rule="evenodd" clip-rule="evenodd" width="1.92" height="0.961"/>
	<rect y="24.301" fill-rule="evenodd" clip-rule="evenodd" width="1.92" height="13.56"/>
	<rect y="7.62" fill-rule="evenodd" clip-rule="evenodd" width="1.92" height="1.439"/>
	<rect y="9.06" fill-rule="evenodd" clip-rule="evenodd" width="1.92" height="14.28"/>
	<rect x="27.12" y="9.54" width="0.96" height="13.8"/>
	<rect x="27.12" y="53.34" width="0.96" height="13.561"/>
	<rect x="27.12" y="67.861" width="0.96" height="13.56"/>
	<rect x="27.12" y="95.94" width="0.96" height="0.96"/>
	<rect x="27.12" y="96.9" width="0.96" height="13.8"/>
	<rect x="27.12" y="81.421" width="0.96" height="0.959"/>
	<rect x="27.12" y="82.38" width="0.96" height="13.561"/>
	<rect x="27.12" y="66.9" width="0.96" height="0.961"/>
	<rect x="27.12" y="52.38" width="0.96" height="0.96"/>
	<rect x="27.12" y="37.86" width="0.96" height="0.96"/>
	<rect x="27.12" y="38.82" width="0.96" height="13.56"/>
	<rect x="27.12" y="24.301" width="0.96" height="13.56"/>
	<rect x="27.12" y="23.34" width="0.96" height="0.961"/>
	<rect x="53.28" y="96.9" fill-rule="evenodd" clip-rule="evenodd" width="1.92" height="14.28"/>
	<rect x="53.28" y="111.181" fill-rule="evenodd" clip-rule="evenodd" width="1.92" height="1.439"/>
	<rect x="53.28" y="95.94" fill-rule="evenodd" clip-rule="evenodd" width="1.92" height="0.96"/>
	<rect x="53.28" y="81.421" fill-rule="evenodd" clip-rule="evenodd" width="1.92" height="0.959"/>
	<rect x="53.28" y="82.38" fill-rule="evenodd" clip-rule="evenodd" width="1.92" height="13.561"/>
	<rect x="53.28" y="66.9" fill-rule="evenodd" clip-rule="evenodd" width="1.92" height="0.961"/>
	<rect x="53.28" y="67.861" fill-rule="evenodd" clip-rule="evenodd" width="1.92" height="13.56"/>
	<rect x="53.28" y="53.34" fill-rule="evenodd" clip-rule="evenodd" width="1.92" height="13.561"/>
	<rect x="53.28" y="52.38" fill-rule="evenodd" clip-rule="evenodd" width="1.92" height="0.96"/>
	<rect x="53.28" y="37.86" fill-rule="evenodd" clip-rule="evenodd" width="1.92" height="0.96"/>
	<rect x="53.28" y="38.82" fill-rule="evenodd" clip-rule="evenodd" width="1.92" height="13.56"/>
	<rect x="53.28" y="24.301" fill-rule="evenodd" clip-rule="evenodd" width="1.92" height="13.56"/>
	<rect x="53.28" y="23.34" fill-rule="evenodd" clip-rule="evenodd" width="1.92" height="0.961"/>
	<rect x="53.28" y="9.54" fill-rule="evenodd" clip-rule="evenodd" width="1.92" height="13.8"/>
	<rect x="1.92" y="7.62" fill-rule="evenodd" clip-rule="evenodd" width="53.28" height="1.439"/>
	<rect x="1.92" y="9.06" fill-rule="evenodd" clip-rule="evenodd" width="53.28" height="0.48"/>
	<rect x="1.92" y="23.34" width="51.36" height="0.96"/>
	<rect x="1.92" y="37.86" width="51.36" height="0.96"/>
	<rect x="1.92" y="52.381" width="51.36" height="0.959"/>
	<rect x="1.92" y="66.9" width="51.36" height="0.96"/>
	<rect x="1.92" y="81.421" width="51.36" height="0.959"/>
	<rect x="1.92" y="95.941" width="51.36" height="0.959"/>
	<rect x="1.92" y="111.181" fill-rule="evenodd" clip-rule="evenodd" width="53.28" height="1.439"/>
	<rect x="1.92" y="110.7" fill-rule="evenodd" clip-rule="evenodd" width="53.28" height="0.48"/>
</g>
<g>
	<g>
		<g>
			<path d="M106.202,11.359V7.443c-0.211-0.003-0.368-0.051-0.469-0.144s-0.151-0.212-0.151-0.359c0-0.15,0.051-0.271,0.154-0.364
				s0.274-0.139,0.515-0.139l2.095,0.005c0.326,0,0.644,0.06,0.955,0.181s0.561,0.273,0.75,0.459
				c0.143,0.14,0.292,0.332,0.447,0.576s0.271,0.487,0.349,0.728s0.117,0.536,0.117,0.884v0.479c0,0.423-0.072,0.798-0.215,1.125
				s-0.331,0.594-0.564,0.801s-0.452,0.359-0.657,0.457c-0.326,0.153-0.747,0.229-1.265,0.229h-2.012
				c-0.241,0-0.413-0.046-0.515-0.139s-0.154-0.214-0.154-0.364c0-0.146,0.051-0.267,0.154-0.361S105.993,11.355,106.202,11.359z
				 M107.203,11.359h1.064c0.397,0,0.697-0.057,0.898-0.171c0.264-0.15,0.462-0.34,0.596-0.571s0.2-0.531,0.2-0.898V9.245
				c0-0.316-0.06-0.592-0.181-0.83c-0.189-0.371-0.401-0.626-0.637-0.764s-0.531-0.208-0.886-0.208h-1.055V11.359z"/>
			<path d="M115.665,10.749h-2.432l-0.244,0.61h0.244c0.241,0,0.413,0.046,0.515,0.139s0.154,0.214,0.154,0.364
				c0,0.146-0.051,0.266-0.154,0.359s-0.274,0.139-0.515,0.139h-1.348c-0.241,0-0.413-0.046-0.515-0.139s-0.154-0.214-0.154-0.364
				s0.054-0.272,0.161-0.366s0.285-0.138,0.532-0.132l1.572-3.916h-0.654c-0.241,0-0.413-0.046-0.515-0.139
				s-0.154-0.214-0.154-0.364s0.051-0.271,0.154-0.364s0.274-0.139,0.515-0.139l2.163,0.005l1.992,4.917
				c0.234,0,0.389,0.026,0.464,0.078c0.15,0.107,0.225,0.249,0.225,0.425c0,0.146-0.05,0.266-0.151,0.359s-0.272,0.139-0.513,0.139
				h-1.348c-0.241,0-0.413-0.046-0.515-0.139s-0.154-0.214-0.154-0.364c0-0.146,0.051-0.266,0.154-0.359s0.274-0.139,0.515-0.139
				h0.244L115.665,10.749z M115.25,9.748l-0.806-1.982l-0.811,1.982H115.25z"/>
			<path d="M120.948,7.443v3.916h0.674c0.241,0,0.413,0.046,0.515,0.139s0.154,0.214,0.154,0.364c0,0.146-0.051,0.266-0.154,0.359
				s-0.274,0.139-0.515,0.139h-2.344c-0.241,0-0.413-0.046-0.515-0.139s-0.154-0.214-0.154-0.364c0-0.146,0.051-0.266,0.154-0.359
				s0.274-0.139,0.515-0.139h0.669V7.443h-1.084V8.39c0,0.241-0.046,0.413-0.139,0.515s-0.214,0.154-0.364,0.154
				c-0.146,0-0.266-0.051-0.359-0.154s-0.139-0.274-0.139-0.515V6.437l5.186,0.005V8.39c0,0.241-0.046,0.413-0.139,0.515
				s-0.214,0.154-0.364,0.154c-0.146,0-0.266-0.051-0.359-0.154s-0.139-0.274-0.139-0.515V7.443H120.948z"/>
			<path d="M127.727,10.749h-2.432l-0.244,0.61h0.244c0.241,0,0.413,0.046,0.515,0.139s0.154,0.214,0.154,0.364
				c0,0.146-0.051,0.266-0.154,0.359s-0.274,0.139-0.515,0.139h-1.348c-0.241,0-0.413-0.046-0.515-0.139s-0.154-0.214-0.154-0.364
				s0.054-0.272,0.161-0.366s0.285-0.138,0.532-0.132l1.572-3.916h-0.654c-0.241,0-0.413-0.046-0.515-0.139
				s-0.154-0.214-0.154-0.364s0.051-0.271,0.154-0.364s0.274-0.139,0.515-0.139l2.163,0.005l1.992,4.917
				c0.234,0,0.389,0.026,0.464,0.078c0.15,0.107,0.225,0.249,0.225,0.425c0,0.146-0.05,0.266-0.151,0.359s-0.272,0.139-0.513,0.139
				h-1.348c-0.241,0-0.413-0.046-0.515-0.139s-0.154-0.214-0.154-0.364c0-0.146,0.051-0.266,0.154-0.359s0.274-0.139,0.515-0.139
				h0.244L127.727,10.749z M127.312,9.748l-0.806-1.982l-0.811,1.982H127.312z"/>
		</g>
		<g>
			<path d="M145.223,7.443v3.916h2.158v-0.947c0-0.241,0.046-0.413,0.139-0.515s0.214-0.154,0.364-0.154
				c0.146,0,0.266,0.051,0.359,0.154s0.139,0.274,0.139,0.515v1.948h-4.741c-0.241,0-0.413-0.046-0.515-0.139
				s-0.154-0.214-0.154-0.364c0-0.146,0.051-0.266,0.154-0.359s0.274-0.139,0.515-0.139h0.581V7.443h-0.581
				c-0.241,0-0.413-0.046-0.515-0.139s-0.154-0.214-0.154-0.364s0.051-0.271,0.154-0.364s0.274-0.139,0.515-0.139l2.168,0.005
				c0.241,0,0.413,0.045,0.515,0.137s0.154,0.211,0.154,0.361s-0.051,0.271-0.154,0.364s-0.274,0.139-0.515,0.139H145.223z"/>
			<path d="M152.875,10.749h-2.432l-0.244,0.61h0.244c0.241,0,0.413,0.046,0.515,0.139s0.154,0.214,0.154,0.364
				c0,0.146-0.051,0.266-0.154,0.359s-0.274,0.139-0.515,0.139h-1.348c-0.241,0-0.413-0.046-0.515-0.139s-0.154-0.214-0.154-0.364
				s0.054-0.272,0.161-0.366s0.285-0.138,0.532-0.132l1.572-3.916h-0.654c-0.241,0-0.413-0.046-0.515-0.139
				s-0.154-0.214-0.154-0.364s0.051-0.271,0.154-0.364s0.274-0.139,0.515-0.139l2.163,0.005l1.992,4.917
				c0.234,0,0.389,0.026,0.464,0.078c0.15,0.107,0.225,0.249,0.225,0.425c0,0.146-0.05,0.266-0.151,0.359s-0.272,0.139-0.513,0.139
				h-1.348c-0.241,0-0.413-0.046-0.515-0.139s-0.154-0.214-0.154-0.364c0-0.146,0.051-0.266,0.154-0.359s0.274-0.139,0.515-0.139
				h0.244L152.875,10.749z M152.459,9.748l-0.806-1.982l-0.811,1.982H152.459z"/>
			<path d="M155.629,11.359V7.443h-0.156c-0.241,0-0.413-0.046-0.515-0.139s-0.154-0.214-0.154-0.364s0.051-0.271,0.154-0.364
				s0.274-0.139,0.515-0.139h2.51c0.599,0,1.081,0.167,1.445,0.5s0.547,0.73,0.547,1.189c0,0.218-0.042,0.423-0.127,0.615
				s-0.213,0.37-0.386,0.532c0.316,0.189,0.553,0.409,0.71,0.662s0.237,0.538,0.237,0.857c0,0.254-0.057,0.49-0.171,0.708
				c-0.084,0.166-0.189,0.298-0.313,0.396c-0.166,0.137-0.37,0.248-0.61,0.334s-0.542,0.129-0.903,0.129h-2.939
				c-0.241,0-0.413-0.046-0.515-0.139s-0.154-0.214-0.154-0.364c0-0.146,0.052-0.266,0.156-0.359s0.275-0.139,0.513-0.139H155.629z
				 M156.63,8.898h1.099c0.394,0,0.721-0.099,0.981-0.298c0.176-0.133,0.264-0.299,0.264-0.498c0-0.176-0.083-0.33-0.249-0.461
				s-0.43-0.198-0.791-0.198h-1.304V8.898z M156.63,11.359h1.729c0.407,0,0.693-0.06,0.859-0.181c0.127-0.091,0.19-0.221,0.19-0.391
				c0-0.202-0.125-0.4-0.376-0.596s-0.61-0.293-1.079-0.293h-1.323V11.359z"/>
			<path d="M162.686,9.889v1.47h2.554v-0.542c0-0.241,0.046-0.413,0.139-0.515s0.214-0.154,0.364-0.154
				c0.146,0,0.266,0.051,0.359,0.154s0.139,0.274,0.139,0.515v1.543h-4.712c-0.241,0-0.413-0.046-0.515-0.139
				s-0.154-0.214-0.154-0.364c0-0.146,0.052-0.266,0.156-0.359s0.275-0.139,0.513-0.139h0.156V7.443h-0.156
				c-0.241,0-0.413-0.046-0.515-0.139s-0.154-0.214-0.154-0.364s0.051-0.271,0.154-0.364s0.274-0.139,0.515-0.139l4.492,0.005v1.523
				c0,0.238-0.045,0.408-0.137,0.51s-0.211,0.154-0.361,0.154s-0.271-0.05-0.364-0.151s-0.139-0.272-0.139-0.513V7.443h-2.334v1.445
				h0.879c0-0.26,0.024-0.428,0.073-0.503c0.101-0.16,0.244-0.239,0.43-0.239c0.146,0,0.266,0.051,0.359,0.154
				s0.139,0.274,0.139,0.515v1.152c0,0.218-0.026,0.365-0.078,0.439c-0.104,0.153-0.244,0.229-0.42,0.229
				c-0.186,0-0.329-0.08-0.43-0.239c-0.049-0.075-0.073-0.244-0.073-0.508H162.686z"/>
			<path d="M169.307,7.443v3.916h2.158v-0.947c0-0.241,0.046-0.413,0.139-0.515s0.214-0.154,0.364-0.154
				c0.146,0,0.266,0.051,0.359,0.154s0.139,0.274,0.139,0.515v1.948h-4.741c-0.241,0-0.413-0.046-0.515-0.139
				s-0.154-0.214-0.154-0.364c0-0.146,0.051-0.266,0.154-0.359s0.274-0.139,0.515-0.139h0.581V7.443h-0.581
				c-0.241,0-0.413-0.046-0.515-0.139s-0.154-0.214-0.154-0.364s0.051-0.271,0.154-0.364s0.274-0.139,0.515-0.139l2.168,0.005
				c0.241,0,0.413,0.045,0.515,0.137s0.154,0.211,0.154,0.361s-0.051,0.271-0.154,0.364s-0.274,0.139-0.515,0.139H169.307z"/>
			<path d="M174.273,12.106c-0.088,0.104-0.159,0.171-0.212,0.2s-0.12,0.044-0.198,0.044c-0.153,0-0.276-0.051-0.369-0.154
				s-0.139-0.272-0.139-0.51v-0.674c0-0.241,0.046-0.413,0.139-0.515s0.216-0.154,0.369-0.154c0.117,0,0.216,0.031,0.295,0.093
				s0.141,0.165,0.183,0.31s0.086,0.243,0.132,0.295c0.094,0.101,0.262,0.204,0.503,0.308s0.504,0.156,0.791,0.156
				c0.446,0,0.812-0.104,1.099-0.313c0.182-0.127,0.273-0.283,0.273-0.469c0-0.124-0.044-0.24-0.132-0.349s-0.231-0.199-0.43-0.271
				c-0.13-0.049-0.421-0.116-0.874-0.2c-0.547-0.101-0.96-0.223-1.24-0.366s-0.501-0.345-0.664-0.605s-0.244-0.542-0.244-0.845
				c0-0.479,0.2-0.897,0.601-1.257s0.921-0.54,1.563-0.54c0.257,0,0.496,0.028,0.715,0.085s0.419,0.144,0.598,0.261
				c0.13-0.127,0.26-0.19,0.391-0.19c0.146,0,0.266,0.051,0.359,0.154s0.139,0.272,0.139,0.51v0.752
				c0,0.241-0.046,0.413-0.139,0.515s-0.212,0.154-0.359,0.154c-0.124,0-0.231-0.038-0.322-0.112
				c-0.072-0.055-0.125-0.166-0.161-0.332s-0.082-0.285-0.137-0.356c-0.094-0.124-0.236-0.228-0.425-0.313s-0.407-0.127-0.654-0.127
				c-0.361,0-0.647,0.084-0.857,0.251s-0.315,0.343-0.315,0.525c0,0.124,0.043,0.243,0.129,0.359s0.212,0.206,0.378,0.271
				c0.111,0.045,0.422,0.119,0.935,0.22s0.907,0.211,1.182,0.332s0.504,0.309,0.686,0.566s0.273,0.563,0.273,0.918
				c0,0.495-0.174,0.89-0.522,1.187c-0.462,0.391-1.051,0.586-1.768,0.586c-0.277,0-0.546-0.033-0.808-0.1
				S174.521,12.239,174.273,12.106z"/>
		</g>
	</g>
	<g>
		<g>
			<path d="M117.979,25.224h-4.18c0.072,0.531,0.294,0.958,0.667,1.282s0.834,0.486,1.384,0.486c0.306,0,0.626-0.05,0.962-0.151
				s0.609-0.234,0.82-0.4c0.062-0.049,0.116-0.073,0.161-0.073c0.052,0,0.098,0.021,0.137,0.061s0.059,0.089,0.059,0.144
				s-0.026,0.109-0.078,0.161c-0.156,0.163-0.434,0.315-0.833,0.457s-0.808,0.212-1.228,0.212c-0.703,0-1.29-0.23-1.76-0.691
				s-0.706-1.018-0.706-1.672c0-0.596,0.221-1.107,0.662-1.533s0.987-0.64,1.638-0.64c0.67,0,1.222,0.219,1.655,0.657
				S117.986,24.527,117.979,25.224z M117.564,24.809c-0.082-0.453-0.295-0.82-0.642-1.104s-0.759-0.425-1.238-0.425
				s-0.89,0.14-1.235,0.42s-0.56,0.649-0.645,1.108H117.564z"/>
			<path d="M121.984,21.029v5.801h1.406c0.098,0,0.167,0.019,0.21,0.056s0.063,0.087,0.063,0.149c0,0.059-0.021,0.107-0.063,0.146
				s-0.112,0.059-0.21,0.059h-3.223c-0.098,0-0.167-0.02-0.21-0.059s-0.063-0.088-0.063-0.146c0-0.062,0.021-0.111,0.063-0.149
				s0.112-0.056,0.21-0.056h1.406v-5.234l-1.338,0.42c-0.065,0.02-0.112,0.029-0.142,0.029c-0.049,0-0.094-0.021-0.134-0.061
				s-0.061-0.089-0.061-0.144c0-0.049,0.016-0.094,0.049-0.137c0.026-0.026,0.08-0.054,0.161-0.083L121.984,21.029z"/>
		</g>
		<g>
			<path d="M158.208,21.112v5.718h1.611c0.101,0,0.172,0.019,0.215,0.056s0.063,0.087,0.063,0.149c0,0.059-0.021,0.107-0.063,0.146
				s-0.114,0.059-0.215,0.059h-3.633c-0.098,0-0.167-0.02-0.21-0.059s-0.063-0.088-0.063-0.146c0-0.062,0.021-0.111,0.063-0.149
				s0.112-0.056,0.21-0.056h1.611v-5.303h-1.182c-0.098,0-0.168-0.02-0.212-0.059s-0.066-0.089-0.066-0.151
				c0-0.059,0.021-0.107,0.063-0.146s0.114-0.059,0.215-0.059H158.208z"/>
			<path d="M164.194,21.029v5.801h1.406c0.098,0,0.167,0.019,0.21,0.056s0.063,0.087,0.063,0.149c0,0.059-0.021,0.107-0.063,0.146
				s-0.112,0.059-0.21,0.059h-3.223c-0.098,0-0.167-0.02-0.21-0.059s-0.063-0.088-0.063-0.146c0-0.062,0.021-0.111,0.063-0.149
				s0.112-0.056,0.21-0.056h1.406v-5.234l-1.338,0.42c-0.065,0.02-0.112,0.029-0.142,0.029c-0.049,0-0.094-0.021-0.134-0.061
				s-0.061-0.089-0.061-0.144c0-0.049,0.016-0.094,0.049-0.137c0.026-0.026,0.08-0.054,0.161-0.083L164.194,21.029z"/>
		</g>
	</g>
	<g>
		<g>
			<path d="M117.979,39.744h-4.18c0.072,0.531,0.294,0.958,0.667,1.282s0.834,0.486,1.384,0.486c0.306,0,0.626-0.05,0.962-0.151
				s0.609-0.234,0.82-0.4c0.062-0.049,0.116-0.073,0.161-0.073c0.052,0,0.098,0.021,0.137,0.061s0.059,0.089,0.059,0.144
				s-0.026,0.109-0.078,0.161c-0.156,0.163-0.434,0.315-0.833,0.457s-0.808,0.212-1.228,0.212c-0.703,0-1.29-0.23-1.76-0.691
				s-0.706-1.018-0.706-1.672c0-0.596,0.221-1.107,0.662-1.533s0.987-0.64,1.638-0.64c0.67,0,1.222,0.219,1.655,0.657
				S117.986,39.047,117.979,39.744z M117.564,39.329c-0.082-0.453-0.295-0.82-0.642-1.104s-0.759-0.425-1.238-0.425
				s-0.89,0.14-1.235,0.42s-0.56,0.649-0.645,1.108H117.564z"/>
			<path d="M120.016,41.35h3.149v-0.161c0-0.098,0.02-0.167,0.059-0.21s0.089-0.063,0.151-0.063c0.059,0,0.107,0.021,0.146,0.063
				s0.059,0.112,0.059,0.21v0.571h-3.965v-0.605c0.833-0.749,1.644-1.51,2.432-2.285c0.368-0.361,0.62-0.626,0.757-0.796
				s0.23-0.318,0.281-0.447s0.076-0.258,0.076-0.388c0-0.352-0.142-0.663-0.425-0.933s-0.625-0.405-1.025-0.405
				c-0.358,0-0.675,0.103-0.952,0.308s-0.456,0.459-0.537,0.762c-0.02,0.078-0.044,0.128-0.073,0.151
				c-0.039,0.033-0.084,0.049-0.137,0.049c-0.055,0-0.102-0.019-0.139-0.056s-0.056-0.082-0.056-0.134
				c0-0.156,0.085-0.368,0.256-0.635s0.407-0.477,0.708-0.63s0.609-0.229,0.925-0.229c0.511,0,0.951,0.177,1.318,0.532
				s0.552,0.757,0.552,1.206c0,0.189-0.031,0.362-0.093,0.52s-0.167,0.331-0.315,0.518s-0.414,0.47-0.798,0.847
				c-0.963,0.951-1.748,1.688-2.354,2.212V41.35z"/>
		</g>
		<g>
			<path d="M158.208,35.632v5.718h1.611c0.101,0,0.172,0.019,0.215,0.056s0.063,0.087,0.063,0.149c0,0.059-0.021,0.107-0.063,0.146
				s-0.114,0.059-0.215,0.059h-3.633c-0.098,0-0.167-0.02-0.21-0.059s-0.063-0.088-0.063-0.146c0-0.062,0.021-0.111,0.063-0.149
				s0.112-0.056,0.21-0.056h1.611v-5.303h-1.182c-0.098,0-0.168-0.02-0.212-0.059s-0.066-0.089-0.066-0.151
				c0-0.059,0.021-0.107,0.063-0.146s0.114-0.059,0.215-0.059H158.208z"/>
			<path d="M162.227,41.35h3.149v-0.161c0-0.098,0.02-0.167,0.059-0.21s0.089-0.063,0.151-0.063c0.059,0,0.107,0.021,0.146,0.063
				s0.059,0.112,0.059,0.21v0.571h-3.965v-0.605c0.833-0.749,1.644-1.51,2.432-2.285c0.368-0.361,0.62-0.626,0.757-0.796
				s0.23-0.318,0.281-0.447s0.076-0.258,0.076-0.388c0-0.352-0.142-0.663-0.425-0.933s-0.625-0.405-1.025-0.405
				c-0.358,0-0.675,0.103-0.952,0.308s-0.456,0.459-0.537,0.762c-0.02,0.078-0.044,0.128-0.073,0.151
				c-0.039,0.033-0.084,0.049-0.137,0.049c-0.055,0-0.102-0.019-0.139-0.056s-0.056-0.082-0.056-0.134
				c0-0.156,0.085-0.368,0.256-0.635s0.407-0.477,0.708-0.63s0.609-0.229,0.925-0.229c0.511,0,0.951,0.177,1.318,0.532
				s0.552,0.757,0.552,1.206c0,0.189-0.031,0.362-0.093,0.52s-0.167,0.331-0.315,0.518s-0.414,0.47-0.798,0.847
				c-0.963,0.951-1.748,1.688-2.354,2.212V41.35z"/>
		</g>
	</g>
	<g>
		<g>
			<path d="M117.979,54.264h-4.18c0.072,0.531,0.294,0.958,0.667,1.282s0.834,0.486,1.384,0.486c0.306,0,0.626-0.05,0.962-0.151
				s0.609-0.234,0.82-0.4c0.062-0.049,0.116-0.073,0.161-0.073c0.052,0,0.098,0.021,0.137,0.061s0.059,0.089,0.059,0.144
				s-0.026,0.109-0.078,0.161c-0.156,0.163-0.434,0.315-0.833,0.457s-0.808,0.212-1.228,0.212c-0.703,0-1.29-0.23-1.76-0.691
				s-0.706-1.018-0.706-1.672c0-0.596,0.221-1.107,0.662-1.533s0.987-0.64,1.638-0.64c0.67,0,1.222,0.219,1.655,0.657
				S117.986,53.567,117.979,54.264z M117.564,53.849c-0.082-0.453-0.295-0.82-0.642-1.104s-0.759-0.425-1.238-0.425
				s-0.89,0.14-1.235,0.42s-0.56,0.649-0.645,1.108H117.564z"/>
			<path d="M122.624,52.945c0.377,0.169,0.666,0.401,0.864,0.696s0.298,0.602,0.298,0.92c0,0.492-0.199,0.925-0.598,1.301
				s-0.897,0.564-1.497,0.564c-0.352,0-0.716-0.075-1.094-0.225s-0.641-0.303-0.791-0.459c-0.049-0.052-0.073-0.107-0.073-0.166
				c0-0.052,0.019-0.098,0.056-0.137s0.082-0.059,0.134-0.059s0.111,0.024,0.176,0.073c0.504,0.375,1.039,0.562,1.602,0.562
				c0.475,0,0.873-0.149,1.194-0.447s0.481-0.629,0.481-0.994c0-0.244-0.079-0.483-0.237-0.718s-0.385-0.419-0.681-0.554
				s-0.596-0.203-0.898-0.203c-0.098,0-0.167-0.019-0.21-0.056s-0.063-0.087-0.063-0.149c0-0.059,0.021-0.107,0.061-0.146
				s0.102-0.059,0.183-0.059l0.352,0.005c0.368,0,0.671-0.112,0.911-0.337s0.359-0.485,0.359-0.781c0-0.306-0.125-0.576-0.376-0.811
				s-0.578-0.352-0.981-0.352c-0.283,0-0.543,0.049-0.781,0.146s-0.428,0.231-0.571,0.4c-0.052,0.065-0.092,0.105-0.12,0.12
				s-0.06,0.022-0.095,0.022c-0.055,0-0.103-0.019-0.142-0.056s-0.059-0.082-0.059-0.134c0-0.13,0.142-0.294,0.425-0.493
				c0.394-0.277,0.841-0.415,1.343-0.415c0.518,0,0.942,0.155,1.274,0.466s0.498,0.681,0.498,1.111c0,0.273-0.08,0.532-0.239,0.776
				S122.933,52.799,122.624,52.945z"/>
		</g>
		<g>
			<path d="M158.208,50.152v5.718h1.611c0.101,0,0.172,0.019,0.215,0.056s0.063,0.087,0.063,0.149c0,0.059-0.021,0.107-0.063,0.146
				s-0.114,0.059-0.215,0.059h-3.633c-0.098,0-0.167-0.02-0.21-0.059s-0.063-0.088-0.063-0.146c0-0.062,0.021-0.111,0.063-0.149
				s0.112-0.056,0.21-0.056h1.611v-5.303h-1.182c-0.098,0-0.168-0.02-0.212-0.059s-0.066-0.089-0.066-0.151
				c0-0.059,0.021-0.107,0.063-0.146s0.114-0.059,0.215-0.059H158.208z"/>
			<path d="M164.834,52.945c0.377,0.169,0.666,0.401,0.864,0.696s0.298,0.602,0.298,0.92c0,0.492-0.199,0.925-0.598,1.301
				s-0.897,0.564-1.497,0.564c-0.352,0-0.716-0.075-1.094-0.225s-0.641-0.303-0.791-0.459c-0.049-0.052-0.073-0.107-0.073-0.166
				c0-0.052,0.019-0.098,0.056-0.137s0.082-0.059,0.134-0.059s0.111,0.024,0.176,0.073c0.504,0.375,1.039,0.562,1.602,0.562
				c0.475,0,0.873-0.149,1.194-0.447s0.481-0.629,0.481-0.994c0-0.244-0.079-0.483-0.237-0.718s-0.385-0.419-0.681-0.554
				s-0.596-0.203-0.898-0.203c-0.098,0-0.167-0.019-0.21-0.056s-0.063-0.087-0.063-0.149c0-0.059,0.021-0.107,0.061-0.146
				s0.102-0.059,0.183-0.059l0.352,0.005c0.368,0,0.671-0.112,0.911-0.337s0.359-0.485,0.359-0.781c0-0.306-0.125-0.576-0.376-0.811
				s-0.578-0.352-0.981-0.352c-0.283,0-0.543,0.049-0.781,0.146s-0.428,0.231-0.571,0.4c-0.052,0.065-0.092,0.105-0.12,0.12
				s-0.06,0.022-0.095,0.022c-0.055,0-0.103-0.019-0.142-0.056s-0.059-0.082-0.059-0.134c0-0.13,0.142-0.294,0.425-0.493
				c0.394-0.277,0.841-0.415,1.343-0.415c0.518,0,0.942,0.155,1.274,0.466s0.498,0.681,0.498,1.111c0,0.273-0.08,0.532-0.239,0.776
				S165.143,52.799,164.834,52.945z"/>
		</g>
	</g>
	<g>
		<g>
			<path d="M117.979,68.784h-4.18c0.072,0.531,0.294,0.958,0.667,1.282s0.834,0.486,1.384,0.486c0.306,0,0.626-0.05,0.962-0.151
				s0.609-0.234,0.82-0.4c0.062-0.049,0.116-0.073,0.161-0.073c0.052,0,0.098,0.021,0.137,0.061s0.059,0.089,0.059,0.144
				s-0.026,0.109-0.078,0.161c-0.156,0.163-0.434,0.315-0.833,0.457s-0.808,0.212-1.228,0.212c-0.703,0-1.29-0.23-1.76-0.691
				s-0.706-1.018-0.706-1.672c0-0.596,0.221-1.107,0.662-1.533s0.987-0.64,1.638-0.64c0.67,0,1.222,0.219,1.655,0.657
				S117.986,68.087,117.979,68.784z M117.564,68.369c-0.082-0.453-0.295-0.82-0.642-1.104s-0.759-0.425-1.238-0.425
				s-0.89,0.14-1.235,0.42s-0.56,0.649-0.645,1.108H117.564z"/>
			<path d="M122.545,69.086h-2.72v-0.474l2.28-3.94h0.854v4.004h0.342c0.101,0,0.172,0.019,0.215,0.056s0.063,0.087,0.063,0.149
				c0,0.059-0.021,0.107-0.063,0.146s-0.114,0.059-0.215,0.059h-0.342v1.304h0.342c0.101,0,0.172,0.019,0.215,0.056
				s0.063,0.087,0.063,0.149c0,0.059-0.021,0.107-0.063,0.146s-0.114,0.059-0.215,0.059h-1.523c-0.101,0-0.172-0.02-0.215-0.059
				s-0.063-0.088-0.063-0.146c0-0.062,0.021-0.111,0.063-0.149s0.114-0.056,0.215-0.056h0.767V69.086z M122.545,68.676v-3.589
				h-0.215l-2.075,3.589H122.545z"/>
		</g>
		<g>
			<path d="M158.208,64.672v5.718h1.611c0.101,0,0.172,0.019,0.215,0.056s0.063,0.087,0.063,0.149c0,0.059-0.021,0.107-0.063,0.146
				s-0.114,0.059-0.215,0.059h-3.633c-0.098,0-0.167-0.02-0.21-0.059s-0.063-0.088-0.063-0.146c0-0.062,0.021-0.111,0.063-0.149
				s0.112-0.056,0.21-0.056h1.611v-5.303h-1.182c-0.098,0-0.168-0.02-0.212-0.059s-0.066-0.089-0.066-0.151
				c0-0.059,0.021-0.107,0.063-0.146s0.114-0.059,0.215-0.059H158.208z"/>
			<path d="M164.756,69.086h-2.72v-0.474l2.28-3.94h0.854v4.004h0.342c0.101,0,0.172,0.019,0.215,0.056s0.063,0.087,0.063,0.149
				c0,0.059-0.021,0.107-0.063,0.146s-0.114,0.059-0.215,0.059h-0.342v1.304h0.342c0.101,0,0.172,0.019,0.215,0.056
				s0.063,0.087,0.063,0.149c0,0.059-0.021,0.107-0.063,0.146s-0.114,0.059-0.215,0.059h-1.523c-0.101,0-0.172-0.02-0.215-0.059
				s-0.063-0.088-0.063-0.146c0-0.062,0.021-0.111,0.063-0.149s0.114-0.056,0.215-0.056h0.767V69.086z M164.756,68.676v-3.589
				h-0.215l-2.075,3.589H164.756z"/>
		</g>
	</g>
	<g>
		<g>
			<path d="M117.979,83.304h-4.18c0.072,0.531,0.294,0.958,0.667,1.282s0.834,0.486,1.384,0.486c0.306,0,0.626-0.05,0.962-0.151
				s0.609-0.234,0.82-0.4c0.062-0.049,0.116-0.073,0.161-0.073c0.052,0,0.098,0.021,0.137,0.061s0.059,0.089,0.059,0.144
				s-0.026,0.109-0.078,0.161c-0.156,0.163-0.434,0.314-0.833,0.457c-0.399,0.141-0.808,0.212-1.228,0.212
				c-0.703,0-1.29-0.23-1.76-0.691s-0.706-1.018-0.706-1.672c0-0.596,0.221-1.107,0.662-1.533s0.987-0.64,1.638-0.64
				c0.67,0,1.222,0.219,1.655,0.657S117.986,82.607,117.979,83.304z M117.564,82.889c-0.082-0.453-0.295-0.82-0.642-1.104
				s-0.759-0.425-1.238-0.425s-0.89,0.14-1.235,0.42s-0.56,0.649-0.645,1.108H117.564z"/>
			<path d="M120.651,79.607v2.007c0.241-0.101,0.472-0.177,0.693-0.227s0.431-0.076,0.63-0.076c0.514,0,0.945,0.181,1.292,0.542
				s0.52,0.836,0.52,1.426c0,0.651-0.195,1.178-0.586,1.582c-0.391,0.404-0.879,0.605-1.465,0.605c-0.387,0-0.76-0.086-1.118-0.259
				c-0.254-0.12-0.485-0.27-0.693-0.449c-0.124-0.107-0.186-0.197-0.186-0.269c0-0.059,0.02-0.108,0.059-0.149
				s0.084-0.061,0.137-0.061c0.055,0,0.114,0.029,0.176,0.088c0.492,0.459,1.027,0.688,1.606,0.688c0.479,0,0.874-0.164,1.187-0.491
				s0.469-0.763,0.469-1.306c0-0.462-0.135-0.834-0.405-1.116s-0.614-0.422-1.03-0.422c-0.426,0-0.853,0.112-1.279,0.337
				c-0.104,0.052-0.177,0.078-0.22,0.078c-0.059,0-0.106-0.02-0.142-0.059s-0.054-0.094-0.054-0.166v-2.72h2.861
				c0.098,0,0.167,0.02,0.21,0.059s0.063,0.089,0.063,0.151c0,0.059-0.021,0.107-0.063,0.146s-0.112,0.059-0.21,0.059H120.651z"/>
		</g>
		<g>
			<path d="M158.208,79.192v5.718h1.611c0.101,0,0.172,0.019,0.215,0.056s0.063,0.087,0.063,0.149c0,0.059-0.021,0.107-0.063,0.146
				s-0.114,0.059-0.215,0.059h-3.633c-0.098,0-0.167-0.02-0.21-0.059s-0.063-0.088-0.063-0.146c0-0.062,0.021-0.111,0.063-0.149
				s0.112-0.056,0.21-0.056h1.611v-5.303h-1.182c-0.098,0-0.168-0.02-0.212-0.059s-0.066-0.089-0.066-0.151
				c0-0.059,0.021-0.107,0.063-0.146s0.114-0.059,0.215-0.059H158.208z"/>
			<path d="M162.861,79.607v2.007c0.241-0.101,0.472-0.177,0.693-0.227s0.431-0.076,0.63-0.076c0.514,0,0.945,0.181,1.292,0.542
				s0.52,0.836,0.52,1.426c0,0.651-0.195,1.178-0.586,1.582c-0.391,0.404-0.879,0.605-1.465,0.605c-0.387,0-0.76-0.086-1.118-0.259
				c-0.254-0.12-0.485-0.27-0.693-0.449c-0.124-0.107-0.186-0.197-0.186-0.269c0-0.059,0.02-0.108,0.059-0.149
				s0.084-0.061,0.137-0.061c0.055,0,0.114,0.029,0.176,0.088c0.492,0.459,1.027,0.688,1.606,0.688c0.479,0,0.874-0.164,1.187-0.491
				s0.469-0.763,0.469-1.306c0-0.462-0.135-0.834-0.405-1.116s-0.614-0.422-1.03-0.422c-0.426,0-0.853,0.112-1.279,0.337
				c-0.104,0.052-0.177,0.078-0.22,0.078c-0.059,0-0.106-0.02-0.142-0.059s-0.054-0.094-0.054-0.166v-2.72h2.861
				c0.098,0,0.167,0.02,0.21,0.059s0.063,0.089,0.063,0.151c0,0.059-0.021,0.107-0.063,0.146s-0.112,0.059-0.21,0.059H162.861z"/>
		</g>
	</g>
	<g>
		<g>
			<path d="M117.979,98.184h-4.18c0.072,0.531,0.294,0.958,0.667,1.281c0.373,0.324,0.834,0.486,1.384,0.486
				c0.306,0,0.626-0.051,0.962-0.151s0.609-0.234,0.82-0.4c0.062-0.049,0.116-0.073,0.161-0.073c0.052,0,0.098,0.021,0.137,0.061
				c0.039,0.041,0.059,0.09,0.059,0.145s-0.026,0.109-0.078,0.161c-0.156,0.163-0.434,0.315-0.833,0.456
				c-0.399,0.143-0.808,0.213-1.228,0.213c-0.703,0-1.29-0.23-1.76-0.691c-0.47-0.46-0.706-1.018-0.706-1.672
				c0-0.596,0.221-1.107,0.662-1.533s0.987-0.64,1.638-0.64c0.67,0,1.222,0.219,1.655,0.657
				C117.773,96.92,117.986,97.486,117.979,98.184z M117.564,97.769c-0.082-0.452-0.295-0.82-0.642-1.104s-0.759-0.425-1.238-0.425
				s-0.89,0.141-1.235,0.42s-0.56,0.649-0.645,1.108H117.564z"/>
			<path d="M120.558,97.607c0.254-0.375,0.515-0.65,0.784-0.83s0.567-0.269,0.896-0.269c0.436,0,0.824,0.182,1.162,0.544
				c0.338,0.363,0.508,0.813,0.508,1.346c0,0.488-0.155,0.936-0.464,1.34c-0.309,0.406-0.736,0.608-1.279,0.608
				c-0.355,0-0.686-0.109-0.994-0.327c-0.308-0.219-0.549-0.553-0.725-1.006c-0.218-0.563-0.327-1.187-0.327-1.87
				c0-0.515,0.103-0.993,0.308-1.436c0.156-0.342,0.365-0.642,0.625-0.901c0.26-0.258,0.564-0.47,0.911-0.635
				c0.347-0.164,0.722-0.246,1.125-0.246c0.273,0,0.501,0.055,0.684,0.166c0.078,0.049,0.117,0.113,0.117,0.195
				c0,0.059-0.018,0.106-0.054,0.145c-0.036,0.037-0.082,0.056-0.137,0.056c-0.042,0-0.093-0.017-0.151-0.049
				c-0.133-0.065-0.299-0.098-0.498-0.098c-0.635,0-1.213,0.272-1.736,0.817c-0.522,0.546-0.784,1.194-0.784,1.946
				C120.529,97.212,120.539,97.379,120.558,97.607z M120.651,98.286c0.124,0.593,0.318,1.016,0.583,1.27s0.579,0.381,0.94,0.381
				c0.365,0,0.676-0.143,0.935-0.427c0.259-0.285,0.388-0.656,0.388-1.111c0-0.426-0.13-0.779-0.391-1.06s-0.555-0.42-0.884-0.42
				c-0.316,0-0.62,0.136-0.913,0.405C121.115,97.504,120.895,97.824,120.651,98.286z"/>
		</g>
		<g>
			<path d="M158.208,94.072v5.718h1.611c0.101,0,0.172,0.019,0.215,0.056c0.042,0.038,0.063,0.088,0.063,0.149
				c0,0.059-0.021,0.107-0.063,0.146s-0.114,0.059-0.215,0.059h-3.633c-0.098,0-0.167-0.02-0.21-0.059s-0.063-0.088-0.063-0.146
				c0-0.062,0.021-0.111,0.063-0.149c0.042-0.037,0.112-0.056,0.21-0.056h1.611v-5.303h-1.182c-0.098,0-0.168-0.02-0.212-0.059
				s-0.066-0.089-0.066-0.151c0-0.059,0.021-0.107,0.063-0.146s0.114-0.059,0.215-0.059H158.208z"/>
			<path d="M162.769,97.607c0.254-0.375,0.515-0.65,0.784-0.83s0.567-0.269,0.896-0.269c0.436,0,0.824,0.182,1.162,0.544
				c0.338,0.363,0.508,0.813,0.508,1.346c0,0.488-0.155,0.936-0.464,1.34c-0.309,0.406-0.736,0.608-1.279,0.608
				c-0.355,0-0.686-0.109-0.994-0.327c-0.308-0.219-0.549-0.553-0.725-1.006c-0.218-0.563-0.327-1.187-0.327-1.87
				c0-0.515,0.103-0.993,0.308-1.436c0.156-0.342,0.365-0.642,0.625-0.901c0.26-0.258,0.564-0.47,0.911-0.635
				c0.347-0.164,0.722-0.246,1.125-0.246c0.273,0,0.501,0.055,0.684,0.166c0.078,0.049,0.117,0.113,0.117,0.195
				c0,0.059-0.018,0.106-0.054,0.145c-0.036,0.037-0.082,0.056-0.137,0.056c-0.042,0-0.093-0.017-0.151-0.049
				c-0.133-0.065-0.299-0.098-0.498-0.098c-0.635,0-1.213,0.272-1.736,0.817c-0.522,0.546-0.784,1.194-0.784,1.946
				C162.739,97.212,162.749,97.379,162.769,97.607z M162.861,98.286c0.124,0.593,0.318,1.016,0.583,1.27s0.579,0.381,0.94,0.381
				c0.365,0,0.676-0.143,0.935-0.427c0.259-0.285,0.388-0.656,0.388-1.111c0-0.426-0.13-0.779-0.391-1.06s-0.555-0.42-0.884-0.42
				c-0.316,0-0.62,0.136-0.913,0.405C163.325,97.504,163.105,97.824,162.861,98.286z"/>
		</g>
	</g>
	<g>
		<g>
			<path d="M117.979,113.424h-4.18c0.072,0.53,0.294,0.958,0.667,1.281c0.373,0.324,0.834,0.486,1.384,0.486
				c0.306,0,0.626-0.051,0.962-0.151s0.609-0.234,0.82-0.4c0.062-0.049,0.116-0.073,0.161-0.073c0.052,0,0.098,0.021,0.137,0.061
				c0.039,0.041,0.059,0.089,0.059,0.145s-0.026,0.109-0.078,0.161c-0.156,0.163-0.434,0.315-0.833,0.456
				c-0.399,0.143-0.808,0.213-1.228,0.213c-0.703,0-1.29-0.23-1.76-0.691c-0.47-0.46-0.706-1.018-0.706-1.672
				c0-0.596,0.221-1.106,0.662-1.533s0.987-0.64,1.638-0.64c0.67,0,1.222,0.219,1.655,0.657
				C117.773,112.16,117.986,112.728,117.979,113.424z M117.564,113.009c-0.082-0.452-0.295-0.82-0.642-1.104
				s-0.759-0.425-1.238-0.425s-0.89,0.14-1.235,0.42s-0.56,0.649-0.645,1.108H117.564z"/>
			<path d="M123.161,109.913v-0.186h-2.939v0.361c0,0.098-0.019,0.168-0.056,0.21s-0.087,0.063-0.149,0.063
				c-0.059,0-0.107-0.021-0.146-0.063s-0.059-0.112-0.059-0.21v-0.776h3.765v0.654l-1.65,5.273
				c-0.026,0.085-0.057,0.141-0.093,0.168c-0.036,0.028-0.077,0.042-0.122,0.042c-0.059,0-0.107-0.02-0.146-0.059
				s-0.059-0.085-0.059-0.137c0-0.032,0.01-0.078,0.029-0.137L123.161,109.913z"/>
		</g>
		<g>
			<path d="M158.208,109.313v5.718h1.611c0.101,0,0.172,0.019,0.215,0.056c0.042,0.038,0.063,0.088,0.063,0.149
				c0,0.059-0.021,0.107-0.063,0.146s-0.114,0.059-0.215,0.059h-3.633c-0.098,0-0.167-0.02-0.21-0.059s-0.063-0.088-0.063-0.146
				c0-0.062,0.021-0.111,0.063-0.149c0.042-0.037,0.112-0.056,0.21-0.056h1.611v-5.303h-1.182c-0.098,0-0.168-0.02-0.212-0.059
				s-0.066-0.09-0.066-0.151c0-0.059,0.021-0.107,0.063-0.146s0.114-0.059,0.215-0.059H158.208z"/>
			<path d="M165.371,109.913v-0.186h-2.939v0.361c0,0.098-0.019,0.168-0.056,0.21s-0.087,0.063-0.149,0.063
				c-0.059,0-0.107-0.021-0.146-0.063s-0.059-0.112-0.059-0.21v-0.776h3.765v0.654l-1.65,5.273
				c-0.026,0.085-0.057,0.141-0.093,0.168c-0.036,0.028-0.077,0.042-0.122,0.042c-0.059,0-0.107-0.02-0.146-0.059
				s-0.059-0.085-0.059-0.137c0-0.032,0.01-0.078,0.029-0.137L165.371,109.913z"/>
		</g>
	</g>
	<rect x="136.4" y="1.92" width="0.96" height="13.32"/>
	<rect x="98" y="73.801" fill-rule="evenodd" clip-rule="evenodd" width="1.92" height="0.959"/>
	<rect x="98" y="88.32" fill-rule="evenodd" clip-rule="evenodd" width="1.92" height="0.96"/>
	<rect x="98" y="118.8" fill-rule="evenodd" clip-rule="evenodd" width="1.92" height="1.44"/>
	<rect x="98" y="104.521" fill-rule="evenodd" clip-rule="evenodd" width="1.92" height="14.278"/>
	<rect x="98" y="103.561" fill-rule="evenodd" clip-rule="evenodd" width="1.92" height="0.961"/>
	<rect x="98" y="89.28" fill-rule="evenodd" clip-rule="evenodd" width="1.92" height="14.28"/>
	<rect x="98" y="74.76" fill-rule="evenodd" clip-rule="evenodd" width="1.92" height="13.561"/>
	<rect x="98" y="60.241" fill-rule="evenodd" clip-rule="evenodd" width="1.92" height="13.56"/>
	<rect x="98" y="59.28" fill-rule="evenodd" clip-rule="evenodd" width="1.92" height="0.961"/>
	<rect x="98" y="45.72" fill-rule="evenodd" clip-rule="evenodd" width="1.92" height="13.561"/>
	<rect x="98" y="44.76" fill-rule="evenodd" clip-rule="evenodd" width="1.92" height="0.96"/>
	<rect x="98" y="31.2" fill-rule="evenodd" clip-rule="evenodd" width="1.92" height="13.56"/>
	<rect x="98" y="30.24" fill-rule="evenodd" clip-rule="evenodd" width="1.92" height="0.96"/>
	<rect x="98" y="15.72" fill-rule="evenodd" clip-rule="evenodd" width="1.92" height="0.961"/>
	<rect x="98" y="16.681" fill-rule="evenodd" clip-rule="evenodd" width="1.92" height="13.56"/>
	<rect x="98" fill-rule="evenodd" clip-rule="evenodd" width="1.92" height="1.439"/>
	<rect x="98" y="1.439" fill-rule="evenodd" clip-rule="evenodd" width="1.92" height="14.28"/>
	<rect x="136.4" y="45.72" width="0.96" height="13.561"/>
	<rect x="136.4" y="104.521" width="0.96" height="13.799"/>
	<rect x="136.4" y="103.561" width="0.96" height="0.961"/>
	<rect x="136.4" y="88.32" width="0.96" height="0.96"/>
	<rect x="136.4" y="89.28" width="0.96" height="14.28"/>
	<rect x="136.4" y="73.801" width="0.96" height="0.959"/>
	<rect x="136.4" y="74.76" width="0.96" height="13.561"/>
	<rect x="136.4" y="60.241" width="0.96" height="13.56"/>
	<rect x="136.4" y="59.28" width="0.96" height="0.961"/>
	<rect x="136.4" y="44.76" width="0.96" height="0.96"/>
	<rect x="136.4" y="31.2" width="0.96" height="13.56"/>
	<rect x="136.4" y="30.24" width="0.96" height="0.96"/>
	<rect x="136.4" y="17.16" width="0.96" height="13.08"/>
	<rect x="179.48" y="88.32" fill-rule="evenodd" clip-rule="evenodd" width="1.92" height="0.96"/>
	<rect x="179.48" y="104.521" fill-rule="evenodd" clip-rule="evenodd" width="1.92" height="14.278"/>
	<rect x="179.48" y="118.8" fill-rule="evenodd" clip-rule="evenodd" width="1.92" height="1.44"/>
	<rect x="179.48" y="103.561" fill-rule="evenodd" clip-rule="evenodd" width="1.92" height="0.961"/>
	<rect x="179.48" y="89.28" fill-rule="evenodd" clip-rule="evenodd" width="1.92" height="14.28"/>
	<rect x="179.48" y="73.801" fill-rule="evenodd" clip-rule="evenodd" width="1.92" height="0.959"/>
	<rect x="179.48" y="74.76" fill-rule="evenodd" clip-rule="evenodd" width="1.92" height="13.561"/>
	<rect x="179.48" y="59.28" fill-rule="evenodd" clip-rule="evenodd" width="1.92" height="0.961"/>
	<rect x="179.48" y="60.241" fill-rule="evenodd" clip-rule="evenodd" width="1.92" height="13.56"/>
	<rect x="179.48" y="44.76" fill-rule="evenodd" clip-rule="evenodd" width="1.92" height="0.96"/>
	<rect x="179.48" y="45.72" fill-rule="evenodd" clip-rule="evenodd" width="1.92" height="13.561"/>
	<rect x="179.48" y="31.2" fill-rule="evenodd" clip-rule="evenodd" width="1.92" height="13.56"/>
	<rect x="179.48" y="30.24" fill-rule="evenodd" clip-rule="evenodd" width="1.92" height="0.96"/>
	<rect x="179.48" y="15.72" fill-rule="evenodd" clip-rule="evenodd" width="1.92" height="0.961"/>
	<rect x="179.48" y="16.681" fill-rule="evenodd" clip-rule="evenodd" width="1.92" height="13.56"/>
	<rect x="179.48" y="1.92" fill-rule="evenodd" clip-rule="evenodd" width="1.92" height="13.8"/>
	<rect x="99.92" fill-rule="evenodd" clip-rule="evenodd" width="81.48" height="1.439"/>
	<rect x="99.92" y="1.439" fill-rule="evenodd" clip-rule="evenodd" width="81.48" height="0.48"/>
	<rect x="99.92" y="16.681" fill-rule="evenodd" clip-rule="evenodd" width="81.48" height="0.479"/>
	<rect x="99.92" y="15.72" fill-rule="evenodd" clip-rule="evenodd" width="81.48" height="0.961"/>
	<rect x="99.92" y="15.24" fill-rule="evenodd" clip-rule="evenodd" width="81.48" height="0.479"/>
	<rect x="99.92" y="30.24" width="79.56" height="0.96"/>
	<rect x="99.92" y="44.761" width="79.56" height="0.959"/>
	<rect x="99.92" y="59.28" width="79.56" height="0.96"/>
	<rect x="99.92" y="73.801" width="79.56" height="0.959"/>
	<rect x="99.92" y="88.321" width="79.56" height="0.959"/>
	<rect x="99.92" y="103.561" width="79.56" height="0.96"/>
	<rect x="99.92" y="118.32" fill-rule="evenodd" clip-rule="evenodd" width="81.48" height="0.479"/>
	<rect x="99.92" y="118.8" fill-rule="evenodd" clip-rule="evenodd" width="81.48" height="1.44"/>
</g>
<g>
	<line fill="none" stroke="#000000" stroke-width="2" stroke-miterlimit="10" x1="54.24" y1="60.243" x2="94.06" y2="60.243"/>
	<g id="shape9-23_1_" transform="translate(85.0394,-276.378)">
		<title>Dynamic connector</title>
		<g>
			<g id="lend4_1_">
				<path fill="#010101" d="M4.707,340.81l8.379-4.189l-8.379-4.192V340.81"/>
			</g>
		</g>
		<path fill="#010101" d="M4.707,336.621"/>
	</g>
</g>
</svg>
