<svg xmlns="http://www.w3.org/2000/svg" width="743" height="113">
         <defs>
            <style type="text/css">
    @namespace "http://www.w3.org/2000/svg";
    .line                 {fill: none; stroke: #332900;}
    .bold-line            {stroke: #141000; shape-rendering: crispEdges; stroke-width: 2; }
    .thin-line            {stroke: #1F1800; shape-rendering: crispEdges}
    .filled               {fill: #332900; stroke: none;}
    text.terminal         {font-family: Verdana, Sans-serif;
                            font-size: 12px;
                            fill: #141000;
                            font-weight: bold;
                          }
    text.nonterminal      {font-family: Verdana, Sans-serif;
                            font-size: 12px;
                            fill: #1A1400;
                            font-weight: normal;
                          }
    text.regexp           {font-family: Verdana, Sans-serif;
                            font-size: 12px;
                            fill: #1F1800;
                            font-weight: normal;
                          }
    rect, circle, polygon {fill: #332900; stroke: #332900;}
    rect.terminal         {fill: #FFDB4D; stroke: #332900;}
    rect.nonterminal      {fill: #FFEC9E; stroke: #332900;}
    rect.text             {fill: none; stroke: none;}    
    polygon.regexp        {fill: #FFF4C7; stroke: #332900;}
  </style>
         </defs>
         <polygon points="9 61 1 57 1 65"/>
         <polygon points="17 61 9 57 9 65"/><a xmlns:xlink="http://www.w3.org/1999/xlink" xlink:href="#query" xlink:title="query">
            <rect x="31" y="47" width="56" height="32"/>
            <rect x="29" y="45" width="56" height="32" class="nonterminal"/>
            <text class="nonterminal" x="39" y="65">query</text></a><a xmlns:xlink="http://www.w3.org/1999/xlink" xlink:href="#Identifier" xlink:title="Identifier">
            <rect x="107" y="47" width="78" height="32"/>
            <rect x="105" y="45" width="78" height="32" class="nonterminal"/>
            <text class="nonterminal" x="115" y="65">Identifier</text></a><rect x="225" y="47" width="24" height="32" rx="10"/>
         <rect x="223" y="45" width="24" height="32" class="terminal" rx="10"/>
         <text class="terminal" x="233" y="65">:</text><a xmlns:xlink="http://www.w3.org/1999/xlink" xlink:href="#constraint" xlink:title="constraint">
            <rect x="289" y="47" width="84" height="32"/>
            <rect x="287" y="45" width="84" height="32" class="nonterminal"/>
            <text class="nonterminal" x="297" y="65">constraint</text></a><rect x="289" y="3" width="24" height="32" rx="10"/>
         <rect x="287" y="1" width="24" height="32" class="terminal" rx="10"/>
         <text class="terminal" x="297" y="21">,</text>
         <rect x="453" y="47" width="24" height="32" rx="10"/>
         <rect x="451" y="45" width="24" height="32" class="terminal" rx="10"/>
         <text class="terminal" x="461" y="65">,</text><a xmlns:xlink="http://www.w3.org/1999/xlink" xlink:href="#assignment" xlink:title="assignment">
            <rect x="497" y="47" width="94" height="32"/>
            <rect x="495" y="45" width="94" height="32" class="nonterminal"/>
            <text class="nonterminal" x="505" y="65">assignment</text></a><a xmlns:xlink="http://www.w3.org/1999/xlink" xlink:href="#EOL" xlink:title="EOL">
            <rect x="671" y="47" width="44" height="32"/>
            <rect x="669" y="45" width="44" height="32" class="nonterminal"/>
            <text class="nonterminal" x="679" y="65">EOL</text></a><svg:path xmlns:svg="http://www.w3.org/2000/svg" class="line" d="m17 61 h2 m0 0 h10 m56 0 h10 m0 0 h10 m78 0 h10 m20 0 h10 m24 0 h10 m20 0 h10 m84 0 h10 m-124 0 l20 0 m-1 0 q-9 0 -9 -10 l0 -24 q0 -10 10 -10 m104 44 l20 0 m-20 0 q10 0 10 -10 l0 -24 q0 -10 -10 -10 m-104 0 h10 m24 0 h10 m0 0 h60 m60 44 h10 m24 0 h10 m0 0 h10 m94 0 h10 m-178 0 l20 0 m-1 0 q-9 0 -9 -10 l0 -12 q0 -10 10 -10 m158 32 l20 0 m-20 0 q10 0 10 -10 l0 -12 q0 -10 -10 -10 m-158 0 h10 m0 0 h148 m-198 32 h20 m198 0 h20 m-238 0 q10 0 10 10 m218 0 q0 -10 10 -10 m-228 10 v14 m218 0 v-14 m-218 14 q0 10 10 10 m198 0 q10 0 10 -10 m-208 10 h10 m0 0 h188 m-426 -34 h20 m426 0 h20 m-466 0 q10 0 10 10 m446 0 q0 -10 10 -10 m-456 10 v30 m446 0 v-30 m-446 30 q0 10 10 10 m426 0 q10 0 10 -10 m-436 10 h10 m0 0 h416 m20 -50 h10 m44 0 h10 m3 0 h-3"/>
         <polygon points="733 61 741 57 741 65"/>
         <polygon points="733 61 725 57 725 65"/></svg>