<svg xmlns="http://www.w3.org/2000/svg" width="521" height="37">
         <defs>
            <style type="text/css">
    @namespace "http://www.w3.org/2000/svg";
    .line                 {fill: none; stroke: #332900;}
    .bold-line            {stroke: #141000; shape-rendering: crispEdges; stroke-width: 2; }
    .thin-line            {stroke: #1F1800; shape-rendering: crispEdges}
    .filled               {fill: #332900; stroke: none;}
    text.terminal         {font-family: Verdana, Sans-serif;
                            font-size: 12px;
                            fill: #141000;
                            font-weight: bold;
                          }
    text.nonterminal      {font-family: Verdana, Sans-serif;
                            font-size: 12px;
                            fill: #1A1400;
                            font-weight: normal;
                          }
    text.regexp           {font-family: Verdana, Sans-serif;
                            font-size: 12px;
                            fill: #1F1800;
                            font-weight: normal;
                          }
    rect, circle, polygon {fill: #332900; stroke: #332900;}
    rect.terminal         {fill: #FFDB4D; stroke: #332900;}
    rect.nonterminal      {fill: #FFEC9E; stroke: #332900;}
    rect.text             {fill: none; stroke: none;}    
    polygon.regexp        {fill: #FFF4C7; stroke: #332900;}
  </style>
         </defs>
         <polygon points="9 17 1 13 1 21"/>
         <polygon points="17 17 9 13 9 21"/>
         <rect x="31" y="3" width="60" height="32" rx="10"/>
         <rect x="29" y="1" width="60" height="32" class="terminal" rx="10"/>
         <text class="terminal" x="39" y="21">group</text><a xmlns:xlink="http://www.w3.org/1999/xlink" xlink:href="#advanced_identifier" xlink:title="advanced_identifier">
            <rect x="111" y="3" width="146" height="32"/>
            <rect x="109" y="1" width="146" height="32" class="nonterminal"/>
            <text class="nonterminal" x="119" y="21">advanced_identifier</text></a><rect x="277" y="3" width="50" height="32" rx="10"/>
         <rect x="275" y="1" width="50" height="32" class="terminal" rx="10"/>
         <text class="terminal" x="285" y="21">with</text><a xmlns:xlink="http://www.w3.org/1999/xlink" xlink:href="#advanced_identifier" xlink:title="advanced_identifier">
            <rect x="347" y="3" width="146" height="32"/>
            <rect x="345" y="1" width="146" height="32" class="nonterminal"/>
            <text class="nonterminal" x="355" y="21">advanced_identifier</text></a><svg:path xmlns:svg="http://www.w3.org/2000/svg" class="line" d="m17 17 h2 m0 0 h10 m60 0 h10 m0 0 h10 m146 0 h10 m0 0 h10 m50 0 h10 m0 0 h10 m146 0 h10 m3 0 h-3"/>
         <polygon points="511 17 519 13 519 21"/>
         <polygon points="511 17 503 13 503 21"/></svg>