<svg xmlns="http://www.w3.org/2000/svg" width="327" height="185">
         <defs>
            <style type="text/css">
    @namespace "http://www.w3.org/2000/svg";
    .line                 {fill: none; stroke: #332900;}
    .bold-line            {stroke: #141000; shape-rendering: crispEdges; stroke-width: 2; }
    .thin-line            {stroke: #1F1800; shape-rendering: crispEdges}
    .filled               {fill: #332900; stroke: none;}
    text.terminal         {font-family: Verdana, Sans-serif;
                            font-size: 12px;
                            fill: #141000;
                            font-weight: bold;
                          }
    text.nonterminal      {font-family: Verdana, Sans-serif;
                            font-size: 12px;
                            fill: #1A1400;
                            font-weight: normal;
                          }
    text.regexp           {font-family: Verdana, Sans-serif;
                            font-size: 12px;
                            fill: #1F1800;
                            font-weight: normal;
                          }
    rect, circle, polygon {fill: #332900; stroke: #332900;}
    rect.terminal         {fill: #FFDB4D; stroke: #332900;}
    rect.nonterminal      {fill: #FFEC9E; stroke: #332900;}
    rect.text             {fill: none; stroke: none;}    
    polygon.regexp        {fill: #FFF4C7; stroke: #332900;}
  </style>
         </defs>
         <polygon points="9 33 1 29 1 37"/>
         <polygon points="17 33 9 29 9 37"/>
         <rect x="51" y="19" width="28" height="32" rx="10"/>
         <rect x="49" y="17" width="28" height="32" class="terminal" rx="10"/>
         <text class="terminal" x="59" y="37">$</text>
         <rect x="51" y="63" width="28" height="32" rx="10"/>
         <rect x="49" y="61" width="28" height="32" class="terminal" rx="10"/>
         <text class="terminal" x="59" y="81">_</text><a xmlns:xlink="http://www.w3.org/1999/xlink" xlink:href="#LETTER" xlink:title="LETTER">
            <rect x="51" y="107" width="64" height="32"/>
            <rect x="49" y="105" width="64" height="32" class="nonterminal"/>
            <text class="nonterminal" x="59" y="125">LETTER</text></a><rect x="195" y="19" width="28" height="32" rx="10"/>
         <rect x="193" y="17" width="28" height="32" class="terminal" rx="10"/>
         <text class="terminal" x="203" y="37">$</text>
         <rect x="195" y="63" width="28" height="32" rx="10"/>
         <rect x="193" y="61" width="28" height="32" class="terminal" rx="10"/>
         <text class="terminal" x="203" y="81">_</text><a xmlns:xlink="http://www.w3.org/1999/xlink" xlink:href="#LETTER" xlink:title="LETTER">
            <rect x="195" y="107" width="64" height="32"/>
            <rect x="193" y="105" width="64" height="32" class="nonterminal"/>
            <text class="nonterminal" x="203" y="125">LETTER</text></a><a xmlns:xlink="http://www.w3.org/1999/xlink" xlink:href="#DIGIT" xlink:title="DIGIT">
            <rect x="195" y="151" width="56" height="32"/>
            <rect x="193" y="149" width="56" height="32" class="nonterminal"/>
            <text class="nonterminal" x="203" y="169">DIGIT</text></a><svg:path xmlns:svg="http://www.w3.org/2000/svg" class="line" d="m17 33 h2 m20 0 h10 m28 0 h10 m0 0 h36 m-104 0 h20 m84 0 h20 m-124 0 q10 0 10 10 m104 0 q0 -10 10 -10 m-114 10 v24 m104 0 v-24 m-104 24 q0 10 10 10 m84 0 q10 0 10 -10 m-94 10 h10 m28 0 h10 m0 0 h36 m-94 -10 v20 m104 0 v-20 m-104 20 v24 m104 0 v-24 m-104 24 q0 10 10 10 m84 0 q10 0 10 -10 m-94 10 h10 m64 0 h10 m60 -88 h10 m28 0 h10 m0 0 h36 m-104 0 h20 m84 0 h20 m-124 0 q10 0 10 10 m104 0 q0 -10 10 -10 m-114 10 v24 m104 0 v-24 m-104 24 q0 10 10 10 m84 0 q10 0 10 -10 m-94 10 h10 m28 0 h10 m0 0 h36 m-94 -10 v20 m104 0 v-20 m-104 20 v24 m104 0 v-24 m-104 24 q0 10 10 10 m84 0 q10 0 10 -10 m-94 10 h10 m64 0 h10 m-94 -10 v20 m104 0 v-20 m-104 20 v24 m104 0 v-24 m-104 24 q0 10 10 10 m84 0 q10 0 10 -10 m-94 10 h10 m56 0 h10 m0 0 h8 m-124 -132 l20 0 m-1 0 q-9 0 -9 -10 l0 -12 q0 -10 10 -10 m124 32 l20 0 m-20 0 q10 0 10 -10 l0 -12 q0 -10 -10 -10 m-124 0 h10 m0 0 h114 m23 32 h-3"/>
         <polygon points="317 33 325 29 325 37"/>
         <polygon points="317 33 309 29 309 37"/></svg>