<svg xmlns="http://www.w3.org/2000/svg" width="309" height="113">
         <defs>
            <style type="text/css">
    @namespace "http://www.w3.org/2000/svg";
    .line                 {fill: none; stroke: #332900;}
    .bold-line            {stroke: #141000; shape-rendering: crispEdges; stroke-width: 2; }
    .thin-line            {stroke: #1F1800; shape-rendering: crispEdges}
    .filled               {fill: #332900; stroke: none;}
    text.terminal         {font-family: Verdana, Sans-serif;
                            font-size: 12px;
                            fill: #141000;
                            font-weight: bold;
                          }
    text.nonterminal      {font-family: Verdana, Sans-serif;
                            font-size: 12px;
                            fill: #1A1400;
                            font-weight: normal;
                          }
    text.regexp           {font-family: Verdana, Sans-serif;
                            font-size: 12px;
                            fill: #1F1800;
                            font-weight: normal;
                          }
    rect, circle, polygon {fill: #332900; stroke: #332900;}
    rect.terminal         {fill: #FFDB4D; stroke: #332900;}
    rect.nonterminal      {fill: #FFEC9E; stroke: #332900;}
    rect.text             {fill: none; stroke: none;}    
    polygon.regexp        {fill: #FFF4C7; stroke: #332900;}
  </style>
         </defs>
         <polygon points="9 61 1 57 1 65"/>
         <polygon points="17 61 9 57 9 65"/><a xmlns:xlink="http://www.w3.org/1999/xlink" xlink:href="#Identifier" xlink:title="Identifier">
            <rect x="51" y="47" width="78" height="32"/>
            <rect x="49" y="45" width="78" height="32" class="nonterminal"/>
            <text class="nonterminal" x="59" y="65">Identifier</text></a><rect x="51" y="3" width="24" height="32" rx="10"/>
         <rect x="49" y="1" width="24" height="32" class="terminal" rx="10"/>
         <text class="terminal" x="59" y="21">.</text>
         <rect x="189" y="79" width="24" height="32" rx="10"/>
         <rect x="187" y="77" width="24" height="32" class="terminal" rx="10"/>
         <text class="terminal" x="197" y="97">.</text>
         <rect x="233" y="79" width="28" height="32" rx="10"/>
         <rect x="231" y="77" width="28" height="32" class="terminal" rx="10"/>
         <text class="terminal" x="241" y="97">*</text>
         <svg:path xmlns:svg="http://www.w3.org/2000/svg" class="line" d="m17 61 h2 m20 0 h10 m78 0 h10 m-118 0 l20 0 m-1 0 q-9 0 -9 -10 l0 -24 q0 -10 10 -10 m98 44 l20 0 m-20 0 q10 0 10 -10 l0 -24 q0 -10 -10 -10 m-98 0 h10 m24 0 h10 m0 0 h54 m40 44 h10 m0 0 h82 m-112 0 h20 m92 0 h20 m-132 0 q10 0 10 10 m112 0 q0 -10 10 -10 m-122 10 v12 m112 0 v-12 m-112 12 q0 10 10 10 m92 0 q10 0 10 -10 m-102 10 h10 m24 0 h10 m0 0 h10 m28 0 h10 m23 -32 h-3"/>
         <polygon points="299 61 307 57 307 65"/>
         <polygon points="299 61 291 57 291 65"/></svg>