<?xml version="1.0" encoding="utf-8"?>
<!-- Generator: Adobe Illustrator 15.0.0, SVG Export Plug-In . SVG Version: 6.00 Build 0)  -->
<!DOCTYPE svg PUBLIC "-//W3C//DTD SVG 1.0//EN" "http://www.w3.org/TR/2001/REC-SVG-20010904/DTD/svg10.dtd">
<svg version="1.0" id="Layer_1" xmlns="http://www.w3.org/2000/svg" xmlns:xlink="http://www.w3.org/1999/xlink" x="0px" y="0px"
	 width="436.927px" height="570.958px" viewBox="0 0 436.927 570.958" enable-background="new 0 0 436.927 570.958"
	 xml:space="preserve">
<path fill="#C2E4F7" d="M80.785,0.861c10.967,0,19.926,11.218,19.926,25.116s-8.958,25.116-19.926,25.116H20.842
	c-11.051,0-20.009-11.219-20.009-25.116S9.791,0.861,20.842,0.861H80.785z"/>
<path fill="none" stroke="#010101" stroke-width="1.6744" stroke-miterlimit="10" d="M80.785,0.861
	c10.967,0,19.926,11.218,19.926,25.116s-8.958,25.116-19.926,25.116H20.842c-11.051,0-20.009-11.219-20.009-25.116
	S9.791,0.861,20.842,0.861H80.785z"/>
<path fill="#010101" d="M34.882,21.08c-0.209-2.009-5.149-2.261-5.191,0.083c0.586,3.14,6.614,0.586,6.823,4.981
	c0.125,3.265-5.065,3.642-7.326,2.302c-0.711-0.418-1.172-1.088-1.381-1.925l1.381-0.293c0.209,2.344,5.902,2.638,5.902-0.042
	c0-3.265-6.488-0.586-6.781-4.939c-0.209-3.433,6.07-3.516,7.493-1.423c0.209,0.293,0.335,0.67,0.46,1.046L34.882,21.08z"/>
<polygon fill="#010101" points="42.5,19.782 42.5,24.386 42.5,28.991 41.077,28.991 41.077,24.386 41.077,19.782 37.519,19.782 
	37.519,19.196 37.519,18.61 46.058,18.61 46.058,19.196 46.058,19.782 "/>
<path fill="#010101" d="M52.212,24.847l-1.968-5.149c-0.502,1.884-1.297,3.433-1.925,5.149H52.212z M53.802,28.991l-1.172-3.014
	H47.9l-1.172,3.014h-1.465l4.228-10.381h1.591l4.144,10.381H53.802z"/>
<path fill="#010101" d="M57.905,23.591c2.511-0.084,5.735,0.544,5.735-1.968c0-2.553-3.349-1.758-5.735-1.884v1.926V23.591z
	 M65.021,21.582c-0.042,1.716-0.963,2.679-2.512,2.93l2.93,4.479h-1.591l-2.721-4.312h-3.223v2.156v2.156h-1.381V23.8v-5.19
	C60.207,18.735,65.104,17.731,65.021,21.582z"/>
<polygon fill="#010101" points="71.132,19.782 71.132,24.386 71.132,28.991 69.709,28.991 69.709,24.386 69.709,19.782 
	66.151,19.782 66.151,19.196 66.151,18.61 74.69,18.61 74.69,19.196 74.69,19.782 "/>
<path fill="#E5E5E5" d="M436.177,1.447c-13.897,0-25.116,11.218-25.116,25.116c0,13.814,11.219,25.116,25.116,25.116h-0.251H210.133
	c-13.897,0-25.116-11.302-25.116-25.116c0-13.897,11.219-25.116,25.116-25.116H436.177z"/>
<path fill="none" stroke="#010101" stroke-width="1.6744" stroke-miterlimit="10" d="M436.177,1.447
	c-13.897,0-25.116,11.218-25.116,25.116c0,13.814,11.219,25.116,25.116,25.116h-0.251H210.133
	c-13.897,0-25.116-11.302-25.116-25.116c0-13.897,11.219-25.116,25.116-25.116H436.177z"/>
<polygon fill="#010101" points="277.234,20.502 277.234,15.311 277.234,10.121 278.657,10.121 278.657,15.311 278.657,20.502 "/>
<path fill="#010101" d="M287.783,12.59c-0.209-2.009-5.148-2.26-5.19,0.083c0.586,3.14,6.613,0.586,6.823,4.981
	c0.125,3.265-5.065,3.642-7.326,2.302c-0.711-0.418-1.172-1.088-1.381-1.925l1.381-0.293c0.21,2.344,5.902,2.637,5.902-0.042
	c0-3.265-6.488-0.586-6.781-4.939c-0.209-3.433,6.069-3.516,7.493-1.423c0.209,0.293,0.335,0.67,0.46,1.046L287.783,12.59z"/>
<polygon fill="#010101" points="291.467,20.502 291.467,15.311 291.467,10.121 292.89,10.121 292.89,15.311 292.89,20.502 "/>
<path fill="#010101" d="M303.229,13.679c-3.266-0.67-2.219,3.809-2.386,6.823h-1.34l-0.042-7.954h1.256
	c0.042,0.502-0.042,1.214,0.084,1.633c0.251-1.13,0.963-2.051,2.428-1.716v0.607V13.679z"/>
<path fill="#010101" d="M309.802,15.771c0.251-2.511-3.182-3.223-4.061-1.172c-0.126,0.293-0.251,0.711-0.251,1.172H309.802z
	 M307.625,12.381c2.637,0,3.6,1.758,3.516,4.438h-5.65c0,1.674,0.586,2.804,2.218,2.846c1.089,0.042,1.801-0.502,2.052-1.214
	l1.172,0.335c-0.461,1.172-1.549,1.884-3.224,1.884c-2.428,0-3.684-1.549-3.642-4.186C304.108,13.93,305.155,12.381,307.625,12.381z
	"/>
<path fill="#010101" d="M316.29,19.665c1.674,0,1.884-1.423,1.884-3.14c0-1.716-0.252-3.056-1.884-3.097
	c-1.759,0-2.135,1.339-2.135,3.181C314.155,18.409,314.573,19.665,316.29,19.665z M316.625,12.381
	c2.302,0.042,2.93,1.716,2.93,4.103c0,2.386-0.67,4.102-2.93,4.186c-1.298,0-2.052-0.544-2.512-1.423l0.042,4.395h-1.34
	l-0.042-11.093h1.298l0.084,1.256C314.573,12.925,315.327,12.381,316.625,12.381z"/>
<path fill="#010101" d="M324.327,19.665c1.842,0.042,2.218-1.297,2.218-3.14c0-1.8-0.334-3.139-2.135-3.139
	c-1.8,0-2.218,1.339-2.218,3.139C322.192,18.325,322.61,19.623,324.327,19.665z M324.369,12.381
	c2.595-0.042,3.558,1.549,3.558,4.144c0.042,2.638-1.13,4.145-3.6,4.145s-3.475-1.633-3.517-4.145
	C320.811,13.762,321.982,12.381,324.369,12.381z"/>
<path fill="#010101" d="M333.327,13.679c-3.266-0.67-2.219,3.809-2.387,6.823h-1.339l-0.042-7.954h1.256
	c0.042,0.502-0.042,1.214,0.083,1.633c0.252-1.13,0.963-2.051,2.429-1.716v0.607V13.679z"/>
<path fill="#010101" d="M336.006,18.535c-0.084,1.004,0.754,1.214,1.591,0.921v0.502v0.502c-1.382,0.418-2.931,0.209-2.931-1.632
	v-2.658v-2.658h-0.921V13.03v-0.481h1.005l0.377-1.8h0.879v0.9v0.9h1.465v0.481v0.481h-1.465v2.512V18.535z"/>
<path fill="#010101" d="M343.373,14.516c-0.125-1.423-3.6-1.591-3.642,0c0.628,2.218,4.813,0.502,4.981,3.767
	c0.167,3.265-6.279,3.098-6.572,0.335l1.172-0.209c0.168,1.507,4.061,1.884,4.103,0c-0.419-2.344-4.73-0.628-4.939-3.767
	c-0.168-2.386,3.433-2.637,5.106-1.758c0.503,0.293,0.88,0.795,1.005,1.465L343.373,14.516z"/>
<path fill="#010101" d="M255.316,41.725c-1.591-1.758-2.721-3.852-2.721-7.075c0-3.181,1.172-5.274,2.721-6.991h1.298
	c-1.591,1.716-2.679,3.852-2.679,7.033s1.088,5.316,2.679,7.033H255.316z"/>
<path fill="#010101" d="M259.293,33.437c2.386,0,5.19,0.46,5.19-2.093c0-2.47-2.846-1.968-5.19-2.009v2.051V33.437z M257.912,28.204
	c3.642,0.042,7.995-0.628,7.995,3.14c0,3.265-3.224,3.349-6.614,3.181v2.03v2.03h-1.381v-5.191V28.204z"/>
<path fill="#010101" d="M269.34,37.455c3.726,0.335,6.111-0.669,6.111-4.144s-2.512-4.228-6.111-3.977v4.06V37.455z M267.958,28.204
	c4.939-0.293,9.042,0.335,8.916,5.107c-0.125,3.265-1.8,5.274-5.064,5.274h-3.852v-5.191V28.204z"/>
<polygon fill="#010101" points="280.182,29.376 280.182,31.302 280.182,33.227 285.958,33.227 285.958,33.813 285.958,34.399 
	280.182,34.399 280.182,36.492 280.182,38.585 278.8,38.585 278.8,33.395 278.8,28.204 286.125,28.204 286.125,28.79 
	286.125,29.376 "/>
<path fill="#010101" d="M294.773,31.469c-1.674,0-1.926,1.423-1.926,3.14c0,1.674,0.252,3.098,1.884,3.098
	c1.759,0,2.135-1.34,2.135-3.182C296.866,32.767,296.49,31.427,294.773,31.469z M294.396,30.464c1.298,0,2.01,0.544,2.512,1.381
	l-0.042-4.186h1.34l0.042,10.926h-1.256c-0.084-0.419,0-0.963-0.126-1.298c-0.418,0.963-1.172,1.465-2.47,1.465
	c-2.218,0-2.888-1.633-2.93-4.103C291.467,31.888,292.43,30.464,294.396,30.464z"/>
<path fill="#010101" d="M303.355,37.748c1.842,0.042,2.218-1.297,2.218-3.139c0-1.8-0.335-3.14-2.135-3.14s-2.219,1.339-2.219,3.14
	C301.22,36.409,301.639,37.707,303.355,37.748z M303.396,30.464c2.596-0.042,3.559,1.549,3.559,4.145
	c0.042,2.637-1.131,4.144-3.6,4.144c-2.471,0-3.475-1.633-3.517-4.144C299.839,31.846,301.011,30.464,303.396,30.464z"/>
<path fill="#010101" d="M311.602,31.511c-1.675,0-2.01,1.381-2.01,3.056s0.377,3.14,2.01,3.14c1.005,0,1.716-0.586,1.8-1.591
	l1.34,0.083c-0.252,1.549-1.298,2.554-3.098,2.554c-2.47,0-3.182-1.716-3.433-4.144c-0.419-3.893,4.228-5.484,6.153-2.679
	c0.167,0.293,0.209,0.586,0.293,0.921l-1.34,0.125C313.15,32.097,312.647,31.511,311.602,31.511z"/>
<path fill="#010101" d="M318.634,38.753c-3.726,0.167-2.261-4.856-2.554-8.121h1.34v2.512v2.512c0,1.297,0.293,2.093,1.633,2.051
	c3.014-0.084,1.884-4.228,2.093-7.075h1.298l0.042,7.954h-1.256c-0.042-0.419,0.042-1.046-0.084-1.381
	C320.685,38.125,319.974,38.711,318.634,38.753z"/>
<path fill="#010101" d="M332.28,31.511c-2.805,0.125-1.591,4.395-1.842,7.074h-1.298v-2.533v-2.532c0-1.214-0.209-2.093-1.465-2.009
	c-2.763,0.167-1.591,4.353-1.842,7.074h-1.298l-0.042-7.954h1.256c0.042,0.418-0.042,1.005,0.084,1.34
	c0.418-1.842,4.144-2.093,4.479,0c0.461-0.879,1.131-1.465,2.428-1.507c3.559-0.083,1.968,4.981,2.303,8.121h-1.298v-2.533v-2.532
	C333.745,32.306,333.536,31.469,332.28,31.511z"/>
<path fill="#010101" d="M342.368,33.855c0.251-2.511-3.181-3.223-4.061-1.172c-0.125,0.293-0.251,0.711-0.251,1.172H342.368z
	 M340.191,30.464c2.638,0,3.601,1.758,3.517,4.438h-5.651c0,1.674,0.586,2.805,2.219,2.846c1.089,0.042,1.8-0.502,2.051-1.214
	l1.173,0.335c-0.461,1.172-1.549,1.884-3.224,1.884c-2.428,0-3.684-1.549-3.642-4.186C336.676,32.013,337.722,30.464,340.191,30.464
	z"/>
<path fill="#010101" d="M349.275,30.464c3.726-0.167,2.219,4.856,2.512,8.121h-1.34v-2.533v-2.532c0-1.298-0.335-2.051-1.633-2.009
	c-3.014,0.083-1.842,4.27-2.051,7.074h-1.34l-0.041-7.954h1.256c0.041,0.418-0.042,1.005,0.083,1.34
	C347.183,31.05,347.936,30.506,349.275,30.464z"/>
<path fill="#010101" d="M355.22,36.618c-0.084,1.005,0.753,1.214,1.591,0.921v0.502v0.502c-1.382,0.418-2.931,0.209-2.931-1.632
	v-2.658v-2.658h-0.921v-0.481v-0.481h1.005l0.377-1.8h0.879v0.9v0.9h1.465v0.481v0.481h-1.465v2.512V36.618z"/>
<path fill="#010101" d="M362.587,32.599c-0.126-1.423-3.6-1.59-3.642,0c0.628,2.219,4.813,0.502,4.981,3.768
	c0.167,3.265-6.279,3.098-6.572,0.335l1.172-0.209c0.168,1.507,4.061,1.884,4.103,0c-0.419-2.344-4.73-0.628-4.939-3.767
	c-0.168-2.386,3.433-2.637,5.106-1.758c0.503,0.293,0.879,0.795,1.005,1.465L362.587,32.599z"/>
<path fill="#010101" d="M365.852,27.66c1.591,1.716,2.722,3.852,2.722,7.033s-1.131,5.316-2.722,7.033h-1.297
	c1.549-1.716,2.679-3.852,2.679-7.033s-1.13-5.316-2.679-7.033H365.852z"/>
<path fill="#FFDBAA" d="M416.084,503.181c11.135,0,20.093,11.219,20.093,25.116s-8.958,25.116-20.093,25.116h-60.278
	c-11.135,0-20.093-11.219-20.093-25.116s8.958-25.116,20.093-25.116H416.084z"/>
<path fill="none" stroke="#010101" stroke-width="1.6744" stroke-miterlimit="10" d="M416.084,503.181
	c11.135,0,20.093,11.219,20.093,25.116s-8.958,25.116-20.093,25.116h-60.278c-11.135,0-20.093-11.219-20.093-25.116
	s8.958-25.116,20.093-25.116H416.084z"/>
<polygon fill="#010101" points="371.336,531.311 371.336,526.121 371.336,520.93 379.163,520.93 379.163,521.516 379.163,522.102 
	372.717,522.102 372.717,523.755 372.717,525.409 378.745,525.409 378.745,525.974 378.745,526.539 372.717,526.539 372.717,528.36 
	372.717,530.181 379.498,530.181 379.498,530.746 379.498,531.311 "/>
<polygon fill="#010101" points="388.079,531.311 382.554,522.479 382.596,531.311 381.382,531.311 381.382,526.121 381.382,520.93 
	383.015,520.93 388.582,529.846 388.498,520.93 389.796,520.93 389.796,526.121 389.796,531.311 "/>
<path fill="#010101" d="M393.605,530.181c3.725,0.335,6.111-0.67,6.111-4.145s-2.512-4.228-6.111-3.977v4.061V530.181z
	 M392.224,520.93c4.939-0.293,9.042,0.334,8.916,5.106c-0.125,3.266-1.8,5.274-5.064,5.274h-3.852v-5.19V520.93z"/>
<path fill="#E5E5E5" d="M436.177,118.069c-13.897,0-25.116,11.218-25.116,25.116s11.219,25.116,25.116,25.116h-0.251H210.133
	c-13.897,0-25.116-11.219-25.116-25.116s11.219-25.116,25.116-25.116H436.177z"/>
<path fill="none" stroke="#010101" stroke-width="1.6744" stroke-miterlimit="10" d="M436.177,118.069
	c-13.897,0-25.116,11.218-25.116,25.116s11.219,25.116,25.116,25.116h-0.251H210.133c-13.897,0-25.116-11.219-25.116-25.116
	s11.219-25.116,25.116-25.116H436.177z"/>
<path fill="#010101" d="M267.037,133.432l-1.967-5.148c-0.503,1.883-1.298,3.432-1.926,5.148H267.037z M268.628,137.576
	l-1.172-3.014h-4.73l-1.172,3.014h-1.465l4.228-10.381h1.591l4.144,10.381H268.628z"/>
<path fill="#010101" d="M274.865,130.753c-3.266-0.67-2.219,3.809-2.386,6.823h-1.34l-0.042-7.953h1.256
	c0.042,0.502-0.042,1.214,0.084,1.632c0.251-1.13,0.963-2.051,2.428-1.716v0.607V130.753z"/>
<path fill="#010101" d="M279.554,136.739c1.674,0,1.884-1.423,1.884-3.14c0-1.674-0.21-3.14-1.884-3.098
	c-1.759,0-2.135,1.34-2.135,3.182C277.419,135.483,277.837,136.739,279.554,136.739z M279.889,129.455
	c2.218,0,2.888,1.632,2.93,4.102c0,2.763-0.963,4.186-2.93,4.186c-1.298-0.042-2.052-0.46-2.47-1.423l-0.084,1.255h-1.298
	l0.042-10.925h1.34v2.114v2.114C277.837,129.916,278.591,129.455,279.889,129.455z"/>
<path fill="#010101" d="M284.451,137.576v-3.977v-3.977h1.34v3.977v3.977H284.451z M284.451,127.906v-0.628v-0.628h1.34v0.628v0.628
	H284.451z"/>
<path fill="#010101" d="M289.223,135.608c-0.083,1.005,0.754,1.214,1.591,0.921v0.502v0.502c-1.381,0.418-2.93,0.209-2.93-1.633
	v-2.658v-2.658h-0.921v-0.481v-0.481h1.004l0.377-1.8h0.879v0.9v0.9h1.466v0.481v0.481h-1.466v2.511V135.608z"/>
<path fill="#010101" d="M295.711,130.753c-3.265-0.67-2.218,3.809-2.386,6.823h-1.34l-0.041-7.953h1.256
	c0.041,0.502-0.042,1.214,0.083,1.632c0.251-1.13,0.963-2.051,2.428-1.716v0.607V130.753z"/>
<path fill="#010101" d="M297.93,135.357c0,0.837,0.503,1.381,1.34,1.381c1.716-0.125,2.637-1.214,2.512-3.098
	C299.981,133.725,297.93,133.432,297.93,135.357z M301.823,136.069c-0.628,0.879-1.298,1.716-2.847,1.674
	c-1.507-0.042-2.428-0.879-2.428-2.386c-0.042-2.679,2.637-2.637,5.232-2.637c0.125-1.465-0.377-2.261-1.717-2.261
	c-1.004,0.042-1.716,0.293-1.758,1.298l-1.381-0.125c0.209-1.549,1.381-2.177,3.181-2.177c1.884,0,3.014,0.837,3.014,2.679v1.716
	v1.716c-0.041,0.837,0.294,1.34,1.173,1.13v0.418v0.419C302.995,137.911,301.739,137.45,301.823,136.069z"/>
<path fill="#010101" d="M309.064,130.753c-3.265-0.67-2.219,3.809-2.386,6.823h-1.34l-0.042-7.953h1.256
	c0.042,0.502-0.041,1.214,0.084,1.632c0.251-1.13,0.963-2.051,2.428-1.716v0.607V130.753z"/>
<path fill="#010101" d="M316.767,129.623l-3.6,9.251c-0.586,1.172-1.549,2.135-3.391,1.758v-0.502v-0.502
	c1.633,0.251,2.219-0.837,2.679-2.093l-3.14-7.912h1.424l2.386,6.53l2.261-6.53H316.767z"/>
<path fill="#010101" d="M323.447,135.608c-0.083,1.005,0.754,1.214,1.591,0.921v0.502v0.502c-1.381,0.418-2.93,0.209-2.93-1.633
	v-2.658v-2.658h-0.921v-0.481v-0.481h1.005l0.376-1.8h0.879v0.9v0.9h1.466v0.481v0.481h-1.466v2.511V135.608z"/>
<path fill="#010101" d="M327.173,135.357c0,0.837,0.503,1.381,1.34,1.381c1.716-0.125,2.638-1.214,2.512-3.098
	C329.225,133.725,327.173,133.432,327.173,135.357z M331.066,136.069c-0.628,0.879-1.298,1.716-2.847,1.674
	c-1.507-0.042-2.428-0.879-2.428-2.386c-0.042-2.679,2.637-2.637,5.232-2.637c0.126-1.465-0.377-2.261-1.716-2.261
	c-1.005,0.042-1.717,0.293-1.759,1.298l-1.381-0.125c0.209-1.549,1.381-2.177,3.181-2.177c1.884,0,3.015,0.837,3.015,2.679v1.716
	v1.716c-0.042,0.837,0.293,1.34,1.172,1.13v0.418v0.419C332.238,137.911,330.982,137.45,331.066,136.069z"/>
<path fill="#010101" d="M338.015,136.739c1.675,0,1.884-1.423,1.884-3.14c0-1.674-0.209-3.14-1.884-3.098
	c-1.758,0-2.135,1.34-2.135,3.182C335.88,135.483,336.299,136.739,338.015,136.739z M338.35,129.455
	c2.219,0,2.889,1.632,2.931,4.102c0,2.763-0.963,4.186-2.931,4.186c-1.297-0.042-2.051-0.46-2.47-1.423l-0.083,1.255h-1.298
	l0.042-10.925h1.339v2.114v2.114C336.299,129.916,337.053,129.455,338.35,129.455z"/>
<polygon fill="#010101" points="342.913,137.576 342.913,132.113 342.913,126.65 344.252,126.65 344.252,132.113 344.252,137.576 
	"/>
<path fill="#010101" d="M351.578,132.846c0.251-2.512-3.182-3.223-4.061-1.172c-0.126,0.293-0.252,0.711-0.252,1.172H351.578z
	 M349.401,129.455c2.637,0,3.6,1.758,3.516,4.437h-5.651c0,1.674,0.587,2.805,2.219,2.847c1.089,0.042,1.8-0.502,2.052-1.214
	l1.172,0.335c-0.461,1.172-1.549,1.883-3.224,1.883c-2.428,0-3.684-1.549-3.642-4.186
	C345.885,131.004,346.932,129.455,349.401,129.455z"/>
<path fill="#010101" d="M359.238,131.59c-0.126-1.423-3.601-1.59-3.642,0c0.628,2.219,4.813,0.502,4.98,3.768
	c0.168,3.265-6.278,3.098-6.571,0.335l1.172-0.209c0.167,1.507,4.061,1.884,4.103,0c-0.419-2.344-4.73-0.628-4.939-3.768
	c-0.168-2.386,3.433-2.637,5.106-1.758c0.502,0.293,0.879,0.795,1.005,1.465L359.238,131.59z"/>
<path fill="#010101" d="M252.805,158.799c-1.591-1.758-2.721-3.851-2.721-7.074c0-3.181,1.172-5.274,2.721-6.991h1.298
	c-1.591,1.716-2.679,3.851-2.679,7.033c0,3.181,1.088,5.316,2.679,7.032H252.805z"/>
<polygon fill="#010101" points="255.4,155.659 255.4,150.469 255.4,145.278 263.228,145.278 263.228,145.864 263.228,146.45 
	256.781,146.45 256.781,148.104 256.781,149.757 262.81,149.757 262.81,150.322 262.81,150.887 256.781,150.887 256.781,152.708 
	256.781,154.529 263.563,154.529 263.563,155.094 263.563,155.659 "/>
<polygon fill="#010101" points="270.093,155.659 267.958,152.395 265.781,155.659 264.358,155.659 267.205,151.557 264.483,147.706 
	265.949,147.706 267.958,150.804 269.926,147.706 271.391,147.706 268.712,151.557 271.559,155.659 "/>
<path fill="#010101" d="M275.744,148.585c-1.675,0-2.01,1.381-2.01,3.056c0,1.675,0.377,3.14,2.01,3.14
	c1.005,0,1.716-0.586,1.8-1.591l1.34,0.084c-0.251,1.549-1.298,2.553-3.098,2.553c-2.47,0-3.182-1.716-3.433-4.144
	c-0.419-3.893,4.228-5.483,6.153-2.679c0.167,0.293,0.209,0.586,0.293,0.921l-1.34,0.125
	C277.293,149.171,276.791,148.585,275.744,148.585z"/>
<path fill="#010101" d="M285.623,150.929c0.251-2.512-3.182-3.223-4.061-1.172c-0.125,0.293-0.251,0.711-0.251,1.172H285.623z
	 M283.446,147.539c2.638,0,3.6,1.758,3.517,4.437h-5.651c0,1.674,0.586,2.805,2.219,2.847c1.088,0.042,1.8-0.502,2.051-1.214
	l1.172,0.335c-0.46,1.172-1.549,1.883-3.223,1.883c-2.428,0-3.684-1.549-3.642-4.186
	C279.93,149.087,280.977,147.539,283.446,147.539z"/>
<polygon fill="#010101" points="288.637,155.659 288.637,150.197 288.637,144.734 289.977,144.734 289.977,150.197 289.977,155.659 
	"/>
<polygon fill="#010101" points="303.731,155.659 302.225,155.659 300.551,148.794 298.834,155.659 297.327,155.659 295.066,147.706 
	296.406,147.706 298.039,154.571 299.839,147.706 301.262,147.706 302.979,154.571 304.736,147.706 306.034,147.706 "/>
<path fill="#010101" d="M310.095,154.822c1.842,0.042,2.218-1.298,2.218-3.14c0-1.8-0.334-3.139-2.135-3.139
	c-1.8,0-2.218,1.339-2.218,3.139C307.96,153.483,308.378,154.78,310.095,154.822z M310.137,147.539
	c2.595-0.042,3.558,1.549,3.558,4.144c0.042,2.637-1.13,4.144-3.6,4.144s-3.475-1.632-3.517-4.144
	C306.578,148.92,307.75,147.539,310.137,147.539z"/>
<path fill="#010101" d="M319.095,148.836c-3.266-0.67-2.219,3.809-2.387,6.823h-1.339l-0.042-7.953h1.256
	c0.042,0.502-0.042,1.214,0.083,1.632c0.252-1.13,0.963-2.051,2.429-1.716v0.607V148.836z"/>
<polygon fill="#010101" points="325.29,155.659 322.61,152.018 321.647,152.813 321.647,154.236 321.647,155.659 320.309,155.659 
	320.309,150.197 320.309,144.734 321.647,144.734 321.647,148.146 321.647,151.557 325.122,147.706 326.671,147.706 
	323.447,151.139 326.88,155.659 "/>
<path fill="#010101" d="M331.317,154.822c1.675,0,1.884-1.423,1.884-3.14c0-1.674-0.209-3.139-1.884-3.098
	c-1.758,0-2.135,1.34-2.135,3.182C329.183,153.566,329.602,154.822,331.317,154.822z M331.652,147.539
	c2.219,0,2.889,1.632,2.93,4.102c0,2.763-0.962,4.186-2.93,4.186c-1.298-0.042-2.051-0.46-2.47-1.423l-0.084,1.255h-1.298
	l0.042-10.925h1.34v2.114v2.114C329.602,147.999,330.354,147.539,331.652,147.539z"/>
<path fill="#010101" d="M339.354,154.822c1.842,0.042,2.219-1.298,2.219-3.14c0-1.8-0.335-3.139-2.135-3.139
	s-2.219,1.339-2.219,3.139C337.22,153.483,337.639,154.78,339.354,154.822z M339.396,147.539c2.596-0.042,3.558,1.549,3.558,4.144
	c0.042,2.637-1.13,4.144-3.6,4.144s-3.475-1.632-3.517-4.144C335.838,148.92,337.011,147.539,339.396,147.539z"/>
<path fill="#010101" d="M347.727,154.822c1.842,0.042,2.219-1.298,2.219-3.14c0-1.8-0.335-3.139-2.135-3.139
	s-2.219,1.339-2.219,3.139C345.592,153.483,346.011,154.78,347.727,154.822z M347.769,147.539c2.595-0.042,3.558,1.549,3.558,4.144
	c0.042,2.637-1.13,4.144-3.6,4.144s-3.475-1.632-3.517-4.144C344.21,148.92,345.383,147.539,347.769,147.539z"/>
<polygon fill="#010101" points="357.94,155.659 355.262,152.018 354.299,152.813 354.299,154.236 354.299,155.659 352.959,155.659 
	352.959,150.197 352.959,144.734 354.299,144.734 354.299,148.146 354.299,151.557 357.772,147.706 359.321,147.706 
	356.099,151.139 359.531,155.659 "/>
<path fill="#010101" d="M365.141,149.673c-0.126-1.423-3.601-1.591-3.643,0c0.628,2.219,4.814,0.502,4.981,3.768
	c0.168,3.265-6.278,3.098-6.571,0.335l1.172-0.209c0.167,1.507,4.061,1.884,4.103,0c-0.419-2.344-4.73-0.628-4.939-3.768
	c-0.168-2.386,3.432-2.637,5.106-1.758c0.502,0.293,0.879,0.795,1.005,1.465L365.141,149.673z"/>
<path fill="#010101" d="M368.405,144.734c1.591,1.716,2.721,3.851,2.721,7.033c0,3.181-1.13,5.316-2.721,7.032h-1.298
	c1.549-1.716,2.68-3.851,2.68-7.032c0-3.182-1.131-5.316-2.68-7.033H368.405z"/>
<path fill="#E5E5E5" d="M302.225,561.786c0,4.604-26.204,8.371-58.604,8.371c-32.4,0-58.604-3.767-58.604-8.371v-66.977
	c0-4.604,26.205-8.372,58.604-8.372c32.399,0,58.604,3.768,58.604,8.372V561.786z"/>
<path fill="none" stroke="#010101" stroke-width="1.6744" stroke-miterlimit="10" d="M302.225,561.786
	c0,4.604-26.204,8.371-58.604,8.371c-32.4,0-58.604-3.767-58.604-8.371v-66.977c0-4.604,26.205-8.372,58.604-8.372
	c32.399,0,58.604,3.768,58.604,8.372V561.786z"/>
<path fill="none" stroke="#010101" stroke-width="1.6744" stroke-miterlimit="10" d="M302.225,494.809
	c0,4.604-26.204,8.372-58.604,8.372c-32.4,0-58.604-3.768-58.604-8.372"/>
<polygon fill="#010101" points="235.793,522.018 235.793,516.828 235.793,511.637 237.216,511.637 237.216,516.828 237.216,522.018 
	"/>
<path fill="#010101" d="M246.342,514.107c-0.209-2.01-5.148-2.261-5.19,0.083c0.586,3.14,6.613,0.586,6.823,4.981
	c0.125,3.266-5.065,3.642-7.326,2.303c-0.711-0.419-1.172-1.089-1.381-1.926l1.381-0.293c0.21,2.344,5.902,2.637,5.902-0.042
	c0-3.265-6.488-0.586-6.781-4.939c-0.209-3.433,6.069-3.517,7.493-1.423c0.209,0.293,0.335,0.67,0.46,1.046L246.342,514.107z"/>
<polygon fill="#010101" points="250.025,522.018 250.025,516.828 250.025,511.637 251.448,511.637 251.448,516.828 251.448,522.018 
	"/>
<polygon fill="#010101" points="210.342,540.102 206.198,535.079 204.858,536.125 204.858,538.114 204.858,540.102 203.477,540.102 
	203.477,534.911 203.477,529.72 204.858,529.72 204.858,532.316 204.858,534.911 209.84,529.72 211.514,529.72 207.119,534.242 
	212.1,540.102 "/>
<path fill="#010101" d="M217.165,531.981c3.726-0.168,2.219,4.855,2.512,8.121h-1.34v-2.533v-2.532c0-1.298-0.335-2.051-1.632-2.01
	c-3.014,0.084-1.842,4.271-2.051,7.075h-1.34l-0.042-7.954h1.255c0.042,0.419-0.042,1.005,0.084,1.34
	C215.072,532.567,215.826,532.023,217.165,531.981z"/>
<path fill="#010101" d="M224.784,539.264c1.842,0.042,2.218-1.298,2.218-3.14c0-1.8-0.335-3.139-2.135-3.139
	s-2.219,1.339-2.219,3.139C222.648,537.925,223.067,539.222,224.784,539.264z M224.825,531.981c2.596-0.042,3.559,1.549,3.559,4.144
	c0.042,2.638-1.13,4.145-3.6,4.145s-3.475-1.633-3.517-4.145C221.268,533.362,222.439,531.981,224.825,531.981z"/>
<polygon fill="#010101" points="237.635,540.102 236.128,540.102 234.453,533.237 232.737,540.102 231.23,540.102 228.97,532.148 
	230.31,532.148 231.941,539.013 233.742,532.148 235.165,532.148 236.881,539.013 238.64,532.148 239.938,532.148 "/>
<polygon fill="#010101" points="240.858,540.102 240.858,534.639 240.858,529.176 242.197,529.176 242.197,534.639 242.197,540.102 
	"/>
<path fill="#010101" d="M249.523,535.372c0.251-2.512-3.182-3.224-4.061-1.172c-0.126,0.293-0.252,0.711-0.252,1.172H249.523z
	 M247.347,531.981c2.637,0,3.6,1.758,3.516,4.437h-5.651c0,1.675,0.587,2.805,2.219,2.847c1.089,0.042,1.801-0.502,2.052-1.214
	l1.172,0.335c-0.461,1.172-1.549,1.884-3.224,1.884c-2.428,0-3.684-1.549-3.642-4.186
	C243.83,533.53,244.877,531.981,247.347,531.981z"/>
<path fill="#010101" d="M253.542,537.883c0,0.837,0.502,1.381,1.339,1.381c1.717-0.125,2.638-1.214,2.512-3.098
	C255.593,536.25,253.542,535.958,253.542,537.883z M257.435,538.594c-0.628,0.88-1.298,1.717-2.847,1.675
	c-1.507-0.042-2.428-0.879-2.428-2.386c-0.042-2.68,2.637-2.638,5.232-2.638c0.126-1.465-0.377-2.26-1.716-2.26
	c-1.005,0.041-1.717,0.293-1.759,1.297l-1.381-0.125c0.209-1.549,1.381-2.177,3.182-2.177c1.883,0,3.014,0.837,3.014,2.679v1.717
	v1.716c-0.042,0.837,0.293,1.34,1.172,1.13v0.419v0.419C258.606,540.436,257.351,539.976,257.435,538.594z"/>
<path fill="#010101" d="M263.839,532.986c-1.674,0-1.925,1.423-1.925,3.139c0,1.675,0.251,3.098,1.883,3.098
	c1.759,0,2.135-1.339,2.135-3.181C265.932,534.283,265.556,532.944,263.839,532.986z M263.462,531.981
	c1.298,0,2.01,0.544,2.512,1.381l-0.042-4.186h1.34l0.042,10.926h-1.256c-0.084-0.419,0-0.963-0.126-1.298
	c-0.418,0.963-1.172,1.465-2.47,1.465c-2.218,0-2.888-1.633-2.93-4.103C260.532,533.404,261.495,531.981,263.462,531.981z"/>
<path fill="#010101" d="M272.211,539.181c1.507,0,2.093-1.34,2.093-3.057c0-1.758-0.586-3.139-2.093-3.139
	c-1.633,0-1.926,1.423-1.926,3.139C270.285,537.841,270.537,539.181,272.211,539.181z M275.686,532.148
	c-0.419,5.232,1.716,12.266-4.604,10.926c-0.963-0.251-1.591-0.837-1.842-1.8l1.339-0.21c0.628,1.968,4.187,1.34,3.726-1.172v-0.628
	v-0.628c-0.46,0.879-1.214,1.507-2.553,1.507c-2.261,0-2.847-1.716-2.847-4.019c0-2.344,0.67-4.06,2.972-4.102
	c1.214-0.042,2.01,0.67,2.47,1.465c0.042-0.419,0-0.963,0.084-1.34H275.686z"/>
<path fill="#010101" d="M283.011,535.372c0.251-2.512-3.181-3.224-4.061-1.172c-0.125,0.293-0.251,0.711-0.251,1.172H283.011z
	 M280.834,531.981c2.638,0,3.601,1.758,3.517,4.437h-5.651c0,1.675,0.586,2.805,2.219,2.847c1.089,0.042,1.8-0.502,2.051-1.214
	l1.173,0.335c-0.461,1.172-1.549,1.884-3.224,1.884c-2.428,0-3.684-1.549-3.642-4.186
	C277.318,533.53,278.364,531.981,280.834,531.981z"/>
<path fill="#010101" d="M231.774,557.348c1.675,0,1.884-1.424,1.884-3.14c0-1.675-0.209-3.14-1.884-3.098
	c-1.758,0-2.135,1.34-2.135,3.182C229.64,556.092,230.059,557.348,231.774,557.348z M232.109,550.064
	c2.219,0,2.889,1.633,2.93,4.103c0,2.763-0.963,4.187-2.93,4.187c-1.298-0.042-2.051-0.461-2.47-1.424l-0.084,1.256h-1.298
	l0.042-10.926h1.34v2.114v2.114C230.059,550.525,230.812,550.064,232.109,550.064z"/>
<path fill="#010101" d="M237.677,555.966c0,0.838,0.502,1.382,1.34,1.382c1.716-0.126,2.637-1.214,2.511-3.098
	C239.728,554.334,237.677,554.042,237.677,555.966z M241.569,556.678c-0.628,0.879-1.298,1.716-2.847,1.675
	c-1.507-0.042-2.428-0.88-2.428-2.387c-0.042-2.679,2.638-2.637,5.232-2.637c0.126-1.465-0.376-2.261-1.716-2.261
	c-1.005,0.042-1.716,0.293-1.758,1.298l-1.382-0.126c0.209-1.549,1.382-2.177,3.182-2.177c1.884,0,3.014,0.838,3.014,2.68v1.716
	v1.717c-0.042,0.837,0.293,1.339,1.172,1.13v0.419v0.418C242.741,558.52,241.486,558.06,241.569,556.678z"/>
<path fill="#010101" d="M249.69,552.199c-0.126-1.423-3.6-1.59-3.642,0c0.628,2.219,4.813,0.503,4.981,3.768
	c0.167,3.266-6.279,3.098-6.572,0.335l1.172-0.209c0.168,1.507,4.061,1.884,4.103,0c-0.419-2.345-4.73-0.628-4.939-3.768
	c-0.168-2.386,3.433-2.637,5.106-1.758c0.503,0.293,0.879,0.795,1.005,1.465L249.69,552.199z"/>
<path fill="#010101" d="M257.937,553.455c0.252-2.511-3.181-3.223-4.061-1.172c-0.125,0.293-0.251,0.712-0.251,1.172H257.937z
	 M255.76,550.064c2.638,0,3.601,1.759,3.517,4.438h-5.651c0,1.675,0.586,2.805,2.219,2.847c1.089,0.042,1.8-0.503,2.051-1.214
	l1.173,0.335c-0.461,1.172-1.549,1.884-3.224,1.884c-2.428,0-3.684-1.549-3.642-4.187
	C252.244,551.613,253.29,550.064,255.76,550.064z"/>
<rect x="0.833" y="118.069" fill="#FFFFFF" width="133.952" height="50.232"/>
<rect x="0.833" y="118.069" fill="none" stroke="#010101" stroke-width="1.6744" stroke-miterlimit="10" width="133.952" height="50.232"/>
<polygon fill="#010101" points="13.454,146.199 13.454,141.008 13.454,135.818 21.281,135.818 21.281,136.404 21.281,136.99 
	14.835,136.99 14.835,138.643 14.835,140.297 20.863,140.297 20.863,140.862 20.863,141.427 14.835,141.427 14.835,143.248 
	14.835,145.069 21.616,145.069 21.616,145.634 21.616,146.199 "/>
<polygon fill="#010101" points="28.146,146.199 26.012,142.934 23.835,146.199 22.412,146.199 25.258,142.097 22.537,138.246 
	24.002,138.246 26.012,141.343 27.979,138.246 29.444,138.246 26.765,142.097 29.611,146.199 "/>
<path fill="#010101" d="M32.249,144.231c-0.083,1.005,0.753,1.214,1.591,0.921v0.502v0.502c-1.381,0.418-2.93,0.209-2.93-1.632
	v-2.658v-2.658h-0.921v-0.481v-0.481h1.004l0.377-1.8h0.879v0.9v0.9h1.465v0.481v0.481h-1.465v2.512V144.231z"/>
<path fill="#010101" d="M38.737,139.376c-3.265-0.67-2.218,3.809-2.386,6.823h-1.34l-0.042-7.954h1.256
	c0.042,0.502-0.042,1.214,0.083,1.633c0.251-1.13,0.963-2.051,2.428-1.716v0.607V139.376z"/>
<path fill="#010101" d="M40.956,143.98c0,0.837,0.502,1.381,1.339,1.381c1.716-0.125,2.637-1.214,2.512-3.098
	C43.007,142.348,40.956,142.055,40.956,143.98z M44.849,144.692c-0.628,0.879-1.298,1.716-2.847,1.675
	c-1.507-0.042-2.428-0.879-2.428-2.386c-0.042-2.679,2.637-2.637,5.232-2.637c0.125-1.465-0.377-2.26-1.716-2.26
	c-1.004,0.042-1.716,0.293-1.758,1.297l-1.382-0.125c0.209-1.549,1.382-2.177,3.182-2.177c1.884,0,3.014,0.837,3.014,2.679v1.716
	v1.716c-0.042,0.837,0.293,1.339,1.172,1.13v0.419v0.418C46.021,146.534,44.765,146.073,44.849,144.692z"/>
<path fill="#010101" d="M51.337,139.125c-1.674,0-2.009,1.382-2.009,3.056s0.376,3.139,2.009,3.139c1.004,0,1.716-0.586,1.8-1.59
	l1.34,0.083c-0.251,1.549-1.298,2.554-3.098,2.554c-2.47,0-3.182-1.716-3.433-4.145c-0.419-3.893,4.228-5.483,6.153-2.679
	c0.167,0.293,0.209,0.586,0.293,0.921l-1.339,0.125C52.886,139.711,52.383,139.125,51.337,139.125z"/>
<path fill="#010101" d="M57.323,144.231c-0.083,1.005,0.753,1.214,1.591,0.921v0.502v0.502c-1.381,0.418-2.93,0.209-2.93-1.632
	v-2.658v-2.658h-0.921v-0.481v-0.481h1.004l0.377-1.8h0.879v0.9v0.9h1.465v0.481v0.481h-1.465v2.512V144.231z"/>
<path fill="#010101" d="M60.044,146.199v-3.977v-3.977h1.339v3.977v3.977H60.044z M60.044,136.529v-0.628v-0.628h1.339v0.628v0.628
	H60.044z"/>
<path fill="#010101" d="M67.244,138.078c3.726-0.167,2.219,4.856,2.512,8.121h-1.34v-2.533v-2.533c0-1.297-0.334-2.051-1.632-2.009
	c-3.014,0.084-1.842,4.27-2.051,7.075h-1.339l-0.042-7.954h1.256c0.042,0.418-0.042,1.005,0.083,1.339
	C65.15,138.664,65.904,138.12,67.244,138.078z"/>
<path fill="#010101" d="M74.653,145.278c1.507,0,2.093-1.34,2.093-3.056c0-1.758-0.586-3.139-2.093-3.139
	c-1.632,0-1.925,1.423-1.925,3.139C72.728,143.938,72.979,145.278,74.653,145.278z M78.127,138.246
	c-0.419,5.232,1.716,12.265-4.605,10.925c-0.962-0.251-1.59-0.837-1.842-1.8l1.34-0.209c0.628,1.968,4.186,1.34,3.726-1.172v-0.628
	v-0.628c-0.461,0.879-1.214,1.507-2.554,1.507c-2.26,0-2.847-1.716-2.847-4.019c0-2.344,0.67-4.06,2.972-4.102
	c1.214-0.042,2.009,0.67,2.47,1.465c0.042-0.418,0-0.962,0.084-1.339H78.127z"/>
<path fill="#010101" d="M85.742,144.231c-0.084,1.005,0.753,1.214,1.59,0.921v0.502v0.502c-1.381,0.418-2.93,0.209-2.93-1.632
	v-2.658v-2.658h-0.921v-0.481v-0.481h1.005l0.376-1.8h0.879v0.9v0.9h1.465v0.481v0.481h-1.465v2.512V144.231z"/>
<path fill="#010101" d="M89.467,143.98c0,0.837,0.502,1.381,1.339,1.381c1.716-0.125,2.637-1.214,2.512-3.098
	C91.518,142.348,89.467,142.055,89.467,143.98z M93.36,144.692c-0.628,0.879-1.298,1.716-2.847,1.675
	c-1.507-0.042-2.428-0.879-2.428-2.386c-0.042-2.679,2.637-2.637,5.232-2.637c0.125-1.465-0.377-2.26-1.716-2.26
	c-1.005,0.042-1.716,0.293-1.758,1.297l-1.381-0.125c0.209-1.549,1.381-2.177,3.182-2.177c1.883,0,3.014,0.837,3.014,2.679v1.716
	v1.716c-0.042,0.837,0.293,1.339,1.172,1.13v0.419v0.418C94.532,146.534,93.276,146.073,93.36,144.692z"/>
<path fill="#010101" d="M100.309,145.362c1.674,0,1.883-1.423,1.883-3.14c0-1.674-0.209-3.139-1.883-3.098
	c-1.758,0-2.135,1.34-2.135,3.182C98.174,144.106,98.593,145.362,100.309,145.362z M100.644,138.078c2.219,0,2.889,1.633,2.93,4.103
	c0,2.763-0.962,4.186-2.93,4.186c-1.297-0.042-2.051-0.46-2.47-1.423l-0.083,1.256h-1.298l0.042-10.926h1.339v2.114v2.114
	C98.593,138.539,99.346,138.078,100.644,138.078z"/>
<polygon fill="#010101" points="105.207,146.199 105.207,140.736 105.207,135.273 106.546,135.273 106.546,140.736 106.546,146.199 
	"/>
<path fill="#010101" d="M113.872,141.469c0.251-2.511-3.182-3.223-4.061-1.172c-0.125,0.293-0.251,0.711-0.251,1.172H113.872z
	 M111.695,138.078c2.637,0,3.6,1.758,3.516,4.437h-5.651c0,1.675,0.586,2.805,2.218,2.847c1.088,0.042,1.8-0.502,2.051-1.214
	l1.172,0.335c-0.461,1.172-1.549,1.884-3.224,1.884c-2.428,0-3.684-1.549-3.642-4.186
	C108.179,139.627,109.225,138.078,111.695,138.078z"/>
<path fill="#010101" d="M121.532,140.213c-0.125-1.423-3.6-1.59-3.642,0c0.628,2.219,4.814,0.502,4.981,3.768
	s-6.279,3.098-6.572,0.335l1.172-0.209c0.167,1.507,4.06,1.884,4.102,0c-0.418-2.344-4.73-0.628-4.939-3.767
	c-0.167-2.386,3.433-2.637,5.107-1.758c0.502,0.293,0.879,0.795,1.004,1.465L121.532,140.213z"/>
<rect x="0.833" y="235.277" fill="#9AD6CA" width="133.952" height="83.803"/>
<rect x="0.833" y="235.277" fill="none" stroke="#010101" stroke-width="1.6744" stroke-miterlimit="10" width="133.952" height="83.803"/>
<polygon fill="#010101" points="29.13,244.235 29.13,248.84 29.13,253.444 27.707,253.444 27.707,248.84 27.707,244.235 
	24.149,244.235 24.149,243.649 24.149,243.063 32.688,243.063 32.688,243.649 32.688,244.235 "/>
<path fill="#010101" d="M37.209,246.621c-3.265-0.669-2.218,3.81-2.386,6.823h-1.34l-0.042-7.954h1.255
	c0.042,0.502-0.042,1.214,0.084,1.633c0.251-1.13,0.963-2.051,2.428-1.716v0.607V246.621z"/>
<path fill="#010101" d="M39.428,251.226c0,0.837,0.502,1.381,1.339,1.381c1.716-0.125,2.637-1.214,2.512-3.097
	C41.479,249.593,39.428,249.3,39.428,251.226z M43.321,251.938c-0.628,0.879-1.298,1.716-2.847,1.674
	c-1.507-0.042-2.428-0.879-2.428-2.386c-0.042-2.679,2.637-2.637,5.232-2.637c0.125-1.465-0.377-2.26-1.716-2.26
	c-1.004,0.042-1.716,0.293-1.758,1.298l-1.381-0.125c0.209-1.549,1.381-2.177,3.182-2.177c1.884,0,3.014,0.837,3.014,2.679v1.716
	v1.716c-0.042,0.837,0.293,1.339,1.172,1.13v0.418v0.418C44.493,253.779,43.237,253.319,43.321,251.938z"/>
<path fill="#010101" d="M50.688,245.324c3.726-0.167,2.219,4.855,2.512,8.121h-1.34v-2.533v-2.532c0-1.298-0.334-2.051-1.632-2.009
	c-3.014,0.083-1.842,4.27-2.051,7.074h-1.339l-0.042-7.954h1.256c0.042,0.419-0.042,1.005,0.084,1.34
	C48.595,245.91,49.349,245.365,50.688,245.324z"/>
<path fill="#010101" d="M59.813,247.458c-0.125-1.423-3.6-1.591-3.642,0c0.628,2.218,4.813,0.502,4.981,3.767
	c0.167,3.265-6.279,3.098-6.572,0.335l1.172-0.209c0.167,1.507,4.061,1.883,4.103,0c-0.419-2.344-4.73-0.628-4.939-3.768
	c-0.167-2.386,3.432-2.637,5.107-1.758c0.502,0.293,0.879,0.795,1.004,1.465L59.813,247.458z"/>
<path fill="#010101" d="M65.925,243.649c-1.297-0.376-1.758,0.419-1.59,1.842h1.59v0.481v0.481h-1.59v3.496v3.495h-1.298v-3.495
	v-3.496h-1.13v-0.481v-0.481h1.13c-0.293-2.176,0.711-3.432,2.888-2.846v0.502V243.649z"/>
<path fill="#010101" d="M70.027,252.607c1.842,0.042,2.219-1.297,2.219-3.139c0-1.8-0.335-3.14-2.135-3.14
	c-1.8,0-2.218,1.339-2.218,3.14C67.893,251.268,68.311,252.565,70.027,252.607z M70.069,245.324
	c2.595-0.042,3.558,1.549,3.558,4.144c0.042,2.637-1.13,4.144-3.6,4.144s-3.475-1.632-3.516-4.144
	C66.511,246.705,67.683,245.324,70.069,245.324z"/>
<path fill="#010101" d="M79.027,246.621c-3.265-0.669-2.219,3.81-2.386,6.823h-1.339l-0.042-7.954h1.256
	c0.042,0.502-0.042,1.214,0.083,1.633c0.251-1.13,0.963-2.051,2.428-1.716v0.607V246.621z"/>
<path fill="#010101" d="M88.027,246.37c-2.805,0.125-1.591,4.395-1.842,7.074h-1.297v-2.533v-2.532c0-1.214-0.209-2.093-1.465-2.009
	c-2.763,0.167-1.59,4.354-1.842,7.074h-1.297l-0.042-7.954h1.256c0.042,0.419-0.042,1.005,0.083,1.34
	c0.419-1.842,4.144-2.093,4.479,0c0.46-0.879,1.13-1.465,2.428-1.507c3.558-0.084,1.967,4.981,2.302,8.121h-1.298v-2.533v-2.532
	C89.492,247.166,89.283,246.328,88.027,246.37z"/>
<path fill="#010101" d="M92.757,253.444v-3.977v-3.977h1.339v3.977v3.977H92.757z M92.757,243.775v-0.628v-0.628h1.339v0.628v0.628
	H92.757z"/>
<path fill="#010101" d="M99.957,245.324c3.726-0.167,2.219,4.855,2.512,8.121h-1.339v-2.533v-2.532c0-1.298-0.335-2.051-1.633-2.009
	c-3.014,0.083-1.842,4.27-2.051,7.074h-1.34l-0.042-7.954h1.255c0.042,0.419-0.042,1.005,0.084,1.34
	C97.864,245.91,98.618,245.365,99.957,245.324z"/>
<path fill="#010101" d="M107.366,252.523c1.507,0,2.093-1.339,2.093-3.056c0-1.758-0.586-3.14-2.093-3.14
	c-1.632,0-1.925,1.423-1.925,3.14S105.692,252.523,107.366,252.523z M110.841,245.491c-0.418,5.233,1.716,12.265-4.604,10.926
	c-0.963-0.251-1.591-0.837-1.842-1.8l1.339-0.209c0.628,1.967,4.186,1.339,3.726-1.172v-0.628v-0.627
	c-0.46,0.879-1.214,1.507-2.554,1.507c-2.26,0-2.846-1.716-2.846-4.019c0-2.344,0.67-4.061,2.972-4.103
	c1.214-0.042,2.009,0.67,2.47,1.465c0.042-0.418,0-0.963,0.083-1.34H110.841z"/>
<path fill="#010101" d="M11.737,269.309c0,0.837,0.502,1.382,1.339,1.382c1.716-0.126,2.637-1.214,2.512-3.098
	C13.789,267.677,11.737,267.384,11.737,269.309z M15.63,270.021c-0.628,0.879-1.298,1.716-2.847,1.674
	c-1.507-0.042-2.428-0.879-2.428-2.386c-0.042-2.679,2.637-2.637,5.232-2.637c0.125-1.465-0.377-2.261-1.716-2.261
	c-1.004,0.042-1.716,0.293-1.758,1.298l-1.382-0.125c0.209-1.549,1.382-2.177,3.182-2.177c1.884,0,3.014,0.837,3.014,2.679v1.716
	v1.716c-0.042,0.837,0.293,1.339,1.172,1.13v0.418v0.418C16.802,271.863,15.546,271.402,15.63,270.021z"/>
<path fill="#010101" d="M22.872,264.705c-3.265-0.669-2.219,3.81-2.386,6.823h-1.339l-0.042-7.953h1.256
	c0.042,0.502-0.042,1.214,0.084,1.632c0.251-1.13,0.962-2.051,2.428-1.716v0.607V264.705z"/>
<path fill="#010101" d="M27.561,270.691c1.674,0,1.883-1.423,1.883-3.14c0-1.674-0.209-3.14-1.883-3.098
	c-1.758,0-2.135,1.339-2.135,3.181C25.425,269.435,25.844,270.691,27.561,270.691z M27.895,263.407c2.219,0,2.889,1.632,2.93,4.102
	c0,2.763-0.962,4.186-2.93,4.186c-1.297-0.042-2.051-0.46-2.47-1.423l-0.083,1.256h-1.298l0.042-10.925h1.339v2.114v2.114
	C25.844,263.868,26.598,263.407,27.895,263.407z"/>
<path fill="#010101" d="M32.458,271.528v-3.977v-3.977h1.339v3.977v3.977H32.458z M32.458,261.858v-0.628v-0.628h1.339v0.628v0.628
	H32.458z"/>
<path fill="#010101" d="M37.23,269.561c-0.083,1.004,0.753,1.214,1.591,0.921v0.502v0.502c-1.381,0.419-2.93,0.209-2.93-1.632
	v-2.658v-2.658H34.97v-0.481v-0.481h1.004l0.377-1.8h0.879v0.9v0.9h1.465v0.481v0.481H37.23v2.512V269.561z"/>
<path fill="#010101" d="M43.718,264.705c-3.265-0.669-2.219,3.81-2.386,6.823h-1.34l-0.042-7.953h1.256
	c0.042,0.502-0.042,1.214,0.084,1.632c0.251-1.13,0.963-2.051,2.428-1.716v0.607V264.705z"/>
<path fill="#010101" d="M45.937,269.309c0,0.837,0.502,1.382,1.339,1.382c1.716-0.126,2.637-1.214,2.512-3.098
	C47.988,267.677,45.937,267.384,45.937,269.309z M49.83,270.021c-0.628,0.879-1.298,1.716-2.847,1.674
	c-1.507-0.042-2.428-0.879-2.428-2.386c-0.042-2.679,2.637-2.637,5.232-2.637c0.125-1.465-0.377-2.261-1.716-2.261
	c-1.005,0.042-1.716,0.293-1.758,1.298l-1.381-0.125c0.209-1.549,1.381-2.177,3.182-2.177c1.883,0,3.014,0.837,3.014,2.679v1.716
	v1.716c-0.042,0.837,0.293,1.339,1.172,1.13v0.418v0.418C51.002,271.863,49.746,271.402,49.83,270.021z"/>
<path fill="#010101" d="M57.072,264.705c-3.265-0.669-2.219,3.81-2.386,6.823h-1.339l-0.042-7.953h1.256
	c0.042,0.502-0.042,1.214,0.083,1.632c0.251-1.13,0.963-2.051,2.428-1.716v0.607V264.705z"/>
<path fill="#010101" d="M64.774,263.575l-3.6,9.251c-0.586,1.172-1.549,2.135-3.391,1.758v-0.502v-0.502
	c1.633,0.251,2.219-0.837,2.679-2.093l-3.14-7.911h1.423l2.386,6.53l2.261-6.53H64.774z"/>
<path fill="#010101" d="M71.467,269.561c-0.083,1.004,0.753,1.214,1.591,0.921v0.502v0.502c-1.381,0.419-2.93,0.209-2.93-1.632
	v-2.658v-2.658h-0.921v-0.481v-0.481h1.004l0.377-1.8h0.879v0.9v0.9h1.465v0.481v0.481h-1.465v2.512V269.561z"/>
<path fill="#010101" d="M75.193,269.309c0,0.837,0.502,1.382,1.339,1.382c1.716-0.126,2.637-1.214,2.512-3.098
	C77.244,267.677,75.193,267.384,75.193,269.309z M79.086,270.021c-0.628,0.879-1.298,1.716-2.847,1.674
	c-1.507-0.042-2.428-0.879-2.428-2.386c-0.042-2.679,2.637-2.637,5.232-2.637c0.125-1.465-0.377-2.261-1.716-2.261
	c-1.004,0.042-1.716,0.293-1.758,1.298l-1.381-0.125c0.209-1.549,1.381-2.177,3.181-2.177c1.884,0,3.014,0.837,3.014,2.679v1.716
	v1.716c-0.042,0.837,0.293,1.339,1.172,1.13v0.418v0.418C80.258,271.863,79.002,271.402,79.086,270.021z"/>
<path fill="#010101" d="M86.035,270.691c1.674,0,1.884-1.423,1.884-3.14c0-1.674-0.209-3.14-1.884-3.098
	c-1.758,0-2.135,1.339-2.135,3.181C83.9,269.435,84.318,270.691,86.035,270.691z M86.37,263.407c2.218,0,2.888,1.632,2.93,4.102
	c0,2.763-0.963,4.186-2.93,4.186c-1.298-0.042-2.051-0.46-2.47-1.423l-0.084,1.256h-1.297l0.042-10.925h1.34v2.114v2.114
	C84.318,263.868,85.072,263.407,86.37,263.407z"/>
<polygon fill="#010101" points="90.932,271.528 90.932,266.065 90.932,260.603 92.271,260.603 92.271,266.065 92.271,271.528 "/>
<path fill="#010101" d="M99.597,266.798c0.251-2.512-3.181-3.223-4.061-1.172c-0.125,0.293-0.251,0.712-0.251,1.172H99.597z
	 M97.42,263.407c2.637,0,3.6,1.758,3.516,4.437h-5.651c0,1.674,0.586,2.805,2.219,2.847c1.088,0.042,1.8-0.502,2.051-1.214
	l1.172,0.335c-0.46,1.172-1.549,1.884-3.223,1.884c-2.428,0-3.684-1.549-3.642-4.186C93.904,264.956,94.951,263.407,97.42,263.407z"
	/>
<path fill="#010101" d="M107.258,265.542c-0.126-1.423-3.6-1.591-3.642,0c0.628,2.218,4.814,0.502,4.981,3.767
	c0.167,3.265-6.279,3.098-6.572,0.335l1.172-0.209c0.167,1.507,4.061,1.884,4.102,0c-0.418-2.344-4.73-0.628-4.939-3.768
	c-0.167-2.386,3.433-2.637,5.107-1.758c0.502,0.293,0.879,0.795,1.005,1.465L107.258,265.542z"/>
<path fill="#010101" d="M115.738,269.561c-0.083,1.004,0.753,1.214,1.591,0.921v0.502v0.502c-1.381,0.419-2.93,0.209-2.93-1.632
	v-2.658v-2.658h-0.921v-0.481v-0.481h1.004l0.377-1.8h0.879v0.9v0.9h1.465v0.481v0.481h-1.465v2.512V269.561z"/>
<path fill="#010101" d="M121.599,270.691c1.842,0.042,2.219-1.298,2.219-3.14c0-1.8-0.335-3.14-2.135-3.14s-2.219,1.34-2.219,3.14
	S119.883,270.649,121.599,270.691z M121.641,263.407c2.595-0.042,3.558,1.549,3.558,4.144c0.042,2.637-1.13,4.144-3.6,4.144
	s-3.474-1.632-3.516-4.144C118.083,264.789,119.255,263.407,121.641,263.407z"/>
<path fill="#010101" d="M8.828,287.644c-0.084,1.005,0.753,1.214,1.59,0.921v0.502v0.503c-1.381,0.418-2.93,0.209-2.93-1.633v-2.658
	v-2.658H6.567v-0.481v-0.481h1.005l0.376-1.8h0.879v0.9v0.9h1.465v0.481v0.481H8.828v2.512V287.644z"/>
<path fill="#010101" d="M14.981,282.537c-3.014,0-1.842,4.27-2.051,7.075h-1.339v-5.463v-5.463h1.339l-0.042,4.312
	c0.502-0.879,1.172-1.507,2.553-1.507c3.726,0,2.219,4.855,2.512,8.121h-1.34v-2.533v-2.532
	C16.698,283.207,16.279,282.495,14.981,282.537z"/>
<path fill="#010101" d="M25.279,284.881c0.251-2.512-3.181-3.223-4.06-1.172c-0.126,0.293-0.251,0.712-0.251,1.172H25.279z
	 M23.102,281.491c2.637,0,3.6,1.758,3.517,4.438h-5.651c0,1.674,0.586,2.804,2.219,2.846c1.088,0.042,1.8-0.502,2.051-1.214
	l1.172,0.335c-0.46,1.172-1.549,1.884-3.223,1.884c-2.428,0-3.684-1.549-3.642-4.186C19.586,283.04,20.632,281.491,23.102,281.491z"
	/>
<path fill="#010101" d="M35.493,282.537c-1.674,0-2.009,1.381-2.009,3.056s0.377,3.139,2.009,3.139c1.005,0,1.716-0.586,1.8-1.59
	l1.339,0.083c-0.251,1.549-1.298,2.554-3.098,2.554c-2.47,0-3.181-1.716-3.433-4.144c-0.418-3.893,4.228-5.484,6.153-2.679
	c0.167,0.293,0.209,0.586,0.293,0.921l-1.34,0.126C37.042,283.123,36.54,282.537,35.493,282.537z"/>
<path fill="#010101" d="M41.019,287.393c0,0.837,0.502,1.381,1.339,1.381c1.716-0.125,2.637-1.214,2.512-3.097
	C43.069,285.76,41.019,285.467,41.019,287.393z M44.911,288.104c-0.628,0.88-1.297,1.717-2.846,1.675
	c-1.507-0.042-2.428-0.879-2.428-2.386c-0.042-2.679,2.637-2.637,5.232-2.637c0.125-1.465-0.377-2.261-1.716-2.261
	c-1.005,0.042-1.716,0.293-1.758,1.298l-1.381-0.125c0.209-1.549,1.381-2.177,3.182-2.177c1.883,0,3.014,0.837,3.014,2.679v1.717
	v1.716c-0.042,0.837,0.293,1.34,1.172,1.13v0.419v0.419C46.083,289.947,44.828,289.486,44.911,288.104z"/>
<path fill="#010101" d="M52.279,281.491c3.726-0.167,2.218,4.855,2.511,8.121h-1.339v-2.533v-2.532c0-1.298-0.335-2.051-1.632-2.009
	c-3.014,0.083-1.842,4.27-2.051,7.075h-1.339l-0.042-7.954h1.256c0.042,0.418-0.042,1.004,0.083,1.339
	C50.186,282.077,50.939,281.532,52.279,281.491z"/>
<path fill="#010101" d="M59.897,288.774c1.842,0.042,2.218-1.297,2.218-3.139c0-1.8-0.335-3.14-2.135-3.14s-2.219,1.34-2.219,3.14
	C57.762,287.435,58.181,288.732,59.897,288.774z M59.939,281.491c2.595-0.042,3.558,1.549,3.558,4.144
	c0.042,2.637-1.13,4.144-3.6,4.144c-2.47,0-3.475-1.633-3.517-4.144C56.381,282.872,57.553,281.491,59.939,281.491z"/>
<path fill="#010101" d="M69.022,281.491c3.726-0.167,2.219,4.855,2.512,8.121h-1.339v-2.533v-2.532c0-1.298-0.335-2.051-1.633-2.009
	c-3.014,0.083-1.842,4.27-2.051,7.075h-1.34l-0.042-7.954h1.256c0.042,0.418-0.042,1.004,0.083,1.339
	C66.93,282.077,67.683,281.532,69.022,281.491z"/>
<path fill="#010101" d="M73.502,289.612v-3.977v-3.977h1.339v3.977v3.977H73.502z M73.502,279.942v-0.628v-0.628h1.339v0.628v0.628
	H73.502z"/>
<path fill="#010101" d="M79.823,282.537c-1.675,0-2.009,1.381-2.009,3.056s0.376,3.139,2.009,3.139c1.004,0,1.716-0.586,1.8-1.59
	l1.339,0.083c-0.251,1.549-1.297,2.554-3.098,2.554c-2.47,0-3.181-1.716-3.432-4.144c-0.419-3.893,4.228-5.484,6.153-2.679
	c0.167,0.293,0.209,0.586,0.293,0.921l-1.339,0.126C81.372,283.123,80.869,282.537,79.823,282.537z"/>
<path fill="#010101" d="M85.348,287.393c0,0.837,0.502,1.381,1.339,1.381c1.716-0.125,2.637-1.214,2.512-3.097
	C87.399,285.76,85.348,285.467,85.348,287.393z M89.241,288.104c-0.628,0.88-1.298,1.717-2.847,1.675
	c-1.507-0.042-2.428-0.879-2.428-2.386c-0.042-2.679,2.637-2.637,5.232-2.637c0.125-1.465-0.377-2.261-1.716-2.261
	c-1.004,0.042-1.716,0.293-1.758,1.298l-1.381-0.125c0.209-1.549,1.381-2.177,3.182-2.177c1.884,0,3.014,0.837,3.014,2.679v1.717
	v1.716c-0.042,0.837,0.293,1.34,1.172,1.13v0.419v0.419C90.413,289.947,89.157,289.486,89.241,288.104z"/>
<polygon fill="#010101" points="92.715,289.612 92.715,284.149 92.715,278.686 94.055,278.686 94.055,284.149 94.055,289.612 "/>
<path fill="#010101" d="M103.432,279.816c-1.298-0.377-1.758,0.418-1.591,1.842h1.591v0.481v0.481h-1.591v3.495v3.496h-1.297v-3.496
	v-3.495h-1.13v-0.481v-0.481h1.13c-0.293-2.177,0.711-3.433,2.888-2.847v0.502V279.816z"/>
<path fill="#010101" d="M107.534,288.774c1.842,0.042,2.219-1.297,2.219-3.139c0-1.8-0.335-3.14-2.135-3.14
	c-1.8,0-2.219,1.34-2.219,3.14C105.399,287.435,105.817,288.732,107.534,288.774z M107.576,281.491
	c2.595-0.042,3.558,1.549,3.558,4.144c0.042,2.637-1.13,4.144-3.6,4.144s-3.474-1.633-3.516-4.144
	C104.018,282.872,105.19,281.491,107.576,281.491z"/>
<path fill="#010101" d="M116.534,282.788c-3.265-0.669-2.218,3.809-2.386,6.824h-1.34l-0.042-7.954h1.256
	c0.042,0.502-0.042,1.214,0.083,1.632c0.251-1.13,0.963-2.051,2.428-1.716v0.607V282.788z"/>
<path fill="#010101" d="M125.534,282.537c-2.805,0.125-1.591,4.395-1.842,7.075h-1.298v-2.533v-2.532
	c0-1.214-0.209-2.093-1.465-2.009c-2.763,0.167-1.591,4.353-1.842,7.075h-1.298l-0.042-7.954h1.256
	c0.042,0.418-0.042,1.004,0.084,1.339c0.418-1.842,4.144-2.093,4.479,0c0.46-0.879,1.13-1.465,2.428-1.507
	c3.558-0.084,1.967,4.981,2.302,8.121h-1.297v-2.533v-2.532C126.999,283.333,126.79,282.495,125.534,282.537z"/>
<polygon fill="#010101" points="31.349,307.695 29.758,307.695 26.87,299.742 28.293,299.742 30.553,306.649 32.897,299.742 
	34.321,299.742 "/>
<path fill="#010101" d="M35.367,307.695v-3.977v-3.977h1.339v3.977v3.977H35.367z M35.367,298.025v-0.628v-0.628h1.339v0.628v0.628
	H35.367z"/>
<path fill="#010101" d="M39.679,305.476c0,0.838,0.502,1.382,1.34,1.382c1.716-0.126,2.637-1.214,2.511-3.098
	C41.73,303.844,39.679,303.551,39.679,305.476z M43.572,306.188c-0.628,0.879-1.298,1.716-2.847,1.675
	c-1.507-0.042-2.428-0.88-2.428-2.387c-0.042-2.679,2.637-2.637,5.232-2.637c0.125-1.465-0.376-2.261-1.716-2.261
	c-1.004,0.042-1.716,0.293-1.758,1.298l-1.381-0.126c0.209-1.549,1.381-2.177,3.181-2.177c1.884,0,3.014,0.838,3.014,2.68v1.716
	v1.717c-0.042,0.837,0.293,1.339,1.172,1.13v0.419v0.418C44.744,308.03,43.488,307.57,43.572,306.188z"/>
<polygon fill="#010101" points="55.544,298.486 55.544,303.09 55.544,307.695 54.121,307.695 54.121,303.09 54.121,298.486 
	50.563,298.486 50.563,297.9 50.563,297.314 59.102,297.314 59.102,297.9 59.102,298.486 "/>
<path fill="#010101" d="M59.73,305.476c0,0.838,0.502,1.382,1.339,1.382c1.716-0.126,2.637-1.214,2.512-3.098
	C61.781,303.844,59.73,303.551,59.73,305.476z M63.623,306.188c-0.628,0.879-1.297,1.716-2.846,1.675
	c-1.507-0.042-2.428-0.88-2.428-2.387c-0.042-2.679,2.637-2.637,5.232-2.637c0.125-1.465-0.377-2.261-1.716-2.261
	c-1.005,0.042-1.716,0.293-1.758,1.298l-1.381-0.126c0.209-1.549,1.381-2.177,3.181-2.177c1.884,0,3.014,0.838,3.014,2.68v1.716
	v1.717c-0.042,0.837,0.293,1.339,1.172,1.13v0.419v0.418C64.795,308.03,63.539,307.57,63.623,306.188z"/>
<path fill="#010101" d="M70.571,306.858c1.675,0,1.884-1.424,1.884-3.14c0-1.675-0.209-3.14-1.884-3.098
	c-1.758,0-2.135,1.34-2.135,3.182C68.437,305.602,68.855,306.858,70.571,306.858z M70.906,299.574c2.219,0,2.889,1.633,2.93,4.103
	c0,2.763-0.962,4.187-2.93,4.187c-1.297-0.042-2.051-0.461-2.47-1.424l-0.083,1.256h-1.298l0.042-10.926h1.339v2.114v2.114
	C68.855,300.035,69.609,299.574,70.906,299.574z"/>
<path fill="#010101" d="M78.943,306.858c1.675,0,1.884-1.424,1.884-3.14c0-1.675-0.209-3.14-1.884-3.098
	c-1.758,0-2.135,1.34-2.135,3.182C76.809,305.602,77.227,306.858,78.943,306.858z M79.278,299.574c2.219,0,2.888,1.633,2.93,4.103
	c0,2.763-0.963,4.187-2.93,4.187c-1.297-0.042-2.051-0.461-2.47-1.424l-0.083,1.256h-1.298l0.042-10.926h1.339v2.114v2.114
	C77.227,300.035,77.981,299.574,79.278,299.574z"/>
<path fill="#010101" d="M90.33,299.742l-3.6,9.251c-0.586,1.172-1.549,2.135-3.391,1.758v-0.502v-0.502
	c1.632,0.251,2.219-0.838,2.679-2.094l-3.139-7.911h1.423l2.386,6.53l2.261-6.53H90.33z"/>
<polygon fill="#010101" points="98.534,307.695 95.437,303.174 92.255,307.695 90.706,307.695 94.641,302.295 90.999,297.314 
	92.548,297.314 95.437,301.416 98.241,297.314 99.79,297.314 96.273,302.253 100.125,307.695 "/>
<polygon fill="#010101" points="101.673,307.695 101.673,302.504 101.673,297.314 103.055,297.314 103.055,301.939 103.055,306.565 
	108.287,306.565 108.287,307.129 108.287,307.695 "/>
<rect x="0.833" y="385.471" fill="#FFFFFF" width="133.952" height="51.32"/>
<rect x="0.833" y="385.471" fill="none" stroke="#010101" stroke-width="1.6744" stroke-miterlimit="10" width="133.952" height="51.32"/>
<path fill="#010101" d="M36.581,405.564c-3.433,0-5.065-2.01-5.232-5.4c-0.209-4.479,4.186-6.446,8.079-4.646
	c0.711,0.335,1.214,1.047,1.549,1.8l-1.34,0.377c-0.544-1.047-1.548-1.674-3.181-1.674c-2.553,0-3.684,1.632-3.684,4.144
	c0,2.554,1.214,4.187,3.809,4.228c1.465,0,2.596-0.46,3.307-1.13v-0.941v-0.942h-3.098v-0.586v-0.586h4.395v1.8v1.8
	C40.139,404.852,38.632,405.564,36.581,405.564z"/>
<path fill="#010101" d="M48.679,400.667c0.251-2.512-3.181-3.224-4.061-1.173c-0.125,0.293-0.251,0.712-0.251,1.173H48.679z
	 M46.502,397.275c2.637,0,3.6,1.759,3.516,4.438h-5.651c0,1.675,0.586,2.805,2.219,2.847c1.088,0.042,1.8-0.502,2.051-1.214
	l1.172,0.335c-0.46,1.172-1.549,1.884-3.223,1.884c-2.428,0-3.684-1.549-3.642-4.187C42.986,398.824,44.032,397.275,46.502,397.275z
	"/>
<path fill="#010101" d="M55.585,397.275c3.726-0.167,2.219,4.856,2.512,8.121h-1.339v-2.532v-2.532c0-1.298-0.335-2.052-1.633-2.01
	c-3.014,0.084-1.842,4.27-2.051,7.074h-1.34l-0.042-7.953h1.255c0.042,0.419-0.042,1.005,0.084,1.34
	C53.493,397.862,54.246,397.317,55.585,397.275z"/>
<path fill="#010101" d="M65.423,400.667c0.251-2.512-3.182-3.224-4.061-1.173c-0.125,0.293-0.251,0.712-0.251,1.173H65.423z
	 M63.246,397.275c2.637,0,3.6,1.759,3.516,4.438h-5.651c0,1.675,0.586,2.805,2.218,2.847c1.088,0.042,1.8-0.502,2.051-1.214
	l1.172,0.335c-0.46,1.172-1.549,1.884-3.223,1.884c-2.428,0-3.684-1.549-3.642-4.187C59.73,398.824,60.776,397.275,63.246,397.275z"
	/>
<path fill="#010101" d="M72.204,398.573c-3.265-0.67-2.219,3.81-2.386,6.823h-1.339l-0.042-7.953h1.256
	c0.042,0.502-0.042,1.214,0.084,1.633c0.251-1.131,0.962-2.052,2.428-1.717v0.607V398.573z"/>
<path fill="#010101" d="M74.423,403.177c0,0.838,0.502,1.382,1.339,1.382c1.716-0.126,2.637-1.214,2.512-3.098
	C76.474,401.545,74.423,401.252,74.423,403.177z M78.315,403.889c-0.628,0.879-1.297,1.717-2.846,1.675
	c-1.507-0.042-2.428-0.879-2.428-2.387c-0.042-2.679,2.637-2.637,5.233-2.637c0.125-1.465-0.377-2.261-1.716-2.261
	c-1.005,0.042-1.716,0.293-1.758,1.298l-1.381-0.126c0.209-1.549,1.381-2.177,3.181-2.177c1.884,0,3.014,0.838,3.014,2.68v1.716
	v1.717c-0.042,0.837,0.293,1.339,1.172,1.13v0.419v0.418C79.488,405.731,78.232,405.271,78.315,403.889z"/>
<path fill="#010101" d="M83.255,403.429c-0.083,1.004,0.754,1.214,1.591,0.921v0.502v0.502c-1.381,0.419-2.93,0.21-2.93-1.632
	v-2.658v-2.658h-0.921v-0.481v-0.481h1.004l0.377-1.8h0.879v0.899v0.9h1.465v0.481v0.481h-1.465v2.512V403.429z"/>
<path fill="#010101" d="M85.976,405.396v-3.977v-3.977h1.339v3.977v3.977H85.976z M85.976,395.726v-0.627v-0.628h1.339v0.628v0.627
	H85.976z"/>
<path fill="#010101" d="M93.176,397.275c3.726-0.167,2.219,4.856,2.512,8.121h-1.339v-2.532v-2.532c0-1.298-0.335-2.052-1.633-2.01
	c-3.014,0.084-1.842,4.27-2.051,7.074h-1.339l-0.042-7.953h1.256c0.042,0.419-0.042,1.005,0.084,1.34
	C91.083,397.862,91.836,397.317,93.176,397.275z"/>
<path fill="#010101" d="M100.585,404.475c1.507,0,2.093-1.339,2.093-3.056c0-1.758-0.586-3.14-2.093-3.14
	c-1.632,0-1.925,1.424-1.925,3.14C98.66,403.136,98.911,404.475,100.585,404.475z M104.06,397.443
	c-0.418,5.232,1.716,12.265-4.604,10.926c-0.963-0.252-1.591-0.838-1.842-1.801l1.339-0.209c0.628,1.968,4.186,1.34,3.726-1.172
	v-0.628v-0.628c-0.46,0.879-1.214,1.507-2.554,1.507c-2.26,0-2.846-1.716-2.846-4.019c0-2.344,0.669-4.061,2.972-4.103
	c1.214-0.042,2.01,0.67,2.47,1.466c0.042-0.419,0-0.963,0.084-1.34H104.06z"/>
<path fill="#010101" d="M9.1,416.406c-1.674,0-2.009,1.381-2.009,3.056c0,1.674,0.377,3.14,2.009,3.14
	c1.004,0,1.716-0.587,1.8-1.591l1.34,0.083c-0.251,1.549-1.298,2.554-3.098,2.554c-2.47,0-3.182-1.716-3.433-4.144
	c-0.418-3.894,4.228-5.484,6.153-2.68c0.167,0.293,0.209,0.586,0.293,0.921l-1.339,0.126C10.649,416.992,10.146,416.406,9.1,416.406
	z"/>
<path fill="#010101" d="M16.76,422.642c1.842,0.042,2.219-1.297,2.219-3.139c0-1.801-0.335-3.14-2.135-3.14s-2.219,1.339-2.219,3.14
	C14.625,421.303,15.044,422.601,16.76,422.642z M16.802,415.359c2.595-0.042,3.558,1.549,3.558,4.145
	c0.042,2.637-1.13,4.144-3.6,4.144c-2.47,0-3.474-1.633-3.516-4.144C13.244,416.741,14.417,415.359,16.802,415.359z"/>
<path fill="#010101" d="M25.886,415.359c3.726-0.167,2.219,4.855,2.512,8.121h-1.339v-2.533v-2.532c0-1.298-0.335-2.051-1.633-2.009
	c-3.014,0.083-1.842,4.27-2.051,7.074h-1.34l-0.042-7.954h1.256c0.042,0.419-0.042,1.005,0.083,1.34
	C23.793,415.945,24.546,415.401,25.886,415.359z"/>
<path fill="#010101" d="M33.379,416.406c-1.674,0-2.009,1.381-2.009,3.056c0,1.674,0.377,3.14,2.009,3.14
	c1.004,0,1.716-0.587,1.8-1.591l1.34,0.083c-0.251,1.549-1.298,2.554-3.098,2.554c-2.47,0-3.182-1.716-3.433-4.144
	c-0.418-3.894,4.228-5.484,6.153-2.68c0.167,0.293,0.209,0.586,0.293,0.921l-1.339,0.126
	C34.928,416.992,34.425,416.406,33.379,416.406z"/>
<path fill="#010101" d="M43.258,418.75c0.251-2.512-3.181-3.224-4.061-1.172c-0.125,0.293-0.251,0.712-0.251,1.172H43.258z
	 M41.081,415.359c2.637,0,3.6,1.758,3.516,4.438h-5.651c0,1.674,0.586,2.805,2.219,2.846c1.088,0.042,1.8-0.502,2.051-1.214
	l1.172,0.335c-0.46,1.172-1.549,1.884-3.223,1.884c-2.428,0-3.684-1.549-3.642-4.186C37.565,416.908,38.611,415.359,41.081,415.359z
	"/>
<path fill="#010101" d="M49.746,422.642c1.674,0,1.884-1.423,1.884-3.139c0-1.717-0.251-3.057-1.884-3.098
	c-1.758,0-2.135,1.339-2.135,3.181C47.611,421.387,48.03,422.642,49.746,422.642z M50.081,415.359
	c2.302,0.042,2.93,1.716,2.93,4.103c0,2.386-0.67,4.102-2.93,4.186c-1.298,0-2.051-0.544-2.512-1.423l0.042,4.396h-1.339
	l-0.042-11.094h1.297l0.084,1.256C48.03,415.903,48.783,415.359,50.081,415.359z"/>
<path fill="#010101" d="M56.109,421.512c-0.083,1.005,0.753,1.214,1.591,0.921v0.502v0.503c-1.381,0.419-2.93,0.209-2.93-1.633
	v-2.658v-2.658h-0.921v-0.481v-0.481h1.004l0.377-1.8h0.879v0.9v0.899h1.465v0.481v0.481h-1.465V419V421.512z"/>
<path fill="#010101" d="M61.341,423.647c-3.726,0.168-2.26-4.855-2.553-8.121h1.339v2.512v2.512c0,1.298,0.293,2.093,1.632,2.052
	c3.014-0.084,1.884-4.229,2.093-7.075h1.297l0.042,7.954h-1.256c-0.042-0.419,0.042-1.047-0.083-1.382
	C63.393,423.019,62.681,423.605,61.341,423.647z"/>
<path fill="#010101" d="M68.207,421.261c0,0.837,0.502,1.381,1.339,1.381c1.716-0.125,2.637-1.214,2.512-3.098
	C70.257,419.628,68.207,419.335,68.207,421.261z M72.1,421.973c-0.628,0.879-1.298,1.716-2.847,1.674
	c-1.507-0.042-2.428-0.879-2.428-2.386c-0.042-2.679,2.637-2.638,5.232-2.638c0.125-1.465-0.377-2.26-1.716-2.26
	c-1.005,0.042-1.716,0.293-1.758,1.298l-1.381-0.126c0.209-1.549,1.381-2.177,3.182-2.177c1.883,0,3.014,0.837,3.014,2.679v1.717
	v1.716c-0.042,0.838,0.293,1.34,1.172,1.131v0.418v0.419C73.271,423.815,72.016,423.354,72.1,421.973z"/>
<polygon fill="#010101" points="75.574,423.48 75.574,418.017 75.574,412.554 76.913,412.554 76.913,418.017 76.913,423.48 "/>
<path fill="#010101" d="M90.849,416.406c-2.805,0.125-1.591,4.395-1.842,7.074h-1.298v-2.533v-2.532
	c0-1.214-0.209-2.093-1.465-2.009c-2.763,0.167-1.59,4.354-1.842,7.074h-1.297l-0.042-7.954h1.256
	c0.042,0.419-0.042,1.005,0.083,1.34c0.419-1.842,4.145-2.093,4.479,0c0.46-0.879,1.13-1.465,2.428-1.507
	c3.558-0.084,1.967,4.981,2.302,8.121h-1.298v-2.533v-2.532C92.313,417.201,92.104,416.364,90.849,416.406z"/>
<path fill="#010101" d="M98.718,422.642c1.842,0.042,2.218-1.297,2.218-3.139c0-1.801-0.334-3.14-2.135-3.14
	c-1.8,0-2.218,1.339-2.218,3.14C96.583,421.303,97.002,422.601,98.718,422.642z M98.76,415.359c2.596-0.042,3.559,1.549,3.559,4.145
	c0.042,2.637-1.13,4.144-3.6,4.144s-3.475-1.633-3.516-4.144C95.202,416.741,96.374,415.359,98.76,415.359z"/>
<path fill="#010101" d="M106.881,416.364c-1.674,0-1.926,1.423-1.926,3.14c0,1.674,0.251,3.098,1.884,3.098
	c1.758,0,2.135-1.34,2.135-3.182C108.974,417.662,108.597,416.322,106.881,416.364z M106.504,415.359
	c1.298,0,2.009,0.544,2.512,1.382l-0.042-4.187h1.34l0.042,10.926H109.1c-0.084-0.419,0-0.963-0.126-1.298
	c-0.418,0.963-1.172,1.465-2.47,1.465c-2.218,0-2.888-1.633-2.93-4.103C103.574,416.782,104.537,415.359,106.504,415.359z"/>
<path fill="#010101" d="M117.681,418.75c0.251-2.512-3.181-3.224-4.061-1.172c-0.125,0.293-0.251,0.712-0.251,1.172H117.681z
	 M115.504,415.359c2.637,0,3.6,1.758,3.516,4.438h-5.651c0,1.674,0.586,2.805,2.219,2.846c1.088,0.042,1.8-0.502,2.051-1.214
	l1.172,0.335c-0.46,1.172-1.549,1.884-3.223,1.884c-2.428,0-3.684-1.549-3.642-4.186
	C111.988,416.908,113.034,415.359,115.504,415.359z"/>
<polygon fill="#010101" points="120.695,423.48 120.695,418.017 120.695,412.554 122.034,412.554 122.034,418.017 122.034,423.48 
	"/>
<path fill="#010101" d="M128.648,417.494c-0.125-1.423-3.6-1.591-3.642,0c0.628,2.219,4.814,0.502,4.981,3.768
	c0.167,3.265-6.279,3.098-6.572,0.335l1.172-0.209c0.167,1.507,4.06,1.883,4.102,0c-0.418-2.345-4.73-0.628-4.939-3.768
	c-0.167-2.387,3.433-2.638,5.107-1.759c0.502,0.293,0.879,0.796,1.004,1.466L128.648,417.494z"/>
<path fill="#E5E5E5" d="M436.177,252.021c-13.897,0-25.116,11.302-25.116,25.116c0,13.897,11.219,25.116,25.116,25.116h-0.251
	H210.133c-13.897,0-25.116-11.219-25.116-25.116c0-13.814,11.219-25.116,25.116-25.116H436.177z"/>
<path fill="none" stroke="#010101" stroke-width="1.6744" stroke-miterlimit="10" d="M436.177,252.021
	c-13.897,0-25.116,11.302-25.116,25.116c0,13.897,11.219,25.116,25.116,25.116h-0.251H210.133
	c-13.897,0-25.116-11.219-25.116-25.116c0-13.814,11.219-25.116,25.116-25.116H436.177z"/>
<path fill="#010101" d="M257.66,266.128c2.512-0.083,5.735,0.544,5.735-1.967c0-2.554-3.349-1.758-5.735-1.884v1.926V266.128z
	 M264.776,264.119c-0.041,1.716-0.962,2.679-2.511,2.93l2.93,4.479h-1.591l-2.721-4.312h-3.224v2.156v2.156h-1.381v-5.19v-5.191
	C259.963,261.272,264.86,260.268,264.776,264.119z"/>
<path fill="#010101" d="M272.228,266.798c0.252-2.512-3.181-3.223-4.061-1.172c-0.125,0.293-0.251,0.712-0.251,1.172H272.228z
	 M270.051,263.407c2.638,0,3.601,1.758,3.517,4.437h-5.651c0,1.674,0.586,2.805,2.219,2.847c1.089,0.042,1.8-0.502,2.051-1.214
	l1.173,0.335c-0.461,1.172-1.549,1.884-3.224,1.884c-2.428,0-3.684-1.549-3.642-4.186
	C266.535,264.956,267.581,263.407,270.051,263.407z"/>
<polygon fill="#010101" points="275.242,271.528 275.242,266.065 275.242,260.603 276.581,260.603 276.581,266.065 276.581,271.528 
	"/>
<path fill="#010101" d="M279.554,269.309c0,0.837,0.502,1.382,1.339,1.382c1.717-0.126,2.638-1.214,2.512-3.098
	C281.604,267.677,279.554,267.384,279.554,269.309z M283.446,270.021c-0.628,0.879-1.298,1.716-2.847,1.674
	c-1.507-0.042-2.428-0.879-2.428-2.386c-0.042-2.679,2.638-2.637,5.232-2.637c0.126-1.465-0.377-2.261-1.716-2.261
	c-1.005,0.042-1.717,0.293-1.759,1.298l-1.381-0.125c0.209-1.549,1.381-2.177,3.182-2.177c1.884,0,3.014,0.837,3.014,2.679v1.716
	v1.716c-0.042,0.837,0.293,1.339,1.172,1.13v0.418v0.418C284.618,271.863,283.362,271.402,283.446,270.021z"/>
<path fill="#010101" d="M288.386,269.561c-0.084,1.004,0.754,1.214,1.591,0.921v0.502v0.502c-1.382,0.419-2.931,0.209-2.931-1.632
	v-2.658v-2.658h-0.921v-0.481v-0.481h1.005l0.377-1.8h0.879v0.9v0.9h1.465v0.481v0.481h-1.465v2.512V269.561z"/>
<path fill="#010101" d="M291.106,271.528v-3.977v-3.977h1.34v3.977v3.977H291.106z M291.106,261.858v-0.628v-0.628h1.34v0.628v0.628
	H291.106z"/>
<path fill="#010101" d="M297.553,270.691c1.842,0.042,2.219-1.298,2.219-3.14c0-1.8-0.335-3.14-2.135-3.14s-2.219,1.34-2.219,3.14
	S295.837,270.649,297.553,270.691z M297.595,263.407c2.596-0.042,3.559,1.549,3.559,4.144c0.042,2.637-1.131,4.144-3.601,4.144
	s-3.474-1.632-3.516-4.144C294.037,264.789,295.209,263.407,297.595,263.407z"/>
<path fill="#010101" d="M306.679,263.407c3.726-0.167,2.219,4.855,2.512,8.121h-1.34v-2.532v-2.533c0-1.298-0.335-2.051-1.633-2.009
	c-3.014,0.083-1.842,4.27-2.051,7.074h-1.34l-0.041-7.953h1.255c0.042,0.418-0.041,1.004,0.084,1.339
	C304.586,263.993,305.339,263.449,306.679,263.407z"/>
<path fill="#010101" d="M312.162,269.309c0,0.837,0.503,1.382,1.34,1.382c1.716-0.126,2.637-1.214,2.512-3.098
	C314.214,267.677,312.162,267.384,312.162,269.309z M316.056,270.021c-0.628,0.879-1.298,1.716-2.847,1.674
	c-1.507-0.042-2.428-0.879-2.428-2.386c-0.042-2.679,2.637-2.637,5.232-2.637c0.125-1.465-0.377-2.261-1.717-2.261
	c-1.004,0.042-1.716,0.293-1.758,1.298l-1.381-0.125c0.209-1.549,1.381-2.177,3.181-2.177c1.884,0,3.014,0.837,3.014,2.679v1.716
	v1.716c-0.041,0.837,0.294,1.339,1.173,1.13v0.418v0.418C317.228,271.863,315.972,271.402,316.056,270.021z"/>
<polygon fill="#010101" points="319.529,271.528 319.529,266.065 319.529,260.603 320.869,260.603 320.869,266.065 320.869,271.528 
	"/>
<path fill="#010101" d="M328.471,269.561c-0.084,1.004,0.754,1.214,1.591,0.921v0.502v0.502c-1.381,0.419-2.93,0.209-2.93-1.632
	v-2.658v-2.658h-0.921v-0.481v-0.481h1.004l0.377-1.8h0.879v0.9v0.9h1.465v0.481v0.481h-1.465v2.512V269.561z"/>
<path fill="#010101" d="M332.196,269.309c0,0.837,0.503,1.382,1.34,1.382c1.716-0.126,2.637-1.214,2.512-3.098
	C334.248,267.677,332.196,267.384,332.196,269.309z M336.09,270.021c-0.628,0.879-1.298,1.716-2.847,1.674
	c-1.507-0.042-2.428-0.879-2.428-2.386c-0.042-2.679,2.637-2.637,5.232-2.637c0.125-1.465-0.377-2.261-1.717-2.261
	c-1.005,0.042-1.716,0.293-1.758,1.298l-1.382-0.125c0.21-1.549,1.382-2.177,3.182-2.177c1.884,0,3.014,0.837,3.014,2.679v1.716
	v1.716c-0.041,0.837,0.293,1.339,1.173,1.13v0.418v0.418C337.262,271.863,336.006,271.402,336.09,270.021z"/>
<path fill="#010101" d="M343.038,270.691c1.675,0,1.884-1.423,1.884-3.14c0-1.674-0.209-3.14-1.884-3.098
	c-1.758,0-2.135,1.339-2.135,3.181C340.903,269.435,341.322,270.691,343.038,270.691z M343.373,263.407
	c2.219,0,2.889,1.632,2.931,4.102c0,2.763-0.963,4.186-2.931,4.186c-1.298-0.042-2.051-0.46-2.47-1.423l-0.084,1.256h-1.298
	l0.042-10.925h1.34v2.114v2.114C341.322,263.868,342.075,263.407,343.373,263.407z"/>
<polygon fill="#010101" points="347.936,271.528 347.936,266.065 347.936,260.603 349.275,260.603 349.275,266.065 349.275,271.528 
	"/>
<path fill="#010101" d="M356.601,266.798c0.251-2.512-3.181-3.223-4.061-1.172c-0.125,0.293-0.251,0.712-0.251,1.172H356.601z
	 M354.424,263.407c2.638,0,3.601,1.758,3.517,4.437h-5.651c0,1.674,0.586,2.805,2.219,2.847c1.088,0.042,1.8-0.502,2.051-1.214
	l1.173,0.335c-0.461,1.172-1.549,1.884-3.224,1.884c-2.428,0-3.684-1.549-3.642-4.186
	C350.908,264.956,351.954,263.407,354.424,263.407z"/>
<path fill="#010101" d="M364.262,265.542c-0.126-1.423-3.601-1.591-3.643,0c0.628,2.218,4.814,0.502,4.981,3.767
	c0.168,3.265-6.278,3.098-6.572,0.335l1.173-0.209c0.167,1.507,4.061,1.884,4.102,0c-0.418-2.344-4.729-0.628-4.939-3.768
	c-0.167-2.386,3.433-2.637,5.107-1.758c0.502,0.293,0.879,0.795,1.005,1.465L364.262,265.542z"/>
<path fill="#010101" d="M252.805,292.75c-1.591-1.758-2.721-3.851-2.721-7.074c0-3.182,1.172-5.274,2.721-6.991h1.298
	c-1.591,1.716-2.679,3.851-2.679,7.032c0,3.182,1.088,5.316,2.679,7.032H252.805z"/>
<polygon fill="#010101" points="255.4,289.612 255.4,284.421 255.4,279.23 263.228,279.23 263.228,279.816 263.228,280.402 
	256.781,280.402 256.781,282.056 256.781,283.709 262.81,283.709 262.81,284.274 262.81,284.839 256.781,284.839 256.781,286.661 
	256.781,288.481 263.563,288.481 263.563,289.046 263.563,289.612 "/>
<polygon fill="#010101" points="270.093,289.612 267.958,286.346 265.781,289.612 264.358,289.612 267.205,285.509 264.483,281.658 
	265.949,281.658 267.958,284.756 269.926,281.658 271.391,281.658 268.712,285.509 271.559,289.612 "/>
<path fill="#010101" d="M275.744,282.537c-1.675,0-2.01,1.381-2.01,3.056s0.377,3.139,2.01,3.139c1.005,0,1.716-0.586,1.8-1.59
	l1.34,0.083c-0.251,1.549-1.298,2.554-3.098,2.554c-2.47,0-3.182-1.716-3.433-4.144c-0.419-3.893,4.228-5.484,6.153-2.679
	c0.167,0.293,0.209,0.586,0.293,0.921l-1.34,0.125C277.293,283.123,276.791,282.537,275.744,282.537z"/>
<path fill="#010101" d="M285.623,284.881c0.251-2.512-3.182-3.223-4.061-1.172c-0.125,0.293-0.251,0.712-0.251,1.172H285.623z
	 M283.446,281.491c2.638,0,3.6,1.758,3.517,4.438h-5.651c0,1.674,0.586,2.804,2.219,2.846c1.088,0.042,1.8-0.502,2.051-1.214
	l1.172,0.335c-0.46,1.172-1.549,1.884-3.223,1.884c-2.428,0-3.684-1.549-3.642-4.186C279.93,283.04,280.977,281.491,283.446,281.491
	z"/>
<polygon fill="#010101" points="288.637,289.612 288.637,284.149 288.637,278.686 289.977,278.686 289.977,284.149 289.977,289.612 
	"/>
<polygon fill="#010101" points="303.731,289.612 302.225,289.612 300.551,282.747 298.834,289.612 297.327,289.612 295.066,281.658 
	296.406,281.658 298.039,288.523 299.839,281.658 301.262,281.658 302.979,288.523 304.736,281.658 306.034,281.658 "/>
<path fill="#010101" d="M310.095,288.774c1.842,0.042,2.218-1.298,2.218-3.139c0-1.8-0.334-3.14-2.135-3.14
	c-1.8,0-2.218,1.339-2.218,3.14S308.378,288.732,310.095,288.774z M310.137,281.491c2.595-0.042,3.558,1.549,3.558,4.144
	c0.042,2.637-1.13,4.144-3.6,4.144s-3.475-1.633-3.517-4.144C306.578,282.872,307.75,281.491,310.137,281.491z"/>
<path fill="#010101" d="M319.095,282.788c-3.266-0.669-2.219,3.809-2.387,6.824h-1.339l-0.042-7.954h1.256
	c0.042,0.502-0.042,1.214,0.083,1.632c0.252-1.13,0.963-2.051,2.429-1.716v0.607V282.788z"/>
<polygon fill="#010101" points="325.29,289.612 322.61,285.969 321.647,286.765 321.647,288.188 321.647,289.612 320.309,289.612 
	320.309,284.149 320.309,278.686 321.647,278.686 321.647,282.098 321.647,285.509 325.122,281.658 326.671,281.658 323.447,285.09 
	326.88,289.612 "/>
<path fill="#010101" d="M331.317,288.774c1.675,0,1.884-1.423,1.884-3.139c0-1.674-0.209-3.14-1.884-3.098
	c-1.758,0-2.135,1.339-2.135,3.181C329.183,287.518,329.602,288.774,331.317,288.774z M331.652,281.491
	c2.219,0,2.889,1.632,2.93,4.102c0,2.763-0.962,4.186-2.93,4.186c-1.298-0.042-2.051-0.46-2.47-1.423l-0.084,1.256h-1.298
	l0.042-10.926h1.34v2.114v2.114C329.602,281.951,330.354,281.491,331.652,281.491z"/>
<path fill="#010101" d="M339.354,288.774c1.842,0.042,2.219-1.298,2.219-3.139c0-1.8-0.335-3.14-2.135-3.14s-2.219,1.339-2.219,3.14
	S337.639,288.732,339.354,288.774z M339.396,281.491c2.596-0.042,3.558,1.549,3.558,4.144c0.042,2.637-1.13,4.144-3.6,4.144
	s-3.475-1.633-3.517-4.144C335.838,282.872,337.011,281.491,339.396,281.491z"/>
<path fill="#010101" d="M347.727,288.774c1.842,0.042,2.219-1.298,2.219-3.139c0-1.8-0.335-3.14-2.135-3.14s-2.219,1.339-2.219,3.14
	S346.011,288.732,347.727,288.774z M347.769,281.491c2.595-0.042,3.558,1.549,3.558,4.144c0.042,2.637-1.13,4.144-3.6,4.144
	s-3.475-1.633-3.517-4.144C344.21,282.872,345.383,281.491,347.769,281.491z"/>
<polygon fill="#010101" points="357.94,289.612 355.262,285.969 354.299,286.765 354.299,288.188 354.299,289.612 352.959,289.612 
	352.959,284.149 352.959,278.686 354.299,278.686 354.299,282.098 354.299,285.509 357.772,281.658 359.321,281.658 356.099,285.09 
	359.531,289.612 "/>
<path fill="#010101" d="M365.141,283.625c-0.126-1.423-3.601-1.591-3.643,0c0.628,2.219,4.814,0.502,4.981,3.768
	c0.168,3.265-6.278,3.098-6.571,0.335l1.172-0.21c0.167,1.507,4.061,1.884,4.103,0c-0.419-2.344-4.73-0.628-4.939-3.767
	c-0.168-2.386,3.432-2.637,5.106-1.758c0.502,0.293,0.879,0.795,1.005,1.465L365.141,283.625z"/>
<path fill="#010101" d="M368.405,278.686c1.591,1.716,2.721,3.851,2.721,7.032c0,3.182-1.13,5.316-2.721,7.032h-1.298
	c1.549-1.716,2.68-3.851,2.68-7.032c0-3.181-1.131-5.316-2.68-7.032H368.405z"/>
<path fill="#E5E5E5" d="M436.177,385.471c-13.897,0-25.116,11.218-25.116,25.115s11.219,25.116,25.116,25.116h-0.251H210.133
	c-13.897,0-25.116-11.219-25.116-25.116s11.219-25.115,25.116-25.115H436.177z"/>
<path fill="none" stroke="#010101" stroke-width="1.6744" stroke-miterlimit="10" d="M436.177,385.471
	c-13.897,0-25.116,11.218-25.116,25.115s11.219,25.116,25.116,25.116h-0.251H210.133c-13.897,0-25.116-11.219-25.116-25.116
	s11.219-25.115,25.116-25.115H436.177z"/>
<path fill="#010101" d="M267.665,397.485c-0.419-1.172-1.465-1.884-3.056-1.884c-2.47,0-3.642,1.674-3.642,4.144
	c0,2.512,1.214,4.229,3.726,4.229c1.8,0,2.595-1.005,3.265-2.177l1.13,0.586c-0.753,1.591-2.135,2.763-4.479,2.763
	c-3.349,0-4.897-2.093-5.065-5.4c-0.251-4.353,4.145-6.404,7.828-4.646c0.795,0.377,1.298,1.089,1.633,1.926L267.665,397.485z"/>
<polygon fill="#010101" points="270.637,404.978 270.637,399.515 270.637,394.052 271.977,394.052 271.977,399.515 271.977,404.978 
	"/>
<path fill="#010101" d="M274.949,402.759c0,0.837,0.502,1.381,1.339,1.381c1.717-0.125,2.638-1.214,2.512-3.098
	C277,401.126,274.949,400.833,274.949,402.759z M278.842,403.47c-0.628,0.88-1.298,1.717-2.847,1.675
	c-1.507-0.042-2.428-0.879-2.428-2.386c-0.042-2.68,2.638-2.638,5.232-2.638c0.126-1.465-0.377-2.26-1.716-2.26
	c-1.005,0.041-1.717,0.293-1.759,1.297l-1.381-0.125c0.209-1.549,1.381-2.177,3.181-2.177c1.884,0,3.015,0.837,3.015,2.679v1.717
	v1.716c-0.042,0.837,0.293,1.34,1.172,1.13v0.419v0.419C280.014,405.312,278.758,404.852,278.842,403.47z"/>
<path fill="#010101" d="M286.963,398.992c-0.126-1.423-3.601-1.591-3.643,0c0.628,2.219,4.814,0.502,4.981,3.768
	c0.168,3.265-6.278,3.098-6.571,0.335l1.172-0.21c0.167,1.507,4.061,1.884,4.103,0c-0.419-2.344-4.73-0.628-4.939-3.767
	c-0.168-2.387,3.432-2.638,5.106-1.759c0.502,0.293,0.879,0.796,1.005,1.465L286.963,398.992z"/>
<path fill="#010101" d="M294.497,398.992c-0.125-1.423-3.6-1.591-3.642,0c0.628,2.219,4.814,0.502,4.981,3.768
	c0.167,3.265-6.279,3.098-6.572,0.335l1.172-0.21c0.168,1.507,4.061,1.884,4.103,0c-0.418-2.344-4.73-0.628-4.939-3.767
	c-0.167-2.387,3.433-2.638,5.107-1.759c0.502,0.293,0.879,0.796,1.004,1.465L294.497,398.992z"/>
<path fill="#010101" d="M304.485,397.862c-1.675,0-1.926,1.423-1.926,3.139c0,1.675,0.251,3.098,1.884,3.098
	c1.758,0,2.135-1.339,2.135-3.181C306.578,399.159,306.201,397.82,304.485,397.862z M304.108,396.857
	c1.298,0,2.01,0.544,2.512,1.381l-0.042-4.186h1.34l0.042,10.926h-1.256c-0.084-0.419,0-0.963-0.126-1.298
	c-0.419,0.963-1.172,1.465-2.47,1.465c-2.219,0-2.889-1.633-2.93-4.103C301.179,398.28,302.141,396.857,304.108,396.857z"/>
<path fill="#010101" d="M309.927,404.978V401v-3.977h1.34V401v3.978H309.927z M309.927,395.308v-0.628v-0.628h1.34v0.628v0.628
	H309.927z"/>
<path fill="#010101" d="M314.238,402.759c0,0.837,0.503,1.381,1.34,1.381c1.716-0.125,2.637-1.214,2.512-3.098
	C316.29,401.126,314.238,400.833,314.238,402.759z M318.132,403.47c-0.628,0.88-1.298,1.717-2.847,1.675
	c-1.507-0.042-2.428-0.879-2.428-2.386c-0.042-2.68,2.637-2.638,5.232-2.638c0.125-1.465-0.377-2.26-1.717-2.26
	c-1.004,0.041-1.716,0.293-1.758,1.297l-1.381-0.125c0.209-1.549,1.381-2.177,3.181-2.177c1.884,0,3.015,0.837,3.015,2.679v1.717
	v1.716c-0.042,0.837,0.293,1.34,1.172,1.13v0.419v0.419C319.304,405.312,318.048,404.852,318.132,403.47z"/>
<path fill="#010101" d="M324.536,404.057c1.507,0,2.093-1.34,2.093-3.057c0-1.758-0.586-3.139-2.093-3.139
	c-1.633,0-1.926,1.423-1.926,3.139C322.61,402.717,322.861,404.057,324.536,404.057z M328.011,397.024
	c-0.419,5.232,1.716,12.266-4.604,10.926c-0.963-0.251-1.591-0.837-1.842-1.8l1.339-0.21c0.628,1.968,4.187,1.34,3.726-1.172v-0.628
	v-0.628c-0.46,0.879-1.214,1.507-2.553,1.507c-2.261,0-2.847-1.716-2.847-4.019c0-2.344,0.669-4.06,2.972-4.102
	c1.214-0.042,2.01,0.67,2.47,1.465c0.042-0.419,0-0.963,0.084-1.34H328.011z"/>
<path fill="#010101" d="M333.745,398.155c-3.265-0.67-2.219,3.809-2.386,6.823h-1.34l-0.042-7.954h1.256
	c0.042,0.503-0.042,1.214,0.084,1.633c0.251-1.13,0.963-2.051,2.428-1.716v0.606V398.155z"/>
<path fill="#010101" d="M335.964,402.759c0,0.837,0.502,1.381,1.34,1.381c1.716-0.125,2.637-1.214,2.512-3.098
	C338.015,401.126,335.964,400.833,335.964,402.759z M339.856,403.47c-0.628,0.88-1.297,1.717-2.846,1.675
	c-1.507-0.042-2.429-0.879-2.429-2.386c-0.041-2.68,2.638-2.638,5.233-2.638c0.125-1.465-0.377-2.26-1.717-2.26
	c-1.005,0.041-1.716,0.293-1.758,1.297l-1.382-0.125c0.21-1.549,1.382-2.177,3.182-2.177c1.884,0,3.014,0.837,3.014,2.679v1.717
	v1.716c-0.042,0.837,0.293,1.34,1.172,1.13v0.419v0.419C341.029,405.312,339.773,404.852,339.856,403.47z"/>
<path fill="#010101" d="M351.117,397.903c-2.805,0.126-1.591,4.396-1.842,7.075h-1.298v-2.533v-2.532
	c0-1.214-0.209-2.093-1.465-2.01c-2.763,0.168-1.591,4.354-1.842,7.075h-1.298l-0.042-7.954h1.256
	c0.042,0.419-0.042,1.005,0.084,1.34c0.419-1.842,4.144-2.093,4.479,0c0.461-0.879,1.131-1.465,2.429-1.507
	c3.558-0.084,1.967,4.981,2.302,8.121h-1.298v-2.533v-2.532C352.582,398.699,352.373,397.862,351.117,397.903z"/>
<path fill="#010101" d="M360.494,398.992c-0.126-1.423-3.601-1.591-3.643,0c0.628,2.219,4.814,0.502,4.981,3.768
	c0.168,3.265-6.278,3.098-6.571,0.335l1.172-0.21c0.167,1.507,4.061,1.884,4.103,0c-0.419-2.344-4.73-0.628-4.939-3.767
	c-0.168-2.387,3.432-2.638,5.106-1.759c0.502,0.293,0.879,0.796,1.005,1.465L360.494,398.992z"/>
<path fill="#010101" d="M277.318,426.201c-1.591-1.758-2.722-3.852-2.722-7.074c0-3.182,1.173-5.274,2.722-6.991h1.297
	c-1.59,1.717-2.679,3.852-2.679,7.033c0,3.181,1.089,5.315,2.679,7.032H277.318z"/>
<polygon fill="#010101" points="286.82,423.061 283.723,418.541 280.541,423.061 278.992,423.061 282.928,417.662 279.285,412.68 
	280.834,412.68 283.723,416.782 286.527,412.68 288.076,412.68 284.56,417.62 288.411,423.061 "/>
<path fill="#010101" d="M298.75,423.061l0.084-9.125c-0.963,3.181-2.261,6.069-3.349,9.125h-0.963l-3.391-9.125l0.042,9.125h-1.214
	v-5.19v-5.19h1.842l3.223,8.832c0.88-3.14,2.136-5.86,3.182-8.832h1.8v5.19v5.19H298.75z"/>
<polygon fill="#010101" points="302.476,423.061 302.476,417.871 302.476,412.68 303.857,412.68 303.857,417.305 303.857,421.931 
	309.09,421.931 309.09,422.496 309.09,423.061 "/>
<path fill="#010101" d="M317.127,415.945c-1.675,0-1.926,1.423-1.926,3.14c0,1.675,0.251,3.098,1.884,3.098
	c1.758,0,2.135-1.34,2.135-3.182C319.22,417.243,318.843,415.903,317.127,415.945z M316.75,414.94c1.298,0,2.01,0.545,2.512,1.382
	l-0.042-4.187h1.34l0.042,10.926h-1.256c-0.084-0.419,0-0.963-0.126-1.298c-0.419,0.963-1.172,1.466-2.47,1.466
	c-2.219,0-2.889-1.633-2.93-4.103C313.82,416.364,314.783,414.94,316.75,414.94z"/>
<path fill="#010101" d="M323.573,420.842c0,0.838,0.503,1.382,1.34,1.382c1.716-0.126,2.637-1.214,2.512-3.098
	C325.624,419.21,323.573,418.917,323.573,420.842z M327.467,421.554c-0.628,0.879-1.298,1.716-2.847,1.675
	c-1.507-0.042-2.428-0.88-2.428-2.387c-0.042-2.679,2.637-2.637,5.232-2.637c0.125-1.465-0.377-2.261-1.717-2.261
	c-1.005,0.042-1.716,0.293-1.758,1.298l-1.382-0.126c0.21-1.549,1.382-2.177,3.182-2.177c1.884,0,3.014,0.838,3.014,2.68v1.716
	v1.717c-0.042,0.837,0.293,1.339,1.172,1.13v0.419v0.418C328.639,423.396,327.383,422.935,327.467,421.554z"/>
<path fill="#010101" d="M332.406,421.093c-0.084,1.005,0.753,1.215,1.59,0.921v0.503v0.502c-1.381,0.419-2.93,0.21-2.93-1.632
	v-2.658v-2.658h-0.921v-0.481v-0.481h1.005l0.376-1.8h0.88v0.899v0.9h1.465v0.481v0.481h-1.465v2.512V421.093z"/>
<path fill="#010101" d="M336.131,420.842c0,0.838,0.503,1.382,1.34,1.382c1.717-0.126,2.638-1.214,2.512-3.098
	C338.183,419.21,336.131,418.917,336.131,420.842z M340.024,421.554c-0.628,0.879-1.298,1.716-2.847,1.675
	c-1.507-0.042-2.428-0.88-2.428-2.387c-0.042-2.679,2.637-2.637,5.232-2.637c0.126-1.465-0.377-2.261-1.716-2.261
	c-1.005,0.042-1.717,0.293-1.759,1.298l-1.381-0.126c0.209-1.549,1.381-2.177,3.181-2.177c1.884,0,3.015,0.838,3.015,2.68v1.716
	v1.717c-0.042,0.837,0.293,1.339,1.172,1.13v0.419v0.418C341.196,423.396,339.94,422.935,340.024,421.554z"/>
<path fill="#010101" d="M343.875,412.135c1.591,1.717,2.722,3.852,2.722,7.033c0,3.181-1.131,5.315-2.722,7.032h-1.297
	c1.549-1.717,2.679-3.852,2.679-7.032c0-3.182-1.13-5.316-2.679-7.033H343.875z"/>
<rect x="0.833" y="503.181" fill="#FFFFFF" width="133.952" height="50.232"/>
<rect x="0.833" y="503.181" fill="none" stroke="#010101" stroke-width="1.6744" stroke-miterlimit="10" width="133.952" height="50.232"/>
<path fill="#010101" d="M38.423,518.125l-1.967-5.149c-0.502,1.884-1.298,3.433-1.925,5.149H38.423z M40.014,522.269l-1.172-3.014
	h-4.73l-1.172,3.014h-1.465l4.228-10.381h1.591l4.144,10.381H40.014z"/>
<path fill="#010101" d="M45.414,521.348c1.507,0,2.093-1.339,2.093-3.056c0-1.758-0.586-3.14-2.093-3.14
	c-1.632,0-1.925,1.424-1.925,3.14C43.488,520.009,43.739,521.348,45.414,521.348z M48.888,514.316
	c-0.419,5.232,1.716,12.265-4.605,10.926c-0.962-0.252-1.59-0.838-1.842-1.801l1.34-0.209c0.628,1.968,4.186,1.34,3.726-1.172
	v-0.628v-0.628c-0.46,0.879-1.214,1.507-2.554,1.507c-2.26,0-2.846-1.716-2.846-4.019c0-2.344,0.669-4.061,2.972-4.103
	c1.214-0.041,2.009,0.67,2.47,1.466c0.042-0.419,0-0.963,0.084-1.34H48.888z"/>
<path fill="#010101" d="M54.623,515.446c-3.265-0.67-2.219,3.81-2.386,6.823h-1.339l-0.042-7.953h1.256
	c0.042,0.502-0.042,1.214,0.083,1.633c0.251-1.131,0.963-2.052,2.428-1.717v0.607V515.446z"/>
<path fill="#010101" d="M61.195,517.54c0.251-2.512-3.181-3.224-4.061-1.173c-0.125,0.293-0.251,0.712-0.251,1.173H61.195z
	 M59.018,514.149c2.637,0,3.6,1.758,3.516,4.437h-5.651c0,1.675,0.586,2.805,2.219,2.847c1.088,0.042,1.8-0.502,2.051-1.214
	l1.172,0.335c-0.46,1.172-1.549,1.884-3.223,1.884c-2.428,0-3.684-1.549-3.642-4.187C55.502,515.698,56.548,514.149,59.018,514.149z
	"/>
<path fill="#010101" d="M67.139,521.348c1.507,0,2.093-1.339,2.093-3.056c0-1.758-0.586-3.14-2.093-3.14
	c-1.633,0-1.926,1.424-1.926,3.14C65.213,520.009,65.465,521.348,67.139,521.348z M70.613,514.316
	c-0.418,5.232,1.716,12.265-4.604,10.926c-0.963-0.252-1.591-0.838-1.842-1.801l1.339-0.209c0.628,1.968,4.186,1.34,3.726-1.172
	v-0.628v-0.628c-0.46,0.879-1.214,1.507-2.553,1.507c-2.261,0-2.847-1.716-2.847-4.019c0-2.344,0.67-4.061,2.972-4.103
	c1.214-0.041,2.009,0.67,2.47,1.466c0.042-0.419,0-0.963,0.083-1.34H70.613z"/>
<path fill="#010101" d="M73.585,520.05c0,0.838,0.502,1.382,1.339,1.382c1.716-0.126,2.637-1.214,2.512-3.098
	C75.637,518.418,73.585,518.125,73.585,520.05z M77.479,520.762c-0.628,0.879-1.298,1.717-2.847,1.675
	c-1.507-0.042-2.428-0.879-2.428-2.387c-0.042-2.679,2.637-2.637,5.232-2.637c0.125-1.465-0.377-2.261-1.716-2.261
	c-1.004,0.042-1.716,0.293-1.758,1.298l-1.381-0.126c0.209-1.549,1.381-2.176,3.181-2.176c1.884,0,3.014,0.837,3.014,2.679v1.716
	v1.717c-0.042,0.837,0.293,1.339,1.172,1.13v0.419v0.418C78.65,522.604,77.395,522.144,77.479,520.762z"/>
<path fill="#010101" d="M82.418,520.302c-0.084,1.004,0.753,1.214,1.591,0.921v0.502v0.502c-1.382,0.419-2.931,0.21-2.931-1.632
	v-2.658v-2.658h-0.921v-0.481v-0.481h1.005l0.377-1.8h0.879v0.899v0.9h1.465v0.481v0.481h-1.465v2.512V520.302z"/>
<path fill="#010101" d="M85.139,522.269v-3.977v-3.977h1.34v3.977v3.977H85.139z M85.139,512.6v-0.628v-0.628h1.34v0.628v0.628
	H85.139z"/>
<path fill="#010101" d="M92.339,514.149c3.726-0.168,2.218,4.855,2.511,8.12h-1.339v-2.532v-2.532c0-1.298-0.335-2.052-1.632-2.01
	c-3.014,0.084-1.842,4.27-2.051,7.074h-1.339l-0.042-7.953h1.256c0.042,0.419-0.042,1.005,0.083,1.34
	C90.246,514.735,90.999,514.19,92.339,514.149z"/>
<path fill="#010101" d="M99.748,521.348c1.507,0,2.093-1.339,2.093-3.056c0-1.758-0.586-3.14-2.093-3.14
	c-1.633,0-1.926,1.424-1.926,3.14C97.822,520.009,98.074,521.348,99.748,521.348z M103.222,514.316
	c-0.418,5.232,1.716,12.265-4.604,10.926c-0.963-0.252-1.591-0.838-1.842-1.801l1.339-0.209c0.628,1.968,4.186,1.34,3.726-1.172
	v-0.628v-0.628c-0.46,0.879-1.214,1.507-2.553,1.507c-2.261,0-2.847-1.716-2.847-4.019c0-2.344,0.67-4.061,2.972-4.103
	c1.214-0.041,2.009,0.67,2.47,1.466c0.042-0.419,0-0.963,0.083-1.34H103.222z"/>
<path fill="#010101" d="M9.1,533.279c-1.674,0-2.009,1.381-2.009,3.056c0,1.674,0.377,3.14,2.009,3.14
	c1.004,0,1.716-0.586,1.8-1.591l1.34,0.083c-0.251,1.549-1.298,2.554-3.098,2.554c-2.47,0-3.182-1.716-3.433-4.144
	c-0.418-3.894,4.228-5.484,6.153-2.68c0.167,0.293,0.209,0.586,0.293,0.921l-1.339,0.126C10.649,533.865,10.146,533.279,9.1,533.279
	z"/>
<path fill="#010101" d="M16.76,539.515c1.842,0.042,2.219-1.297,2.219-3.139c0-1.801-0.335-3.14-2.135-3.14s-2.219,1.339-2.219,3.14
	C14.625,538.176,15.044,539.474,16.76,539.515z M16.802,532.232c2.595-0.042,3.558,1.549,3.558,4.145
	c0.042,2.637-1.13,4.144-3.6,4.144c-2.47,0-3.474-1.632-3.516-4.144C13.244,533.614,14.417,532.232,16.802,532.232z"/>
<path fill="#010101" d="M25.886,532.232c3.726-0.167,2.219,4.855,2.512,8.121h-1.339v-2.533v-2.532c0-1.298-0.335-2.051-1.633-2.009
	c-3.014,0.083-1.842,4.27-2.051,7.074h-1.34l-0.042-7.954h1.256c0.042,0.419-0.042,1.005,0.083,1.34
	C23.793,532.818,24.546,532.274,25.886,532.232z"/>
<path fill="#010101" d="M33.379,533.279c-1.674,0-2.009,1.381-2.009,3.056c0,1.674,0.377,3.14,2.009,3.14
	c1.004,0,1.716-0.586,1.8-1.591l1.34,0.083c-0.251,1.549-1.298,2.554-3.098,2.554c-2.47,0-3.182-1.716-3.433-4.144
	c-0.418-3.894,4.228-5.484,6.153-2.68c0.167,0.293,0.209,0.586,0.293,0.921l-1.339,0.126
	C34.928,533.865,34.425,533.279,33.379,533.279z"/>
<path fill="#010101" d="M43.258,535.623c0.251-2.512-3.181-3.224-4.061-1.172c-0.125,0.293-0.251,0.712-0.251,1.172H43.258z
	 M41.081,532.232c2.637,0,3.6,1.758,3.516,4.438h-5.651c0,1.674,0.586,2.805,2.219,2.846c1.088,0.042,1.8-0.502,2.051-1.214
	l1.172,0.335c-0.46,1.173-1.549,1.884-3.223,1.884c-2.428,0-3.684-1.549-3.642-4.186C37.565,533.781,38.611,532.232,41.081,532.232z
	"/>
<path fill="#010101" d="M49.746,539.515c1.674,0,1.884-1.423,1.884-3.139c0-1.717-0.251-3.056-1.884-3.098
	c-1.758,0-2.135,1.339-2.135,3.181C47.611,538.26,48.03,539.515,49.746,539.515z M50.081,532.232c2.302,0.042,2.93,1.716,2.93,4.103
	c0,2.386-0.67,4.102-2.93,4.186c-1.298,0-2.051-0.544-2.512-1.423l0.042,4.396h-1.339l-0.042-11.094h1.297l0.084,1.256
	C48.03,532.776,48.783,532.232,50.081,532.232z"/>
<path fill="#010101" d="M56.109,538.385c-0.083,1.005,0.753,1.214,1.591,0.921v0.503v0.502c-1.381,0.419-2.93,0.209-2.93-1.633
	v-2.658v-2.658h-0.921v-0.481v-0.481h1.004l0.377-1.8h0.879v0.9v0.899h1.465v0.481v0.481h-1.465v2.512V538.385z"/>
<path fill="#010101" d="M61.341,540.52c-3.726,0.168-2.26-4.855-2.553-8.121h1.339v2.512v2.512c0,1.298,0.293,2.093,1.632,2.052
	c3.014-0.084,1.884-4.229,2.093-7.075h1.297l0.042,7.954h-1.256c-0.042-0.419,0.042-1.047-0.083-1.382
	C63.393,539.892,62.681,540.478,61.341,540.52z"/>
<path fill="#010101" d="M68.207,538.134c0,0.837,0.502,1.381,1.339,1.381c1.716-0.125,2.637-1.214,2.512-3.098
	C70.257,536.501,68.207,536.208,68.207,538.134z M72.1,538.846c-0.628,0.879-1.298,1.716-2.847,1.674
	c-1.507-0.042-2.428-0.879-2.428-2.386c-0.042-2.679,2.637-2.638,5.232-2.638c0.125-1.465-0.377-2.26-1.716-2.26
	c-1.005,0.042-1.716,0.293-1.758,1.298l-1.381-0.126c0.209-1.549,1.381-2.177,3.182-2.177c1.883,0,3.014,0.837,3.014,2.679v1.717
	v1.716c-0.042,0.838,0.293,1.34,1.172,1.131v0.418v0.419C73.271,540.688,72.016,540.227,72.1,538.846z"/>
<polygon fill="#010101" points="75.574,540.353 75.574,534.89 75.574,529.427 76.913,529.427 76.913,534.89 76.913,540.353 "/>
<path fill="#010101" d="M90.849,533.279c-2.805,0.125-1.591,4.395-1.842,7.074h-1.298v-2.533v-2.532
	c0-1.214-0.209-2.093-1.465-2.009c-2.763,0.167-1.59,4.354-1.842,7.074h-1.297l-0.042-7.954h1.256
	c0.042,0.419-0.042,1.005,0.083,1.34c0.419-1.842,4.145-2.093,4.479,0c0.46-0.879,1.13-1.465,2.428-1.507
	c3.558-0.084,1.967,4.981,2.302,8.121h-1.298v-2.533v-2.532C92.313,534.074,92.104,533.237,90.849,533.279z"/>
<path fill="#010101" d="M98.718,539.515c1.842,0.042,2.218-1.297,2.218-3.139c0-1.801-0.334-3.14-2.135-3.14
	c-1.8,0-2.218,1.339-2.218,3.14C96.583,538.176,97.002,539.474,98.718,539.515z M98.76,532.232c2.596-0.042,3.559,1.549,3.559,4.145
	c0.042,2.637-1.13,4.144-3.6,4.144s-3.475-1.632-3.516-4.144C95.202,533.614,96.374,532.232,98.76,532.232z"/>
<path fill="#010101" d="M106.881,533.237c-1.674,0-1.926,1.423-1.926,3.14c0,1.674,0.251,3.098,1.884,3.098
	c1.758,0,2.135-1.34,2.135-3.182C108.974,534.535,108.597,533.195,106.881,533.237z M106.504,532.232
	c1.298,0,2.009,0.544,2.512,1.382l-0.042-4.187h1.34l0.042,10.926H109.1c-0.084-0.419,0-0.963-0.126-1.298
	c-0.418,0.963-1.172,1.465-2.47,1.465c-2.218,0-2.888-1.632-2.93-4.103C103.574,533.655,104.537,532.232,106.504,532.232z"/>
<path fill="#010101" d="M117.681,535.623c0.251-2.512-3.181-3.224-4.061-1.172c-0.125,0.293-0.251,0.712-0.251,1.172H117.681z
	 M115.504,532.232c2.637,0,3.6,1.758,3.516,4.438h-5.651c0,1.674,0.586,2.805,2.219,2.846c1.088,0.042,1.8-0.502,2.051-1.214
	l1.172,0.335c-0.46,1.173-1.549,1.884-3.223,1.884c-2.428,0-3.684-1.549-3.642-4.186
	C111.988,533.781,113.034,532.232,115.504,532.232z"/>
<polygon fill="#010101" points="120.695,540.353 120.695,534.89 120.695,529.427 122.034,529.427 122.034,534.89 122.034,540.353 
	"/>
<path fill="#010101" d="M128.648,534.367c-0.125-1.423-3.6-1.591-3.642,0c0.628,2.219,4.814,0.503,4.981,3.768
	s-6.279,3.098-6.572,0.335l1.172-0.209c0.167,1.507,4.06,1.883,4.102,0c-0.418-2.345-4.73-0.628-4.939-3.768
	c-0.167-2.387,3.433-2.638,5.107-1.759c0.502,0.293,0.879,0.796,1.004,1.466L128.648,534.367z"/>
<line fill="none" stroke="#010101" stroke-width="1.6744" stroke-miterlimit="10" x1="136.459" y1="528.297" x2="168.691" y2="528.297"/>
<rect x="135.622" y="527.459" fill="#010101" width="0.837" height="1.675"/>
<polygon fill="#010101" points="181.5,528.297 169.528,532.148 169.528,524.446 "/>
<polygon fill="none" stroke="#010101" stroke-width="1.6744" stroke-miterlimit="10" points="181.5,528.297 169.528,532.148 
	169.528,524.446 "/>
<polyline fill="none" stroke="#010101" stroke-width="1.6744" stroke-miterlimit="10" points="136.459,411.089 159.901,411.089 
	168.691,411.089 "/>
<rect x="135.622" y="410.252" fill="#010101" width="0.837" height="1.674"/>
<polygon fill="#010101" points="181.5,411.089 169.528,415.024 169.528,407.238 "/>
<polygon fill="none" stroke="#010101" stroke-width="1.6744" stroke-miterlimit="10" points="181.5,411.089 169.528,415.024 
	169.528,407.238 "/>
<polyline fill="none" stroke="#010101" stroke-width="1.6744" stroke-miterlimit="10" points="310.597,437.377 310.597,469.442 
	67.809,469.442 67.809,486.856 "/>
<rect x="309.76" y="436.54" fill="#010101" width="1.674" height="0.838"/>
<polygon fill="#010101" points="67.809,499.665 63.958,487.693 71.66,487.693 "/>
<polygon fill="none" stroke="#010101" stroke-width="1.6744" stroke-miterlimit="10" points="67.809,499.665 63.958,487.693 
	71.66,487.693 "/>
<polyline fill="none" stroke="#010101" stroke-width="1.6744" stroke-miterlimit="10" points="310.597,303.927 310.597,343.862 
	67.809,343.862 67.809,369.145 "/>
<rect x="309.76" y="303.09" fill="#010101" width="1.674" height="0.921"/>
<polygon fill="#010101" points="67.809,381.955 63.958,369.983 71.66,369.983 "/>
<polygon fill="none" stroke="#010101" stroke-width="1.6744" stroke-miterlimit="10" points="67.809,381.955 63.958,369.983 
	71.66,369.983 "/>
<polyline fill="none" stroke="#010101" stroke-width="1.6744" stroke-miterlimit="10" points="136.459,143.185 159.901,143.185 
	168.691,143.185 "/>
<rect x="135.622" y="142.348" fill="#010101" width="0.837" height="1.674"/>
<polygon fill="#010101" points="181.5,143.185 169.528,147.036 169.528,139.334 "/>
<polygon fill="none" stroke="#010101" stroke-width="1.6744" stroke-miterlimit="10" points="181.5,143.185 169.528,147.036 
	169.528,139.334 "/>
<polyline fill="none" stroke="#010101" stroke-width="1.6744" stroke-miterlimit="10" points="310.597,169.976 310.597,201.789 
	67.809,201.789 67.809,218.952 "/>
<rect x="309.76" y="169.138" fill="#010101" width="1.674" height="0.837"/>
<polygon fill="#010101" points="67.809,231.761 63.958,219.789 71.66,219.789 "/>
<polygon fill="none" stroke="#010101" stroke-width="1.6744" stroke-miterlimit="10" points="67.809,231.761 63.958,219.789 
	71.66,219.789 "/>
<line fill="none" stroke="#010101" stroke-width="1.6744" stroke-miterlimit="10" x1="303.899" y1="528.297" x2="319.388" y2="528.297"/>
<rect x="303.062" y="527.459" fill="#010101" width="0.838" height="1.675"/>
<polygon fill="#010101" points="332.196,528.297 320.225,532.148 320.225,524.446 "/>
<polygon fill="none" stroke="#010101" stroke-width="1.6744" stroke-miterlimit="10" points="332.196,528.297 320.225,532.148 
	320.225,524.446 "/>
<line fill="none" stroke="#010101" stroke-width="1.6744" stroke-miterlimit="10" x1="102.385" y1="25.977" x2="168.775" y2="25.977"/>
<polygon fill="#010101" points="102.469,26.814 101.548,26.814 101.548,25.977 101.548,25.14 102.469,25.14 "/>
<polygon fill="#010101" points="181.5,25.977 169.612,29.828 169.612,22.126 "/>
<polygon fill="none" stroke="#010101" stroke-width="1.6744" stroke-miterlimit="10" points="181.5,25.977 169.612,29.828 
	169.612,22.126 "/>
<polyline fill="none" stroke="#010101" stroke-width="1.6744" stroke-miterlimit="10" points="310.597,53.354 310.597,84.833 
	67.809,84.833 67.809,101.744 "/>
<rect x="309.76" y="52.517" fill="#010101" width="1.674" height="0.837"/>
<polygon fill="#010101" points="67.809,114.553 63.958,102.581 71.66,102.581 "/>
<polygon fill="none" stroke="#010101" stroke-width="1.6744" stroke-miterlimit="10" points="67.809,114.553 63.958,102.581 
	71.66,102.581 "/>
<line fill="none" stroke="#010101" stroke-width="1.6744" stroke-miterlimit="10" x1="136.459" y1="277.137" x2="168.691" y2="277.137"/>
<rect x="135.622" y="276.3" fill="#010101" width="0.837" height="1.674"/>
<polygon fill="#010101" points="181.5,277.137 169.528,281.072 169.528,273.286 "/>
<polygon fill="none" stroke="#010101" stroke-width="1.6744" stroke-miterlimit="10" points="181.5,277.137 169.528,281.072 
	169.528,273.286 "/>
</svg>
