<svg xmlns="http://www.w3.org/2000/svg" width="463" height="97">
         <defs>
            <style type="text/css">
    @namespace "http://www.w3.org/2000/svg";
    .line                 {fill: none; stroke: #332900;}
    .bold-line            {stroke: #141000; shape-rendering: crispEdges; stroke-width: 2; }
    .thin-line            {stroke: #1F1800; shape-rendering: crispEdges}
    .filled               {fill: #332900; stroke: none;}
    text.terminal         {font-family: Verdana, Sans-serif;
                            font-size: 12px;
                            fill: #141000;
                            font-weight: bold;
                          }
    text.nonterminal      {font-family: Verdana, Sans-serif;
                            font-size: 12px;
                            fill: #1A1400;
                            font-weight: normal;
                          }
    text.regexp           {font-family: Verdana, Sans-serif;
                            font-size: 12px;
                            fill: #1F1800;
                            font-weight: normal;
                          }
    rect, circle, polygon {fill: #332900; stroke: #332900;}
    rect.terminal         {fill: #FFDB4D; stroke: #332900;}
    rect.nonterminal      {fill: #FFEC9E; stroke: #332900;}
    rect.text             {fill: none; stroke: none;}    
    polygon.regexp        {fill: #FFF4C7; stroke: #332900;}
  </style>
         </defs>
         <polygon points="9 61 1 57 1 65"/>
         <polygon points="17 61 9 57 9 65"/>
         <rect x="31" y="47" width="36" height="32" rx="10"/>
         <rect x="29" y="45" width="36" height="32" class="terminal" rx="10"/>
         <text class="terminal" x="39" y="65">no</text><a xmlns:xlink="http://www.w3.org/1999/xlink" xlink:href="#query" xlink:title="query">
            <rect x="87" y="47" width="56" height="32"/>
            <rect x="85" y="45" width="56" height="32" class="nonterminal"/>
            <text class="nonterminal" x="95" y="65">query</text></a><rect x="183" y="47" width="24" height="32" rx="10"/>
         <rect x="181" y="45" width="24" height="32" class="terminal" rx="10"/>
         <text class="terminal" x="191" y="65">:</text><a xmlns:xlink="http://www.w3.org/1999/xlink" xlink:href="#constraint" xlink:title="constraint">
            <rect x="247" y="47" width="84" height="32"/>
            <rect x="245" y="45" width="84" height="32" class="nonterminal"/>
            <text class="nonterminal" x="255" y="65">constraint</text></a><rect x="247" y="3" width="24" height="32" rx="10"/>
         <rect x="245" y="1" width="24" height="32" class="terminal" rx="10"/>
         <text class="terminal" x="255" y="21">,</text><a xmlns:xlink="http://www.w3.org/1999/xlink" xlink:href="#EOL" xlink:title="EOL">
            <rect x="391" y="47" width="44" height="32"/>
            <rect x="389" y="45" width="44" height="32" class="nonterminal"/>
            <text class="nonterminal" x="399" y="65">EOL</text></a><svg:path xmlns:svg="http://www.w3.org/2000/svg" class="line" d="m17 61 h2 m0 0 h10 m36 0 h10 m0 0 h10 m56 0 h10 m20 0 h10 m24 0 h10 m20 0 h10 m84 0 h10 m-124 0 l20 0 m-1 0 q-9 0 -9 -10 l0 -24 q0 -10 10 -10 m104 44 l20 0 m-20 0 q10 0 10 -10 l0 -24 q0 -10 -10 -10 m-104 0 h10 m24 0 h10 m0 0 h60 m-188 44 h20 m188 0 h20 m-228 0 q10 0 10 10 m208 0 q0 -10 10 -10 m-218 10 v14 m208 0 v-14 m-208 14 q0 10 10 10 m188 0 q10 0 10 -10 m-198 10 h10 m0 0 h178 m20 -34 h10 m44 0 h10 m3 0 h-3"/>
         <polygon points="453 61 461 57 461 65"/>
         <polygon points="453 61 445 57 445 65"/></svg>