<svg xmlns="http://www.w3.org/2000/svg" width="177" height="169">
         <defs>
            <style type="text/css">
    @namespace "http://www.w3.org/2000/svg";
    .line                 {fill: none; stroke: #332900;}
    .bold-line            {stroke: #141000; shape-rendering: crispEdges; stroke-width: 2; }
    .thin-line            {stroke: #1F1800; shape-rendering: crispEdges}
    .filled               {fill: #332900; stroke: none;}
    text.terminal         {font-family: Verdana, Sans-serif;
                            font-size: 12px;
                            fill: #141000;
                            font-weight: bold;
                          }
    text.nonterminal      {font-family: Verdana, Sans-serif;
                            font-size: 12px;
                            fill: #1A1400;
                            font-weight: normal;
                          }
    text.regexp           {font-family: Verdana, Sans-serif;
                            font-size: 12px;
                            fill: #1F1800;
                            font-weight: normal;
                          }
    rect, circle, polygon {fill: #332900; stroke: #332900;}
    rect.terminal         {fill: #FFDB4D; stroke: #332900;}
    rect.nonterminal      {fill: #FFEC9E; stroke: #332900;}
    rect.text             {fill: none; stroke: none;}    
    polygon.regexp        {fill: #FFF4C7; stroke: #332900;}
  </style>
         </defs>
         <polygon points="9 17 1 13 1 21"/>
         <polygon points="17 17 9 13 9 21"/>
         <rect x="51" y="3" width="42" height="32" rx="10"/>
         <rect x="49" y="1" width="42" height="32" class="terminal" rx="10"/>
         <text class="terminal" x="59" y="21">cell</text>
         <rect x="51" y="47" width="56" height="32" rx="10"/>
         <rect x="49" y="45" width="56" height="32" class="terminal" rx="10"/>
         <text class="terminal" x="59" y="65">entry</text>
         <rect x="51" y="91" width="52" height="32" rx="10"/>
         <rect x="49" y="89" width="52" height="32" class="terminal" rx="10"/>
         <text class="terminal" x="59" y="109">label</text>
         <rect x="51" y="135" width="78" height="32" rx="10"/>
         <rect x="49" y="133" width="78" height="32" class="terminal" rx="10"/>
         <text class="terminal" x="59" y="153">category</text>
         <svg:path xmlns:svg="http://www.w3.org/2000/svg" class="line" d="m17 17 h2 m20 0 h10 m42 0 h10 m0 0 h36 m-118 0 h20 m98 0 h20 m-138 0 q10 0 10 10 m118 0 q0 -10 10 -10 m-128 10 v24 m118 0 v-24 m-118 24 q0 10 10 10 m98 0 q10 0 10 -10 m-108 10 h10 m56 0 h10 m0 0 h22 m-108 -10 v20 m118 0 v-20 m-118 20 v24 m118 0 v-24 m-118 24 q0 10 10 10 m98 0 q10 0 10 -10 m-108 10 h10 m52 0 h10 m0 0 h26 m-108 -10 v20 m118 0 v-20 m-118 20 v24 m118 0 v-24 m-118 24 q0 10 10 10 m98 0 q10 0 10 -10 m-108 10 h10 m78 0 h10 m23 -132 h-3"/>
         <polygon points="167 17 175 13 175 21"/>
         <polygon points="167 17 159 13 159 21"/></svg>