<?xml version="1.0" encoding="utf-8"?>
<!-- Generator: Adobe Illustrator 15.0.0, SVG Export Plug-In . SVG Version: 6.00 Build 0)  -->
<!DOCTYPE svg PUBLIC "-//W3C//DTD SVG 1.0//EN" "http://www.w3.org/TR/2001/REC-SVG-20010904/DTD/svg10.dtd">
<svg version="1.0" id="Layer_1" xmlns="http://www.w3.org/2000/svg" xmlns:xlink="http://www.w3.org/1999/xlink" x="0px" y="0px"
	 width="69.6px" height="101.975px" viewBox="0 0 69.6 101.975" enable-background="new 0 0 69.6 101.975" xml:space="preserve">
<g>
	<g>
		<path d="M46.948,7.32V6.909c-0.414,0.349-0.857,0.523-1.328,0.523c-0.342,0-0.609-0.087-0.803-0.26
			c-0.192-0.173-0.289-0.386-0.289-0.637c0-0.276,0.127-0.518,0.381-0.724s0.625-0.31,1.111-0.31c0.132,0,0.274,0.009,0.429,0.026
			c0.153,0.017,0.32,0.043,0.499,0.08V5.145c0-0.157-0.072-0.292-0.217-0.408c-0.146-0.115-0.363-0.173-0.652-0.173
			c-0.223,0-0.534,0.065-0.936,0.194c-0.072,0.023-0.119,0.034-0.139,0.034c-0.037,0-0.067-0.014-0.094-0.041
			c-0.025-0.027-0.039-0.061-0.039-0.102c0-0.038,0.012-0.069,0.034-0.091c0.032-0.034,0.159-0.081,0.384-0.14
			c0.354-0.095,0.621-0.143,0.803-0.143c0.359,0,0.641,0.089,0.842,0.267c0.202,0.178,0.303,0.379,0.303,0.604v1.889h0.381
			c0.07,0,0.12,0.013,0.149,0.039c0.029,0.026,0.044,0.061,0.044,0.104c0,0.041-0.015,0.075-0.044,0.102
			c-0.029,0.027-0.079,0.041-0.149,0.041H46.948z M46.948,5.899c-0.133-0.039-0.275-0.067-0.424-0.085
			c-0.15-0.018-0.308-0.027-0.473-0.027c-0.415,0-0.738,0.089-0.973,0.269c-0.176,0.134-0.265,0.293-0.265,0.479
			c0,0.172,0.067,0.317,0.202,0.435s0.332,0.177,0.59,0.177c0.246,0,0.477-0.049,0.688-0.148c0.213-0.099,0.43-0.255,0.654-0.471
			V5.899z"/>
		<path d="M60.407,3.055v1.893c0.345-0.449,0.76-0.673,1.247-0.673c0.417,0,0.773,0.151,1.07,0.454s0.445,0.673,0.445,1.113
			c0,0.444-0.149,0.82-0.45,1.128c-0.3,0.308-0.655,0.462-1.065,0.462c-0.498,0-0.914-0.225-1.247-0.673V7.32h-0.67
			c-0.067,0-0.116-0.014-0.146-0.041c-0.029-0.027-0.044-0.061-0.044-0.102c0-0.043,0.015-0.078,0.044-0.104
			c0.029-0.026,0.078-0.039,0.146-0.039h0.385v-3.69h-0.385c-0.067,0-0.116-0.014-0.146-0.041c-0.029-0.027-0.044-0.062-0.044-0.105
			c0-0.041,0.015-0.075,0.044-0.102c0.029-0.027,0.078-0.041,0.146-0.041H60.407z M62.885,5.855c0-0.36-0.124-0.666-0.37-0.916
			c-0.247-0.25-0.536-0.376-0.867-0.376s-0.619,0.125-0.866,0.376c-0.247,0.25-0.37,0.555-0.37,0.916s0.123,0.666,0.37,0.916
			s0.535,0.375,0.866,0.375s0.62-0.125,0.867-0.375C62.761,6.521,62.885,6.215,62.885,5.855z"/>
	</g>
	<g>
		<path d="M5.318,14.746V14.65c0-0.07,0.014-0.12,0.041-0.149s0.061-0.044,0.102-0.044c0.043,0,0.078,0.015,0.105,0.044
			c0.027,0.029,0.041,0.08,0.041,0.149v0.646c-0.002,0.07-0.017,0.12-0.042,0.149S5.504,15.49,5.461,15.49
			c-0.039,0-0.071-0.013-0.097-0.039c-0.026-0.026-0.041-0.069-0.046-0.131c-0.013-0.161-0.119-0.313-0.317-0.458
			s-0.465-0.218-0.8-0.218c-0.424,0-0.746,0.133-0.965,0.398s-0.33,0.568-0.33,0.911c0,0.369,0.121,0.674,0.364,0.914
			c0.242,0.24,0.556,0.36,0.941,0.36c0.222,0,0.448-0.041,0.678-0.123c0.23-0.082,0.438-0.213,0.624-0.394
			c0.048-0.045,0.089-0.068,0.126-0.068c0.038,0,0.071,0.013,0.097,0.039s0.039,0.058,0.039,0.097c0,0.098-0.114,0.221-0.343,0.371
			c-0.369,0.243-0.78,0.364-1.233,0.364c-0.46,0-0.838-0.147-1.134-0.44c-0.295-0.293-0.443-0.666-0.443-1.116
			c0-0.46,0.151-0.842,0.454-1.146c0.303-0.303,0.684-0.455,1.144-0.455C4.655,14.355,5.021,14.485,5.318,14.746z"/>
	</g>
	<g>
		<path d="M5.142,25.159c0,0.095-0.034,0.177-0.102,0.245c-0.068,0.068-0.15,0.102-0.245,0.102c-0.098,0-0.18-0.034-0.249-0.102
			c-0.068-0.068-0.102-0.149-0.102-0.245c0-0.097,0.034-0.18,0.102-0.248c0.068-0.068,0.151-0.102,0.249-0.102
			c0.095,0,0.176,0.034,0.245,0.102C5.108,24.979,5.142,25.062,5.142,25.159z"/>
		<path d="M9.318,25.159c0,0.095-0.034,0.177-0.102,0.245c-0.068,0.068-0.15,0.102-0.245,0.102c-0.098,0-0.18-0.034-0.249-0.102
			c-0.068-0.068-0.102-0.149-0.102-0.245c0-0.097,0.034-0.18,0.102-0.248c0.068-0.068,0.151-0.102,0.249-0.102
			c0.095,0,0.176,0.034,0.245,0.102C9.285,24.979,9.318,25.062,9.318,25.159z"/>
		<path d="M13.672,24.826V24.73c0-0.07,0.014-0.12,0.041-0.149s0.061-0.044,0.102-0.044c0.043,0,0.078,0.015,0.105,0.044
			c0.027,0.029,0.041,0.08,0.041,0.149v0.646c-0.002,0.07-0.017,0.12-0.042,0.149s-0.061,0.044-0.104,0.044
			c-0.039,0-0.071-0.013-0.097-0.039c-0.026-0.026-0.041-0.069-0.046-0.131c-0.013-0.161-0.119-0.313-0.317-0.458
			s-0.465-0.218-0.8-0.218c-0.424,0-0.746,0.133-0.965,0.398s-0.33,0.568-0.33,0.911c0,0.369,0.121,0.674,0.364,0.914
			c0.242,0.24,0.556,0.36,0.941,0.36c0.222,0,0.448-0.041,0.678-0.123c0.23-0.082,0.438-0.213,0.624-0.394
			c0.048-0.045,0.089-0.068,0.126-0.068c0.038,0,0.071,0.013,0.097,0.039s0.039,0.058,0.039,0.097c0,0.098-0.114,0.221-0.343,0.371
			c-0.369,0.243-0.78,0.364-1.233,0.364c-0.46,0-0.838-0.147-1.134-0.44c-0.295-0.293-0.443-0.666-0.443-1.116
			c0-0.46,0.151-0.842,0.454-1.146c0.303-0.303,0.684-0.455,1.144-0.455C13.008,24.435,13.375,24.565,13.672,24.826z"/>
		<path d="M16.799,23.157v4.037h0.979c0.068,0,0.117,0.013,0.146,0.039c0.029,0.026,0.044,0.061,0.044,0.104
			c0,0.041-0.015,0.075-0.044,0.102c-0.03,0.027-0.079,0.041-0.146,0.041h-2.243c-0.068,0-0.117-0.014-0.146-0.041
			c-0.029-0.027-0.044-0.061-0.044-0.102c0-0.043,0.015-0.078,0.044-0.104c0.03-0.026,0.078-0.039,0.146-0.039h0.979v-3.643
			l-0.931,0.292c-0.045,0.014-0.078,0.021-0.099,0.021c-0.034,0-0.065-0.014-0.093-0.042s-0.042-0.062-0.042-0.101
			c0-0.034,0.011-0.065,0.034-0.095c0.019-0.018,0.056-0.037,0.112-0.058L16.799,23.157z"/>
	</g>
	<g>
		<path d="M5.142,35.239c0,0.095-0.034,0.177-0.102,0.245c-0.068,0.068-0.15,0.102-0.245,0.102c-0.098,0-0.18-0.034-0.249-0.102
			c-0.068-0.068-0.102-0.149-0.102-0.245c0-0.097,0.034-0.18,0.102-0.248c0.068-0.068,0.151-0.102,0.249-0.102
			c0.095,0,0.176,0.034,0.245,0.102C5.108,35.059,5.142,35.142,5.142,35.239z"/>
		<path d="M9.318,35.239c0,0.095-0.034,0.177-0.102,0.245c-0.068,0.068-0.15,0.102-0.245,0.102c-0.098,0-0.18-0.034-0.249-0.102
			c-0.068-0.068-0.102-0.149-0.102-0.245c0-0.097,0.034-0.18,0.102-0.248c0.068-0.068,0.151-0.102,0.249-0.102
			c0.095,0,0.176,0.034,0.245,0.102C9.285,35.059,9.318,35.142,9.318,35.239z"/>
		<path d="M13.495,35.239c0,0.095-0.034,0.177-0.102,0.245c-0.068,0.068-0.15,0.102-0.245,0.102c-0.098,0-0.18-0.034-0.249-0.102
			c-0.068-0.068-0.102-0.149-0.102-0.245c0-0.097,0.034-0.18,0.102-0.248c0.068-0.068,0.151-0.102,0.249-0.102
			c0.095,0,0.176,0.034,0.245,0.102C13.461,35.059,13.495,35.142,13.495,35.239z"/>
		<path d="M17.672,35.239c0,0.095-0.034,0.177-0.102,0.245c-0.068,0.068-0.15,0.102-0.245,0.102c-0.098,0-0.18-0.034-0.249-0.102
			c-0.068-0.068-0.102-0.149-0.102-0.245c0-0.097,0.034-0.18,0.102-0.248c0.068-0.068,0.151-0.102,0.249-0.102
			c0.095,0,0.176,0.034,0.245,0.102C17.638,35.059,17.672,35.142,17.672,35.239z"/>
		<path d="M22.025,34.906v-0.095c0-0.07,0.014-0.12,0.041-0.149s0.061-0.044,0.102-0.044c0.043,0,0.078,0.015,0.105,0.044
			c0.027,0.029,0.041,0.08,0.041,0.149v0.646c-0.002,0.07-0.017,0.12-0.042,0.149s-0.061,0.044-0.104,0.044
			c-0.039,0-0.071-0.013-0.097-0.039c-0.026-0.026-0.041-0.069-0.046-0.131c-0.013-0.161-0.119-0.313-0.317-0.458
			s-0.465-0.218-0.8-0.218c-0.424,0-0.746,0.133-0.965,0.398s-0.33,0.568-0.33,0.911c0,0.369,0.121,0.674,0.364,0.914
			c0.242,0.24,0.556,0.36,0.941,0.36c0.222,0,0.448-0.041,0.678-0.123c0.23-0.082,0.438-0.213,0.624-0.394
			c0.048-0.045,0.089-0.068,0.126-0.068c0.038,0,0.071,0.013,0.097,0.039s0.039,0.058,0.039,0.097c0,0.098-0.114,0.221-0.343,0.371
			c-0.369,0.243-0.78,0.364-1.233,0.364c-0.46,0-0.838-0.147-1.134-0.44c-0.295-0.293-0.443-0.666-0.443-1.116
			c0-0.46,0.151-0.842,0.454-1.146c0.303-0.303,0.684-0.455,1.144-0.455C21.362,34.515,21.729,34.646,22.025,34.906z"/>
		<path d="M25.152,33.237v4.037h0.979c0.068,0,0.117,0.013,0.146,0.039c0.029,0.026,0.044,0.061,0.044,0.104
			c0,0.041-0.015,0.075-0.044,0.102c-0.03,0.027-0.079,0.041-0.146,0.041h-2.243c-0.068,0-0.117-0.014-0.146-0.041
			c-0.029-0.027-0.044-0.061-0.044-0.102c0-0.043,0.015-0.078,0.044-0.104c0.03-0.026,0.078-0.039,0.146-0.039h0.979v-3.643
			l-0.931,0.292c-0.045,0.014-0.078,0.021-0.099,0.021c-0.034,0-0.065-0.014-0.093-0.042s-0.042-0.062-0.042-0.101
			c0-0.034,0.011-0.065,0.034-0.095c0.019-0.018,0.056-0.037,0.112-0.058L25.152,33.237z"/>
		<path d="M29.329,33.237v4.037h0.979c0.068,0,0.117,0.013,0.146,0.039c0.029,0.026,0.044,0.061,0.044,0.104
			c0,0.041-0.015,0.075-0.044,0.102c-0.03,0.027-0.079,0.041-0.146,0.041h-2.243c-0.068,0-0.117-0.014-0.146-0.041
			c-0.029-0.027-0.044-0.061-0.044-0.102c0-0.043,0.015-0.078,0.044-0.104c0.03-0.026,0.078-0.039,0.146-0.039h0.979v-3.643
			l-0.931,0.292c-0.045,0.014-0.078,0.021-0.099,0.021c-0.034,0-0.065-0.014-0.093-0.042s-0.042-0.062-0.042-0.101
			c0-0.034,0.011-0.065,0.034-0.095c0.019-0.018,0.056-0.037,0.112-0.058L29.329,33.237z"/>
		<path d="M46.264,33.237v4.037h0.979c0.067,0,0.116,0.013,0.146,0.039c0.029,0.026,0.044,0.061,0.044,0.104
			c0,0.041-0.015,0.075-0.044,0.102c-0.03,0.027-0.079,0.041-0.146,0.041h-2.243c-0.068,0-0.116-0.014-0.146-0.041
			c-0.029-0.027-0.043-0.061-0.043-0.102c0-0.043,0.014-0.078,0.043-0.104c0.03-0.026,0.078-0.039,0.146-0.039h0.979v-3.643
			l-0.931,0.292c-0.046,0.014-0.078,0.021-0.099,0.021c-0.033,0-0.064-0.014-0.094-0.042c-0.027-0.028-0.042-0.062-0.042-0.101
			c0-0.034,0.011-0.065,0.034-0.095c0.018-0.018,0.055-0.037,0.111-0.058L46.264,33.237z"/>
		<path d="M60.248,37.274h2.192v-0.112c0-0.068,0.014-0.117,0.041-0.146c0.027-0.029,0.063-0.044,0.105-0.044
			c0.04,0,0.074,0.015,0.102,0.044c0.027,0.03,0.041,0.078,0.041,0.146v0.397h-2.76v-0.421c0.58-0.521,1.145-1.051,1.692-1.59
			c0.256-0.251,0.432-0.436,0.527-0.554c0.095-0.118,0.16-0.221,0.195-0.311c0.035-0.089,0.053-0.179,0.053-0.27
			c0-0.245-0.099-0.461-0.296-0.649s-0.436-0.282-0.714-0.282c-0.249,0-0.47,0.071-0.663,0.214c-0.192,0.143-0.316,0.32-0.373,0.53
			c-0.014,0.055-0.031,0.09-0.052,0.105c-0.026,0.022-0.059,0.034-0.095,0.034c-0.039,0-0.071-0.013-0.097-0.039
			c-0.026-0.026-0.039-0.058-0.039-0.094c0-0.109,0.06-0.256,0.178-0.442c0.119-0.186,0.283-0.332,0.493-0.438
			c0.21-0.107,0.424-0.16,0.645-0.16c0.355,0,0.661,0.124,0.917,0.371s0.384,0.527,0.384,0.839c0,0.131-0.021,0.252-0.064,0.362
			c-0.043,0.11-0.116,0.23-0.219,0.36c-0.104,0.13-0.288,0.327-0.556,0.59c-0.671,0.662-1.217,1.175-1.639,1.54V37.274z"/>
	</g>
	<g>
		<path d="M5.142,45.319c0,0.095-0.034,0.177-0.102,0.245c-0.068,0.068-0.15,0.102-0.245,0.102c-0.098,0-0.18-0.034-0.249-0.102
			c-0.068-0.068-0.102-0.149-0.102-0.245c0-0.097,0.034-0.18,0.102-0.248c0.068-0.068,0.151-0.102,0.249-0.102
			c0.095,0,0.176,0.034,0.245,0.102C5.108,45.139,5.142,45.222,5.142,45.319z"/>
		<path d="M9.318,45.319c0,0.095-0.034,0.177-0.102,0.245c-0.068,0.068-0.15,0.102-0.245,0.102c-0.098,0-0.18-0.034-0.249-0.102
			c-0.068-0.068-0.102-0.149-0.102-0.245c0-0.097,0.034-0.18,0.102-0.248c0.068-0.068,0.151-0.102,0.249-0.102
			c0.095,0,0.176,0.034,0.245,0.102C9.285,45.139,9.318,45.222,9.318,45.319z"/>
		<path d="M13.495,45.319c0,0.095-0.034,0.177-0.102,0.245c-0.068,0.068-0.15,0.102-0.245,0.102c-0.098,0-0.18-0.034-0.249-0.102
			c-0.068-0.068-0.102-0.149-0.102-0.245c0-0.097,0.034-0.18,0.102-0.248c0.068-0.068,0.151-0.102,0.249-0.102
			c0.095,0,0.176,0.034,0.245,0.102C13.461,45.139,13.495,45.222,13.495,45.319z"/>
		<path d="M17.672,45.319c0,0.095-0.034,0.177-0.102,0.245c-0.068,0.068-0.15,0.102-0.245,0.102c-0.098,0-0.18-0.034-0.249-0.102
			c-0.068-0.068-0.102-0.149-0.102-0.245c0-0.097,0.034-0.18,0.102-0.248c0.068-0.068,0.151-0.102,0.249-0.102
			c0.095,0,0.176,0.034,0.245,0.102C17.638,45.139,17.672,45.222,17.672,45.319z"/>
		<path d="M22.025,44.986v-0.095c0-0.07,0.014-0.12,0.041-0.149s0.061-0.044,0.102-0.044c0.043,0,0.078,0.015,0.105,0.044
			c0.027,0.029,0.041,0.08,0.041,0.149v0.646c-0.002,0.07-0.017,0.12-0.042,0.149s-0.061,0.044-0.104,0.044
			c-0.039,0-0.071-0.013-0.097-0.039c-0.026-0.026-0.041-0.069-0.046-0.131c-0.013-0.161-0.119-0.313-0.317-0.458
			s-0.465-0.218-0.8-0.218c-0.424,0-0.746,0.133-0.965,0.398s-0.33,0.568-0.33,0.911c0,0.369,0.121,0.674,0.364,0.914
			c0.242,0.24,0.556,0.36,0.941,0.36c0.222,0,0.448-0.041,0.678-0.123c0.23-0.082,0.438-0.213,0.624-0.394
			c0.048-0.045,0.089-0.068,0.126-0.068c0.038,0,0.071,0.013,0.097,0.039s0.039,0.058,0.039,0.097c0,0.098-0.114,0.221-0.343,0.371
			c-0.369,0.243-0.78,0.364-1.233,0.364c-0.46,0-0.838-0.147-1.134-0.44c-0.295-0.293-0.443-0.666-0.443-1.116
			c0-0.46,0.151-0.842,0.454-1.146c0.303-0.303,0.684-0.455,1.144-0.455C21.362,44.595,21.729,44.726,22.025,44.986z"/>
		<path d="M25.152,43.317v4.037h0.979c0.068,0,0.117,0.013,0.146,0.039c0.029,0.026,0.044,0.061,0.044,0.104
			c0,0.041-0.015,0.075-0.044,0.102c-0.03,0.027-0.079,0.041-0.146,0.041h-2.243c-0.068,0-0.117-0.014-0.146-0.041
			c-0.029-0.027-0.044-0.061-0.044-0.102c0-0.043,0.015-0.078,0.044-0.104c0.03-0.026,0.078-0.039,0.146-0.039h0.979v-3.643
			l-0.931,0.292c-0.045,0.014-0.078,0.021-0.099,0.021c-0.034,0-0.065-0.014-0.093-0.042s-0.042-0.062-0.042-0.101
			c0-0.034,0.011-0.065,0.034-0.095c0.019-0.018,0.056-0.037,0.112-0.058L25.152,43.317z"/>
		<path d="M27.959,47.354h2.192v-0.112c0-0.068,0.014-0.117,0.041-0.146c0.027-0.029,0.062-0.044,0.105-0.044
			c0.041,0,0.075,0.015,0.102,0.044c0.027,0.03,0.041,0.078,0.041,0.146v0.397h-2.76v-0.421c0.58-0.521,1.144-1.051,1.692-1.59
			c0.256-0.251,0.432-0.436,0.527-0.554c0.095-0.118,0.16-0.221,0.195-0.311c0.035-0.089,0.053-0.179,0.053-0.27
			c0-0.245-0.099-0.461-0.295-0.649c-0.197-0.188-0.435-0.282-0.714-0.282c-0.249,0-0.47,0.071-0.663,0.214
			c-0.193,0.143-0.317,0.32-0.374,0.53c-0.014,0.055-0.03,0.09-0.051,0.105c-0.027,0.022-0.059,0.034-0.095,0.034
			c-0.039,0-0.071-0.013-0.097-0.039c-0.026-0.026-0.039-0.058-0.039-0.094c0-0.109,0.059-0.256,0.178-0.442
			c0.119-0.186,0.283-0.332,0.493-0.438c0.209-0.107,0.424-0.16,0.644-0.16c0.355,0,0.662,0.124,0.917,0.371
			c0.256,0.247,0.384,0.527,0.384,0.839c0,0.131-0.021,0.252-0.065,0.362c-0.043,0.11-0.116,0.23-0.219,0.36
			c-0.104,0.13-0.289,0.327-0.556,0.59c-0.671,0.662-1.217,1.175-1.638,1.54V47.354z"/>
		<path d="M46.709,45.319c0.263,0.118,0.463,0.279,0.601,0.484c0.139,0.205,0.208,0.418,0.208,0.641
			c0,0.342-0.139,0.644-0.417,0.906c-0.277,0.262-0.624,0.393-1.041,0.393c-0.244,0-0.498-0.052-0.762-0.156
			c-0.262-0.104-0.445-0.211-0.55-0.32c-0.034-0.036-0.052-0.075-0.052-0.115c0-0.036,0.014-0.068,0.039-0.095
			c0.027-0.027,0.058-0.041,0.094-0.041c0.037,0,0.077,0.017,0.123,0.051c0.351,0.26,0.723,0.391,1.114,0.391
			c0.331,0,0.608-0.104,0.831-0.311c0.223-0.207,0.334-0.438,0.334-0.691c0-0.17-0.055-0.336-0.164-0.5s-0.268-0.292-0.475-0.386
			c-0.205-0.094-0.414-0.141-0.625-0.141c-0.068,0-0.117-0.013-0.146-0.039s-0.044-0.061-0.044-0.104
			c0-0.041,0.015-0.075,0.042-0.102c0.029-0.027,0.071-0.041,0.128-0.041l0.245,0.003c0.256,0,0.467-0.078,0.634-0.234
			s0.249-0.337,0.249-0.543c0-0.213-0.086-0.401-0.262-0.564c-0.174-0.163-0.401-0.245-0.683-0.245
			c-0.196,0-0.378,0.034-0.544,0.102c-0.165,0.068-0.297,0.161-0.397,0.279c-0.036,0.045-0.063,0.073-0.083,0.083
			s-0.041,0.015-0.066,0.015c-0.039,0-0.071-0.013-0.099-0.039c-0.026-0.026-0.04-0.057-0.04-0.093c0-0.091,0.098-0.205,0.295-0.343
			c0.274-0.192,0.586-0.289,0.935-0.289c0.36,0,0.656,0.108,0.888,0.325c0.23,0.216,0.346,0.474,0.346,0.773
			c0,0.19-0.055,0.371-0.166,0.541S46.924,45.217,46.709,45.319z"/>
		<path d="M62.009,46.447h-1.893v-0.33l1.587-2.743h0.595v2.787h0.237c0.07,0,0.12,0.013,0.15,0.039
			c0.029,0.026,0.044,0.061,0.044,0.104c0,0.041-0.015,0.075-0.044,0.102c-0.03,0.027-0.08,0.041-0.15,0.041h-0.237v0.907h0.237
			c0.07,0,0.12,0.013,0.15,0.039c0.029,0.026,0.044,0.061,0.044,0.104c0,0.041-0.015,0.075-0.044,0.102
			c-0.03,0.027-0.08,0.041-0.15,0.041h-1.06c-0.07,0-0.12-0.014-0.149-0.041c-0.03-0.027-0.045-0.061-0.045-0.102
			c0-0.043,0.015-0.078,0.045-0.104c0.029-0.026,0.079-0.039,0.149-0.039h0.533V46.447z M62.009,46.162v-2.498h-0.149l-1.444,2.498
			H62.009z"/>
	</g>
	<g>
		<path d="M5.142,55.398c0,0.096-0.034,0.178-0.102,0.245c-0.068,0.068-0.15,0.103-0.245,0.103c-0.098,0-0.18-0.034-0.249-0.103
			c-0.068-0.067-0.102-0.149-0.102-0.245c0-0.097,0.034-0.18,0.102-0.248c0.068-0.067,0.151-0.102,0.249-0.102
			c0.095,0,0.176,0.034,0.245,0.102C5.108,55.219,5.142,55.302,5.142,55.398z"/>
		<path d="M9.318,55.398c0,0.096-0.034,0.178-0.102,0.245c-0.068,0.068-0.15,0.103-0.245,0.103c-0.098,0-0.18-0.034-0.249-0.103
			c-0.068-0.067-0.102-0.149-0.102-0.245c0-0.097,0.034-0.18,0.102-0.248c0.068-0.067,0.151-0.102,0.249-0.102
			c0.095,0,0.176,0.034,0.245,0.102C9.285,55.219,9.318,55.302,9.318,55.398z"/>
		<path d="M13.672,55.066v-0.096c0-0.07,0.014-0.12,0.041-0.149s0.061-0.044,0.102-0.044c0.043,0,0.078,0.015,0.105,0.044
			c0.027,0.029,0.041,0.079,0.041,0.149v0.646c-0.002,0.07-0.017,0.119-0.042,0.148s-0.061,0.045-0.104,0.045
			c-0.039,0-0.071-0.014-0.097-0.039c-0.026-0.026-0.041-0.07-0.046-0.131c-0.013-0.161-0.119-0.314-0.317-0.459
			s-0.465-0.218-0.8-0.218c-0.424,0-0.746,0.133-0.965,0.397c-0.22,0.266-0.33,0.568-0.33,0.911c0,0.369,0.121,0.675,0.364,0.914
			c0.242,0.24,0.556,0.36,0.941,0.36c0.222,0,0.448-0.041,0.678-0.123c0.23-0.081,0.438-0.213,0.624-0.394
			c0.048-0.046,0.089-0.067,0.126-0.067c0.038,0,0.071,0.013,0.097,0.039c0.026,0.025,0.039,0.058,0.039,0.096
			c0,0.098-0.114,0.222-0.343,0.371c-0.369,0.242-0.78,0.363-1.233,0.363c-0.46,0-0.838-0.146-1.134-0.439
			c-0.295-0.293-0.443-0.666-0.443-1.117c0-0.459,0.151-0.842,0.454-1.145c0.303-0.304,0.684-0.455,1.144-0.455
			C13.008,54.676,13.375,54.806,13.672,55.066z"/>
		<path d="M15.429,57.435h2.192v-0.112c0-0.068,0.014-0.116,0.041-0.146c0.027-0.029,0.062-0.043,0.105-0.043
			c0.041,0,0.075,0.014,0.102,0.043c0.027,0.03,0.041,0.078,0.041,0.146v0.398h-2.76v-0.422c0.58-0.521,1.144-1.051,1.692-1.59
			c0.256-0.252,0.432-0.437,0.527-0.555c0.095-0.117,0.16-0.221,0.195-0.311s0.053-0.18,0.053-0.271
			c0-0.245-0.099-0.461-0.295-0.649c-0.197-0.188-0.435-0.281-0.714-0.281c-0.249,0-0.47,0.07-0.663,0.213
			c-0.193,0.144-0.317,0.32-0.374,0.531c-0.014,0.055-0.03,0.09-0.051,0.105c-0.027,0.021-0.059,0.033-0.095,0.033
			c-0.039,0-0.071-0.013-0.097-0.039c-0.026-0.025-0.039-0.057-0.039-0.094c0-0.108,0.059-0.256,0.178-0.441
			s0.283-0.332,0.493-0.438c0.209-0.107,0.424-0.16,0.644-0.16c0.355,0,0.662,0.123,0.917,0.37c0.256,0.247,0.384,0.526,0.384,0.839
			c0,0.132-0.021,0.252-0.065,0.362c-0.043,0.11-0.116,0.229-0.219,0.36c-0.104,0.131-0.289,0.327-0.556,0.59
			c-0.671,0.662-1.217,1.175-1.638,1.539V57.435z"/>
	</g>
	<g>
		<path d="M5.142,65.479c0,0.096-0.034,0.178-0.102,0.245c-0.068,0.068-0.15,0.103-0.245,0.103c-0.098,0-0.18-0.034-0.249-0.103
			c-0.068-0.067-0.102-0.149-0.102-0.245c0-0.097,0.034-0.18,0.102-0.248c0.068-0.067,0.151-0.102,0.249-0.102
			c0.095,0,0.176,0.034,0.245,0.102C5.108,65.299,5.142,65.382,5.142,65.479z"/>
		<path d="M9.318,65.479c0,0.096-0.034,0.178-0.102,0.245c-0.068,0.068-0.15,0.103-0.245,0.103c-0.098,0-0.18-0.034-0.249-0.103
			c-0.068-0.067-0.102-0.149-0.102-0.245c0-0.097,0.034-0.18,0.102-0.248c0.068-0.067,0.151-0.102,0.249-0.102
			c0.095,0,0.176,0.034,0.245,0.102C9.285,65.299,9.318,65.382,9.318,65.479z"/>
		<path d="M13.495,65.479c0,0.096-0.034,0.178-0.102,0.245c-0.068,0.068-0.15,0.103-0.245,0.103c-0.098,0-0.18-0.034-0.249-0.103
			c-0.068-0.067-0.102-0.149-0.102-0.245c0-0.097,0.034-0.18,0.102-0.248c0.068-0.067,0.151-0.102,0.249-0.102
			c0.095,0,0.176,0.034,0.245,0.102C13.461,65.299,13.495,65.382,13.495,65.479z"/>
		<path d="M17.672,65.479c0,0.096-0.034,0.178-0.102,0.245c-0.068,0.068-0.15,0.103-0.245,0.103c-0.098,0-0.18-0.034-0.249-0.103
			c-0.068-0.067-0.102-0.149-0.102-0.245c0-0.097,0.034-0.18,0.102-0.248c0.068-0.067,0.151-0.102,0.249-0.102
			c0.095,0,0.176,0.034,0.245,0.102C17.638,65.299,17.672,65.382,17.672,65.479z"/>
		<path d="M22.025,65.146v-0.096c0-0.07,0.014-0.12,0.041-0.149s0.061-0.044,0.102-0.044c0.043,0,0.078,0.015,0.105,0.044
			c0.027,0.029,0.041,0.079,0.041,0.149v0.646c-0.002,0.07-0.017,0.119-0.042,0.148s-0.061,0.045-0.104,0.045
			c-0.039,0-0.071-0.014-0.097-0.039c-0.026-0.026-0.041-0.07-0.046-0.131c-0.013-0.161-0.119-0.314-0.317-0.459
			s-0.465-0.218-0.8-0.218c-0.424,0-0.746,0.133-0.965,0.397c-0.22,0.266-0.33,0.568-0.33,0.911c0,0.369,0.121,0.675,0.364,0.914
			c0.242,0.24,0.556,0.36,0.941,0.36c0.222,0,0.448-0.041,0.678-0.123c0.23-0.081,0.438-0.213,0.624-0.394
			c0.048-0.046,0.089-0.067,0.126-0.067c0.038,0,0.071,0.013,0.097,0.039c0.026,0.025,0.039,0.058,0.039,0.096
			c0,0.098-0.114,0.222-0.343,0.371c-0.369,0.242-0.78,0.363-1.233,0.363c-0.46,0-0.838-0.146-1.134-0.439
			c-0.295-0.293-0.443-0.666-0.443-1.117c0-0.459,0.151-0.842,0.454-1.145c0.303-0.304,0.684-0.455,1.144-0.455
			C21.362,64.756,21.729,64.886,22.025,65.146z"/>
		<path d="M23.783,67.515h2.192v-0.112c0-0.068,0.014-0.116,0.041-0.146c0.027-0.029,0.062-0.043,0.105-0.043
			c0.041,0,0.075,0.014,0.102,0.043c0.027,0.03,0.041,0.078,0.041,0.146v0.398h-2.76v-0.422c0.58-0.521,1.144-1.051,1.692-1.59
			c0.256-0.252,0.432-0.437,0.527-0.555c0.095-0.117,0.16-0.221,0.195-0.311s0.053-0.18,0.053-0.271
			c0-0.245-0.099-0.461-0.295-0.649c-0.197-0.188-0.435-0.281-0.714-0.281c-0.249,0-0.47,0.07-0.663,0.213
			c-0.193,0.144-0.317,0.32-0.374,0.531c-0.014,0.055-0.03,0.09-0.051,0.105c-0.027,0.021-0.059,0.033-0.095,0.033
			c-0.039,0-0.071-0.013-0.097-0.039c-0.026-0.025-0.039-0.057-0.039-0.094c0-0.108,0.059-0.256,0.178-0.441
			s0.283-0.332,0.493-0.438c0.209-0.107,0.424-0.16,0.644-0.16c0.355,0,0.662,0.123,0.917,0.37c0.256,0.247,0.384,0.526,0.384,0.839
			c0,0.132-0.021,0.252-0.065,0.362c-0.043,0.11-0.116,0.229-0.219,0.36c-0.104,0.131-0.289,0.327-0.556,0.59
			c-0.671,0.662-1.217,1.175-1.638,1.539V67.515z"/>
		<path d="M29.329,63.478v4.037h0.979c0.068,0,0.117,0.013,0.146,0.039c0.029,0.026,0.044,0.062,0.044,0.104
			c0,0.04-0.015,0.074-0.044,0.102c-0.03,0.027-0.079,0.041-0.146,0.041h-2.243c-0.068,0-0.117-0.014-0.146-0.041
			c-0.029-0.027-0.044-0.062-0.044-0.102c0-0.043,0.015-0.078,0.044-0.104c0.03-0.026,0.078-0.039,0.146-0.039h0.979v-3.644
			l-0.931,0.293c-0.045,0.014-0.078,0.021-0.099,0.021c-0.034,0-0.065-0.015-0.093-0.042c-0.028-0.029-0.042-0.063-0.042-0.102
			c0-0.033,0.011-0.064,0.034-0.095c0.019-0.019,0.056-0.037,0.112-0.058L29.329,63.478z"/>
		<path d="M45.698,63.824v1.396c0.167-0.07,0.328-0.123,0.482-0.158c0.153-0.035,0.3-0.053,0.438-0.053
			c0.358,0,0.658,0.126,0.899,0.377c0.241,0.252,0.362,0.583,0.362,0.993c0,0.453-0.137,0.819-0.408,1.101s-0.611,0.422-1.02,0.422
			c-0.27,0-0.529-0.061-0.778-0.18c-0.177-0.084-0.337-0.188-0.482-0.313c-0.087-0.076-0.13-0.138-0.13-0.188
			c0-0.041,0.014-0.075,0.041-0.104s0.059-0.043,0.096-0.043c0.038,0,0.079,0.021,0.122,0.062c0.343,0.319,0.715,0.479,1.118,0.479
			c0.333,0,0.608-0.114,0.826-0.342c0.217-0.229,0.326-0.531,0.326-0.909c0-0.321-0.094-0.581-0.282-0.776
			c-0.188-0.196-0.427-0.295-0.718-0.295c-0.297,0-0.594,0.079-0.89,0.235c-0.073,0.036-0.124,0.054-0.153,0.054
			c-0.041,0-0.073-0.014-0.098-0.04c-0.025-0.027-0.038-0.065-0.038-0.116v-1.893h1.991c0.068,0,0.117,0.014,0.146,0.041
			s0.044,0.063,0.044,0.105c0,0.041-0.015,0.074-0.044,0.102s-0.078,0.041-0.146,0.041H45.698z"/>
		<path d="M60.987,65.996c0.177-0.261,0.358-0.453,0.545-0.578c0.188-0.125,0.395-0.188,0.624-0.188
			c0.304,0,0.573,0.127,0.809,0.379c0.235,0.254,0.354,0.565,0.354,0.938c0,0.34-0.107,0.65-0.323,0.932
			c-0.215,0.283-0.512,0.424-0.89,0.424c-0.247,0-0.478-0.076-0.692-0.229c-0.214-0.15-0.382-0.385-0.504-0.699
			c-0.152-0.393-0.228-0.826-0.228-1.302c0-0.358,0.071-0.69,0.214-0.999c0.108-0.238,0.254-0.447,0.435-0.627
			c0.182-0.18,0.393-0.328,0.634-0.441c0.241-0.115,0.503-0.172,0.783-0.172c0.19,0,0.35,0.038,0.477,0.115
			c0.054,0.034,0.081,0.08,0.081,0.136c0,0.041-0.013,0.074-0.037,0.101c-0.025,0.025-0.057,0.039-0.096,0.039
			c-0.029,0-0.064-0.012-0.105-0.034c-0.093-0.046-0.208-0.067-0.346-0.067c-0.442,0-0.845,0.189-1.209,0.568
			c-0.363,0.38-0.545,0.832-0.545,1.354C60.967,65.721,60.974,65.838,60.987,65.996z M61.052,66.469
			c0.086,0.412,0.222,0.706,0.406,0.883s0.402,0.266,0.654,0.266c0.253,0,0.471-0.1,0.65-0.298s0.271-0.456,0.271-0.772
			c0-0.297-0.091-0.543-0.272-0.738c-0.181-0.195-0.386-0.292-0.615-0.292c-0.22,0-0.432,0.094-0.635,0.282
			C61.374,65.924,61.222,66.146,61.052,66.469z"/>
	</g>
	<g>
		<path d="M5.526,73.615v3.98h0.38c0.07,0,0.12,0.013,0.15,0.039C6.085,77.66,6.1,77.695,6.1,77.738
			c0,0.041-0.015,0.074-0.044,0.102c-0.03,0.027-0.08,0.041-0.15,0.041H5.237v-0.567c-0.331,0.453-0.751,0.68-1.261,0.68
			c-0.258,0-0.506-0.069-0.743-0.206c-0.236-0.137-0.423-0.332-0.561-0.586s-0.206-0.516-0.206-0.785
			c0-0.271,0.068-0.534,0.206-0.787c0.137-0.252,0.324-0.447,0.561-0.586c0.237-0.139,0.486-0.207,0.746-0.207
			c0.499,0,0.917,0.227,1.257,0.68v-1.611h-0.38c-0.07,0-0.12-0.014-0.149-0.041c-0.03-0.026-0.044-0.062-0.044-0.104
			c0-0.041,0.015-0.075,0.044-0.103c0.029-0.027,0.079-0.041,0.149-0.041H5.526z M5.237,76.416c0-0.362-0.122-0.668-0.367-0.918
			c-0.245-0.248-0.536-0.373-0.874-0.373c-0.34,0-0.632,0.125-0.877,0.373c-0.245,0.25-0.367,0.556-0.367,0.918
			c0,0.36,0.122,0.666,0.367,0.916s0.537,0.375,0.877,0.375c0.337,0,0.629-0.125,0.874-0.375S5.237,76.776,5.237,76.416z"/>
	</g>
	<g>
		<path d="M5.142,85.64c0,0.095-0.034,0.177-0.102,0.245c-0.068,0.068-0.15,0.102-0.245,0.102c-0.098,0-0.18-0.033-0.249-0.102
			c-0.068-0.068-0.102-0.15-0.102-0.245c0-0.097,0.034-0.181,0.102-0.248c0.068-0.067,0.151-0.103,0.249-0.103
			c0.095,0,0.176,0.035,0.245,0.103C5.108,85.459,5.142,85.543,5.142,85.64z"/>
		<path d="M9.318,85.64c0,0.095-0.034,0.177-0.102,0.245c-0.068,0.068-0.15,0.102-0.245,0.102c-0.098,0-0.18-0.033-0.249-0.102
			c-0.068-0.068-0.102-0.15-0.102-0.245c0-0.097,0.034-0.181,0.102-0.248c0.068-0.067,0.151-0.103,0.249-0.103
			c0.095,0,0.176,0.035,0.245,0.103C9.285,85.459,9.318,85.543,9.318,85.64z"/>
		<path d="M13.879,83.695v3.98h0.38c0.07,0,0.12,0.013,0.15,0.039c0.029,0.025,0.044,0.061,0.044,0.104
			c0,0.041-0.015,0.074-0.044,0.102c-0.03,0.027-0.08,0.041-0.15,0.041H13.59v-0.567c-0.331,0.453-0.751,0.68-1.261,0.68
			c-0.258,0-0.506-0.069-0.743-0.206c-0.236-0.137-0.423-0.332-0.561-0.586s-0.206-0.516-0.206-0.785
			c0-0.271,0.068-0.534,0.206-0.787c0.137-0.252,0.324-0.447,0.561-0.586c0.237-0.139,0.486-0.207,0.746-0.207
			c0.499,0,0.917,0.227,1.257,0.68v-1.611h-0.38c-0.07,0-0.12-0.014-0.149-0.041c-0.03-0.026-0.044-0.062-0.044-0.104
			c0-0.041,0.015-0.075,0.044-0.103c0.029-0.027,0.079-0.041,0.149-0.041H13.879z M13.59,86.496c0-0.362-0.122-0.668-0.367-0.918
			c-0.245-0.248-0.536-0.373-0.874-0.373c-0.34,0-0.632,0.125-0.877,0.373c-0.245,0.25-0.367,0.556-0.367,0.918
			c0,0.36,0.122,0.666,0.367,0.916s0.537,0.375,0.877,0.375c0.337,0,0.629-0.125,0.874-0.375S13.59,86.856,13.59,86.496z"/>
		<path d="M16.799,83.639v4.037h0.979c0.068,0,0.117,0.013,0.146,0.039c0.029,0.025,0.044,0.061,0.044,0.104
			c0,0.041-0.015,0.074-0.044,0.102c-0.03,0.027-0.079,0.041-0.146,0.041h-2.243c-0.068,0-0.117-0.014-0.146-0.041
			c-0.029-0.027-0.044-0.061-0.044-0.102c0-0.043,0.015-0.078,0.044-0.104c0.03-0.026,0.078-0.039,0.146-0.039h0.979v-3.644
			l-0.931,0.292c-0.045,0.014-0.078,0.021-0.099,0.021c-0.034,0-0.065-0.015-0.093-0.043s-0.042-0.063-0.042-0.101
			c0-0.034,0.011-0.065,0.034-0.095c0.019-0.019,0.056-0.037,0.112-0.059L16.799,83.639z"/>
	</g>
	<g>
		<path d="M5.142,95.72c0,0.095-0.034,0.177-0.102,0.245c-0.068,0.068-0.15,0.102-0.245,0.102c-0.098,0-0.18-0.033-0.249-0.102
			c-0.068-0.068-0.102-0.15-0.102-0.245c0-0.097,0.034-0.181,0.102-0.248c0.068-0.067,0.151-0.103,0.249-0.103
			c0.095,0,0.176,0.035,0.245,0.103C5.108,95.539,5.142,95.623,5.142,95.72z"/>
		<path d="M9.318,95.72c0,0.095-0.034,0.177-0.102,0.245c-0.068,0.068-0.15,0.102-0.245,0.102c-0.098,0-0.18-0.033-0.249-0.102
			c-0.068-0.068-0.102-0.15-0.102-0.245c0-0.097,0.034-0.181,0.102-0.248c0.068-0.067,0.151-0.103,0.249-0.103
			c0.095,0,0.176,0.035,0.245,0.103C9.285,95.539,9.318,95.623,9.318,95.72z"/>
		<path d="M13.495,95.72c0,0.095-0.034,0.177-0.102,0.245c-0.068,0.068-0.15,0.102-0.245,0.102c-0.098,0-0.18-0.033-0.249-0.102
			c-0.068-0.068-0.102-0.15-0.102-0.245c0-0.097,0.034-0.181,0.102-0.248c0.068-0.067,0.151-0.103,0.249-0.103
			c0.095,0,0.176,0.035,0.245,0.103C13.461,95.539,13.495,95.623,13.495,95.72z"/>
		<path d="M17.672,95.72c0,0.095-0.034,0.177-0.102,0.245c-0.068,0.068-0.15,0.102-0.245,0.102c-0.098,0-0.18-0.033-0.249-0.102
			c-0.068-0.068-0.102-0.15-0.102-0.245c0-0.097,0.034-0.181,0.102-0.248c0.068-0.067,0.151-0.103,0.249-0.103
			c0.095,0,0.176,0.035,0.245,0.103C17.638,95.539,17.672,95.623,17.672,95.72z"/>
		<path d="M22.233,93.775v3.98h0.38c0.07,0,0.12,0.013,0.15,0.039c0.029,0.025,0.044,0.061,0.044,0.104
			c0,0.041-0.015,0.074-0.044,0.102c-0.03,0.027-0.08,0.041-0.15,0.041h-0.669v-0.567c-0.331,0.453-0.751,0.68-1.261,0.68
			c-0.258,0-0.506-0.069-0.743-0.206c-0.236-0.137-0.423-0.332-0.561-0.586s-0.206-0.516-0.206-0.785
			c0-0.271,0.068-0.534,0.206-0.787c0.137-0.252,0.324-0.447,0.561-0.586c0.237-0.139,0.486-0.207,0.746-0.207
			c0.499,0,0.917,0.227,1.257,0.68v-1.611h-0.38c-0.07,0-0.12-0.014-0.149-0.041c-0.03-0.026-0.044-0.062-0.044-0.104
			c0-0.041,0.015-0.075,0.044-0.103c0.029-0.027,0.079-0.041,0.149-0.041H22.233z M21.944,96.576c0-0.362-0.122-0.668-0.367-0.918
			c-0.245-0.248-0.536-0.373-0.874-0.373c-0.34,0-0.632,0.125-0.877,0.373c-0.245,0.25-0.367,0.556-0.367,0.918
			c0,0.36,0.122,0.666,0.367,0.916s0.537,0.375,0.877,0.375c0.337,0,0.629-0.125,0.874-0.375S21.944,96.937,21.944,96.576z"/>
		<path d="M25.152,93.719v4.037h0.979c0.068,0,0.117,0.013,0.146,0.039c0.029,0.025,0.044,0.061,0.044,0.104
			c0,0.041-0.015,0.074-0.044,0.102c-0.03,0.027-0.079,0.041-0.146,0.041h-2.243c-0.068,0-0.117-0.014-0.146-0.041
			c-0.029-0.027-0.044-0.061-0.044-0.102c0-0.043,0.015-0.078,0.044-0.104c0.03-0.026,0.078-0.039,0.146-0.039h0.979v-3.644
			l-0.931,0.292c-0.045,0.014-0.078,0.021-0.099,0.021c-0.034,0-0.065-0.015-0.093-0.043s-0.042-0.063-0.042-0.101
			c0-0.034,0.011-0.065,0.034-0.095c0.019-0.019,0.056-0.037,0.112-0.059L25.152,93.719z"/>
		<path d="M29.329,93.719v4.037h0.979c0.068,0,0.117,0.013,0.146,0.039c0.029,0.025,0.044,0.061,0.044,0.104
			c0,0.041-0.015,0.074-0.044,0.102c-0.03,0.027-0.079,0.041-0.146,0.041h-2.243c-0.068,0-0.117-0.014-0.146-0.041
			c-0.029-0.027-0.044-0.061-0.044-0.102c0-0.043,0.015-0.078,0.044-0.104c0.03-0.026,0.078-0.039,0.146-0.039h0.979v-3.644
			l-0.931,0.292c-0.045,0.014-0.078,0.021-0.099,0.021c-0.034,0-0.065-0.015-0.093-0.043s-0.042-0.063-0.042-0.101
			c0-0.034,0.011-0.065,0.034-0.095c0.019-0.019,0.056-0.037,0.112-0.059L29.329,93.719z"/>
		<path d="M47.083,94.193v-0.129h-2.047v0.252c0,0.068-0.013,0.117-0.039,0.146c-0.025,0.029-0.061,0.044-0.104,0.044
			c-0.041,0-0.074-0.015-0.102-0.044s-0.041-0.078-0.041-0.146v-0.541h2.621v0.456l-1.149,3.671
			c-0.019,0.059-0.04,0.098-0.064,0.117c-0.024,0.019-0.054,0.028-0.085,0.028c-0.041,0-0.074-0.014-0.102-0.041
			c-0.027-0.026-0.041-0.059-0.041-0.095c0-0.023,0.007-0.055,0.02-0.096L47.083,94.193z"/>
		<path d="M62.425,95.828c0.237,0.116,0.417,0.269,0.538,0.457c0.121,0.189,0.183,0.393,0.183,0.61c0,0.338-0.127,0.63-0.381,0.877
			s-0.563,0.37-0.925,0.37s-0.671-0.123-0.924-0.37c-0.254-0.247-0.381-0.539-0.381-0.877c0-0.215,0.061-0.417,0.182-0.606
			s0.302-0.343,0.542-0.461c-0.208-0.119-0.36-0.244-0.455-0.373c-0.132-0.184-0.197-0.387-0.197-0.608
			c0-0.313,0.12-0.587,0.362-0.821c0.241-0.234,0.531-0.352,0.871-0.352c0.342,0,0.634,0.117,0.874,0.352
			c0.239,0.234,0.359,0.508,0.359,0.821c0,0.222-0.065,0.423-0.196,0.604C62.783,95.583,62.633,95.709,62.425,95.828z
			 M62.859,96.902c0-0.252-0.098-0.47-0.292-0.656c-0.195-0.186-0.438-0.278-0.728-0.278s-0.532,0.093-0.728,0.278
			c-0.194,0.187-0.292,0.404-0.292,0.652c0,0.259,0.099,0.483,0.294,0.674c0.196,0.189,0.438,0.285,0.726,0.285
			c0.288,0,0.529-0.096,0.726-0.285C62.762,97.382,62.859,97.158,62.859,96.902z M62.781,94.856c0-0.245-0.091-0.454-0.273-0.63
			s-0.406-0.264-0.671-0.264c-0.263,0-0.485,0.088-0.668,0.266c-0.183,0.176-0.273,0.385-0.273,0.625c0,0.222,0.09,0.416,0.27,0.582
			c0.181,0.167,0.404,0.25,0.672,0.25c0.27,0,0.494-0.083,0.675-0.25C62.691,95.27,62.781,95.076,62.781,94.856z"/>
	</g>
	<rect width="0.96" height="101.76"/>
	<rect x="37.92" y="0.96" width="0.96" height="100.8"/>
	<rect x="53.28" y="0.96" width="0.96" height="100.8"/>
	<rect x="68.64" y="0.96" width="0.96" height="100.8"/>
	<rect x="0.96" width="68.64" height="0.96"/>
	<rect x="0.96" y="10.081" width="68.64" height="0.959"/>
	<rect x="0.96" y="20.161" width="68.64" height="0.959"/>
	<rect x="0.96" y="30.24" width="68.64" height="0.96"/>
	<rect x="0.96" y="40.32" width="68.64" height="0.96"/>
	<rect x="0.96" y="50.4" width="68.64" height="0.959"/>
	<rect x="0.96" y="60.479" width="68.64" height="0.961"/>
	<rect x="0.96" y="70.561" width="68.64" height="0.959"/>
	<rect x="0.96" y="80.639" width="68.64" height="0.961"/>
	<rect x="0.96" y="90.719" width="68.64" height="0.961"/>
	<rect x="0.96" y="100.799" width="68.64" height="0.961"/>
</g>
<line fill="none" stroke="#404040" stroke-width="0.25" x1="10.333" y1="70.561" x2="10.333" y2="21.227"/>
<line fill="none" stroke="#404040" stroke-width="0.25" x1="18.333" y1="51.36" x2="18.333" y2="30.774"/>
<line fill="none" stroke="#404040" stroke-width="0.25" x1="10.333" y1="101.975" x2="10.333" y2="81.388"/>
<line fill="none" stroke="#404040" stroke-width="0.25" x1="18.333" y1="71.521" x2="18.333" y2="60.748"/>
<line fill="none" stroke="#404040" stroke-width="0.25" x1="18.333" y1="101.761" x2="18.333" y2="90.987"/>
</svg>
