<?xml version="1.0" encoding="utf-8"?>
<!-- Generator: Adobe Illustrator 15.0.0, SVG Export Plug-In . SVG Version: 6.00 Build 0)  -->
<!DOCTYPE svg PUBLIC "-//W3C//DTD SVG 1.0//EN" "http://www.w3.org/TR/2001/REC-SVG-20010904/DTD/svg10.dtd">
<svg version="1.0" id="Layer_1" xmlns="http://www.w3.org/2000/svg" xmlns:xlink="http://www.w3.org/1999/xlink" x="0px" y="0px"
	 width="97.32px" height="81.84px" viewBox="0 0 97.32 81.84" enable-background="new 0 0 97.32 81.84" xml:space="preserve">
<g>
	<path d="M49.838,6.607h0.578L50.066,8.18c-0.067,0.299-0.114,0.482-0.14,0.551c0.091,0.417,0.223,0.625,0.395,0.625
		c0.203,0,0.309-0.14,0.316-0.421h0.122c-0.007,0.263-0.056,0.476-0.145,0.637c-0.09,0.162-0.207,0.243-0.353,0.243
		c-0.119,0-0.209-0.049-0.268-0.146c-0.059-0.098-0.123-0.297-0.19-0.598c-0.235,0.496-0.621,0.744-1.156,0.744
		c-0.365,0-0.655-0.142-0.87-0.427c-0.215-0.284-0.323-0.691-0.323-1.222c0-0.521,0.118-0.926,0.353-1.216
		c0.236-0.29,0.519-0.435,0.85-0.435c0.233,0,0.425,0.083,0.575,0.248s0.282,0.435,0.398,0.809L49.838,6.607z M49.54,7.939
		c-0.107-0.365-0.226-0.649-0.357-0.854s-0.289-0.308-0.472-0.308c-0.415,0-0.622,0.485-0.622,1.455
		c0,0.919,0.198,1.379,0.595,1.379c0.344,0,0.599-0.405,0.765-1.216L49.54,7.939z"/>
	<path d="M80.375,11.208h-0.561c0.081-0.383,0.122-0.729,0.122-1.04V6.467c0-0.385,0.035-0.671,0.104-0.86
		c0.069-0.188,0.204-0.354,0.404-0.498c0.201-0.144,0.451-0.216,0.753-0.216c0.358,0,0.659,0.095,0.902,0.284
		s0.365,0.458,0.365,0.807c0,0.408-0.193,0.742-0.581,1.002c0.578,0.272,0.867,0.699,0.867,1.281c0,0.317-0.077,0.601-0.23,0.852
		c-0.152,0.25-0.329,0.429-0.529,0.535c-0.201,0.106-0.44,0.16-0.719,0.16c-0.317,0-0.576-0.119-0.775-0.357v0.632
		C80.497,10.525,80.456,10.898,80.375,11.208z M80.497,9.152c0.177,0.292,0.424,0.438,0.741,0.438c0.306,0,0.53-0.112,0.673-0.335
		s0.214-0.495,0.214-0.814c0-0.245-0.047-0.495-0.141-0.75c-0.095-0.255-0.215-0.449-0.362-0.583
		c-0.136,0.034-0.258,0.051-0.367,0.051c-0.229,0-0.343-0.06-0.343-0.18c0-0.108,0.097-0.163,0.288-0.163
		c0.121,0,0.27,0.027,0.449,0.082c0.16-0.272,0.241-0.567,0.241-0.887c0-0.286-0.063-0.504-0.188-0.656
		c-0.126-0.151-0.289-0.228-0.491-0.228c-0.161,0-0.298,0.045-0.413,0.136c-0.114,0.091-0.193,0.199-0.236,0.325
		c-0.043,0.126-0.064,0.332-0.064,0.617V9.152z"/>
	<path d="M49.142,17.623c-0.32,0.247-0.52,0.39-0.602,0.428c-0.123,0.057-0.253,0.085-0.391,0.085c-0.215,0-0.393-0.073-0.532-0.221
		s-0.209-0.341-0.209-0.581c0-0.152,0.034-0.283,0.102-0.395c0.093-0.154,0.254-0.299,0.484-0.435
		c0.23-0.136,0.612-0.301,1.147-0.496v-0.122c0-0.311-0.049-0.523-0.148-0.639c-0.099-0.115-0.242-0.173-0.43-0.173
		c-0.143,0-0.256,0.039-0.34,0.116c-0.086,0.077-0.129,0.166-0.129,0.265l0.007,0.197c0,0.104-0.027,0.185-0.08,0.242
		s-0.123,0.085-0.209,0.085c-0.083,0-0.152-0.03-0.206-0.088c-0.053-0.059-0.08-0.14-0.08-0.241c0-0.195,0.1-0.374,0.299-0.537
		s0.479-0.245,0.839-0.245c0.276,0,0.503,0.046,0.68,0.139c0.134,0.07,0.232,0.18,0.296,0.33c0.041,0.098,0.061,0.297,0.061,0.598
		v1.057c0,0.297,0.006,0.479,0.018,0.545s0.029,0.111,0.057,0.134c0.025,0.022,0.056,0.034,0.09,0.034
		c0.035,0,0.067-0.008,0.095-0.023c0.048-0.03,0.14-0.112,0.275-0.248v0.19c-0.254,0.34-0.496,0.51-0.728,0.51
		c-0.111,0-0.199-0.039-0.265-0.115C49.178,17.94,49.144,17.809,49.142,17.623z M49.142,17.402v-1.186
		c-0.342,0.136-0.563,0.232-0.663,0.289c-0.179,0.1-0.307,0.204-0.384,0.313c-0.077,0.108-0.116,0.228-0.116,0.357
		c0,0.163,0.049,0.298,0.146,0.406c0.097,0.108,0.209,0.162,0.336,0.162C48.634,17.742,48.86,17.629,49.142,17.402z"/>
	<path d="M80.903,15.496c0.302-0.419,0.627-0.628,0.977-0.628c0.318,0,0.598,0.136,0.836,0.409c0.237,0.273,0.356,0.646,0.356,1.12
		c0,0.553-0.184,0.998-0.551,1.335c-0.315,0.29-0.666,0.435-1.054,0.435c-0.182,0-0.365-0.033-0.552-0.099
		c-0.187-0.065-0.378-0.164-0.573-0.295v-3.226c0-0.353-0.008-0.571-0.025-0.652c-0.017-0.082-0.043-0.137-0.08-0.167
		c-0.035-0.029-0.081-0.044-0.135-0.044c-0.064,0-0.143,0.018-0.238,0.054l-0.048-0.119l0.935-0.38h0.152V15.496z M80.903,15.713
		v1.862c0.116,0.113,0.236,0.199,0.359,0.256c0.123,0.058,0.25,0.087,0.379,0.087c0.206,0,0.398-0.113,0.576-0.34
		s0.267-0.556,0.267-0.989c0-0.398-0.089-0.705-0.267-0.919c-0.178-0.214-0.381-0.321-0.607-0.321c-0.119,0-0.24,0.031-0.359,0.092
		C81.16,15.487,81.043,15.577,80.903,15.713z"/>
</g>
<g>
	<path d="M17.434,33.727h0.7l-1.363,2.858c0.034,0.306,0.051,0.573,0.051,0.802c0,0.636-0.119,0.955-0.357,0.955
		c-0.172,0-0.258-0.134-0.258-0.401c0-0.349,0.127-0.786,0.381-1.312c-0.05-0.326-0.12-0.719-0.209-1.179
		c-0.09-0.46-0.182-0.79-0.275-0.989c-0.094-0.199-0.229-0.299-0.403-0.299c-0.285,0-0.438,0.213-0.458,0.639H15.12
		c0-0.748,0.222-1.122,0.666-1.122c0.256,0,0.446,0.151,0.571,0.454c0.125,0.303,0.253,0.96,0.384,1.973L17.434,33.727z"/>
	<path d="M17.981,44.01c-0.083,0.41-0.248,0.725-0.493,0.945c-0.245,0.222-0.516,0.332-0.812,0.332
		c-0.354,0-0.662-0.148-0.924-0.445c-0.263-0.297-0.395-0.697-0.395-1.203c0-0.489,0.146-0.887,0.437-1.193
		c0.291-0.306,0.641-0.458,1.048-0.458c0.306,0,0.557,0.081,0.754,0.243c0.197,0.162,0.295,0.331,0.295,0.505
		c0,0.085-0.028,0.156-0.083,0.208c-0.056,0.054-0.133,0.08-0.233,0.08c-0.134,0-0.234-0.043-0.302-0.129
		c-0.039-0.047-0.064-0.138-0.077-0.272c-0.013-0.133-0.058-0.235-0.138-0.306c-0.079-0.068-0.189-0.102-0.33-0.102
		c-0.227,0-0.409,0.084-0.547,0.251c-0.183,0.222-0.275,0.516-0.275,0.88c0,0.372,0.091,0.699,0.273,0.983
		c0.182,0.285,0.429,0.427,0.739,0.427c0.222,0,0.421-0.075,0.598-0.228c0.125-0.104,0.246-0.293,0.363-0.568L17.981,44.01z"/>
</g>
<g>
	<path d="M48.095,39.684l1.122-0.547h0.112v3.891c0,0.259,0.011,0.42,0.033,0.482c0.021,0.064,0.066,0.113,0.134,0.146
		c0.067,0.034,0.206,0.053,0.415,0.058v0.126h-1.734v-0.126c0.218-0.005,0.358-0.022,0.421-0.056
		c0.063-0.033,0.108-0.077,0.133-0.133c0.025-0.055,0.037-0.221,0.037-0.498V40.54c0-0.335-0.011-0.551-0.034-0.646
		c-0.016-0.072-0.045-0.125-0.087-0.16c-0.042-0.034-0.092-0.051-0.151-0.051c-0.084,0-0.201,0.035-0.35,0.105L48.095,39.684z"/>
	<path d="M82.745,42.953l-0.323,0.887h-2.719v-0.126c0.8-0.729,1.362-1.325,1.688-1.787c0.327-0.462,0.49-0.885,0.49-1.268
		c0-0.292-0.09-0.532-0.269-0.72s-0.394-0.282-0.643-0.282c-0.227,0-0.43,0.066-0.61,0.199c-0.18,0.133-0.313,0.327-0.398,0.583
		h-0.126c0.057-0.419,0.202-0.741,0.437-0.965c0.234-0.224,0.527-0.336,0.879-0.336c0.373,0,0.686,0.12,0.936,0.36
		s0.376,0.523,0.376,0.85c0,0.233-0.055,0.467-0.163,0.7c-0.168,0.367-0.439,0.755-0.816,1.166
		c-0.563,0.616-0.916,0.987-1.057,1.114h1.203c0.245,0,0.416-0.008,0.516-0.027c0.098-0.018,0.188-0.055,0.266-0.109
		c0.08-0.056,0.148-0.135,0.208-0.236H82.745z"/>
</g>
<g>
	<path d="M16.799,61.062c-0.113-0.127-0.271-0.278-0.472-0.456c-0.222-0.194-0.372-0.348-0.449-0.46s-0.116-0.235-0.116-0.368
		c0-0.199,0.093-0.356,0.279-0.471c0.186-0.115,0.428-0.172,0.728-0.172c0.299,0,0.56,0.051,0.783,0.152
		c0.223,0.103,0.334,0.243,0.334,0.422c0,0.086-0.027,0.158-0.082,0.215c-0.054,0.057-0.118,0.084-0.19,0.084
		c-0.104,0-0.227-0.078-0.367-0.234c-0.143-0.158-0.263-0.27-0.362-0.334c-0.099-0.065-0.214-0.098-0.345-0.098
		c-0.167,0-0.305,0.037-0.413,0.112c-0.108,0.075-0.162,0.17-0.162,0.286c0,0.107,0.044,0.21,0.132,0.305
		c0.088,0.096,0.316,0.27,0.683,0.521c0.392,0.27,0.669,0.48,0.831,0.632c0.162,0.152,0.294,0.337,0.396,0.555
		c0.102,0.217,0.153,0.447,0.153,0.689c0,0.426-0.15,0.801-0.45,1.127c-0.3,0.324-0.651,0.487-1.052,0.487
		c-0.365,0-0.673-0.13-0.924-0.392c-0.251-0.26-0.377-0.607-0.377-1.043c0-0.419,0.139-0.769,0.417-1.05
		C16.052,61.291,16.394,61.121,16.799,61.062z M16.948,61.218c-0.65,0.106-0.975,0.553-0.975,1.339c0,0.406,0.081,0.721,0.243,0.945
		c0.162,0.225,0.351,0.336,0.565,0.336c0.225,0,0.409-0.107,0.554-0.324s0.217-0.51,0.217-0.879
		C17.553,62.101,17.352,61.628,16.948,61.218z"/>
	<path d="M17.537,71.963c-0.152,0.158-0.3,0.271-0.445,0.342c-0.145,0.068-0.301,0.104-0.469,0.104c-0.34,0-0.637-0.143-0.89-0.428
		c-0.254-0.283-0.381-0.648-0.381-1.096c0-0.445,0.141-0.854,0.421-1.225c0.281-0.371,0.643-0.556,1.084-0.556
		c0.274,0,0.5,0.087,0.68,0.262v-0.575c0-0.355-0.009-0.574-0.026-0.655c-0.017-0.081-0.043-0.138-0.08-0.167
		s-0.082-0.043-0.136-0.043c-0.059,0-0.137,0.018-0.234,0.054l-0.044-0.119l0.928-0.38h0.153v3.599c0,0.364,0.008,0.587,0.025,0.667
		c0.017,0.081,0.044,0.137,0.082,0.169c0.038,0.032,0.081,0.048,0.131,0.048c0.061,0,0.143-0.02,0.245-0.059l0.038,0.119
		l-0.924,0.385h-0.156V71.963z M17.537,71.725v-1.604c-0.014-0.154-0.055-0.295-0.123-0.422s-0.158-0.223-0.27-0.287
		c-0.112-0.064-0.222-0.098-0.328-0.098c-0.199,0-0.377,0.09-0.534,0.27c-0.206,0.235-0.309,0.58-0.309,1.033
		c0,0.457,0.1,0.808,0.299,1.051c0.2,0.244,0.421,0.365,0.667,0.365C17.145,72.033,17.344,71.931,17.537,71.725z"/>
</g>
<g>
	<path d="M47.634,67.229c0.131-0.311,0.297-0.549,0.498-0.719c0.201-0.168,0.451-0.253,0.75-0.253c0.369,0,0.653,0.12,0.85,0.36
		c0.148,0.18,0.225,0.371,0.225,0.574c0,0.336-0.211,0.682-0.633,1.04c0.283,0.111,0.497,0.27,0.643,0.476
		c0.145,0.207,0.217,0.449,0.217,0.728c0,0.399-0.127,0.744-0.381,1.036c-0.33,0.381-0.81,0.571-1.437,0.571
		c-0.311,0-0.521-0.038-0.634-0.116c-0.112-0.076-0.168-0.159-0.168-0.248c0-0.064,0.026-0.123,0.08-0.173s0.117-0.075,0.192-0.075
		c0.057,0,0.115,0.01,0.173,0.027c0.039,0.012,0.126,0.053,0.262,0.125c0.136,0.07,0.23,0.113,0.282,0.127
		c0.084,0.025,0.173,0.037,0.269,0.037c0.231,0,0.432-0.09,0.603-0.268c0.172-0.18,0.258-0.392,0.258-0.637
		c0-0.178-0.04-0.354-0.119-0.523c-0.06-0.126-0.124-0.223-0.194-0.288c-0.097-0.091-0.231-0.173-0.401-0.247
		c-0.17-0.073-0.343-0.109-0.52-0.109h-0.108v-0.103c0.179-0.022,0.358-0.087,0.539-0.194c0.18-0.105,0.311-0.234,0.393-0.383
		c0.082-0.15,0.123-0.314,0.123-0.493c0-0.233-0.073-0.422-0.22-0.565c-0.146-0.145-0.328-0.217-0.545-0.217
		c-0.351,0-0.645,0.188-0.88,0.564L47.634,67.229z"/>
	<path d="M82.792,69.262v0.482h-0.618v1.217h-0.561v-1.217h-1.951v-0.436l2.138-3.052h0.374v3.005H82.792z M81.614,69.262v-2.287
		l-1.618,2.287H81.614z"/>
</g>
<rect width="0.96" height="82.32"/>
<rect x="32.279" y="0.96" width="0.961" height="81.36"/>
<rect x="64.561" y="0.96" width="0.959" height="81.36"/>
<rect x="96.84" y="0.96" width="0.959" height="81.36"/>
<rect x="0.96" width="96.839" height="0.96"/>
<rect x="0.96" y="27.12" width="96.839" height="0.96"/>
<rect x="0.96" y="54.24" width="96.839" height="0.959"/>
<rect x="0.96" y="81.359" width="96.839" height="0.961"/>
</svg>
