<?xml version="1.0" encoding="utf-8"?>
<!-- Generator: Adobe Illustrator 15.0.0, SVG Export Plug-In . SVG Version: 6.00 Build 0)  -->
<!DOCTYPE svg PUBLIC "-//W3C//DTD SVG 1.0//EN" "http://www.w3.org/TR/2001/REC-SVG-20010904/DTD/svg10.dtd">
<svg version="1.0" id="Layer_1" xmlns="http://www.w3.org/2000/svg" xmlns:xlink="http://www.w3.org/1999/xlink" x="0px" y="0px"
	 width="108.481px" height="70.08px" viewBox="0 0 108.481 70.08" enable-background="new 0 0 108.481 70.08" xml:space="preserve">
<g>
	<g>
		<path d="M40.662,18.978c-0.083,0.41-0.248,0.726-0.493,0.946c-0.245,0.221-0.516,0.332-0.812,0.332
			c-0.354,0-0.662-0.148-0.924-0.445c-0.263-0.297-0.395-0.698-0.395-1.203c0-0.489,0.146-0.887,0.437-1.193
			c0.291-0.306,0.641-0.458,1.048-0.458c0.306,0,0.557,0.081,0.754,0.243c0.197,0.162,0.295,0.331,0.295,0.505
			c0,0.086-0.028,0.156-0.083,0.209c-0.056,0.053-0.133,0.08-0.233,0.08c-0.134,0-0.234-0.043-0.302-0.129
			c-0.039-0.047-0.064-0.138-0.077-0.272c-0.013-0.133-0.058-0.235-0.138-0.306c-0.079-0.068-0.189-0.102-0.33-0.102
			c-0.227,0-0.409,0.084-0.547,0.251c-0.183,0.222-0.275,0.516-0.275,0.88c0,0.372,0.091,0.699,0.273,0.984
			c0.182,0.284,0.429,0.426,0.739,0.426c0.222,0,0.421-0.076,0.598-0.228c0.125-0.104,0.246-0.293,0.363-0.568L40.662,18.978z"/>
		<path d="M55.333,19.81c-0.151,0.159-0.3,0.272-0.445,0.342c-0.145,0.069-0.301,0.104-0.469,0.104c-0.34,0-0.637-0.142-0.89-0.427
			c-0.254-0.284-0.381-0.649-0.381-1.096s0.141-0.855,0.421-1.225c0.281-0.371,0.643-0.556,1.084-0.556
			c0.274,0,0.5,0.087,0.679,0.262v-0.575c0-0.355-0.008-0.574-0.025-0.656c-0.017-0.082-0.043-0.137-0.08-0.167
			c-0.035-0.029-0.081-0.044-0.136-0.044c-0.059,0-0.137,0.018-0.234,0.054l-0.044-0.119l0.928-0.38h0.152v3.599
			c0,0.365,0.009,0.587,0.025,0.667c0.018,0.081,0.045,0.137,0.082,0.168s0.081,0.047,0.131,0.047c0.061,0,0.143-0.019,0.244-0.058
			l0.038,0.119l-0.925,0.384h-0.156V19.81z M55.333,19.572v-1.604c-0.014-0.154-0.055-0.294-0.122-0.421s-0.158-0.223-0.271-0.287
			c-0.111-0.065-0.221-0.097-0.328-0.097c-0.199,0-0.377,0.09-0.534,0.269c-0.206,0.236-0.309,0.58-0.309,1.033
			c0,0.458,0.1,0.808,0.299,1.052c0.2,0.244,0.421,0.365,0.667,0.365C54.941,19.881,55.141,19.778,55.333,19.572z"/>
		<path d="M71.376,18.978c-0.084,0.41-0.248,0.726-0.493,0.946c-0.245,0.221-0.516,0.332-0.812,0.332
			c-0.354,0-0.662-0.148-0.925-0.445s-0.395-0.698-0.395-1.203c0-0.489,0.146-0.887,0.437-1.193
			c0.291-0.306,0.641-0.458,1.049-0.458c0.306,0,0.557,0.081,0.754,0.243c0.197,0.162,0.296,0.331,0.296,0.505
			c0,0.086-0.028,0.156-0.083,0.209c-0.056,0.053-0.133,0.08-0.232,0.08c-0.135,0-0.234-0.043-0.303-0.129
			c-0.039-0.047-0.064-0.138-0.076-0.272c-0.014-0.133-0.059-0.235-0.139-0.306c-0.078-0.068-0.188-0.102-0.329-0.102
			c-0.227,0-0.409,0.084-0.548,0.251c-0.183,0.222-0.274,0.516-0.274,0.88c0,0.372,0.091,0.699,0.273,0.984
			c0.183,0.284,0.429,0.426,0.739,0.426c0.222,0,0.422-0.076,0.598-0.228c0.125-0.104,0.246-0.293,0.363-0.568L71.376,18.978z"/>
		<path d="M86.047,19.81c-0.151,0.159-0.3,0.272-0.445,0.342c-0.146,0.069-0.302,0.104-0.47,0.104c-0.34,0-0.637-0.142-0.89-0.427
			c-0.254-0.284-0.381-0.649-0.381-1.096s0.141-0.855,0.421-1.225c0.281-0.371,0.643-0.556,1.085-0.556
			c0.274,0,0.501,0.087,0.68,0.262v-0.575c0-0.355-0.009-0.574-0.026-0.656c-0.016-0.082-0.043-0.137-0.079-0.167
			s-0.081-0.044-0.136-0.044c-0.059,0-0.137,0.018-0.234,0.054l-0.045-0.119l0.928-0.38h0.153v3.599
			c0,0.365,0.009,0.587,0.025,0.667c0.017,0.081,0.044,0.137,0.081,0.168c0.038,0.032,0.082,0.047,0.131,0.047
			c0.062,0,0.143-0.019,0.245-0.058l0.038,0.119l-0.925,0.384h-0.156V19.81z M86.047,19.572v-1.604
			c-0.014-0.154-0.055-0.294-0.122-0.421c-0.068-0.127-0.158-0.223-0.271-0.287c-0.112-0.065-0.222-0.097-0.328-0.097
			c-0.199,0-0.378,0.09-0.534,0.269c-0.205,0.236-0.309,0.58-0.309,1.033c0,0.458,0.1,0.808,0.299,1.052s0.422,0.365,0.666,0.365
			C85.655,19.881,85.854,19.778,86.047,19.572z"/>
		<path d="M99.969,18.22c-0.002,0.462,0.11,0.825,0.337,1.087s0.492,0.394,0.799,0.394c0.203,0,0.381-0.056,0.531-0.168
			s0.277-0.304,0.379-0.576l0.105,0.068c-0.047,0.311-0.186,0.593-0.414,0.848c-0.229,0.255-0.516,0.382-0.86,0.382
			c-0.374,0-0.694-0.146-0.96-0.437c-0.267-0.292-0.399-0.683-0.399-1.174c0-0.532,0.136-0.948,0.409-1.246s0.615-0.447,1.028-0.447
			c0.349,0,0.636,0.115,0.86,0.345c0.224,0.23,0.336,0.538,0.336,0.923H99.969z M99.969,18.022h1.44
			c-0.011-0.199-0.035-0.34-0.07-0.421c-0.057-0.127-0.142-0.227-0.254-0.299c-0.111-0.073-0.229-0.109-0.352-0.109
			c-0.188,0-0.355,0.073-0.504,0.219S99.993,17.762,99.969,18.022z"/>
	</g>
	<g>
		<path d="M24.339,39.996v3.133c0,0.532-0.113,0.928-0.34,1.186c-0.227,0.259-0.521,0.388-0.884,0.388
			c-0.206,0-0.359-0.037-0.458-0.112c-0.1-0.074-0.15-0.151-0.15-0.23c0-0.08,0.028-0.147,0.083-0.204s0.121-0.085,0.195-0.085
			c0.059,0,0.119,0.015,0.18,0.044c0.039,0.017,0.113,0.073,0.223,0.172s0.202,0.147,0.277,0.147c0.054,0,0.107-0.021,0.16-0.063
			s0.091-0.112,0.116-0.211s0.037-0.313,0.037-0.641v-2.216c0-0.342-0.01-0.562-0.03-0.659c-0.016-0.074-0.041-0.127-0.075-0.154
			c-0.034-0.029-0.081-0.043-0.14-0.043c-0.063,0-0.141,0.018-0.231,0.051l-0.048-0.122l0.938-0.38H24.339z M24.046,38.364
			c0.098,0,0.18,0.034,0.248,0.103c0.068,0.067,0.102,0.15,0.102,0.248c0,0.095-0.034,0.176-0.102,0.244s-0.15,0.102-0.248,0.102
			c-0.095,0-0.177-0.033-0.245-0.102S23.7,38.809,23.7,38.714c0-0.098,0.034-0.181,0.102-0.248
			C23.87,38.398,23.951,38.364,24.046,38.364z"/>
		<path d="M56.109,42.312L55.786,43.2h-2.718v-0.126c0.8-0.729,1.363-1.325,1.689-1.787c0.326-0.463,0.49-0.885,0.49-1.268
			c0-0.293-0.09-0.533-0.27-0.721c-0.179-0.188-0.393-0.282-0.642-0.282c-0.227,0-0.43,0.066-0.61,0.198
			c-0.18,0.133-0.313,0.328-0.399,0.584h-0.125c0.057-0.42,0.202-0.741,0.437-0.966c0.234-0.224,0.527-0.337,0.878-0.337
			c0.374,0,0.687,0.121,0.937,0.361s0.375,0.523,0.375,0.85c0,0.232-0.055,0.467-0.162,0.699c-0.168,0.367-0.44,0.756-0.816,1.166
			c-0.564,0.616-0.917,0.988-1.057,1.115h1.203c0.244,0,0.416-0.01,0.515-0.027c0.099-0.019,0.188-0.055,0.267-0.111
			c0.08-0.055,0.148-0.134,0.207-0.236H56.109z"/>
		<path d="M71.464,42.312L71.141,43.2h-2.719v-0.126c0.8-0.729,1.362-1.325,1.688-1.787c0.327-0.463,0.49-0.885,0.49-1.268
			c0-0.293-0.09-0.533-0.269-0.721s-0.394-0.282-0.643-0.282c-0.227,0-0.43,0.066-0.61,0.198c-0.18,0.133-0.313,0.328-0.398,0.584
			h-0.126c0.057-0.42,0.202-0.741,0.437-0.966c0.234-0.224,0.527-0.337,0.879-0.337c0.373,0,0.686,0.121,0.936,0.361
			s0.376,0.523,0.376,0.85c0,0.232-0.055,0.467-0.163,0.699c-0.168,0.367-0.439,0.756-0.816,1.166
			c-0.563,0.616-0.916,0.988-1.057,1.115h1.203c0.245,0,0.416-0.01,0.516-0.027c0.098-0.019,0.188-0.055,0.266-0.111
			c0.08-0.055,0.148-0.134,0.208-0.236H71.464z"/>
		<path d="M86.817,42.312L86.494,43.2h-2.719v-0.126c0.8-0.729,1.362-1.325,1.688-1.787c0.327-0.463,0.49-0.885,0.49-1.268
			c0-0.293-0.09-0.533-0.269-0.721s-0.394-0.282-0.643-0.282c-0.227,0-0.43,0.066-0.61,0.198c-0.18,0.133-0.313,0.328-0.398,0.584
			h-0.126c0.057-0.42,0.202-0.741,0.437-0.966c0.234-0.224,0.527-0.337,0.879-0.337c0.373,0,0.686,0.121,0.936,0.361
			s0.376,0.523,0.376,0.85c0,0.232-0.055,0.467-0.163,0.699c-0.168,0.367-0.439,0.756-0.816,1.166
			c-0.563,0.616-0.916,0.988-1.057,1.115h1.203c0.245,0,0.416-0.01,0.516-0.027c0.098-0.019,0.188-0.055,0.266-0.111
			c0.08-0.055,0.148-0.134,0.208-0.236H86.817z"/>
		<path d="M99.333,39.468c0.132-0.311,0.298-0.55,0.498-0.719c0.201-0.169,0.451-0.254,0.75-0.254c0.369,0,0.652,0.121,0.85,0.361
			c0.148,0.179,0.225,0.37,0.225,0.574c0,0.335-0.211,0.682-0.633,1.039c0.283,0.111,0.497,0.27,0.643,0.477
			c0.145,0.206,0.217,0.448,0.217,0.727c0,0.399-0.127,0.744-0.381,1.037c-0.33,0.381-0.81,0.57-1.438,0.57
			c-0.311,0-0.521-0.038-0.633-0.115c-0.112-0.076-0.168-0.16-0.168-0.248c0-0.065,0.025-0.123,0.079-0.174
			c0.054-0.049,0.117-0.074,0.192-0.074c0.057,0,0.114,0.01,0.173,0.027c0.038,0.012,0.126,0.053,0.262,0.124
			s0.229,0.114,0.282,0.128c0.084,0.024,0.174,0.037,0.269,0.037c0.231,0,0.433-0.09,0.603-0.269
			c0.172-0.179,0.258-0.392,0.258-0.636c0-0.179-0.04-0.354-0.119-0.523c-0.06-0.127-0.124-0.223-0.194-0.289
			c-0.097-0.09-0.231-0.172-0.401-0.246s-0.343-0.11-0.52-0.11h-0.108V40.81c0.179-0.021,0.358-0.086,0.538-0.193
			c0.181-0.106,0.312-0.234,0.393-0.384c0.082-0.149,0.123-0.313,0.123-0.493c0-0.232-0.073-0.422-0.22-0.565
			c-0.146-0.144-0.327-0.216-0.546-0.216c-0.351,0-0.645,0.188-0.879,0.564L99.333,39.468z"/>
	</g>
	<g>
		<path d="M23.339,49.888v3.096l0.792-0.721c0.168-0.154,0.265-0.252,0.292-0.293c0.018-0.026,0.027-0.054,0.027-0.081
			c0-0.045-0.019-0.084-0.056-0.117c-0.038-0.032-0.099-0.052-0.186-0.056v-0.109h1.353v0.109c-0.186,0.004-0.34,0.033-0.464,0.084
			c-0.124,0.053-0.259,0.146-0.406,0.279l-0.799,0.737l0.799,1.01c0.222,0.278,0.372,0.455,0.448,0.53
			c0.109,0.105,0.204,0.176,0.286,0.207c0.057,0.022,0.155,0.033,0.296,0.033v0.123h-1.513v-0.123
			c0.086-0.002,0.145-0.015,0.175-0.039c0.03-0.023,0.046-0.057,0.046-0.1c0-0.053-0.045-0.136-0.136-0.252l-0.955-1.22v1.033
			c0,0.202,0.014,0.335,0.042,0.397c0.028,0.064,0.068,0.109,0.121,0.137c0.052,0.027,0.165,0.041,0.34,0.043v0.123h-1.584v-0.123
			c0.159,0,0.278-0.019,0.357-0.057c0.048-0.025,0.084-0.064,0.109-0.116c0.034-0.075,0.051-0.204,0.051-0.388v-2.834
			c0-0.359-0.008-0.58-0.023-0.66c-0.016-0.081-0.042-0.137-0.079-0.167c-0.036-0.03-0.083-0.046-0.143-0.046
			c-0.047,0-0.119,0.02-0.214,0.058l-0.058-0.119l0.924-0.38H23.339z"/>
	</g>
	<g>
		<path d="M8.972,63.036v2.501c0,0.195,0.014,0.324,0.042,0.389s0.07,0.113,0.125,0.145c0.056,0.032,0.157,0.048,0.304,0.048v0.122
			H7.932v-0.122c0.152,0,0.254-0.015,0.306-0.044c0.052-0.029,0.094-0.078,0.124-0.146c0.031-0.068,0.046-0.197,0.046-0.391v-1.199
			c0-0.338-0.01-0.557-0.03-0.656c-0.016-0.072-0.041-0.123-0.075-0.151c-0.034-0.028-0.081-0.042-0.14-0.042
			c-0.063,0-0.14,0.017-0.231,0.051l-0.047-0.123l0.938-0.38H8.972z M8.69,61.408c0.095,0,0.176,0.033,0.243,0.1
			c0.067,0.067,0.1,0.148,0.1,0.244c0,0.095-0.033,0.176-0.1,0.244s-0.148,0.102-0.243,0.102s-0.177-0.033-0.245-0.102
			s-0.102-0.149-0.102-0.244c0-0.096,0.034-0.177,0.101-0.244C8.51,61.441,8.593,61.408,8.69,61.408z"/>
		<path d="M24.328,61.408v4.129c0,0.195,0.014,0.324,0.042,0.388s0.072,0.111,0.131,0.145c0.059,0.032,0.168,0.049,0.33,0.049v0.122
			h-1.526v-0.122c0.143,0,0.24-0.015,0.292-0.044c0.052-0.029,0.093-0.078,0.123-0.146s0.044-0.197,0.044-0.391v-2.827
			c0-0.352-0.008-0.567-0.023-0.647c-0.016-0.08-0.042-0.136-0.077-0.165s-0.08-0.044-0.134-0.044c-0.059,0-0.134,0.018-0.224,0.055
			l-0.058-0.119l0.928-0.381H24.328z"/>
		<path d="M86.759,61.537v0.126c-0.299,0.029-0.543,0.089-0.732,0.179c-0.188,0.09-0.375,0.226-0.561,0.409
			c-0.184,0.184-0.337,0.388-0.459,0.613c-0.121,0.226-0.222,0.493-0.304,0.804c0.327-0.225,0.653-0.336,0.982-0.336
			c0.315,0,0.588,0.127,0.819,0.381c0.23,0.253,0.346,0.58,0.346,0.979c0,0.385-0.116,0.736-0.35,1.053
			c-0.281,0.386-0.652,0.578-1.115,0.578c-0.314,0-0.582-0.104-0.801-0.313c-0.432-0.406-0.646-0.932-0.646-1.577
			c0-0.412,0.083-0.804,0.248-1.176c0.166-0.372,0.402-0.701,0.709-0.989c0.307-0.287,0.601-0.48,0.882-0.58
			c0.28-0.101,0.542-0.15,0.785-0.15H86.759z M84.646,63.916c-0.041,0.307-0.061,0.553-0.061,0.741c0,0.218,0.039,0.454,0.12,0.708
			c0.081,0.256,0.2,0.457,0.358,0.607c0.115,0.105,0.256,0.159,0.422,0.159c0.197,0,0.373-0.093,0.528-0.278
			s0.232-0.451,0.232-0.795c0-0.389-0.077-0.723-0.231-1.006s-0.372-0.426-0.655-0.426c-0.087,0-0.179,0.019-0.276,0.055
			C84.983,63.717,84.838,63.795,84.646,63.916z"/>
		<path d="M99.693,61.632h2.471v0.129l-1.536,4.574h-0.381l1.377-4.149h-1.268c-0.256,0-0.439,0.03-0.548,0.092
			c-0.19,0.104-0.343,0.265-0.458,0.482l-0.1-0.038L99.693,61.632z"/>
	</g>
	<g>
		<path d="M8.092,43.648v2.277c0.251-0.276,0.451-0.453,0.598-0.531c0.147-0.078,0.294-0.117,0.441-0.117
			c0.177,0,0.329,0.049,0.456,0.146c0.127,0.098,0.221,0.251,0.282,0.459c0.043,0.146,0.064,0.409,0.064,0.795v1.101
			c0,0.197,0.016,0.332,0.047,0.405c0.023,0.054,0.062,0.097,0.116,0.129s0.154,0.048,0.299,0.048v0.122H8.867v-0.122h0.071
			c0.145,0,0.246-0.022,0.302-0.066c0.057-0.045,0.096-0.109,0.119-0.195c0.007-0.037,0.01-0.143,0.01-0.32v-1.101
			c0-0.34-0.018-0.563-0.053-0.669c-0.035-0.107-0.091-0.187-0.168-0.24c-0.077-0.053-0.17-0.08-0.278-0.08
			c-0.111,0-0.227,0.029-0.347,0.089c-0.12,0.06-0.264,0.178-0.432,0.356v1.645c0,0.213,0.012,0.346,0.036,0.398
			c0.023,0.052,0.068,0.096,0.132,0.131s0.176,0.053,0.335,0.053v0.122H7.052v-0.122c0.138,0,0.247-0.021,0.326-0.064
			c0.045-0.023,0.082-0.066,0.109-0.129c0.027-0.064,0.041-0.193,0.041-0.389V44.96c0-0.355-0.008-0.574-0.025-0.656
			s-0.043-0.137-0.078-0.166s-0.082-0.045-0.141-0.045c-0.047,0-0.125,0.019-0.231,0.055l-0.048-0.119l0.932-0.381H8.092z"/>
	</g>
	<g>
		<path d="M38.376,50.085l1.122-0.548h0.112v3.892c0,0.258,0.011,0.419,0.032,0.482s0.066,0.112,0.134,0.146
			c0.068,0.033,0.206,0.053,0.415,0.057v0.127h-1.733v-0.127c0.218-0.004,0.358-0.022,0.421-0.055
			c0.063-0.033,0.108-0.078,0.133-0.133c0.025-0.056,0.037-0.222,0.037-0.498v-2.488c0-0.335-0.011-0.551-0.034-0.646
			c-0.016-0.072-0.045-0.126-0.087-0.159c-0.042-0.034-0.092-0.051-0.151-0.051c-0.084,0-0.201,0.035-0.35,0.105L38.376,50.085z"/>
	</g>
	<g>
		<path d="M63.839,58.302v0.482H63.22v1.217h-0.561v-1.217h-1.95v-0.436l2.138-3.051h0.373v3.004H63.839z M62.659,58.302v-2.287
			l-1.617,2.287H62.659z"/>
	</g>
	<g>
		<path d="M94.341,49.632l-0.264,0.578H92.69l-0.303,0.619c0.6,0.088,1.076,0.311,1.428,0.669c0.301,0.308,0.451,0.671,0.451,1.087
			c0,0.243-0.049,0.467-0.147,0.674c-0.099,0.206-0.223,0.381-0.372,0.526c-0.15,0.146-0.316,0.262-0.5,0.351
			c-0.26,0.124-0.527,0.187-0.802,0.187c-0.276,0-0.478-0.047-0.604-0.142c-0.126-0.094-0.188-0.197-0.188-0.311
			c0-0.063,0.025-0.119,0.078-0.168s0.117-0.073,0.197-0.073c0.059,0,0.11,0.009,0.154,0.027c0.045,0.019,0.119,0.064,0.227,0.14
			c0.17,0.117,0.342,0.176,0.516,0.176c0.266,0,0.498-0.1,0.699-0.301c0.2-0.199,0.301-0.443,0.301-0.732
			c0-0.277-0.09-0.538-0.269-0.779s-0.427-0.428-0.741-0.559c-0.246-0.103-0.583-0.161-1.01-0.178l0.885-1.791H94.341z"/>
	</g>
	<g>
		<path d="M47.462,7.712c-0.32,0.247-0.52,0.39-0.602,0.428c-0.123,0.057-0.253,0.085-0.391,0.085c-0.215,0-0.393-0.073-0.532-0.221
			s-0.209-0.341-0.209-0.581c0-0.152,0.034-0.283,0.102-0.395c0.093-0.154,0.254-0.299,0.484-0.435
			c0.23-0.136,0.612-0.301,1.147-0.496V5.976c0-0.311-0.049-0.523-0.148-0.639c-0.099-0.115-0.242-0.173-0.43-0.173
			c-0.143,0-0.256,0.039-0.34,0.116c-0.086,0.077-0.129,0.166-0.129,0.265l0.007,0.197c0,0.104-0.027,0.185-0.08,0.242
			s-0.123,0.085-0.209,0.085c-0.083,0-0.152-0.03-0.206-0.088c-0.053-0.059-0.08-0.14-0.08-0.241c0-0.195,0.1-0.374,0.299-0.537
			s0.479-0.245,0.839-0.245c0.276,0,0.503,0.046,0.68,0.139c0.134,0.07,0.232,0.18,0.296,0.33c0.041,0.098,0.061,0.297,0.061,0.598
			v1.057c0,0.297,0.006,0.479,0.017,0.545s0.03,0.111,0.056,0.134c0.026,0.022,0.056,0.034,0.09,0.034
			c0.036,0,0.068-0.008,0.095-0.023c0.047-0.03,0.139-0.112,0.275-0.248v0.19c-0.254,0.34-0.496,0.51-0.728,0.51
			c-0.111,0-0.199-0.039-0.265-0.115C47.498,8.03,47.464,7.898,47.462,7.712z M47.462,7.492V6.306
			c-0.342,0.136-0.563,0.232-0.663,0.289c-0.179,0.1-0.307,0.204-0.384,0.313c-0.077,0.108-0.116,0.228-0.116,0.357
			c0,0.163,0.049,0.298,0.146,0.406c0.097,0.108,0.209,0.162,0.336,0.162C46.954,7.832,47.181,7.718,47.462,7.492z"/>
		<path d="M84.712,5.585c0.301-0.419,0.626-0.628,0.975-0.628c0.32,0,0.599,0.136,0.836,0.409c0.238,0.273,0.357,0.646,0.357,1.12
			c0,0.553-0.184,0.998-0.551,1.335c-0.314,0.29-0.666,0.435-1.053,0.435c-0.182,0-0.365-0.033-0.553-0.099
			c-0.188-0.065-0.378-0.164-0.572-0.295V4.637c0-0.353-0.009-0.571-0.025-0.652c-0.018-0.082-0.045-0.137-0.08-0.167
			c-0.037-0.029-0.082-0.044-0.137-0.044c-0.063,0-0.143,0.018-0.237,0.054l-0.048-0.119l0.935-0.38h0.153V5.585z M84.712,5.803
			v1.862c0.115,0.113,0.234,0.199,0.358,0.256c0.124,0.058,0.249,0.087,0.379,0.087c0.206,0,0.397-0.113,0.575-0.34
			c0.179-0.227,0.268-0.556,0.268-0.989c0-0.398-0.089-0.705-0.268-0.919c-0.178-0.214-0.379-0.321-0.605-0.321
			c-0.121,0-0.24,0.031-0.361,0.092C84.968,5.576,84.853,5.667,84.712,5.803z"/>
	</g>
	<g>
		<path d="M47.395,28.333v2.046c0,0.29,0.032,0.474,0.095,0.55c0.084,0.1,0.196,0.149,0.336,0.149h0.282v0.123H46.25v-0.123h0.139
			c0.09,0,0.173-0.022,0.248-0.068s0.126-0.106,0.155-0.184c0.028-0.077,0.042-0.227,0.042-0.448v-2.046h-0.605v-0.245h0.605v-0.204
			c0-0.311,0.05-0.573,0.149-0.789c0.1-0.215,0.252-0.389,0.457-0.521s0.436-0.199,0.691-0.199c0.238,0,0.457,0.077,0.656,0.231
			c0.131,0.102,0.197,0.216,0.197,0.343c0,0.068-0.029,0.132-0.088,0.192c-0.059,0.06-0.122,0.09-0.19,0.09
			c-0.052,0-0.107-0.019-0.165-0.056c-0.058-0.038-0.128-0.118-0.212-0.241s-0.161-0.207-0.231-0.25s-0.148-0.064-0.234-0.064
			c-0.104,0-0.193,0.028-0.265,0.083c-0.073,0.056-0.125,0.142-0.156,0.258c-0.032,0.117-0.048,0.417-0.048,0.902v0.225h0.802v0.245
			H47.395z"/>
		<path d="M84.804,30.065c-0.19-0.093-0.336-0.223-0.438-0.389s-0.153-0.351-0.153-0.552c0-0.308,0.116-0.573,0.349-0.795
			s0.53-0.333,0.892-0.333c0.297,0,0.555,0.072,0.771,0.217h0.66c0.098,0,0.154,0.003,0.17,0.009
			c0.016,0.005,0.027,0.015,0.033,0.029c0.014,0.02,0.021,0.057,0.021,0.108c0,0.059-0.006,0.1-0.018,0.123
			c-0.007,0.011-0.02,0.021-0.035,0.027c-0.018,0.007-0.074,0.01-0.172,0.01h-0.404c0.127,0.163,0.189,0.372,0.189,0.625
			c0,0.29-0.111,0.538-0.332,0.744c-0.223,0.207-0.521,0.31-0.895,0.31c-0.154,0-0.312-0.023-0.473-0.068
			c-0.1,0.086-0.167,0.161-0.201,0.226c-0.035,0.065-0.053,0.12-0.053,0.165c0,0.039,0.018,0.076,0.056,0.112
			c0.037,0.036,0.11,0.062,0.219,0.078c0.063,0.009,0.222,0.017,0.476,0.023c0.467,0.012,0.77,0.027,0.908,0.048
			c0.211,0.029,0.379,0.107,0.504,0.234c0.126,0.127,0.189,0.283,0.189,0.469c0,0.256-0.121,0.496-0.361,0.72
			c-0.354,0.331-0.814,0.496-1.383,0.496c-0.438,0-0.807-0.099-1.107-0.295c-0.17-0.113-0.255-0.231-0.255-0.354
			c0-0.054,0.013-0.109,0.037-0.163c0.038-0.084,0.118-0.201,0.237-0.35c0.017-0.021,0.132-0.143,0.348-0.367
			c-0.118-0.07-0.201-0.133-0.25-0.188s-0.073-0.118-0.073-0.188c0-0.08,0.032-0.172,0.097-0.279S84.57,30.26,84.804,30.065z
			 M84.77,31.201c-0.106,0.116-0.187,0.223-0.241,0.323s-0.082,0.191-0.082,0.275c0,0.109,0.066,0.204,0.197,0.286
			c0.227,0.14,0.555,0.21,0.982,0.21c0.408,0,0.709-0.072,0.902-0.216s0.291-0.297,0.291-0.46c0-0.118-0.059-0.202-0.174-0.251
			c-0.117-0.05-0.352-0.079-0.7-0.088C85.436,31.265,85.044,31.239,84.77,31.201z M85.396,28.159c-0.168,0-0.309,0.067-0.422,0.2
			c-0.113,0.134-0.17,0.339-0.17,0.615c0,0.358,0.076,0.636,0.23,0.833c0.118,0.15,0.268,0.225,0.449,0.225
			c0.172,0,0.313-0.064,0.425-0.194c0.11-0.129,0.167-0.332,0.167-0.608c0-0.36-0.078-0.642-0.235-0.846
			C85.725,28.234,85.576,28.159,85.396,28.159z"/>
	</g>
	<rect x="46.081" y="12.48" width="0.961" height="11.52"/>
	<rect x="76.802" y="12.48" width="0.959" height="11.52"/>
	<rect x="92.161" y="12.48" width="0.961" height="11.52"/>
	<rect x="16.32" y="46.08" width="15.36" height="0.959"/>
	<rect x="0.961" y="57.599" width="30.72" height="0.959"/>
	<rect x="92.161" y="35.521" width="0.961" height="11.518"/>
	<rect width="0.961" height="70.08"/>
	<rect x="30.722" y="0.96" width="0.959" height="69.12"/>
	<rect x="61.442" y="0.96" width="0.959" height="46.079"/>
	<rect x="92.161" y="58.558" width="0.961" height="11.521"/>
	<rect x="15.361" y="35.521" width="0.959" height="34.559"/>
	<rect x="46.081" y="35.521" width="0.961" height="34.559"/>
	<rect x="76.802" y="35.521" width="0.959" height="34.559"/>
	<rect x="107.521" y="0.96" width="0.961" height="69.12"/>
	<rect x="0.961" width="107.521" height="0.96"/>
	<rect x="31.681" y="11.52" width="76.801" height="0.961"/>
	<rect x="31.681" y="23.04" width="76.801" height="0.96"/>
	<rect x="0.961" y="34.56" width="107.521" height="0.961"/>
	<rect x="47.042" y="46.08" width="61.439" height="0.959"/>
	<rect x="77.761" y="57.599" width="30.721" height="0.959"/>
	<rect x="0.961" y="69.119" width="107.521" height="0.961"/>
</g>
</svg>
