<?xml version="1.0" encoding="utf-8"?>
<!-- Generator: Adobe Illustrator 15.0.0, SVG Export Plug-In . SVG Version: 6.00 Build 0)  -->
<!DOCTYPE svg PUBLIC "-//W3C//DTD SVG 1.0//EN" "http://www.w3.org/TR/2001/REC-SVG-20010904/DTD/svg10.dtd">
<svg version="1.0" id="Layer_1" xmlns="http://www.w3.org/2000/svg" xmlns:xlink="http://www.w3.org/1999/xlink" x="0px" y="0px"
	 width="231px" height="58.602px" viewBox="0 0 231 58.602" enable-background="new 0 0 231 58.602" xml:space="preserve">
<g>
	<path d="M102.688,28.037l-0.663,2.273l-0.068,0.277c-0.007,0.034-0.01,0.06-0.01,0.075c0,0.027,0.01,0.052,0.029,0.072
		c0.02,0.021,0.04,0.03,0.06,0.03c0.048,0,0.114-0.036,0.198-0.109c0.034-0.029,0.116-0.135,0.246-0.314l0.12,0.062
		c-0.162,0.297-0.334,0.513-0.518,0.648c-0.184,0.136-0.381,0.203-0.593,0.203c-0.13,0-0.229-0.033-0.297-0.101
		s-0.103-0.152-0.103-0.255c0-0.089,0.037-0.254,0.109-0.496l0.082-0.277c-0.264,0.454-0.519,0.775-0.762,0.965
		c-0.141,0.109-0.292,0.164-0.451,0.164c-0.209,0-0.361-0.086-0.455-0.258c-0.093-0.173-0.14-0.367-0.14-0.583
		c0-0.322,0.098-0.69,0.294-1.106s0.454-0.751,0.772-1.004c0.262-0.21,0.508-0.314,0.738-0.314c0.127,0,0.23,0.036,0.308,0.11
		s0.134,0.21,0.171,0.405l0.123-0.42L102.688,28.037z M101.595,28.687c0-0.185-0.028-0.318-0.085-0.4
		c-0.041-0.057-0.097-0.085-0.167-0.085s-0.144,0.034-0.219,0.103c-0.153,0.142-0.317,0.428-0.494,0.86
		c-0.176,0.432-0.265,0.805-0.265,1.119c0,0.121,0.02,0.209,0.06,0.262c0.04,0.054,0.084,0.081,0.132,0.081
		c0.103,0,0.206-0.06,0.311-0.178c0.15-0.169,0.286-0.375,0.407-0.619C101.488,29.4,101.595,29.02,101.595,28.687z"/>
</g>
<g>
	<g>
		<path d="M228.542,26.416l-0.591,2.062c0.18-0.195,0.33-0.326,0.451-0.392c0.12-0.064,0.252-0.097,0.393-0.097
			c0.273,0,0.479,0.099,0.613,0.295c0.136,0.197,0.203,0.425,0.203,0.683c0,0.616-0.223,1.165-0.67,1.648
			c-0.396,0.427-0.848,0.64-1.354,0.64c-0.375,0-0.773-0.11-1.192-0.332l1.046-3.628c0.051-0.172,0.075-0.289,0.075-0.353
			c0-0.055-0.022-0.098-0.068-0.13c-0.063-0.046-0.161-0.065-0.29-0.059l0.037-0.137l1.142-0.201H228.542z M227.229,30.957
			c0.106,0.068,0.204,0.103,0.29,0.103c0.121,0,0.223-0.023,0.305-0.071c0.13-0.077,0.266-0.218,0.408-0.421
			s0.262-0.448,0.357-0.735s0.144-0.573,0.144-0.858c0-0.162-0.036-0.285-0.109-0.369s-0.157-0.127-0.253-0.127
			c-0.16,0-0.299,0.078-0.417,0.232c-0.079,0.101-0.167,0.314-0.26,0.64L227.229,30.957z"/>
	</g>
	<g>
		<g>
			<path d="M167.874,19.019c-0.083,0.41-0.248,0.726-0.493,0.946c-0.244,0.221-0.516,0.332-0.812,0.332
				c-0.354,0-0.661-0.148-0.925-0.445c-0.263-0.297-0.395-0.698-0.395-1.203c0-0.489,0.146-0.887,0.438-1.193
				c0.291-0.306,0.641-0.458,1.049-0.458c0.305,0,0.557,0.081,0.754,0.243c0.197,0.162,0.295,0.331,0.295,0.505
				c0,0.086-0.027,0.156-0.082,0.209c-0.057,0.053-0.134,0.08-0.233,0.08c-0.134,0-0.234-0.043-0.302-0.129
				c-0.039-0.047-0.064-0.138-0.077-0.272c-0.013-0.133-0.058-0.235-0.138-0.306c-0.079-0.068-0.189-0.102-0.33-0.102
				c-0.227,0-0.408,0.084-0.547,0.251c-0.184,0.222-0.275,0.516-0.275,0.88c0,0.372,0.092,0.699,0.273,0.984
				c0.183,0.284,0.43,0.426,0.74,0.426c0.221,0,0.421-0.076,0.598-0.228c0.125-0.104,0.246-0.293,0.363-0.568L167.874,19.019z"/>
			<path d="M182.545,19.852c-0.151,0.159-0.3,0.272-0.445,0.342c-0.145,0.069-0.301,0.104-0.469,0.104
				c-0.34,0-0.637-0.142-0.891-0.427c-0.254-0.284-0.381-0.649-0.381-1.096s0.141-0.855,0.422-1.225
				c0.281-0.371,0.643-0.556,1.084-0.556c0.274,0,0.501,0.087,0.68,0.262v-0.575c0-0.355-0.008-0.574-0.025-0.656
				c-0.017-0.082-0.043-0.137-0.08-0.167c-0.035-0.029-0.081-0.044-0.136-0.044c-0.059,0-0.137,0.018-0.234,0.054l-0.044-0.119
				l0.928-0.38h0.152v3.599c0,0.365,0.009,0.587,0.025,0.667c0.018,0.081,0.045,0.137,0.082,0.168s0.081,0.047,0.131,0.047
				c0.061,0,0.143-0.019,0.244-0.058l0.038,0.119l-0.925,0.384h-0.156V19.852z M182.545,19.614V18.01
				c-0.014-0.154-0.055-0.294-0.122-0.421s-0.158-0.223-0.271-0.287c-0.111-0.065-0.221-0.097-0.328-0.097
				c-0.199,0-0.377,0.09-0.533,0.269c-0.206,0.236-0.309,0.58-0.309,1.033c0,0.458,0.1,0.808,0.299,1.052s0.421,0.365,0.666,0.365
				C182.153,19.923,182.353,19.82,182.545,19.614z"/>
			<path d="M198.588,19.019c-0.084,0.41-0.248,0.726-0.493,0.946c-0.245,0.221-0.516,0.332-0.812,0.332
				c-0.354,0-0.662-0.148-0.925-0.445s-0.395-0.698-0.395-1.203c0-0.489,0.146-0.887,0.437-1.193
				c0.291-0.306,0.641-0.458,1.049-0.458c0.306,0,0.557,0.081,0.754,0.243c0.197,0.162,0.296,0.331,0.296,0.505
				c0,0.086-0.028,0.156-0.083,0.209c-0.056,0.053-0.133,0.08-0.232,0.08c-0.135,0-0.234-0.043-0.303-0.129
				c-0.039-0.047-0.064-0.138-0.076-0.272c-0.014-0.133-0.059-0.235-0.139-0.306c-0.078-0.068-0.188-0.102-0.329-0.102
				c-0.227,0-0.409,0.084-0.548,0.251c-0.183,0.222-0.274,0.516-0.274,0.88c0,0.372,0.091,0.699,0.273,0.984
				c0.183,0.284,0.429,0.426,0.739,0.426c0.222,0,0.422-0.076,0.598-0.228c0.125-0.104,0.246-0.293,0.363-0.568L198.588,19.019z"/>
			<path d="M213.259,19.852c-0.151,0.159-0.3,0.272-0.445,0.342c-0.146,0.069-0.302,0.104-0.47,0.104
				c-0.34,0-0.637-0.142-0.89-0.427c-0.254-0.284-0.381-0.649-0.381-1.096s0.141-0.855,0.421-1.225
				c0.281-0.371,0.643-0.556,1.085-0.556c0.274,0,0.501,0.087,0.68,0.262v-0.575c0-0.355-0.009-0.574-0.026-0.656
				c-0.016-0.082-0.043-0.137-0.079-0.167s-0.081-0.044-0.136-0.044c-0.059,0-0.137,0.018-0.234,0.054l-0.045-0.119l0.928-0.38
				h0.153v3.599c0,0.365,0.009,0.587,0.025,0.667c0.017,0.081,0.044,0.137,0.081,0.168c0.038,0.032,0.082,0.047,0.131,0.047
				c0.062,0,0.143-0.019,0.245-0.058l0.038,0.119l-0.925,0.384h-0.156V19.852z M213.259,19.614V18.01
				c-0.014-0.154-0.055-0.294-0.122-0.421c-0.068-0.127-0.158-0.223-0.271-0.287c-0.112-0.065-0.222-0.097-0.328-0.097
				c-0.199,0-0.378,0.09-0.534,0.269c-0.205,0.236-0.309,0.58-0.309,1.033c0,0.458,0.1,0.808,0.299,1.052s0.422,0.365,0.666,0.365
				C212.867,19.923,213.066,19.82,213.259,19.614z"/>
		</g>
		<g>
			<path d="M150.583,30.586c-0.19-0.093-0.337-0.223-0.438-0.389s-0.152-0.351-0.152-0.552c0-0.308,0.115-0.573,0.348-0.795
				s0.529-0.333,0.893-0.333c0.297,0,0.553,0.072,0.771,0.217h0.658c0.098,0,0.154,0.003,0.17,0.009
				c0.017,0.005,0.027,0.015,0.035,0.029c0.014,0.02,0.02,0.057,0.02,0.108c0,0.059-0.006,0.1-0.017,0.123
				c-0.007,0.011-0.019,0.021-0.036,0.027c-0.017,0.007-0.074,0.01-0.172,0.01h-0.404c0.127,0.163,0.191,0.372,0.191,0.625
				c0,0.29-0.111,0.538-0.334,0.744c-0.222,0.207-0.52,0.31-0.894,0.31c-0.153,0-0.312-0.023-0.472-0.068
				c-0.101,0.086-0.168,0.161-0.203,0.226c-0.035,0.065-0.053,0.12-0.053,0.165c0,0.039,0.02,0.076,0.057,0.112
				s0.11,0.062,0.219,0.078c0.063,0.009,0.223,0.017,0.477,0.023c0.467,0.012,0.769,0.027,0.906,0.048
				c0.211,0.029,0.379,0.107,0.506,0.234c0.125,0.127,0.188,0.283,0.188,0.469c0,0.256-0.119,0.496-0.359,0.72
				c-0.354,0.331-0.814,0.496-1.383,0.496c-0.438,0-0.807-0.099-1.108-0.295c-0.17-0.113-0.255-0.231-0.255-0.354
				c0-0.054,0.012-0.109,0.037-0.163c0.039-0.084,0.117-0.201,0.238-0.35c0.016-0.021,0.131-0.143,0.346-0.367
				c-0.117-0.07-0.201-0.133-0.249-0.188c-0.049-0.056-0.073-0.118-0.073-0.188c0-0.08,0.032-0.172,0.097-0.279
				C150.201,30.932,150.35,30.781,150.583,30.586z M150.549,31.722c-0.106,0.116-0.188,0.223-0.241,0.323s-0.081,0.191-0.081,0.275
				c0,0.109,0.064,0.204,0.197,0.286c0.226,0.14,0.553,0.21,0.981,0.21c0.407,0,0.708-0.072,0.902-0.216s0.29-0.297,0.29-0.46
				c0-0.118-0.057-0.202-0.173-0.251c-0.118-0.05-0.351-0.079-0.7-0.088C151.215,31.786,150.822,31.76,150.549,31.722z
				 M151.174,28.68c-0.168,0-0.308,0.067-0.421,0.2c-0.113,0.134-0.17,0.339-0.17,0.615c0,0.358,0.077,0.636,0.231,0.833
				c0.117,0.15,0.267,0.225,0.448,0.225c0.172,0,0.313-0.064,0.425-0.194c0.111-0.129,0.166-0.332,0.166-0.608
				c0-0.36-0.078-0.642-0.234-0.846C151.504,28.755,151.355,28.68,151.174,28.68z"/>
			<path d="M165.584,27.565l1.121-0.547h0.112v3.892c0,0.258,0.011,0.419,0.032,0.482s0.066,0.112,0.135,0.146
				c0.067,0.034,0.205,0.053,0.414,0.058v0.126h-1.733v-0.126c0.218-0.004,0.358-0.023,0.421-0.056
				c0.064-0.033,0.108-0.077,0.133-0.133c0.025-0.055,0.037-0.221,0.037-0.498v-2.488c0-0.335-0.011-0.551-0.033-0.646
				c-0.016-0.072-0.045-0.125-0.087-0.16c-0.042-0.034-0.093-0.051-0.151-0.051c-0.084,0-0.2,0.035-0.35,0.105L165.584,27.565z"/>
			<path d="M180.938,27.565l1.121-0.547h0.113v3.892c0,0.258,0.01,0.419,0.031,0.482s0.066,0.112,0.135,0.146
				c0.068,0.034,0.206,0.053,0.414,0.058v0.126h-1.732v-0.126c0.217-0.004,0.357-0.023,0.421-0.056
				c0.063-0.033,0.108-0.077,0.133-0.133c0.024-0.055,0.037-0.221,0.037-0.498v-2.488c0-0.335-0.011-0.551-0.034-0.646
				c-0.016-0.072-0.045-0.125-0.086-0.16c-0.043-0.034-0.093-0.051-0.151-0.051c-0.084,0-0.2,0.035-0.351,0.105L180.938,27.565z"/>
			<path d="M196.291,27.565l1.121-0.547h0.113v3.892c0,0.258,0.01,0.419,0.031,0.482s0.066,0.112,0.135,0.146
				c0.068,0.034,0.206,0.053,0.414,0.058v0.126h-1.732v-0.126c0.217-0.004,0.357-0.023,0.421-0.056
				c0.063-0.033,0.108-0.077,0.133-0.133c0.024-0.055,0.037-0.221,0.037-0.498v-2.488c0-0.335-0.011-0.551-0.034-0.646
				c-0.016-0.072-0.045-0.125-0.086-0.16c-0.043-0.034-0.093-0.051-0.151-0.051c-0.084,0-0.2,0.035-0.351,0.105L196.291,27.565z"/>
			<path d="M214.021,30.834l-0.323,0.887h-2.719v-0.126c0.801-0.729,1.363-1.325,1.689-1.787c0.326-0.462,0.49-0.885,0.49-1.268
				c0-0.292-0.09-0.532-0.27-0.72c-0.179-0.188-0.393-0.282-0.643-0.282c-0.227,0-0.43,0.066-0.609,0.199
				c-0.18,0.133-0.313,0.327-0.399,0.583h-0.126c0.057-0.419,0.203-0.741,0.438-0.965c0.234-0.224,0.527-0.336,0.878-0.336
				c0.374,0,0.687,0.12,0.937,0.36s0.375,0.523,0.375,0.85c0,0.233-0.055,0.467-0.162,0.7c-0.168,0.367-0.44,0.755-0.816,1.166
				c-0.564,0.616-0.916,0.988-1.057,1.115h1.203c0.244,0,0.416-0.009,0.515-0.027c0.099-0.018,0.188-0.055,0.267-0.11
				c0.08-0.055,0.148-0.134,0.207-0.236H214.021z"/>
		</g>
		<g>
			<path d="M150.664,38.41v2.277c0.252-0.276,0.451-0.454,0.599-0.532s0.294-0.117,0.441-0.117c0.177,0,0.329,0.049,0.456,0.146
				c0.127,0.098,0.221,0.25,0.281,0.459c0.043,0.145,0.064,0.41,0.064,0.795v1.101c0,0.197,0.016,0.332,0.048,0.405
				c0.022,0.054,0.062,0.097,0.116,0.129c0.054,0.032,0.154,0.047,0.299,0.047v0.123h-1.529V43.12h0.071
				c0.146,0,0.245-0.022,0.302-0.066c0.057-0.044,0.097-0.109,0.119-0.195c0.008-0.037,0.011-0.143,0.011-0.32v-1.101
				c0-0.34-0.018-0.563-0.053-0.669s-0.091-0.186-0.169-0.24c-0.076-0.053-0.17-0.08-0.277-0.08c-0.111,0-0.228,0.029-0.348,0.088
				c-0.119,0.059-0.264,0.178-0.432,0.357v1.645c0,0.213,0.012,0.346,0.036,0.398c0.023,0.052,0.067,0.096,0.132,0.131
				s0.177,0.052,0.336,0.052v0.123h-1.543V43.12c0.138,0,0.246-0.021,0.326-0.064c0.045-0.022,0.081-0.065,0.108-0.129
				c0.026-0.063,0.04-0.193,0.04-0.388v-2.817c0-0.355-0.008-0.574-0.025-0.656c-0.017-0.082-0.043-0.137-0.078-0.167
				s-0.082-0.044-0.141-0.044c-0.047,0-0.125,0.018-0.23,0.054l-0.049-0.119l0.932-0.38H150.664z"/>
			<path d="M165.121,39.511c0.132-0.311,0.298-0.55,0.498-0.719c0.201-0.169,0.451-0.253,0.75-0.253c0.369,0,0.652,0.12,0.85,0.36
				c0.148,0.179,0.225,0.371,0.225,0.574c0,0.335-0.211,0.682-0.633,1.04c0.283,0.111,0.497,0.27,0.643,0.476
				c0.145,0.206,0.217,0.448,0.217,0.727c0,0.399-0.127,0.744-0.381,1.037c-0.33,0.38-0.81,0.571-1.438,0.571
				c-0.311,0-0.521-0.039-0.633-0.116c-0.112-0.077-0.168-0.16-0.168-0.248c0-0.065,0.025-0.124,0.079-0.173
				s0.117-0.075,0.192-0.075c0.057,0,0.114,0.009,0.173,0.027c0.038,0.011,0.126,0.053,0.262,0.124s0.229,0.114,0.282,0.127
				c0.084,0.025,0.174,0.038,0.269,0.038c0.231,0,0.433-0.09,0.603-0.269c0.172-0.179,0.258-0.391,0.258-0.636
				c0-0.179-0.04-0.354-0.119-0.523c-0.06-0.126-0.124-0.223-0.194-0.289c-0.097-0.091-0.231-0.173-0.401-0.247
				s-0.343-0.11-0.52-0.11h-0.108v-0.102c0.179-0.022,0.358-0.087,0.538-0.194c0.181-0.106,0.312-0.234,0.393-0.384
				c0.082-0.149,0.123-0.314,0.123-0.493c0-0.233-0.073-0.422-0.22-0.566c-0.146-0.144-0.327-0.216-0.546-0.216
				c-0.351,0-0.645,0.188-0.879,0.564L165.121,39.511z"/>
			<path d="M183.361,41.543v0.482h-0.619v1.217h-0.561v-1.217h-1.951V41.59l2.139-3.052h0.373v3.004H183.361z M182.182,41.543
				v-2.287l-1.617,2.287H182.182z"/>
			<path d="M198.715,41.543v0.482h-0.619v1.217h-0.561v-1.217h-1.951V41.59l2.139-3.052h0.373v3.004H198.715z M197.535,41.543
				v-2.287l-1.617,2.287H197.535z"/>
			<path d="M213.851,38.634l-0.265,0.578h-1.387l-0.303,0.619c0.601,0.088,1.076,0.312,1.428,0.669
				c0.301,0.308,0.451,0.671,0.451,1.087c0,0.243-0.049,0.467-0.146,0.673c-0.1,0.206-0.223,0.381-0.373,0.526
				c-0.149,0.145-0.316,0.262-0.5,0.35c-0.26,0.125-0.527,0.187-0.801,0.187c-0.277,0-0.479-0.047-0.604-0.141
				c-0.126-0.094-0.189-0.198-0.189-0.311c0-0.063,0.026-0.119,0.078-0.168c0.053-0.049,0.118-0.073,0.197-0.073
				c0.059,0,0.111,0.009,0.155,0.027s0.119,0.064,0.226,0.139c0.17,0.118,0.342,0.177,0.517,0.177c0.265,0,0.498-0.1,0.698-0.301
				c0.201-0.2,0.301-0.444,0.301-0.732c0-0.278-0.09-0.539-0.268-0.78c-0.18-0.241-0.427-0.428-0.742-0.559
				c-0.246-0.102-0.582-0.161-1.009-0.177l0.884-1.791H213.851z"/>
		</g>
		<g>
			<path d="M136.207,51.894v2.046c0,0.29,0.031,0.474,0.096,0.55c0.084,0.1,0.195,0.149,0.336,0.149h0.282v0.123h-1.858V54.64h0.139
				c0.09,0,0.174-0.022,0.248-0.068s0.127-0.106,0.154-0.184c0.029-0.077,0.043-0.227,0.043-0.448v-2.046h-0.605v-0.245h0.605
				v-0.204c0-0.311,0.05-0.573,0.149-0.789c0.1-0.215,0.252-0.389,0.457-0.521s0.436-0.199,0.691-0.199
				c0.238,0,0.456,0.077,0.656,0.231c0.132,0.102,0.196,0.216,0.196,0.343c0,0.068-0.029,0.132-0.088,0.192s-0.122,0.09-0.189,0.09
				c-0.053,0-0.107-0.019-0.166-0.056c-0.057-0.038-0.128-0.118-0.212-0.241s-0.161-0.207-0.231-0.25s-0.148-0.064-0.234-0.064
				c-0.104,0-0.192,0.028-0.265,0.083c-0.073,0.056-0.125,0.142-0.156,0.258c-0.032,0.117-0.048,0.417-0.048,0.902v0.225h0.803
				v0.245H136.207z"/>
			<path d="M150.578,53.627c-0.189-0.093-0.336-0.223-0.438-0.389c-0.103-0.167-0.153-0.351-0.153-0.552
				c0-0.308,0.116-0.573,0.349-0.795s0.529-0.333,0.892-0.333c0.297,0,0.554,0.072,0.771,0.217h0.659
				c0.098,0,0.154,0.003,0.17,0.009c0.016,0.005,0.027,0.015,0.034,0.029c0.014,0.02,0.021,0.057,0.021,0.108
				c0,0.059-0.006,0.1-0.018,0.123c-0.006,0.011-0.019,0.021-0.035,0.027c-0.018,0.007-0.074,0.01-0.172,0.01h-0.404
				c0.127,0.163,0.19,0.372,0.19,0.625c0,0.29-0.111,0.538-0.333,0.744c-0.223,0.207-0.52,0.31-0.895,0.31
				c-0.153,0-0.311-0.023-0.472-0.068c-0.101,0.086-0.167,0.161-0.202,0.226c-0.035,0.065-0.053,0.12-0.053,0.165
				c0,0.039,0.019,0.076,0.057,0.112c0.037,0.036,0.109,0.062,0.219,0.078c0.063,0.009,0.222,0.017,0.476,0.023
				c0.467,0.012,0.769,0.027,0.907,0.048c0.211,0.029,0.379,0.107,0.505,0.234s0.188,0.283,0.188,0.469
				c0,0.256-0.12,0.496-0.36,0.72c-0.354,0.331-0.814,0.496-1.383,0.496c-0.438,0-0.807-0.099-1.108-0.295
				c-0.17-0.113-0.254-0.231-0.254-0.354c0-0.054,0.012-0.109,0.037-0.163c0.038-0.084,0.117-0.201,0.237-0.35
				c0.017-0.021,0.132-0.143,0.347-0.367c-0.117-0.07-0.201-0.133-0.25-0.188s-0.072-0.118-0.072-0.188
				c0-0.08,0.031-0.172,0.096-0.279C150.196,53.973,150.346,53.822,150.578,53.627z M150.545,54.762
				c-0.107,0.116-0.188,0.223-0.242,0.323c-0.054,0.1-0.081,0.191-0.081,0.275c0,0.109,0.065,0.204,0.197,0.286
				c0.226,0.14,0.554,0.21,0.981,0.21c0.408,0,0.709-0.072,0.902-0.216c0.194-0.144,0.291-0.297,0.291-0.46
				c0-0.118-0.058-0.202-0.174-0.251c-0.117-0.05-0.351-0.079-0.699-0.088C151.211,54.827,150.818,54.801,150.545,54.762z
				 M151.17,51.721c-0.168,0-0.309,0.067-0.422,0.2c-0.113,0.134-0.17,0.339-0.17,0.615c0,0.358,0.077,0.636,0.231,0.833
				c0.118,0.15,0.267,0.225,0.448,0.225c0.172,0,0.314-0.064,0.426-0.194c0.11-0.129,0.166-0.332,0.166-0.608
				c0-0.36-0.078-0.642-0.234-0.846C151.5,51.795,151.352,51.721,151.17,51.721z"/>
			<path d="M167.883,50.059v0.126c-0.299,0.029-0.543,0.089-0.732,0.178c-0.188,0.09-0.375,0.226-0.561,0.41
				c-0.184,0.184-0.337,0.388-0.459,0.613c-0.121,0.226-0.222,0.494-0.304,0.804c0.327-0.224,0.653-0.336,0.982-0.336
				c0.315,0,0.588,0.127,0.819,0.381c0.23,0.253,0.346,0.58,0.346,0.979c0,0.385-0.116,0.736-0.35,1.054
				c-0.281,0.385-0.652,0.578-1.115,0.578c-0.314,0-0.582-0.104-0.801-0.313c-0.432-0.406-0.646-0.931-0.646-1.577
				c0-0.412,0.083-0.804,0.248-1.176c0.166-0.372,0.402-0.701,0.709-0.989s0.601-0.481,0.882-0.581c0.28-0.1,0.542-0.15,0.785-0.15
				H167.883z M165.77,52.438c-0.041,0.306-0.061,0.553-0.061,0.741c0,0.217,0.039,0.454,0.12,0.708s0.2,0.457,0.358,0.606
				c0.115,0.106,0.256,0.16,0.422,0.16c0.197,0,0.373-0.093,0.528-0.278c0.155-0.186,0.232-0.451,0.232-0.795
				c0-0.388-0.077-0.723-0.231-1.006s-0.372-0.425-0.655-0.425c-0.087,0-0.179,0.018-0.276,0.054
				C166.107,52.239,165.962,52.317,165.77,52.438z"/>
			<path d="M183.356,53.063v0.482h-0.618v1.217h-0.561v-1.217h-1.951V53.11l2.138-3.052h0.374v3.004H183.356z M182.178,53.063
				v-2.287l-1.618,2.287H182.178z"/>
			<path d="M198.71,53.063v0.482h-0.618v1.217h-0.561v-1.217h-1.951V53.11l2.138-3.052h0.374v3.004H198.71z M197.531,53.063v-2.287
				l-1.618,2.287H197.531z"/>
			<path d="M213.846,50.154l-0.264,0.578h-1.387l-0.303,0.619c0.6,0.088,1.076,0.312,1.428,0.669
				c0.301,0.308,0.451,0.671,0.451,1.087c0,0.243-0.049,0.467-0.147,0.673c-0.099,0.206-0.223,0.381-0.372,0.526
				c-0.15,0.145-0.316,0.262-0.5,0.35c-0.26,0.125-0.527,0.187-0.802,0.187c-0.276,0-0.478-0.047-0.604-0.141
				c-0.126-0.094-0.188-0.198-0.188-0.311c0-0.063,0.025-0.119,0.078-0.168s0.117-0.073,0.197-0.073c0.059,0,0.11,0.009,0.154,0.027
				c0.045,0.018,0.119,0.064,0.227,0.139c0.17,0.118,0.342,0.177,0.516,0.177c0.266,0,0.498-0.1,0.699-0.301
				c0.2-0.2,0.301-0.444,0.301-0.732c0-0.278-0.09-0.539-0.269-0.78s-0.427-0.428-0.741-0.559c-0.246-0.102-0.583-0.161-1.01-0.177
				l0.885-1.791H213.846z"/>
		</g>
		<g>
			<path d="M135.033,35.063c-0.002,0.462,0.109,0.825,0.336,1.087s0.494,0.394,0.799,0.394c0.205,0,0.382-0.056,0.532-0.168
				c0.151-0.112,0.276-0.304,0.379-0.576l0.105,0.068c-0.048,0.311-0.187,0.593-0.415,0.848s-0.516,0.382-0.859,0.382
				c-0.374,0-0.693-0.146-0.96-0.437c-0.267-0.292-0.399-0.683-0.399-1.174c0-0.532,0.137-0.948,0.41-1.246
				c0.272-0.298,0.615-0.447,1.027-0.447c0.35,0,0.636,0.115,0.859,0.345c0.225,0.23,0.337,0.538,0.337,0.923H135.033z
				 M135.033,34.866h1.441c-0.012-0.199-0.035-0.34-0.072-0.421c-0.057-0.127-0.141-0.227-0.252-0.299
				c-0.113-0.073-0.23-0.109-0.353-0.109c-0.188,0-0.356,0.073-0.505,0.219S135.059,34.606,135.033,34.866z"/>
		</g>
		<g>
			<path d="M174.674,7.755c-0.32,0.247-0.52,0.39-0.602,0.428c-0.123,0.057-0.253,0.085-0.391,0.085
				c-0.216,0-0.393-0.073-0.532-0.221s-0.209-0.341-0.209-0.581c0-0.152,0.034-0.283,0.103-0.395
				c0.092-0.154,0.254-0.299,0.484-0.435c0.229-0.136,0.611-0.301,1.146-0.496V6.019c0-0.311-0.049-0.523-0.148-0.639
				c-0.098-0.115-0.241-0.173-0.43-0.173c-0.143,0-0.256,0.039-0.34,0.116c-0.086,0.077-0.129,0.166-0.129,0.265l0.007,0.197
				c0,0.104-0.026,0.185-0.08,0.242s-0.122,0.085-0.209,0.085c-0.083,0-0.152-0.03-0.206-0.088c-0.053-0.059-0.079-0.14-0.079-0.241
				c0-0.195,0.1-0.374,0.299-0.537S173.838,5,174.197,5c0.277,0,0.504,0.046,0.68,0.139c0.135,0.07,0.232,0.18,0.297,0.33
				c0.04,0.098,0.061,0.297,0.061,0.598v1.057c0,0.297,0.006,0.479,0.018,0.545c0.011,0.067,0.029,0.111,0.056,0.134
				c0.026,0.022,0.056,0.034,0.09,0.034c0.036,0,0.067-0.008,0.095-0.023c0.048-0.03,0.14-0.112,0.275-0.248v0.19
				c-0.254,0.34-0.496,0.51-0.727,0.51c-0.111,0-0.199-0.039-0.266-0.115C174.71,8.073,174.676,7.941,174.674,7.755z M174.674,7.535
				V6.349c-0.342,0.136-0.563,0.232-0.663,0.289c-0.179,0.1-0.307,0.204-0.384,0.313c-0.077,0.108-0.115,0.228-0.115,0.357
				c0,0.163,0.049,0.298,0.146,0.406c0.097,0.108,0.209,0.162,0.336,0.162C174.166,7.875,174.393,7.761,174.674,7.535z"/>
			<path d="M204.24,5.628C204.541,5.209,204.866,5,205.215,5c0.32,0,0.599,0.136,0.836,0.409c0.238,0.273,0.357,0.646,0.357,1.12
				c0,0.553-0.184,0.998-0.551,1.335c-0.314,0.29-0.666,0.435-1.053,0.435c-0.182,0-0.365-0.033-0.553-0.099
				c-0.188-0.065-0.378-0.164-0.572-0.295V4.68c0-0.353-0.009-0.571-0.025-0.652c-0.018-0.082-0.045-0.137-0.08-0.167
				c-0.037-0.029-0.082-0.044-0.137-0.044c-0.063,0-0.143,0.018-0.237,0.054l-0.048-0.119l0.935-0.38h0.153V5.628z M204.24,5.846
				v1.862c0.115,0.113,0.234,0.199,0.358,0.256c0.124,0.058,0.249,0.087,0.379,0.087c0.206,0,0.397-0.113,0.575-0.34
				c0.179-0.227,0.268-0.556,0.268-0.989c0-0.398-0.089-0.705-0.268-0.919c-0.178-0.214-0.379-0.321-0.605-0.321
				c-0.121,0-0.24,0.031-0.361,0.092C204.496,5.619,204.381,5.709,204.24,5.846z"/>
		</g>
		<rect x="127.213" y="0.042" width="0.96" height="58.56"/>
		<rect x="157.933" y="1.001" width="0.96" height="57.601"/>
		<rect x="188.652" y="1.001" width="0.961" height="57.601"/>
		<rect x="219.372" y="1.001" width="0.961" height="57.601"/>
		<rect x="173.293" y="12.522" width="0.959" height="46.08"/>
		<rect x="204.013" y="12.522" width="0.96" height="46.08"/>
		<rect x="142.572" y="24.042" width="0.961" height="34.561"/>
		<rect x="128.173" y="0.042" width="92.16" height="0.959"/>
		<rect x="158.893" y="11.561" width="61.44" height="0.961"/>
		<rect x="128.173" y="23.081" width="92.16" height="0.961"/>
		<rect x="143.533" y="34.602" width="76.8" height="0.959"/>
		<rect x="128.173" y="46.122" width="92.16" height="0.959"/>
		<rect x="128.173" y="57.641" width="92.16" height="0.961"/>
	</g>
</g>
<g>
	<g>
		<path d="M40.75,19.019c-0.083,0.41-0.248,0.726-0.493,0.946c-0.245,0.221-0.516,0.332-0.812,0.332
			c-0.354,0-0.662-0.148-0.924-0.445c-0.263-0.297-0.395-0.698-0.395-1.203c0-0.489,0.146-0.887,0.437-1.193
			c0.291-0.306,0.641-0.458,1.048-0.458c0.306,0,0.557,0.081,0.754,0.243c0.197,0.162,0.295,0.331,0.295,0.505
			c0,0.086-0.028,0.156-0.083,0.209c-0.056,0.053-0.133,0.08-0.233,0.08c-0.134,0-0.234-0.043-0.302-0.129
			c-0.039-0.047-0.064-0.138-0.077-0.272c-0.013-0.133-0.058-0.235-0.138-0.306c-0.079-0.068-0.189-0.102-0.33-0.102
			c-0.227,0-0.409,0.084-0.547,0.251c-0.183,0.222-0.275,0.516-0.275,0.88c0,0.372,0.091,0.699,0.273,0.984
			c0.182,0.284,0.429,0.426,0.739,0.426c0.222,0,0.421-0.076,0.598-0.228c0.125-0.104,0.246-0.293,0.363-0.568L40.75,19.019z"/>
		<path d="M55.421,19.852c-0.152,0.159-0.3,0.272-0.445,0.342c-0.145,0.069-0.301,0.104-0.469,0.104c-0.34,0-0.637-0.142-0.89-0.427
			c-0.254-0.284-0.381-0.649-0.381-1.096s0.141-0.855,0.421-1.225c0.281-0.371,0.643-0.556,1.084-0.556
			c0.274,0,0.5,0.087,0.68,0.262v-0.575c0-0.355-0.009-0.574-0.026-0.656c-0.017-0.082-0.043-0.137-0.08-0.167
			s-0.082-0.044-0.136-0.044c-0.059,0-0.137,0.018-0.234,0.054l-0.044-0.119l0.928-0.38h0.153v3.599
			c0,0.365,0.008,0.587,0.025,0.667c0.017,0.081,0.044,0.137,0.082,0.168c0.038,0.032,0.081,0.047,0.131,0.047
			c0.061,0,0.143-0.019,0.245-0.058l0.038,0.119l-0.924,0.384h-0.156V19.852z M55.421,19.614V18.01
			c-0.014-0.154-0.055-0.294-0.123-0.421s-0.158-0.223-0.27-0.287c-0.112-0.065-0.222-0.097-0.328-0.097
			c-0.199,0-0.377,0.09-0.534,0.269c-0.206,0.236-0.309,0.58-0.309,1.033c0,0.458,0.1,0.808,0.299,1.052
			c0.2,0.244,0.421,0.365,0.667,0.365C55.029,19.923,55.228,19.82,55.421,19.614z"/>
		<path d="M71.463,19.019c-0.083,0.41-0.248,0.726-0.493,0.946c-0.245,0.221-0.516,0.332-0.812,0.332
			c-0.354,0-0.662-0.148-0.924-0.445c-0.263-0.297-0.395-0.698-0.395-1.203c0-0.489,0.146-0.887,0.437-1.193
			c0.291-0.306,0.641-0.458,1.048-0.458c0.306,0,0.557,0.081,0.754,0.243c0.197,0.162,0.295,0.331,0.295,0.505
			c0,0.086-0.028,0.156-0.083,0.209c-0.056,0.053-0.133,0.08-0.233,0.08c-0.134,0-0.234-0.043-0.302-0.129
			c-0.039-0.047-0.064-0.138-0.077-0.272c-0.013-0.133-0.058-0.235-0.138-0.306c-0.079-0.068-0.189-0.102-0.33-0.102
			c-0.227,0-0.409,0.084-0.547,0.251c-0.183,0.222-0.275,0.516-0.275,0.88c0,0.372,0.091,0.699,0.273,0.984
			c0.182,0.284,0.429,0.426,0.739,0.426c0.222,0,0.421-0.076,0.598-0.228c0.125-0.104,0.246-0.293,0.363-0.568L71.463,19.019z"/>
		<path d="M86.134,19.852c-0.152,0.159-0.3,0.272-0.445,0.342c-0.145,0.069-0.301,0.104-0.469,0.104c-0.34,0-0.637-0.142-0.89-0.427
			c-0.254-0.284-0.381-0.649-0.381-1.096s0.141-0.855,0.421-1.225c0.281-0.371,0.643-0.556,1.084-0.556
			c0.274,0,0.5,0.087,0.68,0.262v-0.575c0-0.355-0.009-0.574-0.026-0.656c-0.017-0.082-0.043-0.137-0.08-0.167
			s-0.082-0.044-0.136-0.044c-0.059,0-0.137,0.018-0.234,0.054l-0.044-0.119l0.928-0.38h0.153v3.599
			c0,0.365,0.008,0.587,0.025,0.667c0.017,0.081,0.044,0.137,0.082,0.168c0.038,0.032,0.081,0.047,0.131,0.047
			c0.061,0,0.143-0.019,0.245-0.058l0.038,0.119l-0.924,0.384h-0.156V19.852z M86.134,19.614V18.01
			c-0.014-0.154-0.055-0.294-0.123-0.421s-0.158-0.223-0.27-0.287c-0.112-0.065-0.222-0.097-0.328-0.097
			c-0.199,0-0.377,0.09-0.534,0.269c-0.206,0.236-0.309,0.58-0.309,1.033c0,0.458,0.1,0.808,0.299,1.052
			c0.2,0.244,0.421,0.365,0.667,0.365C85.742,19.923,85.941,19.82,86.134,19.614z"/>
	</g>
	<g>
		<path d="M23.458,30.587c-0.19-0.093-0.336-0.223-0.438-0.389s-0.153-0.351-0.153-0.552c0-0.308,0.116-0.573,0.348-0.795
			s0.53-0.333,0.892-0.333c0.297,0,0.554,0.072,0.771,0.217h0.659c0.098,0,0.154,0.003,0.17,0.009
			c0.016,0.005,0.027,0.015,0.034,0.029c0.014,0.02,0.021,0.057,0.021,0.108c0,0.059-0.006,0.1-0.017,0.123
			c-0.007,0.011-0.019,0.021-0.036,0.027c-0.017,0.007-0.074,0.01-0.172,0.01h-0.404c0.127,0.163,0.19,0.372,0.19,0.625
			c0,0.29-0.111,0.538-0.333,0.744c-0.222,0.207-0.52,0.31-0.894,0.31c-0.154,0-0.312-0.023-0.472-0.068
			c-0.1,0.086-0.167,0.161-0.202,0.226c-0.035,0.065-0.053,0.12-0.053,0.165c0,0.039,0.019,0.076,0.056,0.112
			c0.037,0.036,0.11,0.062,0.219,0.078c0.063,0.009,0.222,0.017,0.476,0.023c0.467,0.012,0.769,0.027,0.907,0.048
			c0.211,0.029,0.379,0.107,0.505,0.234c0.125,0.127,0.188,0.283,0.188,0.469c0,0.256-0.12,0.496-0.36,0.72
			c-0.354,0.331-0.814,0.496-1.383,0.496c-0.438,0-0.807-0.099-1.108-0.295c-0.17-0.113-0.255-0.231-0.255-0.354
			c0-0.054,0.012-0.109,0.037-0.163c0.039-0.084,0.118-0.201,0.238-0.35c0.016-0.021,0.131-0.143,0.347-0.367
			c-0.118-0.07-0.201-0.133-0.25-0.188c-0.049-0.056-0.073-0.118-0.073-0.188c0-0.08,0.032-0.172,0.097-0.279
			C23.076,30.933,23.225,30.782,23.458,30.587z M23.424,31.722c-0.106,0.116-0.187,0.223-0.241,0.323s-0.082,0.191-0.082,0.275
			c0,0.109,0.065,0.204,0.197,0.286c0.226,0.14,0.554,0.21,0.982,0.21c0.408,0,0.708-0.072,0.902-0.216s0.291-0.297,0.291-0.46
			c0-0.118-0.058-0.202-0.173-0.251c-0.118-0.05-0.351-0.079-0.7-0.088C24.09,31.787,23.698,31.761,23.424,31.722z M24.05,28.681
			c-0.168,0-0.308,0.067-0.421,0.2c-0.113,0.134-0.17,0.339-0.17,0.615c0,0.358,0.077,0.636,0.231,0.833
			c0.118,0.15,0.267,0.225,0.449,0.225c0.172,0,0.313-0.064,0.425-0.194c0.111-0.129,0.167-0.332,0.167-0.608
			c0-0.36-0.078-0.642-0.235-0.846C24.379,28.755,24.231,28.681,24.05,28.681z"/>
		<path d="M86.917,30.835l-0.323,0.887h-2.719v-0.126c0.8-0.729,1.363-1.325,1.689-1.787c0.327-0.462,0.49-0.885,0.49-1.268
			c0-0.292-0.09-0.532-0.269-0.72c-0.179-0.188-0.393-0.282-0.643-0.282c-0.227,0-0.43,0.066-0.61,0.199
			c-0.18,0.133-0.313,0.327-0.399,0.583h-0.125c0.057-0.419,0.202-0.741,0.437-0.965c0.234-0.224,0.527-0.336,0.878-0.336
			c0.374,0,0.686,0.12,0.937,0.36c0.25,0.24,0.375,0.523,0.375,0.85c0,0.233-0.055,0.467-0.163,0.7
			c-0.168,0.367-0.44,0.755-0.816,1.166c-0.564,0.616-0.917,0.988-1.057,1.115h1.203c0.245,0,0.416-0.009,0.515-0.027
			c0.099-0.018,0.188-0.055,0.267-0.11c0.08-0.055,0.148-0.134,0.208-0.236H86.917z"/>
	</g>
	<g>
		<path d="M23.54,38.41v2.277c0.251-0.276,0.451-0.454,0.598-0.532c0.147-0.078,0.294-0.117,0.441-0.117
			c0.177,0,0.329,0.049,0.456,0.146c0.127,0.098,0.221,0.25,0.282,0.459c0.043,0.145,0.064,0.41,0.064,0.795v1.101
			c0,0.197,0.016,0.332,0.047,0.405c0.023,0.054,0.062,0.097,0.116,0.129s0.154,0.047,0.299,0.047v0.123h-1.529V43.12h0.071
			c0.145,0,0.246-0.022,0.302-0.066c0.057-0.044,0.096-0.109,0.119-0.195c0.007-0.037,0.01-0.143,0.01-0.32v-1.101
			c0-0.34-0.018-0.563-0.053-0.669s-0.091-0.186-0.168-0.24c-0.077-0.053-0.17-0.08-0.278-0.08c-0.111,0-0.227,0.029-0.347,0.088
			c-0.12,0.059-0.264,0.178-0.432,0.357v1.645c0,0.213,0.012,0.346,0.036,0.398c0.023,0.052,0.068,0.096,0.132,0.131
			s0.176,0.052,0.335,0.052v0.123H22.5V43.12c0.138,0,0.247-0.021,0.326-0.064c0.045-0.022,0.082-0.065,0.109-0.129
			c0.027-0.063,0.041-0.193,0.041-0.388v-2.817c0-0.355-0.008-0.574-0.025-0.656s-0.043-0.137-0.078-0.167s-0.082-0.044-0.141-0.044
			c-0.047,0-0.125,0.018-0.231,0.054l-0.048-0.119l0.932-0.38H23.54z"/>
		<path d="M37.997,39.511c0.131-0.311,0.297-0.55,0.498-0.719c0.201-0.169,0.451-0.253,0.75-0.253c0.369,0,0.652,0.12,0.85,0.36
			c0.149,0.179,0.225,0.371,0.225,0.574c0,0.335-0.211,0.682-0.632,1.04c0.283,0.111,0.497,0.27,0.642,0.476
			c0.145,0.206,0.218,0.448,0.218,0.727c0,0.399-0.127,0.744-0.381,1.037c-0.331,0.38-0.81,0.571-1.438,0.571
			c-0.311,0-0.521-0.039-0.634-0.116c-0.112-0.077-0.168-0.16-0.168-0.248c0-0.065,0.026-0.124,0.08-0.173s0.117-0.075,0.192-0.075
			c0.057,0,0.115,0.009,0.173,0.027c0.039,0.011,0.126,0.053,0.262,0.124c0.136,0.071,0.23,0.114,0.282,0.127
			c0.084,0.025,0.173,0.038,0.269,0.038c0.231,0,0.432-0.09,0.603-0.269c0.171-0.179,0.257-0.391,0.257-0.636
			c0-0.179-0.04-0.354-0.119-0.523c-0.059-0.126-0.124-0.223-0.194-0.289c-0.097-0.091-0.231-0.173-0.401-0.247
			s-0.343-0.11-0.52-0.11h-0.108v-0.102c0.179-0.022,0.358-0.087,0.539-0.194c0.18-0.106,0.311-0.234,0.393-0.384
			s0.122-0.314,0.122-0.493c0-0.233-0.073-0.422-0.219-0.566c-0.146-0.144-0.328-0.216-0.545-0.216c-0.351,0-0.645,0.188-0.88,0.564
			L37.997,39.511z"/>
	</g>
	<g>
		<path d="M9.083,51.895v2.046c0,0.29,0.032,0.474,0.095,0.55c0.084,0.1,0.196,0.149,0.336,0.149h0.282v0.123H7.938V54.64h0.139
			c0.09,0,0.173-0.022,0.248-0.068s0.126-0.106,0.155-0.184c0.028-0.077,0.042-0.227,0.042-0.448v-2.046H7.917V51.65h0.605v-0.204
			c0-0.311,0.05-0.573,0.149-0.789c0.1-0.215,0.252-0.389,0.457-0.521s0.436-0.199,0.691-0.199c0.238,0,0.457,0.077,0.656,0.231
			c0.131,0.102,0.197,0.216,0.197,0.343c0,0.068-0.029,0.132-0.088,0.192c-0.059,0.06-0.122,0.09-0.19,0.09
			c-0.052,0-0.107-0.019-0.165-0.056c-0.058-0.038-0.128-0.118-0.212-0.241s-0.161-0.207-0.231-0.25s-0.148-0.064-0.234-0.064
			c-0.104,0-0.193,0.028-0.265,0.083c-0.073,0.056-0.125,0.142-0.156,0.258c-0.032,0.117-0.048,0.417-0.048,0.902v0.225h0.802v0.245
			H9.083z"/>
		<path d="M23.454,53.627c-0.19-0.093-0.336-0.223-0.438-0.389s-0.153-0.351-0.153-0.552c0-0.308,0.116-0.573,0.348-0.795
			s0.53-0.333,0.892-0.333c0.297,0,0.554,0.072,0.771,0.217h0.659c0.098,0,0.154,0.003,0.17,0.009
			c0.016,0.005,0.027,0.015,0.034,0.029c0.014,0.02,0.021,0.057,0.021,0.108c0,0.059-0.006,0.1-0.017,0.123
			c-0.007,0.011-0.019,0.021-0.036,0.027c-0.017,0.007-0.074,0.01-0.172,0.01h-0.404c0.127,0.163,0.19,0.372,0.19,0.625
			c0,0.29-0.111,0.538-0.333,0.744c-0.222,0.207-0.52,0.31-0.894,0.31c-0.154,0-0.312-0.023-0.472-0.068
			c-0.1,0.086-0.167,0.161-0.202,0.226c-0.035,0.065-0.053,0.12-0.053,0.165c0,0.039,0.019,0.076,0.056,0.112
			c0.037,0.036,0.11,0.062,0.219,0.078c0.063,0.009,0.222,0.017,0.476,0.023c0.467,0.012,0.769,0.027,0.907,0.048
			c0.211,0.029,0.379,0.107,0.505,0.234c0.125,0.127,0.188,0.283,0.188,0.469c0,0.256-0.12,0.496-0.36,0.72
			c-0.354,0.331-0.814,0.496-1.383,0.496c-0.438,0-0.807-0.099-1.108-0.295c-0.17-0.113-0.255-0.231-0.255-0.354
			c0-0.054,0.012-0.109,0.037-0.163c0.039-0.084,0.118-0.201,0.238-0.35c0.016-0.021,0.131-0.143,0.347-0.367
			c-0.118-0.07-0.201-0.133-0.25-0.188c-0.049-0.056-0.073-0.118-0.073-0.188c0-0.08,0.032-0.172,0.097-0.279
			C23.072,53.973,23.221,53.822,23.454,53.627z M23.42,54.763c-0.106,0.116-0.187,0.223-0.241,0.323s-0.082,0.191-0.082,0.275
			c0,0.109,0.065,0.204,0.197,0.286c0.226,0.14,0.554,0.21,0.982,0.21c0.408,0,0.708-0.072,0.902-0.216s0.291-0.297,0.291-0.46
			c0-0.118-0.058-0.202-0.173-0.251c-0.118-0.05-0.351-0.079-0.7-0.088C24.086,54.827,23.694,54.801,23.42,54.763z M24.045,51.721
			c-0.168,0-0.308,0.067-0.421,0.2c-0.113,0.134-0.17,0.339-0.17,0.615c0,0.358,0.077,0.636,0.231,0.833
			c0.118,0.15,0.267,0.225,0.449,0.225c0.172,0,0.313-0.064,0.425-0.194c0.111-0.129,0.167-0.332,0.167-0.608
			c0-0.36-0.078-0.642-0.235-0.846C24.375,51.796,24.227,51.721,24.045,51.721z"/>
		<path d="M40.759,50.059v0.126c-0.299,0.029-0.543,0.089-0.732,0.178c-0.189,0.09-0.376,0.226-0.561,0.41s-0.337,0.388-0.459,0.613
			c-0.121,0.226-0.222,0.494-0.304,0.804c0.327-0.224,0.654-0.336,0.982-0.336c0.315,0,0.588,0.127,0.819,0.381
			c0.231,0.253,0.347,0.58,0.347,0.979c0,0.385-0.117,0.736-0.35,1.054c-0.281,0.385-0.652,0.578-1.115,0.578
			c-0.315,0-0.582-0.104-0.802-0.313c-0.431-0.406-0.646-0.931-0.646-1.577c0-0.412,0.083-0.804,0.249-1.176
			c0.165-0.372,0.401-0.701,0.708-0.989c0.307-0.288,0.601-0.481,0.882-0.581c0.281-0.1,0.542-0.15,0.785-0.15H40.759z
			 M38.645,52.438c-0.041,0.306-0.061,0.553-0.061,0.741c0,0.217,0.04,0.454,0.121,0.708s0.2,0.457,0.358,0.606
			c0.116,0.106,0.256,0.16,0.421,0.16c0.197,0,0.374-0.093,0.529-0.278c0.155-0.186,0.232-0.451,0.232-0.795
			c0-0.388-0.077-0.723-0.231-1.006s-0.373-0.425-0.656-0.425c-0.086,0-0.179,0.018-0.277,0.054
			C38.983,52.24,38.837,52.318,38.645,52.438z"/>
	</g>
	<g>
		<path d="M47.549,7.755c-0.32,0.247-0.52,0.39-0.602,0.428c-0.123,0.057-0.253,0.085-0.391,0.085c-0.215,0-0.393-0.073-0.532-0.221
			s-0.209-0.341-0.209-0.581c0-0.152,0.034-0.283,0.102-0.395c0.093-0.154,0.254-0.299,0.484-0.435
			c0.23-0.136,0.612-0.301,1.147-0.496V6.019c0-0.311-0.049-0.523-0.148-0.639c-0.099-0.115-0.242-0.173-0.43-0.173
			c-0.143,0-0.256,0.039-0.34,0.116c-0.086,0.077-0.129,0.166-0.129,0.265l0.007,0.197c0,0.104-0.027,0.185-0.08,0.242
			S46.307,6.11,46.22,6.11c-0.083,0-0.152-0.03-0.206-0.088c-0.053-0.059-0.08-0.14-0.08-0.241c0-0.195,0.1-0.374,0.299-0.537
			s0.479-0.245,0.839-0.245c0.276,0,0.503,0.046,0.68,0.139c0.134,0.07,0.232,0.18,0.296,0.33c0.041,0.098,0.061,0.297,0.061,0.598
			v1.057c0,0.297,0.006,0.479,0.017,0.545s0.03,0.111,0.056,0.134c0.026,0.022,0.056,0.034,0.09,0.034
			c0.036,0,0.068-0.008,0.095-0.023c0.047-0.03,0.139-0.112,0.275-0.248v0.19c-0.254,0.34-0.496,0.51-0.728,0.51
			c-0.111,0-0.199-0.039-0.265-0.115C47.585,8.072,47.551,7.941,47.549,7.755z M47.549,7.534V6.348
			c-0.342,0.136-0.563,0.232-0.663,0.289c-0.179,0.1-0.307,0.204-0.384,0.313c-0.077,0.108-0.116,0.228-0.116,0.357
			c0,0.163,0.049,0.298,0.146,0.406c0.097,0.108,0.209,0.162,0.336,0.162C47.042,7.874,47.268,7.761,47.549,7.534z"/>
		<path d="M77.115,5.627c0.301-0.419,0.626-0.628,0.976-0.628c0.319,0,0.598,0.136,0.836,0.409c0.238,0.273,0.357,0.646,0.357,1.12
			c0,0.553-0.184,0.998-0.551,1.335c-0.315,0.29-0.666,0.435-1.053,0.435c-0.182,0-0.365-0.033-0.552-0.099
			c-0.187-0.065-0.378-0.164-0.573-0.295V4.679c0-0.353-0.008-0.571-0.025-0.652s-0.044-0.137-0.08-0.167s-0.082-0.044-0.136-0.044
			c-0.063,0-0.143,0.018-0.238,0.054l-0.048-0.119l0.935-0.38h0.153V5.627z M77.115,5.845v1.862
			c0.116,0.113,0.235,0.199,0.359,0.256c0.124,0.058,0.25,0.087,0.379,0.087c0.206,0,0.398-0.113,0.576-0.34
			c0.178-0.227,0.267-0.556,0.267-0.989c0-0.398-0.089-0.705-0.267-0.919c-0.178-0.214-0.38-0.321-0.606-0.321
			c-0.12,0-0.24,0.031-0.36,0.092C77.372,5.619,77.256,5.709,77.115,5.845z"/>
	</g>
	<g>
		<path d="M7.909,35.063c-0.002,0.462,0.11,0.825,0.336,1.087s0.493,0.394,0.799,0.394c0.204,0,0.381-0.056,0.532-0.168
			c0.151-0.112,0.277-0.304,0.379-0.576l0.105,0.068c-0.047,0.311-0.186,0.593-0.415,0.848c-0.229,0.255-0.516,0.382-0.86,0.382
			c-0.374,0-0.694-0.146-0.96-0.437c-0.267-0.292-0.399-0.683-0.399-1.174c0-0.532,0.136-0.948,0.41-1.246
			c0.273-0.298,0.615-0.447,1.028-0.447c0.349,0,0.636,0.115,0.86,0.345s0.336,0.538,0.336,0.923H7.909z M7.909,34.866H9.35
			c-0.011-0.199-0.035-0.34-0.071-0.421c-0.057-0.127-0.141-0.227-0.253-0.299c-0.112-0.073-0.229-0.109-0.352-0.109
			c-0.188,0-0.356,0.073-0.504,0.219S7.934,34.605,7.909,34.866z"/>
	</g>
	<g>
		<path d="M53.823,27.087l1.122-0.547h0.112v3.892c0,0.258,0.011,0.419,0.032,0.482s0.066,0.112,0.134,0.146
			c0.068,0.034,0.206,0.053,0.415,0.058v0.126h-1.733v-0.126c0.218-0.004,0.358-0.023,0.421-0.056
			c0.063-0.033,0.108-0.077,0.133-0.133c0.025-0.055,0.037-0.221,0.037-0.498v-2.488c0-0.335-0.011-0.551-0.034-0.646
			c-0.016-0.072-0.045-0.125-0.087-0.16c-0.042-0.034-0.092-0.051-0.151-0.051c-0.084,0-0.201,0.035-0.35,0.105L53.823,27.087z"/>
	</g>
	<g>
		<path d="M63.926,46.824v0.482h-0.619v1.217h-0.561v-1.217h-1.951v-0.435l2.138-3.052h0.374v3.004H63.926z M62.747,46.824v-2.287
			l-1.618,2.287H62.747z"/>
		<path d="M86.746,43.915l-0.265,0.578h-1.387l-0.303,0.619c0.601,0.088,1.076,0.312,1.428,0.669
			c0.301,0.308,0.452,0.671,0.452,1.087c0,0.243-0.049,0.467-0.147,0.673c-0.099,0.206-0.223,0.381-0.373,0.526
			c-0.149,0.145-0.316,0.262-0.5,0.35c-0.26,0.125-0.528,0.187-0.802,0.187c-0.276,0-0.478-0.047-0.604-0.141
			c-0.125-0.094-0.188-0.198-0.188-0.311c0-0.063,0.026-0.119,0.078-0.168s0.118-0.073,0.197-0.073c0.059,0,0.11,0.009,0.155,0.027
			c0.044,0.018,0.119,0.064,0.226,0.139c0.17,0.118,0.342,0.177,0.517,0.177c0.265,0,0.498-0.1,0.699-0.301
			c0.2-0.2,0.301-0.444,0.301-0.732c0-0.278-0.09-0.539-0.269-0.78c-0.179-0.241-0.426-0.428-0.741-0.559
			c-0.247-0.102-0.583-0.161-1.009-0.177l0.884-1.791H86.746z"/>
	</g>
	<rect x="46.168" y="12.522" width="0.96" height="11.52"/>
	<rect x="0.088" y="0.042" width="0.96" height="58.56"/>
	<rect x="30.808" y="1.002" width="0.96" height="57.6"/>
	<rect x="61.528" y="1.002" width="0.96" height="23.04"/>
	<rect x="46.168" y="35.563" width="0.96" height="23.039"/>
	<rect x="76.888" y="12.522" width="0.96" height="46.079"/>
	<rect x="92.248" y="1.002" width="0.961" height="57.6"/>
	<rect x="15.448" y="24.042" width="0.96" height="34.56"/>
	<rect x="1.048" y="0.042" width="92.16" height="0.96"/>
	<rect x="31.768" y="11.562" width="61.44" height="0.961"/>
	<rect x="1.048" y="23.082" width="92.16" height="0.96"/>
	<rect x="16.408" y="34.602" width="76.8" height="0.96"/>
	<rect x="1.048" y="46.122" width="46.08" height="0.96"/>
	<rect x="1.048" y="57.642" width="92.16" height="0.96"/>
</g>
</svg>
