<?xml version="1.0" encoding="utf-8"?>
<!-- Generator: Adobe Illustrator 15.0.0, SVG Export Plug-In . SVG Version: 6.00 Build 0)  -->
<!DOCTYPE svg PUBLIC "-//W3C//DTD SVG 1.0//EN" "http://www.w3.org/TR/2001/REC-SVG-20010904/DTD/svg10.dtd">
<svg version="1.0" id="Layer_1" xmlns="http://www.w3.org/2000/svg" xmlns:xlink="http://www.w3.org/1999/xlink" x="0px" y="0px"
	 width="97.8px" height="54.24px" viewBox="0 0 97.8 54.24" enable-background="new 0 0 97.8 54.24" xml:space="preserve">
<g>
	<g>
		<path d="M17.152,5.007l0.105,1.567h-0.105c-0.141-0.469-0.341-0.807-0.602-1.013c-0.261-0.206-0.573-0.309-0.938-0.309
			c-0.306,0-0.583,0.078-0.829,0.232c-0.247,0.155-0.441,0.403-0.583,0.743s-0.212,0.763-0.212,1.268
			c0,0.417,0.067,0.778,0.201,1.084c0.133,0.306,0.334,0.541,0.603,0.704s0.575,0.245,0.919,0.245c0.299,0,0.563-0.064,0.792-0.192
			c0.229-0.128,0.48-0.382,0.754-0.763l0.105,0.068c-0.231,0.41-0.5,0.71-0.809,0.9s-0.674,0.286-1.098,0.286
			c-0.764,0-1.355-0.283-1.774-0.85c-0.313-0.421-0.469-0.917-0.469-1.489c0-0.46,0.103-0.882,0.309-1.268
			c0.207-0.385,0.49-0.684,0.852-0.896s0.756-0.318,1.184-0.318c0.333,0,0.662,0.082,0.986,0.245
			c0.095,0.05,0.163,0.075,0.204,0.075c0.062,0,0.115-0.021,0.16-0.065c0.059-0.061,0.101-0.146,0.125-0.255H17.152z"/>
		<path d="M18.419,5.564l1.122-0.547h0.112v3.892c0,0.258,0.011,0.419,0.032,0.482s0.066,0.112,0.134,0.146
			c0.068,0.034,0.206,0.053,0.415,0.058v0.126h-1.733V9.595c0.218-0.004,0.358-0.023,0.421-0.056
			c0.063-0.033,0.108-0.077,0.133-0.133c0.025-0.055,0.037-0.221,0.037-0.498V6.421c0-0.335-0.011-0.551-0.034-0.646
			c-0.016-0.072-0.045-0.125-0.087-0.16c-0.042-0.034-0.092-0.051-0.151-0.051c-0.084,0-0.201,0.035-0.35,0.105L18.419,5.564z"/>
		<path d="M49.425,5.007l0.105,1.567h-0.105c-0.141-0.469-0.341-0.807-0.602-1.013c-0.26-0.206-0.573-0.309-0.938-0.309
			c-0.306,0-0.583,0.078-0.829,0.232c-0.247,0.155-0.441,0.403-0.583,0.743s-0.212,0.763-0.212,1.268
			c0,0.417,0.067,0.778,0.201,1.084c0.133,0.306,0.334,0.541,0.603,0.704s0.575,0.245,0.919,0.245c0.299,0,0.563-0.064,0.792-0.192
			c0.229-0.128,0.479-0.382,0.754-0.763l0.105,0.068c-0.231,0.41-0.501,0.71-0.809,0.9c-0.309,0.19-0.674,0.286-1.098,0.286
			c-0.764,0-1.355-0.283-1.774-0.85c-0.313-0.421-0.469-0.917-0.469-1.489c0-0.46,0.103-0.882,0.309-1.268
			c0.207-0.385,0.49-0.684,0.852-0.896s0.756-0.318,1.184-0.318c0.333,0,0.662,0.082,0.985,0.245
			c0.096,0.05,0.163,0.075,0.204,0.075c0.062,0,0.114-0.021,0.16-0.065c0.059-0.061,0.101-0.146,0.126-0.255H49.425z"/>
		<path d="M53.069,8.833l-0.323,0.887h-2.719V9.595c0.8-0.729,1.363-1.325,1.689-1.787c0.326-0.462,0.489-0.885,0.489-1.268
			c0-0.292-0.09-0.532-0.269-0.72s-0.394-0.282-0.643-0.282c-0.227,0-0.43,0.066-0.61,0.199c-0.18,0.133-0.313,0.327-0.398,0.583
			H50.16c0.057-0.419,0.202-0.741,0.437-0.965c0.234-0.224,0.527-0.336,0.879-0.336c0.373,0,0.686,0.12,0.936,0.36
			c0.251,0.24,0.376,0.523,0.376,0.85c0,0.233-0.055,0.467-0.163,0.7c-0.168,0.367-0.439,0.755-0.815,1.166
			c-0.564,0.616-0.917,0.988-1.058,1.115h1.203c0.245,0,0.417-0.009,0.516-0.027c0.098-0.018,0.187-0.055,0.267-0.11
			c0.079-0.055,0.148-0.134,0.207-0.236H53.069z"/>
		<path d="M81.699,5.007l0.105,1.567h-0.105c-0.141-0.469-0.341-0.807-0.602-1.013s-0.573-0.309-0.938-0.309
			c-0.306,0-0.582,0.078-0.829,0.232c-0.247,0.155-0.441,0.403-0.583,0.743s-0.212,0.763-0.212,1.268c0,0.417,0.066,0.778,0.2,1.084
			c0.134,0.306,0.335,0.541,0.604,0.704s0.575,0.245,0.919,0.245c0.3,0,0.563-0.064,0.792-0.192s0.48-0.382,0.755-0.763L81.91,8.64
			c-0.231,0.41-0.501,0.71-0.81,0.9c-0.308,0.19-0.674,0.286-1.098,0.286c-0.764,0-1.354-0.283-1.773-0.85
			c-0.313-0.421-0.469-0.917-0.469-1.489c0-0.46,0.103-0.882,0.309-1.268s0.49-0.684,0.852-0.896s0.756-0.318,1.185-0.318
			c0.333,0,0.661,0.082,0.985,0.245c0.095,0.05,0.163,0.075,0.204,0.075c0.061,0,0.114-0.021,0.159-0.065
			c0.06-0.061,0.101-0.146,0.126-0.255H81.699z"/>
		<path d="M82.504,5.989c0.131-0.311,0.297-0.55,0.498-0.719c0.2-0.169,0.45-0.253,0.749-0.253c0.369,0,0.652,0.12,0.85,0.36
			c0.149,0.179,0.225,0.371,0.225,0.574c0,0.335-0.211,0.682-0.633,1.04c0.283,0.111,0.498,0.27,0.643,0.476
			c0.146,0.206,0.218,0.448,0.218,0.727c0,0.399-0.127,0.744-0.381,1.037c-0.331,0.38-0.81,0.571-1.438,0.571
			c-0.311,0-0.521-0.039-0.634-0.116c-0.112-0.077-0.168-0.16-0.168-0.248c0-0.065,0.026-0.124,0.08-0.173
			c0.053-0.05,0.117-0.075,0.191-0.075c0.057,0,0.114,0.009,0.174,0.027c0.038,0.011,0.125,0.053,0.262,0.124
			c0.136,0.071,0.229,0.114,0.282,0.127c0.083,0.025,0.173,0.038,0.268,0.038c0.231,0,0.433-0.09,0.604-0.269
			c0.171-0.179,0.257-0.391,0.257-0.636c0-0.179-0.04-0.354-0.119-0.523c-0.059-0.126-0.123-0.223-0.193-0.289
			C84.14,7.7,84.006,7.618,83.836,7.544s-0.343-0.11-0.52-0.11h-0.109V7.332c0.18-0.022,0.358-0.087,0.539-0.194
			c0.18-0.106,0.311-0.234,0.393-0.384c0.081-0.149,0.122-0.314,0.122-0.493c0-0.233-0.073-0.422-0.219-0.566
			c-0.146-0.144-0.328-0.216-0.546-0.216c-0.352,0-0.645,0.188-0.88,0.564L82.504,5.989z"/>
	</g>
	<g>
		<path d="M11.943,22.832c-0.32,0.247-0.52,0.39-0.602,0.428c-0.123,0.057-0.253,0.085-0.391,0.085
			c-0.215,0-0.393-0.073-0.532-0.221s-0.209-0.341-0.209-0.581c0-0.152,0.034-0.283,0.102-0.395
			c0.093-0.154,0.254-0.299,0.484-0.435c0.23-0.136,0.612-0.301,1.147-0.496v-0.122c0-0.311-0.049-0.523-0.148-0.639
			c-0.099-0.115-0.242-0.173-0.43-0.173c-0.143,0-0.256,0.039-0.34,0.116c-0.086,0.077-0.129,0.166-0.129,0.265l0.007,0.197
			c0,0.104-0.027,0.185-0.08,0.242s-0.123,0.085-0.209,0.085c-0.083,0-0.152-0.03-0.206-0.088c-0.053-0.059-0.08-0.14-0.08-0.241
			c0-0.195,0.1-0.374,0.299-0.537s0.479-0.245,0.839-0.245c0.276,0,0.503,0.046,0.68,0.139c0.134,0.07,0.232,0.18,0.296,0.33
			c0.041,0.098,0.061,0.297,0.061,0.598V22.2c0,0.297,0.006,0.479,0.017,0.545s0.03,0.111,0.056,0.134
			c0.026,0.022,0.056,0.034,0.09,0.034c0.036,0,0.068-0.008,0.095-0.023c0.047-0.03,0.139-0.112,0.275-0.248v0.19
			c-0.254,0.34-0.496,0.51-0.728,0.51c-0.111,0-0.199-0.039-0.265-0.115C11.979,23.149,11.945,23.018,11.943,22.832z M11.943,22.611
			v-1.186c-0.342,0.136-0.563,0.232-0.663,0.289c-0.179,0.1-0.307,0.204-0.384,0.313c-0.077,0.108-0.116,0.228-0.116,0.357
			c0,0.163,0.049,0.298,0.146,0.406c0.097,0.108,0.209,0.162,0.336,0.162C11.436,22.951,11.662,22.838,11.943,22.611z"/>
		<path d="M14.917,20.28h3.667v0.279h-3.667V20.28z M14.917,21.388h3.667v0.279h-3.667V21.388z"/>
		<path d="M21.272,19.125l1.122-0.547h0.112v3.892c0,0.258,0.011,0.419,0.032,0.482s0.066,0.112,0.134,0.146
			c0.068,0.034,0.206,0.053,0.415,0.058v0.126h-1.733v-0.126c0.218-0.004,0.358-0.023,0.421-0.056
			c0.063-0.033,0.108-0.077,0.133-0.133c0.025-0.055,0.037-0.221,0.037-0.498v-2.488c0-0.335-0.011-0.551-0.034-0.646
			c-0.016-0.072-0.045-0.125-0.087-0.16c-0.042-0.034-0.092-0.051-0.151-0.051c-0.084,0-0.201,0.035-0.35,0.105L21.272,19.125z"/>
		<path d="M43.187,20.705c0.301-0.419,0.626-0.628,0.976-0.628c0.319,0,0.598,0.136,0.836,0.409c0.238,0.273,0.357,0.646,0.357,1.12
			c0,0.553-0.184,0.998-0.551,1.335c-0.315,0.29-0.666,0.435-1.053,0.435c-0.182,0-0.365-0.033-0.552-0.099
			c-0.187-0.065-0.378-0.164-0.573-0.295v-3.226c0-0.353-0.008-0.571-0.025-0.652s-0.044-0.137-0.08-0.167s-0.082-0.044-0.136-0.044
			c-0.063,0-0.143,0.018-0.238,0.054l-0.048-0.119l0.935-0.38h0.153V20.705z M43.187,20.922v1.862
			c0.116,0.113,0.235,0.199,0.359,0.256c0.124,0.058,0.25,0.087,0.379,0.087c0.206,0,0.398-0.113,0.576-0.34
			c0.178-0.227,0.267-0.556,0.267-0.989c0-0.398-0.089-0.705-0.267-0.919c-0.178-0.214-0.38-0.321-0.606-0.321
			c-0.12,0-0.24,0.031-0.36,0.092C43.443,20.696,43.327,20.786,43.187,20.922z"/>
		<path d="M47.462,20.28h3.667v0.279h-3.667V20.28z M47.462,21.388h3.667v0.279h-3.667V21.388z"/>
		<path d="M56.193,22.394l-0.323,0.887h-2.719v-0.126c0.8-0.729,1.363-1.325,1.689-1.787c0.326-0.462,0.489-0.885,0.489-1.268
			c0-0.292-0.09-0.532-0.269-0.72s-0.394-0.282-0.643-0.282c-0.227,0-0.43,0.066-0.609,0.199c-0.181,0.133-0.313,0.327-0.399,0.583
			h-0.126c0.057-0.419,0.202-0.741,0.437-0.965c0.234-0.224,0.527-0.336,0.879-0.336c0.373,0,0.686,0.12,0.936,0.36
			c0.251,0.24,0.376,0.523,0.376,0.85c0,0.233-0.055,0.467-0.163,0.7c-0.168,0.367-0.439,0.755-0.815,1.166
			c-0.564,0.616-0.917,0.988-1.058,1.115h1.203c0.245,0,0.417-0.009,0.515-0.027c0.099-0.018,0.188-0.055,0.268-0.11
			c0.079-0.055,0.148-0.134,0.207-0.236H56.193z"/>
		<path d="M77.375,22.098c-0.084,0.41-0.248,0.726-0.492,0.946c-0.245,0.221-0.516,0.332-0.813,0.332
			c-0.354,0-0.662-0.148-0.925-0.445s-0.394-0.698-0.394-1.203c0-0.489,0.146-0.887,0.437-1.193
			c0.291-0.306,0.641-0.458,1.048-0.458c0.307,0,0.558,0.081,0.755,0.243c0.197,0.162,0.296,0.331,0.296,0.505
			c0,0.086-0.028,0.156-0.084,0.209c-0.055,0.053-0.133,0.08-0.232,0.08c-0.134,0-0.234-0.043-0.303-0.129
			c-0.038-0.047-0.063-0.138-0.076-0.272c-0.013-0.133-0.059-0.235-0.138-0.306c-0.079-0.068-0.189-0.102-0.329-0.102
			c-0.227,0-0.409,0.084-0.548,0.251c-0.184,0.222-0.275,0.516-0.275,0.88c0,0.372,0.092,0.699,0.274,0.984
			c0.182,0.284,0.429,0.426,0.738,0.426c0.223,0,0.422-0.076,0.599-0.228c0.124-0.104,0.246-0.293,0.363-0.568L77.375,22.098z"/>
		<path d="M79.47,20.28h3.667v0.279H79.47V20.28z M79.47,21.388h3.667v0.279H79.47V21.388z"/>
		<path d="M85.363,19.549c0.131-0.311,0.297-0.55,0.498-0.719c0.2-0.169,0.45-0.253,0.749-0.253c0.369,0,0.652,0.12,0.85,0.36
			c0.149,0.179,0.225,0.371,0.225,0.574c0,0.335-0.211,0.682-0.633,1.04c0.283,0.111,0.498,0.27,0.643,0.476
			c0.146,0.206,0.218,0.448,0.218,0.727c0,0.399-0.127,0.744-0.381,1.037c-0.331,0.38-0.81,0.571-1.438,0.571
			c-0.311,0-0.521-0.039-0.634-0.116c-0.112-0.077-0.168-0.16-0.168-0.248c0-0.065,0.026-0.124,0.08-0.173
			c0.053-0.05,0.117-0.075,0.191-0.075c0.057,0,0.114,0.009,0.174,0.027c0.038,0.011,0.125,0.053,0.262,0.124
			c0.136,0.071,0.229,0.114,0.282,0.127c0.083,0.025,0.173,0.038,0.268,0.038c0.231,0,0.433-0.09,0.604-0.269
			c0.171-0.179,0.257-0.391,0.257-0.636c0-0.179-0.04-0.354-0.119-0.523c-0.059-0.126-0.123-0.223-0.193-0.289
			c-0.098-0.091-0.231-0.173-0.401-0.247s-0.343-0.11-0.52-0.11h-0.109v-0.102c0.18-0.022,0.358-0.087,0.539-0.194
			c0.18-0.106,0.311-0.234,0.393-0.384c0.081-0.149,0.122-0.314,0.122-0.493c0-0.233-0.073-0.422-0.219-0.566
			c-0.146-0.144-0.328-0.216-0.546-0.216c-0.352,0-0.645,0.188-0.88,0.564L85.363,19.549z"/>
	</g>
	<g>
		<path d="M12.259,36.491c-0.152,0.159-0.3,0.273-0.445,0.342c-0.145,0.069-0.301,0.104-0.469,0.104c-0.34,0-0.637-0.142-0.89-0.426
			c-0.254-0.285-0.381-0.65-0.381-1.096c0-0.447,0.141-0.855,0.421-1.226c0.281-0.37,0.643-0.556,1.084-0.556
			c0.274,0,0.5,0.087,0.68,0.262v-0.574c0-0.355-0.009-0.574-0.026-0.656c-0.017-0.082-0.043-0.137-0.08-0.166
			s-0.082-0.045-0.136-0.045c-0.059,0-0.137,0.019-0.234,0.055l-0.044-0.119l0.928-0.381h0.153v3.6c0,0.365,0.008,0.588,0.025,0.668
			s0.044,0.137,0.082,0.168c0.038,0.031,0.081,0.047,0.131,0.047c0.061,0,0.143-0.019,0.245-0.057l0.038,0.118l-0.924,0.384h-0.156
			V36.491z M12.259,36.253v-1.604c-0.014-0.154-0.055-0.294-0.123-0.421s-0.158-0.223-0.27-0.287
			c-0.112-0.065-0.222-0.097-0.328-0.097c-0.199,0-0.377,0.09-0.534,0.268c-0.206,0.236-0.309,0.58-0.309,1.033
			c0,0.458,0.1,0.809,0.299,1.053c0.2,0.243,0.421,0.365,0.667,0.365C11.867,36.563,12.066,36.459,12.259,36.253z"/>
		<path d="M15.188,33.84h3.667v0.279h-3.667V33.84z M15.188,34.948h3.667v0.279h-3.667V34.948z"/>
		<path d="M23.966,35.142v0.482h-0.619v1.217h-0.561v-1.217h-1.951V35.19l2.138-3.053h0.374v3.005H23.966z M22.787,35.142v-2.287
			l-1.618,2.287H22.787z"/>
		<path d="M42.981,34.901c-0.002,0.462,0.11,0.824,0.336,1.088c0.227,0.262,0.493,0.394,0.799,0.394
			c0.204,0,0.381-0.056,0.532-0.168c0.151-0.112,0.277-0.304,0.379-0.576l0.105,0.067c-0.047,0.311-0.186,0.594-0.415,0.849
			c-0.229,0.255-0.516,0.382-0.86,0.382c-0.374,0-0.694-0.145-0.96-0.436c-0.267-0.292-0.399-0.684-0.399-1.175
			c0-0.532,0.136-0.948,0.41-1.245c0.273-0.299,0.615-0.447,1.028-0.447c0.349,0,0.636,0.115,0.86,0.345s0.336,0.538,0.336,0.923
			H42.981z M42.981,34.704h1.441c-0.011-0.199-0.035-0.34-0.071-0.422c-0.057-0.127-0.141-0.227-0.253-0.299
			c-0.112-0.072-0.229-0.108-0.352-0.108c-0.188,0-0.356,0.073-0.504,0.22C43.093,34.24,43.006,34.444,42.981,34.704z"/>
		<path d="M47.196,33.84h3.667v0.279h-3.667V33.84z M47.196,34.948h3.667v0.279h-3.667V34.948z"/>
		<path d="M55.756,32.233l-0.266,0.578h-1.387l-0.302,0.618c0.6,0.089,1.076,0.312,1.427,0.669c0.302,0.309,0.452,0.672,0.452,1.088
			c0,0.242-0.049,0.467-0.147,0.674c-0.099,0.205-0.223,0.381-0.372,0.525c-0.149,0.146-0.316,0.262-0.5,0.351
			c-0.261,0.124-0.527,0.187-0.802,0.187c-0.276,0-0.478-0.047-0.604-0.141s-0.188-0.197-0.188-0.311
			c0-0.063,0.026-0.119,0.078-0.168s0.118-0.074,0.197-0.074c0.059,0,0.11,0.01,0.154,0.027c0.044,0.019,0.12,0.064,0.227,0.14
			c0.17,0.118,0.342,0.177,0.517,0.177c0.265,0,0.497-0.1,0.698-0.301c0.2-0.2,0.301-0.444,0.301-0.732
			c0-0.278-0.09-0.539-0.269-0.779c-0.179-0.242-0.426-0.428-0.741-0.56c-0.247-0.103-0.583-0.161-1.009-0.177l0.883-1.791H55.756z"
			/>
		<path d="M76.435,33.973v2.046c0,0.29,0.031,0.474,0.095,0.55c0.084,0.1,0.196,0.15,0.337,0.15h0.281v0.122H75.29v-0.122h0.139
			c0.091,0,0.174-0.023,0.249-0.068c0.074-0.045,0.126-0.106,0.154-0.184c0.028-0.076,0.042-0.227,0.042-0.448v-2.046h-0.604v-0.244
			h0.604v-0.205c0-0.311,0.05-0.572,0.149-0.788c0.101-0.215,0.253-0.39,0.458-0.521c0.204-0.132,0.436-0.198,0.691-0.198
			c0.237,0,0.456,0.076,0.655,0.23c0.132,0.102,0.197,0.217,0.197,0.344c0,0.067-0.029,0.131-0.088,0.191
			c-0.06,0.061-0.123,0.09-0.19,0.09c-0.053,0-0.107-0.019-0.165-0.056c-0.058-0.038-0.129-0.118-0.212-0.241
			c-0.084-0.123-0.161-0.207-0.231-0.25s-0.148-0.064-0.234-0.064c-0.104,0-0.192,0.027-0.266,0.083
			c-0.072,0.056-0.124,0.142-0.156,0.259c-0.031,0.116-0.047,0.417-0.047,0.902v0.225h0.802v0.244H76.435z"/>
		<path d="M79.184,33.84h3.667v0.279h-3.667V33.84z M79.184,34.948h3.667v0.279h-3.667V34.948z"/>
		<path d="M87.843,32.137v0.127c-0.3,0.029-0.544,0.088-0.732,0.178c-0.189,0.09-0.376,0.227-0.562,0.41
			c-0.185,0.184-0.337,0.388-0.458,0.613c-0.121,0.225-0.223,0.493-0.305,0.803c0.326-0.224,0.654-0.336,0.982-0.336
			c0.314,0,0.588,0.127,0.819,0.381c0.23,0.254,0.347,0.58,0.347,0.979c0,0.385-0.117,0.736-0.351,1.054
			c-0.281,0.386-0.652,0.577-1.114,0.577c-0.315,0-0.583-0.104-0.803-0.313c-0.43-0.405-0.646-0.931-0.646-1.576
			c0-0.412,0.083-0.805,0.248-1.176c0.166-0.372,0.401-0.701,0.709-0.989c0.307-0.288,0.601-0.481,0.882-0.581
			s0.543-0.15,0.785-0.15H87.843z M85.729,34.516c-0.041,0.307-0.062,0.554-0.062,0.742c0,0.217,0.041,0.453,0.121,0.708
			s0.2,0.457,0.358,0.606c0.115,0.106,0.256,0.16,0.422,0.16c0.196,0,0.373-0.094,0.528-0.279s0.232-0.451,0.232-0.795
			c0-0.388-0.077-0.723-0.23-1.006c-0.154-0.283-0.373-0.425-0.656-0.425c-0.086,0-0.179,0.019-0.277,0.054
			C86.067,34.319,85.921,34.397,85.729,34.516z"/>
	</g>
	<g>
		<path d="M10.893,49.266c-0.19-0.093-0.336-0.223-0.438-0.389c-0.102-0.167-0.153-0.352-0.153-0.553
			c0-0.309,0.116-0.572,0.348-0.795s0.53-0.333,0.892-0.333c0.297,0,0.554,0.072,0.771,0.218h0.659c0.098,0,0.154,0.002,0.17,0.008
			c0.016,0.006,0.027,0.016,0.034,0.029c0.014,0.02,0.021,0.057,0.021,0.108c0,0.06-0.006,0.101-0.017,0.122
			c-0.007,0.012-0.019,0.021-0.036,0.027c-0.017,0.008-0.074,0.011-0.172,0.011h-0.404c0.127,0.163,0.19,0.372,0.19,0.625
			c0,0.29-0.111,0.538-0.333,0.744c-0.222,0.206-0.52,0.31-0.894,0.31c-0.154,0-0.312-0.023-0.472-0.068
			c-0.1,0.086-0.167,0.162-0.202,0.227c-0.035,0.064-0.053,0.119-0.053,0.164c0,0.039,0.019,0.076,0.056,0.113
			c0.037,0.035,0.11,0.062,0.219,0.078c0.063,0.008,0.222,0.017,0.476,0.023c0.467,0.012,0.769,0.027,0.907,0.047
			c0.211,0.029,0.379,0.107,0.505,0.234c0.125,0.127,0.188,0.283,0.188,0.47c0,0.256-0.12,0.496-0.36,0.72
			c-0.354,0.332-0.814,0.496-1.383,0.496c-0.438,0-0.807-0.098-1.108-0.295c-0.17-0.113-0.255-0.23-0.255-0.354
			c0-0.055,0.012-0.109,0.037-0.163c0.039-0.084,0.118-0.2,0.238-0.351c0.016-0.02,0.131-0.143,0.347-0.367
			c-0.118-0.069-0.201-0.133-0.25-0.188c-0.049-0.057-0.073-0.119-0.073-0.189c0-0.079,0.032-0.172,0.097-0.278
			C10.51,49.612,10.659,49.461,10.893,49.266z M10.858,50.401c-0.106,0.116-0.187,0.224-0.241,0.323S10.536,50.916,10.536,51
			c0,0.108,0.065,0.204,0.197,0.286c0.226,0.14,0.554,0.21,0.982,0.21c0.408,0,0.708-0.071,0.902-0.216s0.291-0.297,0.291-0.461
			c0-0.117-0.058-0.201-0.173-0.251c-0.118-0.05-0.351-0.079-0.7-0.089C11.524,50.465,11.132,50.44,10.858,50.401z M11.484,47.36
			c-0.168,0-0.308,0.066-0.421,0.2s-0.17,0.339-0.17,0.615c0,0.358,0.077,0.636,0.231,0.833c0.118,0.149,0.267,0.225,0.449,0.225
			c0.172,0,0.313-0.064,0.425-0.194c0.111-0.129,0.167-0.332,0.167-0.608c0-0.36-0.078-0.643-0.235-0.846
			C11.813,47.434,11.665,47.36,11.484,47.36z"/>
		<path d="M15.188,47.401h3.667v0.278h-3.667V47.401z M15.188,48.508h3.667v0.279h-3.667V48.508z"/>
		<path d="M21.427,45.793h2.471v0.129l-1.536,4.574h-0.381l1.376-4.149H22.09c-0.256,0-0.438,0.03-0.547,0.092
			c-0.19,0.104-0.343,0.265-0.458,0.482l-0.099-0.038L21.427,45.793z"/>
		<path d="M43.247,45.569v2.277c0.251-0.277,0.451-0.454,0.598-0.532c0.147-0.078,0.294-0.117,0.441-0.117
			c0.177,0,0.329,0.049,0.456,0.146c0.127,0.098,0.221,0.251,0.282,0.459c0.043,0.146,0.064,0.41,0.064,0.795v1.102
			c0,0.197,0.016,0.332,0.047,0.404c0.023,0.055,0.062,0.098,0.116,0.129c0.054,0.032,0.154,0.048,0.299,0.048v0.122h-1.529v-0.122
			h0.071c0.145,0,0.246-0.022,0.302-0.065c0.057-0.045,0.096-0.109,0.119-0.195c0.007-0.037,0.01-0.144,0.01-0.32v-1.102
			c0-0.34-0.018-0.563-0.053-0.669s-0.091-0.187-0.168-0.239c-0.077-0.054-0.17-0.08-0.278-0.08c-0.111,0-0.227,0.029-0.347,0.088
			c-0.12,0.06-0.264,0.178-0.432,0.357v1.645c0,0.213,0.012,0.346,0.036,0.398c0.023,0.051,0.068,0.096,0.132,0.131
			s0.176,0.052,0.335,0.052v0.122h-1.543v-0.122c0.138,0,0.247-0.021,0.326-0.064c0.045-0.022,0.082-0.065,0.109-0.129
			c0.027-0.063,0.041-0.192,0.041-0.388V46.88c0-0.355-0.008-0.574-0.025-0.655c-0.017-0.082-0.043-0.138-0.078-0.167
			s-0.082-0.044-0.141-0.044c-0.047,0-0.125,0.018-0.231,0.055l-0.048-0.119l0.932-0.381H43.247z"/>
		<path d="M47.461,47.401h3.667v0.278h-3.667V47.401z M47.461,48.508h3.667v0.279h-3.667V48.508z"/>
		<path d="M54.336,48.081c-0.365-0.299-0.601-0.539-0.705-0.721c-0.105-0.182-0.158-0.369-0.158-0.564
			c0-0.299,0.115-0.557,0.347-0.773c0.23-0.216,0.538-0.324,0.921-0.324c0.371,0,0.67,0.102,0.896,0.303s0.34,0.432,0.34,0.689
			c0,0.172-0.061,0.348-0.183,0.527c-0.123,0.179-0.378,0.39-0.765,0.632c0.398,0.308,0.662,0.551,0.791,0.728
			c0.173,0.23,0.259,0.475,0.259,0.73c0,0.324-0.124,0.602-0.37,0.831c-0.247,0.229-0.571,0.345-0.973,0.345
			c-0.437,0-0.778-0.137-1.022-0.411c-0.195-0.22-0.292-0.46-0.292-0.721c0-0.204,0.068-0.405,0.205-0.606S54,48.323,54.336,48.081z
			 M54.496,48.209c-0.188,0.158-0.327,0.331-0.418,0.518c-0.091,0.188-0.136,0.39-0.136,0.607c0,0.292,0.08,0.525,0.239,0.701
			c0.16,0.176,0.363,0.264,0.61,0.264c0.245,0,0.44-0.068,0.588-0.207s0.221-0.307,0.221-0.503c0-0.163-0.043-0.31-0.129-0.438
			C55.31,48.911,54.985,48.596,54.496,48.209z M54.87,47.717c0.271-0.246,0.444-0.438,0.517-0.58s0.108-0.302,0.108-0.48
			c0-0.238-0.066-0.425-0.2-0.56s-0.316-0.202-0.547-0.202c-0.231,0-0.42,0.066-0.564,0.201c-0.145,0.133-0.218,0.289-0.218,0.469
			c0,0.117,0.03,0.235,0.091,0.354c0.06,0.117,0.146,0.229,0.256,0.336L54.87,47.717z"/>
		<path d="M76.522,47.197v2.501c0,0.195,0.015,0.324,0.043,0.389s0.07,0.113,0.126,0.145c0.055,0.032,0.156,0.048,0.304,0.048v0.122
			h-1.512v-0.122c0.151,0,0.253-0.015,0.306-0.044c0.052-0.029,0.093-0.078,0.124-0.146c0.03-0.068,0.046-0.197,0.046-0.391v-1.199
			c0-0.338-0.011-0.557-0.031-0.656c-0.016-0.072-0.04-0.123-0.074-0.151s-0.081-0.042-0.14-0.042c-0.063,0-0.141,0.017-0.23,0.051
			l-0.048-0.123l0.938-0.38H76.522z M76.241,45.569c0.095,0,0.176,0.033,0.242,0.1c0.067,0.067,0.101,0.148,0.101,0.244
			c0,0.095-0.033,0.176-0.101,0.244c-0.066,0.068-0.147,0.102-0.242,0.102c-0.096,0-0.177-0.033-0.245-0.102
			s-0.102-0.149-0.102-0.244c0-0.096,0.033-0.177,0.1-0.244C76.061,45.602,76.143,45.569,76.241,45.569z"/>
		<path d="M79.03,47.401h3.667v0.278H79.03V47.401z M79.03,48.508h3.667v0.279H79.03V48.508z"/>
		<path d="M84.936,50.497v-0.126c0.294-0.005,0.568-0.073,0.822-0.206c0.254-0.132,0.499-0.363,0.735-0.694
			c0.237-0.331,0.402-0.694,0.495-1.091c-0.355,0.229-0.678,0.344-0.966,0.344c-0.323,0-0.602-0.126-0.832-0.376
			c-0.231-0.251-0.347-0.583-0.347-0.997c0-0.404,0.115-0.763,0.347-1.078c0.278-0.383,0.643-0.574,1.091-0.574
			c0.378,0,0.702,0.156,0.972,0.469c0.331,0.388,0.496,0.865,0.496,1.435c0,0.513-0.125,0.989-0.377,1.433s-0.602,0.811-1.05,1.103
			c-0.365,0.24-0.763,0.36-1.193,0.36H84.936z M87.042,48.127c0.041-0.294,0.062-0.529,0.062-0.707c0-0.219-0.037-0.457-0.112-0.711
			c-0.074-0.256-0.181-0.451-0.317-0.587c-0.138-0.136-0.293-0.204-0.468-0.204c-0.201,0-0.378,0.091-0.53,0.272
			c-0.151,0.181-0.228,0.45-0.228,0.809c0,0.478,0.102,0.853,0.303,1.122c0.147,0.194,0.328,0.291,0.544,0.291
			c0.104,0,0.228-0.024,0.37-0.074S86.934,48.218,87.042,48.127z"/>
	</g>
	<rect width="0.962" height="55.201"/>
	<rect x="32.282" y="0.96" width="0.959" height="54.241"/>
	<rect x="64.562" y="0.96" width="0.959" height="54.241"/>
	<rect x="96.841" y="0.96" width="0.959" height="54.241"/>
	<rect x="0.962" width="96.838" height="0.96"/>
	<rect x="0.962" y="13.56" width="96.838" height="0.96"/>
	<rect x="0.962" y="27.121" width="96.838" height="0.959"/>
	<rect x="0.962" y="40.679" width="96.838" height="0.961"/>
	<rect x="0.962" y="54.24" width="96.838" height="0.961"/>
</g>
</svg>
