<?xml version="1.0" encoding="utf-8"?>
<!-- Generator: Adobe Illustrator 15.0.0, SVG Export Plug-In . SVG Version: 6.00 Build 0)  -->
<!DOCTYPE svg PUBLIC "-//W3C//DTD SVG 1.0//EN" "http://www.w3.org/TR/2001/REC-SVG-20010904/DTD/svg10.dtd">
<svg version="1.0" id="Layer_1" xmlns="http://www.w3.org/2000/svg" xmlns:xlink="http://www.w3.org/1999/xlink" x="0px" y="0px"
	 width="96.24px" height="54.562px" viewBox="0 0 96.24 54.562" enable-background="new 0 0 96.24 54.562" xml:space="preserve">
<g>
	<g>
		<path d="M22.622,10.289h-1.794l-0.314,0.731c-0.078,0.18-0.116,0.314-0.116,0.403c0,0.071,0.034,0.133,0.101,0.186
			c0.067,0.054,0.213,0.088,0.436,0.104v0.126h-1.459v-0.126c0.194-0.034,0.319-0.079,0.376-0.133
			c0.116-0.109,0.245-0.332,0.386-0.667l1.63-3.814h0.12l1.613,3.855c0.13,0.31,0.248,0.511,0.354,0.604
			c0.105,0.092,0.253,0.144,0.442,0.155v0.126h-1.829v-0.126c0.185-0.009,0.309-0.04,0.375-0.092
			c0.064-0.052,0.097-0.116,0.097-0.191c0-0.1-0.045-0.259-0.137-0.475L22.622,10.289z M22.526,10.036L21.74,8.163l-0.807,1.873
			H22.526z"/>
	</g>
	<g>
		<path d="M8.653,18.715c0.321,0.068,0.562,0.178,0.721,0.328c0.221,0.209,0.332,0.466,0.332,0.769c0,0.23-0.073,0.451-0.219,0.662
			c-0.146,0.21-0.346,0.364-0.6,0.461c-0.254,0.097-0.642,0.146-1.164,0.146H5.536v-0.126H5.71c0.194,0,0.333-0.062,0.417-0.185
			c0.052-0.08,0.079-0.25,0.079-0.509v-2.994c0-0.287-0.033-0.468-0.099-0.543c-0.089-0.1-0.221-0.15-0.396-0.15H5.536v-0.126h2.003
			c0.374,0,0.673,0.027,0.899,0.082c0.342,0.082,0.603,0.228,0.783,0.436c0.18,0.209,0.27,0.449,0.27,0.72
			c0,0.232-0.071,0.44-0.212,0.624C9.137,18.49,8.929,18.626,8.653,18.715z M6.862,18.531c0.084,0.016,0.181,0.028,0.289,0.036
			c0.108,0.008,0.227,0.012,0.357,0.012c0.333,0,0.583-0.036,0.75-0.107c0.167-0.072,0.295-0.182,0.384-0.33s0.133-0.31,0.133-0.485
			c0-0.271-0.11-0.502-0.332-0.694s-0.543-0.287-0.967-0.287c-0.228,0-0.433,0.025-0.615,0.075V18.531z M6.862,20.746
			c0.264,0.062,0.525,0.092,0.783,0.092c0.413,0,0.727-0.093,0.943-0.279c0.216-0.186,0.325-0.415,0.325-0.688
			c0-0.18-0.049-0.353-0.147-0.52s-0.257-0.297-0.479-0.393s-0.495-0.144-0.82-0.144c-0.141,0-0.262,0.002-0.362,0.007
			s-0.181,0.013-0.243,0.024V20.746z"/>
	</g>
	<g>
		<path d="M42.072,15.95c-0.321,0.249-0.523,0.392-0.605,0.431c-0.123,0.057-0.254,0.085-0.393,0.085
			c-0.216,0-0.395-0.074-0.535-0.222c-0.141-0.148-0.21-0.343-0.21-0.584c0-0.153,0.034-0.285,0.103-0.396
			c0.093-0.155,0.256-0.301,0.487-0.438c0.231-0.137,0.616-0.303,1.154-0.499v-0.123c0-0.312-0.049-0.526-0.149-0.643
			c-0.099-0.116-0.243-0.174-0.432-0.174c-0.144,0-0.257,0.039-0.342,0.116c-0.086,0.078-0.13,0.167-0.13,0.267l0.007,0.198
			c0,0.105-0.027,0.186-0.081,0.243c-0.053,0.057-0.124,0.085-0.21,0.085c-0.084,0-0.153-0.03-0.207-0.089
			c-0.053-0.059-0.08-0.14-0.08-0.243c0-0.196,0.1-0.376,0.301-0.54s0.482-0.246,0.844-0.246c0.278,0,0.506,0.047,0.684,0.14
			c0.134,0.071,0.233,0.181,0.297,0.332c0.041,0.098,0.062,0.298,0.062,0.602v1.063c0,0.298,0.006,0.481,0.017,0.549
			c0.011,0.067,0.03,0.112,0.056,0.135c0.026,0.023,0.057,0.034,0.091,0.034c0.037,0,0.068-0.008,0.096-0.024
			c0.048-0.03,0.14-0.113,0.277-0.25v0.191c-0.255,0.342-0.499,0.513-0.731,0.513c-0.112,0-0.201-0.039-0.267-0.116
			S42.075,16.137,42.072,15.95z M42.072,15.728v-1.193c-0.344,0.137-0.566,0.233-0.667,0.291c-0.18,0.1-0.309,0.205-0.386,0.314
			s-0.116,0.229-0.116,0.359c0,0.164,0.049,0.3,0.147,0.408c0.098,0.108,0.211,0.163,0.338,0.163
			C41.562,16.069,41.79,15.956,42.072,15.728z"/>
		<path d="M44.007,12.221l1.128-0.55h0.113v3.914c0,0.26,0.011,0.421,0.032,0.485c0.022,0.064,0.067,0.113,0.135,0.147
			s0.208,0.054,0.417,0.058v0.126h-1.743v-0.126c0.219-0.004,0.36-0.023,0.424-0.056c0.064-0.033,0.108-0.078,0.133-0.134
			c0.025-0.056,0.038-0.223,0.038-0.5v-2.502c0-0.337-0.011-0.554-0.034-0.649c-0.016-0.073-0.045-0.126-0.087-0.161
			c-0.042-0.034-0.093-0.051-0.152-0.051c-0.084,0-0.202,0.035-0.352,0.106L44.007,12.221z"/>
		<path d="M63.19,15.95c-0.321,0.249-0.523,0.392-0.605,0.431c-0.123,0.057-0.254,0.085-0.393,0.085
			c-0.217,0-0.395-0.074-0.535-0.222s-0.21-0.343-0.21-0.584c0-0.153,0.034-0.285,0.103-0.396c0.094-0.155,0.256-0.301,0.486-0.438
			c0.232-0.137,0.617-0.303,1.154-0.499v-0.123c0-0.312-0.049-0.526-0.148-0.643s-0.244-0.174-0.433-0.174
			c-0.144,0-0.257,0.039-0.342,0.116c-0.087,0.078-0.13,0.167-0.13,0.267l0.007,0.198c0,0.105-0.026,0.186-0.081,0.243
			c-0.053,0.057-0.123,0.085-0.209,0.085c-0.085,0-0.154-0.03-0.207-0.089c-0.054-0.059-0.08-0.14-0.08-0.243
			c0-0.196,0.1-0.376,0.301-0.54c0.2-0.164,0.481-0.246,0.844-0.246c0.277,0,0.506,0.047,0.684,0.14
			c0.135,0.071,0.233,0.181,0.297,0.332c0.041,0.098,0.063,0.298,0.063,0.602v1.063c0,0.298,0.006,0.481,0.017,0.549
			c0.011,0.067,0.03,0.112,0.056,0.135c0.027,0.023,0.057,0.034,0.092,0.034c0.036,0,0.068-0.008,0.096-0.024
			c0.047-0.03,0.14-0.113,0.276-0.25v0.191c-0.255,0.342-0.499,0.513-0.731,0.513c-0.111,0-0.201-0.039-0.267-0.116
			S63.192,16.137,63.19,15.95z M63.19,15.728v-1.193c-0.344,0.137-0.566,0.233-0.666,0.291c-0.181,0.1-0.309,0.205-0.387,0.314
			s-0.116,0.229-0.116,0.359c0,0.164,0.049,0.3,0.147,0.408c0.098,0.108,0.211,0.163,0.338,0.163
			C62.681,16.069,62.907,15.956,63.19,15.728z"/>
		<path d="M67.515,15.509l-0.325,0.892h-2.734v-0.126c0.804-0.734,1.37-1.333,1.698-1.798s0.492-0.89,0.492-1.275
			c0-0.294-0.09-0.536-0.27-0.725s-0.396-0.284-0.646-0.284c-0.228,0-0.432,0.067-0.613,0.2c-0.182,0.134-0.314,0.329-0.401,0.586
			h-0.126c0.057-0.421,0.203-0.745,0.439-0.971c0.234-0.226,0.529-0.338,0.883-0.338c0.376,0,0.689,0.121,0.941,0.362
			s0.378,0.526,0.378,0.854c0,0.235-0.055,0.469-0.164,0.704c-0.169,0.369-0.442,0.76-0.82,1.172
			c-0.567,0.62-0.922,0.994-1.063,1.121h1.211c0.246,0,0.418-0.009,0.518-0.027s0.188-0.055,0.268-0.111
			c0.08-0.056,0.15-0.135,0.209-0.238H67.515z"/>
		<path d="M84.673,15.95c-0.322,0.249-0.523,0.392-0.605,0.431c-0.123,0.057-0.254,0.085-0.393,0.085
			c-0.217,0-0.395-0.074-0.535-0.222s-0.211-0.343-0.211-0.584c0-0.153,0.035-0.285,0.104-0.396
			c0.093-0.155,0.256-0.301,0.486-0.438c0.231-0.137,0.616-0.303,1.154-0.499v-0.123c0-0.312-0.051-0.526-0.148-0.643
			c-0.1-0.116-0.244-0.174-0.434-0.174c-0.143,0-0.257,0.039-0.342,0.116c-0.086,0.078-0.129,0.167-0.129,0.267l0.006,0.198
			c0,0.105-0.026,0.186-0.08,0.243c-0.053,0.057-0.123,0.085-0.21,0.085c-0.085,0-0.153-0.03-0.206-0.089
			c-0.055-0.059-0.081-0.14-0.081-0.243c0-0.196,0.101-0.376,0.301-0.54s0.481-0.246,0.845-0.246c0.277,0,0.506,0.047,0.684,0.14
			c0.134,0.071,0.232,0.181,0.297,0.332c0.041,0.098,0.062,0.298,0.062,0.602v1.063c0,0.298,0.006,0.481,0.017,0.549
			c0.012,0.067,0.031,0.112,0.057,0.135c0.026,0.023,0.057,0.034,0.091,0.034c0.036,0,0.068-0.008,0.096-0.024
			c0.048-0.03,0.14-0.113,0.276-0.25v0.191c-0.255,0.342-0.498,0.513-0.73,0.513c-0.112,0-0.201-0.039-0.268-0.116
			C84.709,16.269,84.675,16.137,84.673,15.95z M84.673,15.728v-1.193c-0.345,0.137-0.566,0.233-0.667,0.291
			c-0.181,0.1-0.309,0.205-0.386,0.314c-0.078,0.109-0.117,0.229-0.117,0.359c0,0.164,0.049,0.3,0.147,0.408
			c0.099,0.108,0.211,0.163,0.339,0.163C84.162,16.069,84.39,15.956,84.673,15.728z"/>
		<path d="M86.142,12.648c0.133-0.312,0.299-0.553,0.502-0.723c0.201-0.17,0.452-0.255,0.753-0.255c0.372,0,0.656,0.121,0.854,0.362
			c0.15,0.18,0.226,0.373,0.226,0.578c0,0.337-0.212,0.686-0.636,1.046c0.285,0.112,0.5,0.271,0.646,0.479
			c0.146,0.208,0.219,0.451,0.219,0.731c0,0.401-0.128,0.749-0.383,1.042c-0.333,0.383-0.814,0.574-1.446,0.574
			c-0.312,0-0.524-0.039-0.638-0.116s-0.169-0.161-0.169-0.25c0-0.066,0.026-0.124,0.081-0.174c0.053-0.05,0.117-0.075,0.192-0.075
			c0.058,0,0.115,0.009,0.175,0.027c0.038,0.011,0.126,0.053,0.263,0.125c0.137,0.071,0.231,0.114,0.284,0.128
			c0.084,0.025,0.174,0.038,0.27,0.038c0.232,0,0.435-0.09,0.607-0.27c0.172-0.18,0.258-0.393,0.258-0.639
			c0-0.18-0.041-0.355-0.12-0.526c-0.06-0.127-0.124-0.225-0.194-0.291c-0.099-0.091-0.232-0.174-0.404-0.248
			c-0.17-0.074-0.345-0.111-0.522-0.111H86.85v-0.103c0.181-0.023,0.36-0.088,0.542-0.195s0.313-0.236,0.395-0.386
			s0.123-0.315,0.123-0.496c0-0.235-0.074-0.424-0.221-0.569c-0.146-0.145-0.33-0.217-0.549-0.217c-0.353,0-0.648,0.189-0.885,0.567
			L86.142,12.648z"/>
	</g>
	<g>
		<path d="M14.637,32.649c0.303-0.421,0.63-0.632,0.981-0.632c0.321,0,0.602,0.138,0.841,0.411c0.239,0.275,0.359,0.65,0.359,1.127
			c0,0.557-0.185,1.004-0.554,1.344c-0.317,0.291-0.67,0.438-1.06,0.438c-0.182,0-0.368-0.033-0.555-0.1
			c-0.188-0.066-0.38-0.165-0.576-0.297v-3.244c0-0.355-0.009-0.574-0.025-0.656c-0.018-0.082-0.044-0.138-0.081-0.168
			c-0.037-0.029-0.082-0.044-0.137-0.044c-0.064,0-0.144,0.019-0.239,0.055l-0.048-0.12l0.94-0.383h0.154V32.649z M14.637,32.868
			v1.873c0.116,0.114,0.236,0.201,0.361,0.258c0.124,0.059,0.251,0.088,0.381,0.088c0.208,0,0.4-0.113,0.579-0.342
			c0.179-0.229,0.269-0.56,0.269-0.994c0-0.401-0.089-0.709-0.269-0.926c-0.179-0.215-0.382-0.322-0.61-0.322
			c-0.121,0-0.242,0.031-0.362,0.092C14.894,32.641,14.778,32.731,14.637,32.868z"/>
		<path d="M17.88,31.061l1.128-0.55h0.113v3.913c0,0.26,0.011,0.421,0.033,0.485c0.021,0.064,0.066,0.113,0.135,0.146
			c0.068,0.035,0.208,0.055,0.417,0.059v0.127h-1.743v-0.127c0.219-0.004,0.36-0.023,0.424-0.057s0.108-0.077,0.133-0.133
			c0.025-0.057,0.038-0.223,0.038-0.501v-2.502c0-0.337-0.011-0.554-0.034-0.649c-0.016-0.072-0.045-0.127-0.087-0.16
			c-0.042-0.035-0.093-0.052-0.152-0.052c-0.084,0-0.202,0.035-0.352,0.106L17.88,31.061z"/>
		<path d="M42.618,31.061l1.128-0.55h0.113v3.913c0,0.26,0.011,0.421,0.032,0.485c0.022,0.064,0.067,0.113,0.135,0.146
			c0.068,0.035,0.208,0.055,0.417,0.059v0.127H42.7v-0.127c0.219-0.004,0.36-0.023,0.424-0.057s0.108-0.077,0.133-0.133
			c0.025-0.057,0.038-0.223,0.038-0.501v-2.502c0-0.337-0.011-0.554-0.034-0.649c-0.016-0.072-0.045-0.127-0.087-0.16
			c-0.042-0.035-0.093-0.052-0.152-0.052c-0.084,0-0.202,0.035-0.352,0.106L42.618,31.061z"/>
		<path d="M66.126,34.349l-0.324,0.893h-2.734v-0.127c0.805-0.734,1.371-1.333,1.699-1.798s0.492-0.89,0.492-1.274
			c0-0.295-0.09-0.536-0.271-0.725c-0.181-0.189-0.396-0.284-0.646-0.284c-0.229,0-0.434,0.067-0.613,0.2
			c-0.182,0.133-0.316,0.328-0.402,0.586H63.2c0.058-0.422,0.203-0.745,0.439-0.971s0.531-0.338,0.884-0.338
			c0.376,0,0.69,0.12,0.942,0.361c0.251,0.242,0.377,0.527,0.377,0.855c0,0.234-0.055,0.469-0.164,0.703
			c-0.168,0.369-0.441,0.76-0.82,1.173c-0.567,0.62-0.922,0.993-1.063,1.121h1.209c0.246,0,0.42-0.009,0.518-0.027
			c0.1-0.019,0.189-0.056,0.27-0.11c0.079-0.057,0.148-0.136,0.208-0.238H66.126z"/>
		<path d="M84.749,31.487c0.132-0.312,0.299-0.553,0.5-0.723s0.453-0.254,0.754-0.254c0.371,0,0.656,0.12,0.854,0.361
			c0.15,0.181,0.226,0.373,0.226,0.578c0,0.338-0.212,0.686-0.636,1.046c0.284,0.112,0.5,0.271,0.646,0.479
			c0.146,0.208,0.219,0.451,0.219,0.731c0,0.4-0.127,0.748-0.383,1.043c-0.332,0.383-0.814,0.574-1.445,0.574
			c-0.313,0-0.525-0.039-0.637-0.117c-0.113-0.077-0.17-0.16-0.17-0.249c0-0.065,0.027-0.124,0.08-0.175
			c0.054-0.05,0.118-0.074,0.193-0.074c0.057,0,0.115,0.009,0.174,0.027c0.039,0.011,0.127,0.053,0.264,0.125
			c0.137,0.07,0.231,0.113,0.283,0.127c0.085,0.025,0.175,0.038,0.271,0.038c0.232,0,0.435-0.09,0.606-0.271
			c0.172-0.18,0.258-0.393,0.258-0.639c0-0.18-0.039-0.355-0.119-0.526c-0.059-0.128-0.124-0.225-0.195-0.29
			c-0.098-0.092-0.232-0.174-0.402-0.248c-0.172-0.074-0.346-0.111-0.523-0.111h-0.109v-0.103c0.18-0.022,0.361-0.088,0.541-0.194
			c0.182-0.107,0.313-0.236,0.396-0.387s0.123-0.315,0.123-0.496c0-0.234-0.073-0.424-0.22-0.568
			c-0.148-0.145-0.33-0.217-0.549-0.217c-0.354,0-0.648,0.188-0.886,0.566L84.749,31.487z"/>
	</g>
	<g>
		<path d="M14.637,47.17c0.303-0.421,0.63-0.632,0.981-0.632c0.321,0,0.602,0.137,0.841,0.412c0.239,0.273,0.359,0.649,0.359,1.125
			c0,0.557-0.185,1.004-0.554,1.344c-0.317,0.291-0.67,0.438-1.06,0.438c-0.182,0-0.368-0.033-0.555-0.1
			c-0.188-0.065-0.38-0.164-0.576-0.297v-3.244c0-0.355-0.009-0.574-0.025-0.656c-0.018-0.082-0.044-0.137-0.081-0.167
			s-0.082-0.044-0.137-0.044c-0.064,0-0.144,0.018-0.239,0.055l-0.048-0.12l0.94-0.383h0.154V47.17z M14.637,47.389v1.873
			c0.116,0.114,0.236,0.2,0.361,0.259c0.124,0.057,0.251,0.086,0.381,0.086c0.208,0,0.4-0.113,0.579-0.342
			c0.179-0.228,0.269-0.559,0.269-0.994c0-0.4-0.089-0.709-0.269-0.924c-0.179-0.217-0.382-0.324-0.61-0.324
			c-0.121,0-0.242,0.031-0.362,0.093C14.894,47.161,14.778,47.252,14.637,47.389z"/>
		<path d="M20.27,48.868l-0.325,0.893H17.21v-0.127c0.804-0.733,1.371-1.332,1.699-1.797s0.492-0.891,0.492-1.275
			c0-0.294-0.09-0.535-0.27-0.725s-0.396-0.283-0.646-0.283c-0.228,0-0.432,0.066-0.614,0.199c-0.181,0.133-0.315,0.329-0.401,0.586
			h-0.126c0.057-0.421,0.204-0.744,0.439-0.971c0.236-0.225,0.531-0.338,0.884-0.338c0.376,0,0.69,0.121,0.941,0.362
			c0.252,0.241,0.378,0.526,0.378,0.854c0,0.234-0.055,0.469-0.164,0.704c-0.168,0.369-0.442,0.76-0.82,1.173
			c-0.567,0.619-0.922,0.993-1.063,1.121h1.21c0.246,0,0.418-0.01,0.518-0.027c0.099-0.019,0.188-0.056,0.268-0.111
			c0.08-0.057,0.149-0.135,0.208-0.238H20.27z"/>
		<path d="M45.055,48.052v0.485h-0.622v1.224h-0.564v-1.224h-1.962V48.1l2.15-3.069h0.376v3.021H45.055z M43.869,48.052v-2.301
			l-1.627,2.301H43.869z"/>
		<path d="M65.956,45.126l-0.268,0.581h-1.395l-0.304,0.622c0.604,0.089,1.083,0.313,1.436,0.674
			c0.304,0.31,0.454,0.674,0.454,1.094c0,0.243-0.049,0.469-0.148,0.676c-0.1,0.208-0.224,0.385-0.374,0.53
			s-0.317,0.263-0.503,0.353c-0.262,0.125-0.53,0.188-0.807,0.188c-0.277,0-0.48-0.047-0.605-0.143
			c-0.127-0.094-0.19-0.198-0.19-0.313c0-0.063,0.026-0.119,0.079-0.168c0.052-0.05,0.118-0.074,0.197-0.074
			c0.06,0,0.111,0.01,0.156,0.027s0.12,0.064,0.227,0.141c0.172,0.118,0.345,0.178,0.52,0.178c0.268,0,0.502-0.102,0.703-0.303
			s0.303-0.447,0.303-0.736c0-0.281-0.09-0.543-0.271-0.785s-0.429-0.43-0.745-0.563c-0.248-0.102-0.587-0.161-1.016-0.178
			l0.889-1.801H65.956z"/>
		<path d="M87.53,45.03v0.127c-0.301,0.029-0.546,0.089-0.736,0.18c-0.189,0.09-0.378,0.227-0.564,0.411
			c-0.186,0.185-0.339,0.39-0.461,0.616c-0.121,0.228-0.224,0.497-0.306,0.809c0.328-0.225,0.657-0.338,0.987-0.338
			c0.317,0,0.592,0.127,0.824,0.383s0.349,0.584,0.349,0.984c0,0.387-0.117,0.74-0.353,1.06c-0.282,0.388-0.656,0.581-1.121,0.581
			c-0.316,0-0.585-0.105-0.807-0.314c-0.433-0.408-0.648-0.937-0.648-1.586c0-0.414,0.082-0.809,0.249-1.183
			s0.403-0.705,0.712-0.995c0.31-0.289,0.605-0.484,0.888-0.584s0.546-0.15,0.79-0.15H87.53z M85.405,47.423
			c-0.041,0.308-0.063,0.557-0.063,0.745c0,0.219,0.041,0.456,0.121,0.712c0.082,0.258,0.201,0.461,0.361,0.611
			c0.116,0.106,0.258,0.16,0.424,0.16c0.198,0,0.375-0.094,0.531-0.28s0.234-0.454,0.234-0.8c0-0.39-0.078-0.727-0.232-1.012
			s-0.375-0.428-0.66-0.428c-0.086,0-0.18,0.019-0.277,0.055C85.745,47.224,85.599,47.302,85.405,47.423z"/>
	</g>
	<rect width="0.959" height="55.041"/>
	<rect x="32.279" width="0.961" height="55.041"/>
	<rect x="53.279" width="0.961" height="55.041"/>
	<rect x="74.279" width="0.961" height="55.041"/>
	<rect x="95.279" width="0.961" height="55.041"/>
	<rect x="0.959" width="95.281" height="0.96"/>
	<rect x="0.959" y="25.04" width="95.281" height="0.96"/>
	<rect x="0.959" y="39.562" width="95.281" height="0.959"/>
	<rect x="0.959" y="54.081" width="95.281" height="0.96"/>
	<polygon fill-rule="evenodd" clip-rule="evenodd" points="0.479,0.713 1.199,0.713 32.76,25.008 32.76,25.521 32.039,25.521 
		0.479,1.226 	"/>
</g>
</svg>
