<?xml version="1.0" encoding="utf-8"?>
<!-- Generator: Adobe Illustrator 15.0.0, SVG Export Plug-In . SVG Version: 6.00 Build 0)  -->
<!DOCTYPE svg PUBLIC "-//W3C//DTD SVG 1.0//EN" "http://www.w3.org/TR/2001/REC-SVG-20010904/DTD/svg10.dtd">
<svg version="1.0" id="Layer_1" xmlns="http://www.w3.org/2000/svg" xmlns:xlink="http://www.w3.org/1999/xlink" x="0px" y="0px"
	 width="96.214px" height="42.156px" viewBox="0 0 96.214 42.156" enable-background="new 0 0 96.214 42.156" xml:space="preserve">
<g>
	<g>
		<g>
			<defs>
				<polygon id="SVGID_1_" points="0.662,0.69 52.252,0.69 52.252,42.156 0.662,42.156 0.662,0.69 				"/>
			</defs>
			<clipPath id="SVGID_2_">
				<use xlink:href="#SVGID_1_"  overflow="visible"/>
			</clipPath>
			<polyline clip-path="url(#SVGID_2_)" fill-rule="evenodd" clip-rule="evenodd" fill="#818181" points="17.197,13.822 
				17.197,28.335 35.055,28.335 35.055,13.822 17.197,13.822 			"/>
			<g clip-path="url(#SVGID_2_)">
				<path fill="#010101" d="M26.652,10.535c-0.352,0.284-0.572,0.448-0.662,0.492c-0.134,0.065-0.278,0.098-0.43,0.098
					c-0.237,0-0.432-0.084-0.585-0.254s-0.23-0.392-0.23-0.668c0-0.174,0.037-0.326,0.112-0.453c0.102-0.177,0.279-0.344,0.533-0.5
					c0.253-0.156,0.673-0.346,1.262-0.57V8.539c0-0.357-0.054-0.602-0.163-0.734s-0.266-0.199-0.473-0.199
					c-0.157,0-0.282,0.044-0.374,0.133C25.547,7.827,25.5,7.928,25.5,8.043l0.008,0.227c0,0.12-0.029,0.212-0.088,0.277
					s-0.135,0.098-0.23,0.098c-0.092,0-0.167-0.034-0.226-0.102s-0.088-0.16-0.088-0.277c0-0.224,0.109-0.43,0.329-0.617
					c0.219-0.188,0.527-0.281,0.923-0.281c0.304,0,0.553,0.053,0.748,0.16c0.147,0.081,0.255,0.207,0.325,0.379
					c0.045,0.112,0.067,0.341,0.067,0.688v1.215c0,0.341,0.006,0.55,0.019,0.627c0.013,0.077,0.033,0.128,0.062,0.154
					c0.029,0.026,0.062,0.039,0.099,0.039c0.04,0,0.075-0.009,0.105-0.027c0.052-0.034,0.153-0.129,0.303-0.285v0.219
					c-0.279,0.391-0.546,0.586-0.8,0.586c-0.122,0-0.219-0.044-0.292-0.133S26.654,10.749,26.652,10.535z M26.652,10.281V8.918
					c-0.376,0.156-0.62,0.267-0.729,0.332c-0.197,0.115-0.338,0.234-0.423,0.359c-0.084,0.125-0.127,0.262-0.127,0.41
					c0,0.188,0.054,0.343,0.161,0.467c0.107,0.124,0.23,0.186,0.37,0.186C26.093,10.672,26.343,10.542,26.652,10.281z"/>
			</g>
			<g clip-path="url(#SVGID_2_)">
				<path fill="#010101" d="M42.194,8.09c0.331-0.482,0.689-0.723,1.073-0.723c0.352,0,0.658,0.157,0.919,0.471
					c0.262,0.314,0.393,0.743,0.393,1.287c0,0.635-0.202,1.147-0.605,1.535c-0.346,0.333-0.733,0.5-1.159,0.5
					c-0.2,0-0.402-0.038-0.607-0.113c-0.206-0.076-0.416-0.189-0.63-0.34V7c0-0.406-0.009-0.656-0.028-0.75
					s-0.048-0.158-0.088-0.191s-0.09-0.051-0.149-0.051c-0.07,0-0.157,0.021-0.262,0.063l-0.052-0.137l1.028-0.438h0.168V8.09z
					 M42.194,8.34v2.141c0.127,0.13,0.258,0.229,0.394,0.295c0.136,0.066,0.275,0.1,0.417,0.1c0.227,0,0.438-0.13,0.634-0.391
					c0.195-0.26,0.293-0.639,0.293-1.137c0-0.458-0.098-0.811-0.293-1.057c-0.196-0.246-0.418-0.369-0.667-0.369
					c-0.132,0-0.264,0.035-0.396,0.105C42.475,8.08,42.348,8.184,42.194,8.34z"/>
			</g>
			<g clip-path="url(#SVGID_2_)">
				<path fill="#010101" d="M10.427,23.511c-0.092,0.472-0.273,0.834-0.542,1.088c-0.269,0.254-0.567,0.381-0.893,0.381
					c-0.389,0-0.728-0.171-1.017-0.512s-0.434-0.802-0.434-1.383c0-0.563,0.16-1.02,0.48-1.371s0.705-0.527,1.153-0.527
					c0.336,0,0.613,0.093,0.83,0.279s0.325,0.379,0.325,0.58c0,0.099-0.03,0.179-0.091,0.24s-0.146,0.092-0.256,0.092
					c-0.147,0-0.258-0.049-0.333-0.148c-0.042-0.055-0.07-0.159-0.084-0.313S9.5,21.646,9.414,21.565
					c-0.087-0.078-0.208-0.117-0.363-0.117c-0.249,0-0.45,0.096-0.602,0.289c-0.202,0.255-0.303,0.592-0.303,1.012
					c0,0.427,0.101,0.804,0.301,1.131c0.2,0.327,0.471,0.49,0.813,0.49c0.244,0,0.463-0.087,0.658-0.262
					c0.137-0.12,0.271-0.337,0.4-0.652L10.427,23.511z"/>
			</g>
			<g clip-path="url(#SVGID_2_)">
				<path fill="#010101" d="M25.369,20.093l1.234-0.629h0.124v4.473c0,0.297,0.012,0.481,0.035,0.555
					c0.024,0.073,0.073,0.129,0.148,0.168s0.227,0.062,0.456,0.066v0.145h-1.907v-0.145c0.239-0.005,0.394-0.026,0.464-0.064
					c0.069-0.038,0.118-0.089,0.146-0.152s0.041-0.255,0.041-0.572v-2.859c0-0.385-0.012-0.633-0.037-0.742
					c-0.018-0.083-0.049-0.145-0.095-0.184c-0.046-0.039-0.102-0.059-0.167-0.059c-0.092,0-0.221,0.041-0.385,0.121L25.369,20.093z"
					/>
			</g>
			<g clip-path="url(#SVGID_2_)">
				<path fill="#010101" d="M45.183,23.851l-0.355,1.02h-2.991v-0.145c0.88-0.839,1.499-1.523,1.858-2.055s0.539-1.017,0.539-1.457
					c0-0.336-0.099-0.612-0.295-0.828c-0.197-0.216-0.433-0.324-0.707-0.324c-0.25,0-0.473,0.076-0.671,0.229
					c-0.198,0.152-0.344,0.375-0.439,0.67h-0.139c0.063-0.482,0.223-0.852,0.48-1.109c0.258-0.258,0.58-0.387,0.966-0.387
					c0.412,0,0.755,0.138,1.03,0.414s0.413,0.602,0.413,0.977c0,0.268-0.06,0.537-0.18,0.805c-0.185,0.422-0.483,0.868-0.897,1.34
					c-0.621,0.708-1.008,1.136-1.163,1.281h1.323c0.269,0,0.458-0.011,0.566-0.031s0.206-0.063,0.293-0.127s0.163-0.154,0.228-0.271
					H45.183z"/>
			</g>
			<g clip-path="url(#SVGID_2_)">
				<path fill="#010101" d="M9.274,38.299c-0.167,0.182-0.331,0.313-0.49,0.393c-0.16,0.08-0.332,0.119-0.516,0.119
					c-0.374,0-0.7-0.164-0.979-0.49s-0.418-0.746-0.418-1.26s0.154-0.982,0.463-1.408s0.707-0.639,1.192-0.639
					c0.302,0,0.551,0.1,0.748,0.301v-0.66c0-0.408-0.01-0.66-0.028-0.754s-0.048-0.158-0.088-0.191
					c-0.04-0.033-0.09-0.051-0.149-0.051c-0.065,0-0.151,0.021-0.258,0.063l-0.049-0.137l1.021-0.438h0.168v4.137
					c0,0.42,0.009,0.676,0.028,0.768c0.019,0.092,0.049,0.156,0.09,0.193s0.089,0.055,0.144,0.055c0.067,0,0.157-0.021,0.269-0.066
					l0.041,0.137l-1.017,0.441H9.274V38.299z M9.274,38.025v-1.844c-0.015-0.178-0.06-0.338-0.135-0.484s-0.174-0.256-0.297-0.33
					c-0.123-0.074-0.244-0.111-0.361-0.111c-0.219,0-0.415,0.104-0.587,0.309c-0.227,0.271-0.34,0.666-0.34,1.188
					c0,0.525,0.109,0.93,0.329,1.209c0.22,0.279,0.464,0.42,0.733,0.42C8.843,38.381,9.063,38.262,9.274,38.025z"/>
			</g>
			<g clip-path="url(#SVGID_2_)">
				<path fill="#010101" d="M24.861,34.412c0.145-0.357,0.327-0.633,0.548-0.826s0.495-0.291,0.824-0.291
					c0.406,0,0.718,0.139,0.935,0.414c0.165,0.205,0.247,0.426,0.247,0.66c0,0.385-0.231,0.783-0.695,1.195
					c0.312,0.127,0.547,0.311,0.707,0.547c0.16,0.236,0.239,0.516,0.239,0.836c0,0.459-0.139,0.855-0.418,1.191
					c-0.364,0.438-0.891,0.656-1.582,0.656c-0.341,0-0.574-0.045-0.697-0.133c-0.123-0.088-0.185-0.184-0.185-0.285
					c0-0.076,0.029-0.143,0.088-0.199s0.129-0.086,0.211-0.086c0.062,0,0.126,0.01,0.19,0.031c0.042,0.014,0.139,0.061,0.288,0.143
					s0.253,0.131,0.31,0.146c0.092,0.029,0.191,0.043,0.295,0.043c0.254,0,0.476-0.104,0.664-0.309
					c0.188-0.205,0.282-0.449,0.282-0.73c0-0.205-0.043-0.406-0.131-0.602c-0.064-0.146-0.136-0.256-0.213-0.332
					c-0.107-0.104-0.254-0.199-0.441-0.283c-0.187-0.084-0.377-0.127-0.572-0.127h-0.12v-0.117c0.197-0.025,0.395-0.1,0.593-0.223
					c0.198-0.123,0.342-0.27,0.432-0.441s0.135-0.361,0.135-0.566c0-0.268-0.081-0.484-0.241-0.65
					c-0.161-0.166-0.361-0.248-0.6-0.248c-0.386,0-0.709,0.217-0.968,0.648L24.861,34.412z"/>
			</g>
			<g clip-path="url(#SVGID_2_)">
				<path fill="#010101" d="M45.235,36.748v0.555h-0.68v1.398h-0.617v-1.398h-2.146v-0.5l2.352-3.508h0.411v3.453H45.235z
					 M43.938,36.748v-2.629l-1.78,2.629H43.938z"/>
			</g>
		</g>
		<g>
			<defs>
				<polygon id="SVGID_3_" points="0,0 52.252,0 52.252,42.156 0,42.156 0,0 				"/>
			</defs>
			<clipPath id="SVGID_4_">
				<use xlink:href="#SVGID_3_"  overflow="visible"/>
			</clipPath>
			<polyline clip-path="url(#SVGID_4_)" fill-rule="evenodd" clip-rule="evenodd" fill="#D4D4D4" points="0,0 0,0 0.662,0 0.662,0 
				0,0 			"/>
			<polyline clip-path="url(#SVGID_4_)" fill-rule="evenodd" clip-rule="evenodd" fill="#D4D4D4" points="17.197,0 17.197,0 
				17.858,0 17.858,0 17.197,0 			"/>
			<polyline clip-path="url(#SVGID_4_)" fill-rule="evenodd" clip-rule="evenodd" fill="#D4D4D4" points="34.394,0 34.394,0 
				35.055,0 35.055,0 34.394,0 			"/>
			
				<line clip-path="url(#SVGID_4_)" fill="none" stroke="#010101" stroke-width="0" stroke-linecap="square" stroke-miterlimit="10" x1="0.662" y1="0" x2="52.252" y2="0"/>
			<polyline clip-path="url(#SVGID_4_)" fill-rule="evenodd" clip-rule="evenodd" fill="#010101" points="0.662,0 0.662,0.69 
				52.252,0.69 52.252,0 0.662,0 			"/>
			<polyline clip-path="url(#SVGID_4_)" fill-rule="evenodd" clip-rule="evenodd" fill="#D4D4D4" points="51.591,0 51.591,0 
				52.252,0 52.252,0 51.591,0 			"/>
			
				<line clip-path="url(#SVGID_4_)" fill="none" stroke="#010101" stroke-width="0" stroke-linecap="square" stroke-miterlimit="10" x1="0.662" y1="13.822" x2="52.252" y2="13.822"/>
			<polyline clip-path="url(#SVGID_4_)" fill-rule="evenodd" clip-rule="evenodd" fill="#010101" points="0.662,13.822 
				0.662,14.513 52.252,14.513 52.252,13.822 0.662,13.822 			"/>
			
				<line clip-path="url(#SVGID_4_)" fill="none" stroke="#010101" stroke-width="0" stroke-linecap="square" stroke-miterlimit="10" x1="0.662" y1="27.645" x2="52.252" y2="27.645"/>
			<polyline clip-path="url(#SVGID_4_)" fill-rule="evenodd" clip-rule="evenodd" fill="#010101" points="0.662,27.645 
				0.662,28.335 52.252,28.335 52.252,27.645 0.662,27.645 			"/>
			
				<line clip-path="url(#SVGID_4_)" fill="none" stroke="#010101" stroke-width="0" stroke-linecap="square" stroke-miterlimit="10" x1="0" y1="0" x2="0" y2="42.156"/>
			<polyline clip-path="url(#SVGID_4_)" fill-rule="evenodd" clip-rule="evenodd" fill="#010101" points="0,0 0,42.156 
				0.662,42.156 0.662,0 0,0 			"/>
			
				<line clip-path="url(#SVGID_4_)" fill="none" stroke="#010101" stroke-width="0" stroke-linecap="square" stroke-miterlimit="10" x1="17.197" y1="0.69" x2="17.197" y2="42.156"/>
			<polyline clip-path="url(#SVGID_4_)" fill-rule="evenodd" clip-rule="evenodd" fill="#010101" points="17.197,0.69 
				17.197,42.156 17.858,42.156 17.858,0.69 17.197,0.69 			"/>
			
				<line clip-path="url(#SVGID_4_)" fill="none" stroke="#010101" stroke-width="0" stroke-linecap="square" stroke-miterlimit="10" x1="34.394" y1="0.69" x2="34.394" y2="42.156"/>
			<polyline clip-path="url(#SVGID_4_)" fill-rule="evenodd" clip-rule="evenodd" fill="#010101" points="34.394,0.69 
				34.394,42.156 35.055,42.156 35.055,0.69 34.394,0.69 			"/>
			
				<line clip-path="url(#SVGID_4_)" fill="none" stroke="#010101" stroke-width="0" stroke-linecap="square" stroke-miterlimit="10" x1="0.662" y1="41.465" x2="52.252" y2="41.465"/>
			<polyline clip-path="url(#SVGID_4_)" fill-rule="evenodd" clip-rule="evenodd" fill="#010101" points="0.662,41.465 
				0.662,42.156 52.252,42.156 52.252,41.465 0.662,41.465 			"/>
			
				<line clip-path="url(#SVGID_4_)" fill="none" stroke="#010101" stroke-width="0" stroke-linecap="square" stroke-miterlimit="10" x1="51.591" y1="0.69" x2="51.591" y2="42.156"/>
			<polyline clip-path="url(#SVGID_4_)" fill-rule="evenodd" clip-rule="evenodd" fill="#010101" points="51.591,0.69 
				51.591,42.156 52.252,42.156 52.252,0.69 51.591,0.69 			"/>
			
				<line clip-path="url(#SVGID_4_)" fill="none" stroke="#D4D4D4" stroke-width="0" stroke-linecap="square" stroke-miterlimit="10" x1="0" y1="42.156" x2="0" y2="42.848"/>
			<polyline clip-path="url(#SVGID_4_)" fill-rule="evenodd" clip-rule="evenodd" fill="#D4D4D4" points="0,42.156 0,42.848 
				0.662,42.848 0.662,42.156 0,42.156 			"/>
			
				<line clip-path="url(#SVGID_4_)" fill="none" stroke="#D4D4D4" stroke-width="0" stroke-linecap="square" stroke-miterlimit="10" x1="17.197" y1="42.156" x2="17.197" y2="42.848"/>
			<polyline clip-path="url(#SVGID_4_)" fill-rule="evenodd" clip-rule="evenodd" fill="#D4D4D4" points="17.197,42.156 
				17.197,42.848 17.858,42.848 17.858,42.156 17.197,42.156 			"/>
			
				<line clip-path="url(#SVGID_4_)" fill="none" stroke="#D4D4D4" stroke-width="0" stroke-linecap="square" stroke-miterlimit="10" x1="34.394" y1="42.156" x2="34.394" y2="42.848"/>
			<polyline clip-path="url(#SVGID_4_)" fill-rule="evenodd" clip-rule="evenodd" fill="#D4D4D4" points="34.394,42.156 
				34.394,42.848 35.055,42.848 35.055,42.156 34.394,42.156 			"/>
			
				<line clip-path="url(#SVGID_4_)" fill="none" stroke="#D4D4D4" stroke-width="0" stroke-linecap="square" stroke-miterlimit="10" x1="51.591" y1="42.156" x2="51.591" y2="42.848"/>
			<polyline clip-path="url(#SVGID_4_)" fill-rule="evenodd" clip-rule="evenodd" fill="#D4D4D4" points="51.591,42.156 
				51.591,42.848 52.252,42.848 52.252,42.156 51.591,42.156 			"/>
			
				<line clip-path="url(#SVGID_4_)" fill="none" stroke="#D4D4D4" stroke-width="0" stroke-linecap="square" stroke-miterlimit="10" x1="52.252" y1="0" x2="52.913" y2="0"/>
			<polyline clip-path="url(#SVGID_4_)" fill-rule="evenodd" clip-rule="evenodd" fill="#D4D4D4" points="52.252,0 52.252,0.69 
				52.913,0.69 52.913,0 52.252,0 			"/>
			
				<line clip-path="url(#SVGID_4_)" fill="none" stroke="#D4D4D4" stroke-width="0" stroke-linecap="square" stroke-miterlimit="10" x1="52.252" y1="13.822" x2="52.913" y2="13.822"/>
			<polyline clip-path="url(#SVGID_4_)" fill-rule="evenodd" clip-rule="evenodd" fill="#D4D4D4" points="52.252,13.822 
				52.252,14.513 52.913,14.513 52.913,13.822 52.252,13.822 			"/>
			
				<line clip-path="url(#SVGID_4_)" fill="none" stroke="#D4D4D4" stroke-width="0" stroke-linecap="square" stroke-miterlimit="10" x1="52.252" y1="27.645" x2="52.913" y2="27.645"/>
			<polyline clip-path="url(#SVGID_4_)" fill-rule="evenodd" clip-rule="evenodd" fill="#D4D4D4" points="52.252,27.645 
				52.252,28.335 52.913,28.335 52.913,27.645 52.252,27.645 			"/>
			
				<line clip-path="url(#SVGID_4_)" fill="none" stroke="#D4D4D4" stroke-width="0" stroke-linecap="square" stroke-miterlimit="10" x1="52.252" y1="41.465" x2="52.913" y2="41.465"/>
			<polyline clip-path="url(#SVGID_4_)" fill-rule="evenodd" clip-rule="evenodd" fill="#D4D4D4" points="52.252,41.465 
				52.252,42.156 52.913,42.156 52.913,41.465 52.252,41.465 			"/>
		</g>
	</g>
	<g>
		
			<rect x="60.828" y="15.702" fill-rule="evenodd" clip-rule="evenodd" fill="#818181" stroke="#010101" width="16.963" height="10.752"/>
		<g>
			<path fill="#010101" d="M81.045,21.387V20.82h7.496v0.566H81.045z"/>
			<path fill="#010101" d="M91.643,20.945c-0.003,0.531,0.126,0.948,0.387,1.25s0.566,0.453,0.918,0.453
				c0.234,0,0.438-0.064,0.611-0.193s0.318-0.35,0.436-0.662l0.121,0.078c-0.055,0.356-0.214,0.682-0.477,0.975
				s-0.593,0.439-0.988,0.439c-0.43,0-0.798-0.167-1.104-0.502s-0.459-0.784-0.459-1.35c0-0.612,0.157-1.089,0.471-1.432
				s0.708-0.514,1.182-0.514c0.401,0,0.73,0.132,0.988,0.396s0.387,0.618,0.387,1.061H91.643z M91.643,20.719h1.656
				c-0.013-0.229-0.04-0.391-0.082-0.484c-0.065-0.146-0.162-0.261-0.291-0.344s-0.264-0.125-0.404-0.125
				c-0.216,0-0.409,0.084-0.58,0.252S91.671,20.419,91.643,20.719z"/>
		</g>
	</g>
</g>
</svg>
