<svg xmlns="http://www.w3.org/2000/svg" width="503" height="37">
         <defs>
            <style type="text/css">
    @namespace "http://www.w3.org/2000/svg";
    .line                 {fill: none; stroke: #332900;}
    .bold-line            {stroke: #141000; shape-rendering: crispEdges; stroke-width: 2; }
    .thin-line            {stroke: #1F1800; shape-rendering: crispEdges}
    .filled               {fill: #332900; stroke: none;}
    text.terminal         {font-family: Verdana, Sans-serif;
                            font-size: 12px;
                            fill: #141000;
                            font-weight: bold;
                          }
    text.nonterminal      {font-family: Verdana, Sans-serif;
                            font-size: 12px;
                            fill: #1A1400;
                            font-weight: normal;
                          }
    text.regexp           {font-family: Verdana, Sans-serif;
                            font-size: 12px;
                            fill: #1F1800;
                            font-weight: normal;
                          }
    rect, circle, polygon {fill: #332900; stroke: #332900;}
    rect.terminal         {fill: #FFDB4D; stroke: #332900;}
    rect.nonterminal      {fill: #FFEC9E; stroke: #332900;}
    rect.text             {fill: none; stroke: none;}    
    polygon.regexp        {fill: #FFF4C7; stroke: #332900;}
  </style>
         </defs>
         <polygon points="9 17 1 13 1 21"/>
         <polygon points="17 17 9 13 9 21"/>
         <rect x="31" y="3" width="80" height="32" rx="10"/>
         <rect x="29" y="1" width="80" height="32" class="terminal" rx="10"/>
         <text class="terminal" x="39" y="21">set value</text><a xmlns:xlink="http://www.w3.org/1999/xlink" xlink:href="#java_expression" xlink:title="java_expression">
            <rect x="131" y="3" width="124" height="32"/>
            <rect x="129" y="1" width="124" height="32" class="nonterminal"/>
            <text class="nonterminal" x="139" y="21">java_expression</text></a><rect x="275" y="3" width="34" height="32" rx="10"/>
         <rect x="273" y="1" width="34" height="32" class="terminal" rx="10"/>
         <text class="terminal" x="283" y="21">to</text><a xmlns:xlink="http://www.w3.org/1999/xlink" xlink:href="#advanced_identifier" xlink:title="advanced_identifier">
            <rect x="329" y="3" width="146" height="32"/>
            <rect x="327" y="1" width="146" height="32" class="nonterminal"/>
            <text class="nonterminal" x="337" y="21">advanced_identifier</text></a><svg:path xmlns:svg="http://www.w3.org/2000/svg" class="line" d="m17 17 h2 m0 0 h10 m80 0 h10 m0 0 h10 m124 0 h10 m0 0 h10 m34 0 h10 m0 0 h10 m146 0 h10 m3 0 h-3"/>
         <polygon points="493 17 501 13 501 21"/>
         <polygon points="493 17 485 13 485 21"/></svg>