<svg xmlns="http://www.w3.org/2000/svg" width="625" height="69">
         <defs>
            <style type="text/css">
    @namespace "http://www.w3.org/2000/svg";
    .line                 {fill: none; stroke: #262626;}
    .bold-line            {stroke: #0A0A0A; shape-rendering: crispEdges; stroke-width: 2; }
    .thin-line            {stroke: #0F0F0F; shape-rendering: crispEdges}
    .filled               {fill: #262626; stroke: none;}
    text.terminal         {font-family: Verdana, Sans-serif;
                            font-size: 12px;
                            fill: #0A0A0A;
                            font-weight: bold;
                          }
    text.nonterminal      {font-family: Verdana, Sans-serif;
                            font-size: 12px;
                            fill: #0D0D0D;
                            font-weight: normal;
                          }
    text.regexp           {font-family: Verdana, Sans-serif;
                            font-size: 12px;
                            fill: #0F0F0F;
                            font-weight: normal;
                          }
    rect, circle, polygon {fill: #262626; stroke: #262626;}
    rect.terminal         {fill: #FFFFFF; stroke: #262626;}
    rect.nonterminal      {fill: #FFFFFF; stroke: #262626;}
    rect.text             {fill: none; stroke: none;}    
    polygon.regexp        {fill: #FFFFFF; stroke: #262626;}
  </style>
         </defs>
         <polygon points="9,17 1,13 1,21" />
         <polygon points="17,17 9,13 9,21" />
         <rect x="31" y="3" width="80" height="32" rx="10" />
         <rect class="terminal" x="29" y="1" width="80" height="32" rx="10" />
         <text class="terminal" x="39" y="21">add label</text><a xmlns:xlink="http://www.w3.org/1999/xlink" xlink:title="operand" xlink:href="#operand">
            <rect x="131" y="3" width="72" height="32" />
            <rect class="nonterminal" x="129" y="1" width="72" height="32" />
            <text class="nonterminal" x="139" y="21">operand</text></a><rect x="243" y="35" width="32" height="32" rx="10" />
         <rect class="terminal" x="241" y="33" width="32" height="32" rx="10" />
         <text class="terminal" x="251" y="53">of</text><a xmlns:xlink="http://www.w3.org/1999/xlink" xlink:title="operand" xlink:href="#operand">
            <rect x="295" y="35" width="72" height="32" />
            <rect class="nonterminal" x="293" y="33" width="72" height="32" />
            <text class="nonterminal" x="303" y="53">operand</text></a><rect x="407" y="3" width="34" height="32" rx="10" />
         <rect class="terminal" x="405" y="1" width="34" height="32" rx="10" />
         <text class="terminal" x="415" y="21">to</text><a xmlns:xlink="http://www.w3.org/1999/xlink" xlink:title="operand" xlink:href="#operand">
            <rect x="461" y="3" width="72" height="32" />
            <rect class="nonterminal" x="459" y="1" width="72" height="32" />
            <text class="nonterminal" x="469" y="21">operand</text></a><a xmlns:xlink="http://www.w3.org/1999/xlink" xlink:title="EOL" xlink:href="#EOL">
            <rect x="553" y="3" width="44" height="32" />
            <rect class="nonterminal" x="551" y="1" width="44" height="32" />
            <text class="nonterminal" x="561" y="21">EOL</text></a><path class="line" d="m 17 17 h 2 m 0 0 h 10 m 80 0 h 10 m 0 0 h 10 m 72 0 h 10 m 20 0 h 10 m 0 0 h 134 m -164 0 h 20 m 144 0 h 20 m -184 0 q 10 0 10 10 m 164 0 q 0 -10 10 -10 m -174 10 v 12 m 164 0 v -12 m -164 12 q 0 10 10 10 m 144 0 q 10 0 10 -10 m -154 10 h 10 m 32 0 h 10 m 0 0 h 10 m 72 0 h 10 m 20 -32 h 10 m 34 0 h 10 m 0 0 h 10 m 72 0 h 10 m 0 0 h 10 m 44 0 h 10 m 3 0 h -3" />
         <polygon points="615,17 623,13 623,21" />
         <polygon points="615,17 607,13 607,21" /></svg>