<svg xmlns="http://www.w3.org/2000/svg" width="817" height="173">
         <defs>
            <style type="text/css">
    @namespace "http://www.w3.org/2000/svg";
    .line                 {fill: none; stroke: #262626;}
    .bold-line            {stroke: #0A0A0A; shape-rendering: crispEdges; stroke-width: 2; }
    .thin-line            {stroke: #0F0F0F; shape-rendering: crispEdges}
    .filled               {fill: #262626; stroke: none;}
    text.terminal         {font-family: Verdana, Sans-serif;
                            font-size: 12px;
                            fill: #0A0A0A;
                            font-weight: bold;
                          }
    text.nonterminal      {font-family: Verdana, Sans-serif;
                            font-size: 12px;
                            fill: #0D0D0D;
                            font-weight: normal;
                          }
    text.regexp           {font-family: Verdana, Sans-serif;
                            font-size: 12px;
                            fill: #0F0F0F;
                            font-weight: normal;
                          }
    rect, circle, polygon {fill: #262626; stroke: #262626;}
    rect.terminal         {fill: #FFFFFF; stroke: #262626;}
    rect.nonterminal      {fill: #FFFFFF; stroke: #262626;}
    rect.text             {fill: none; stroke: none;}    
    polygon.regexp        {fill: #FFFFFF; stroke: #262626;}
  </style>
         </defs>
         <polygon points="9,61 1,57 1,65" />
         <polygon points="17,61 9,57 9,65" /><a xmlns:xlink="http://www.w3.org/1999/xlink" xlink:title="query_type" xlink:href="#query_type">
            <rect x="31" y="47" width="92" height="32" />
            <rect class="nonterminal" x="29" y="45" width="92" height="32" />
            <text class="nonterminal" x="39" y="65">query_type</text></a><a xmlns:xlink="http://www.w3.org/1999/xlink" xlink:title="identifier" xlink:href="#identifier">
            <rect x="163" y="79" width="76" height="32" />
            <rect class="nonterminal" x="161" y="77" width="76" height="32" />
            <text class="nonterminal" x="171" y="97">identifier</text></a><rect x="299" y="47" width="24" height="32" rx="10" />
         <rect class="terminal" x="297" y="45" width="24" height="32" rx="10" />
         <text class="terminal" x="307" y="65">:</text><a xmlns:xlink="http://www.w3.org/1999/xlink" xlink:title="constraint" xlink:href="#constraint">
            <rect x="383" y="47" width="84" height="32" />
            <rect class="nonterminal" x="381" y="45" width="84" height="32" />
            <text class="nonterminal" x="391" y="65">constraint</text></a><rect x="383" y="3" width="24" height="32" rx="10" />
         <rect class="terminal" x="381" y="1" width="24" height="32" rx="10" />
         <text class="terminal" x="391" y="21">,</text>
         <rect x="527" y="79" width="24" height="32" rx="10" />
         <rect class="terminal" x="525" y="77" width="24" height="32" rx="10" />
         <text class="terminal" x="535" y="97">,</text><a xmlns:xlink="http://www.w3.org/1999/xlink" xlink:title="assignment" xlink:href="#assignment">
            <rect x="571" y="79" width="94" height="32" />
            <rect class="nonterminal" x="569" y="77" width="94" height="32" />
            <text class="nonterminal" x="579" y="97">assignment</text></a><a xmlns:xlink="http://www.w3.org/1999/xlink" xlink:title="assignment" xlink:href="#assignment">
            <rect x="363" y="123" width="94" height="32" />
            <rect class="nonterminal" x="361" y="121" width="94" height="32" />
            <text class="nonterminal" x="371" y="141">assignment</text></a><a xmlns:xlink="http://www.w3.org/1999/xlink" xlink:title="EOL" xlink:href="#EOL">
            <rect x="745" y="47" width="44" height="32" />
            <rect class="nonterminal" x="743" y="45" width="44" height="32" />
            <text class="nonterminal" x="753" y="65">EOL</text></a><path class="line" d="m 17 61 h 2 m 0 0 h 10 m 92 0 h 10 m 20 0 h 10 m 0 0 h 86 m -116 0 h 20 m 96 0 h 20 m -136 0 q 10 0 10 10 m 116 0 q 0 -10 10 -10 m -126 10 v 12 m 116 0 v -12 m -116 12 q 0 10 10 10 m 96 0 q 10 0 10 -10 m -106 10 h 10 m 76 0 h 10 m 40 -32 h 10 m 24 0 h 10 m 40 0 h 10 m 84 0 h 10 m -124 0 l 20 0 m -1 0 q -9 0 -9 -10 l 0 -24 q 0 -10 10 -10 m 104 44 l 20 0 m -20 0 q 10 0 10 -10 l 0 -24 q 0 -10 -10 -10 m -104 0 h 10 m 24 0 h 10 m 0 0 h 60 m 40 44 h 10 m 0 0 h 148 m -178 0 h 20 m 158 0 h 20 m -198 0 q 10 0 10 10 m 178 0 q 0 -10 10 -10 m -188 10 v 12 m 178 0 v -12 m -178 12 q 0 10 10 10 m 158 0 q 10 0 10 -10 m -168 10 h 10 m 24 0 h 10 m 0 0 h 10 m 94 0 h 10 m -342 -32 h 20 m 342 0 h 20 m -382 0 q 10 0 10 10 m 362 0 q 0 -10 10 -10 m -372 10 v 56 m 362 0 v -56 m -362 56 q 0 10 10 10 m 342 0 q 10 0 10 -10 m -352 10 h 10 m 94 0 h 10 m 0 0 h 228 m -426 -76 h 20 m 426 0 h 20 m -466 0 q 10 0 10 10 m 446 0 q 0 -10 10 -10 m -456 10 v 90 m 446 0 v -90 m -446 90 q 0 10 10 10 m 426 0 q 10 0 10 -10 m -436 10 h 10 m 0 0 h 416 m 20 -110 h 10 m 44 0 h 10 m 3 0 h -3" />
         <polygon points="807,61 815,57 815,65" />
         <polygon points="807,61 799,57 799,65" /></svg>