<svg xmlns="http://www.w3.org/2000/svg" width="911" height="173">
         <defs>
            <style type="text/css">
    @namespace "http://www.w3.org/2000/svg";
    .line                 {fill: none; stroke: #262626;}
    .bold-line            {stroke: #0A0A0A; shape-rendering: crispEdges; stroke-width: 2; }
    .thin-line            {stroke: #0F0F0F; shape-rendering: crispEdges}
    .filled               {fill: #262626; stroke: none;}
    text.terminal         {font-family: Verdana, Sans-serif;
                            font-size: 12px;
                            fill: #0A0A0A;
                            font-weight: bold;
                          }
    text.nonterminal      {font-family: Verdana, Sans-serif;
                            font-size: 12px;
                            fill: #0D0D0D;
                            font-weight: normal;
                          }
    text.regexp           {font-family: Verdana, Sans-serif;
                            font-size: 12px;
                            fill: #0F0F0F;
                            font-weight: normal;
                          }
    rect, circle, polygon {fill: #262626; stroke: #262626;}
    rect.terminal         {fill: #FFFFFF; stroke: #262626;}
    rect.nonterminal      {fill: #FFFFFF; stroke: #262626;}
    rect.text             {fill: none; stroke: none;}    
    polygon.regexp        {fill: #FFFFFF; stroke: #262626;}
  </style>
         </defs>
         <polygon points="9,61 1,57 1,65" />
         <polygon points="17,61 9,57 9,65" />
         <rect x="51" y="79" width="36" height="32" rx="10" />
         <rect class="terminal" x="49" y="77" width="36" height="32" rx="10" />
         <text class="terminal" x="59" y="97">no</text><a xmlns:xlink="http://www.w3.org/1999/xlink" xlink:title="query" xlink:href="#query">
            <rect x="127" y="47" width="56" height="32" />
            <rect class="nonterminal" x="125" y="45" width="56" height="32" />
            <text class="nonterminal" x="135" y="65">query</text></a><a xmlns:xlink="http://www.w3.org/1999/xlink" xlink:title="java_identifier" xlink:href="#java_identifier">
            <rect x="223" y="79" width="110" height="32" />
            <rect class="nonterminal" x="221" y="77" width="110" height="32" />
            <text class="nonterminal" x="231" y="97">java_identifier</text></a><rect x="393" y="47" width="24" height="32" rx="10" />
         <rect class="terminal" x="391" y="45" width="24" height="32" rx="10" />
         <text class="terminal" x="401" y="65">:</text><a xmlns:xlink="http://www.w3.org/1999/xlink" xlink:title="constraint" xlink:href="#constraint">
            <rect x="477" y="47" width="84" height="32" />
            <rect class="nonterminal" x="475" y="45" width="84" height="32" />
            <text class="nonterminal" x="485" y="65">constraint</text></a><rect x="477" y="3" width="24" height="32" rx="10" />
         <rect class="terminal" x="475" y="1" width="24" height="32" rx="10" />
         <text class="terminal" x="485" y="21">,</text>
         <rect x="621" y="79" width="24" height="32" rx="10" />
         <rect class="terminal" x="619" y="77" width="24" height="32" rx="10" />
         <text class="terminal" x="629" y="97">,</text><a xmlns:xlink="http://www.w3.org/1999/xlink" xlink:title="assignment" xlink:href="#assignment">
            <rect x="665" y="79" width="94" height="32" />
            <rect class="nonterminal" x="663" y="77" width="94" height="32" />
            <text class="nonterminal" x="673" y="97">assignment</text></a><a xmlns:xlink="http://www.w3.org/1999/xlink" xlink:title="assignment" xlink:href="#assignment">
            <rect x="457" y="123" width="94" height="32" />
            <rect class="nonterminal" x="455" y="121" width="94" height="32" />
            <text class="nonterminal" x="465" y="141">assignment</text></a><a xmlns:xlink="http://www.w3.org/1999/xlink" xlink:title="EOL" xlink:href="#EOL">
            <rect x="839" y="47" width="44" height="32" />
            <rect class="nonterminal" x="837" y="45" width="44" height="32" />
            <text class="nonterminal" x="847" y="65">EOL</text></a><path class="line" d="m 17 61 h 2 m 20 0 h 10 m 0 0 h 46 m -76 0 h 20 m 56 0 h 20 m -96 0 q 10 0 10 10 m 76 0 q 0 -10 10 -10 m -86 10 v 12 m 76 0 v -12 m -76 12 q 0 10 10 10 m 56 0 q 10 0 10 -10 m -66 10 h 10 m 36 0 h 10 m 20 -32 h 10 m 56 0 h 10 m 20 0 h 10 m 0 0 h 120 m -150 0 h 20 m 130 0 h 20 m -170 0 q 10 0 10 10 m 150 0 q 0 -10 10 -10 m -160 10 v 12 m 150 0 v -12 m -150 12 q 0 10 10 10 m 130 0 q 10 0 10 -10 m -140 10 h 10 m 110 0 h 10 m 40 -32 h 10 m 24 0 h 10 m 40 0 h 10 m 84 0 h 10 m -124 0 l 20 0 m -1 0 q -9 0 -9 -10 l 0 -24 q 0 -10 10 -10 m 104 44 l 20 0 m -20 0 q 10 0 10 -10 l 0 -24 q 0 -10 -10 -10 m -104 0 h 10 m 24 0 h 10 m 0 0 h 60 m 40 44 h 10 m 0 0 h 148 m -178 0 h 20 m 158 0 h 20 m -198 0 q 10 0 10 10 m 178 0 q 0 -10 10 -10 m -188 10 v 12 m 178 0 v -12 m -178 12 q 0 10 10 10 m 158 0 q 10 0 10 -10 m -168 10 h 10 m 24 0 h 10 m 0 0 h 10 m 94 0 h 10 m -342 -32 h 20 m 342 0 h 20 m -382 0 q 10 0 10 10 m 362 0 q 0 -10 10 -10 m -372 10 v 56 m 362 0 v -56 m -362 56 q 0 10 10 10 m 342 0 q 10 0 10 -10 m -352 10 h 10 m 94 0 h 10 m 0 0 h 228 m -426 -76 h 20 m 426 0 h 20 m -466 0 q 10 0 10 10 m 446 0 q 0 -10 10 -10 m -456 10 v 90 m 446 0 v -90 m -446 90 q 0 10 10 10 m 426 0 q 10 0 10 -10 m -436 10 h 10 m 0 0 h 416 m 20 -110 h 10 m 44 0 h 10 m 3 0 h -3" />
         <polygon points="901,61 909,57 909,65" />
         <polygon points="901,61 893,57 893,65" /></svg>