<svg xmlns="http://www.w3.org/2000/svg" width="283" height="57">
         <defs>
            <style type="text/css">
    @namespace "http://www.w3.org/2000/svg";
    .line                 {fill: none; stroke: #262626;}
    .bold-line            {stroke: #0A0A0A; shape-rendering: crispEdges; stroke-width: 2; }
    .thin-line            {stroke: #0F0F0F; shape-rendering: crispEdges}
    .filled               {fill: #262626; stroke: none;}
    text.terminal         {font-family: Verdana, Sans-serif;
                            font-size: 12px;
                            fill: #0A0A0A;
                            font-weight: bold;
                          }
    text.nonterminal      {font-family: Verdana, Sans-serif;
                            font-size: 12px;
                            fill: #0D0D0D;
                            font-weight: normal;
                          }
    text.regexp           {font-family: Verdana, Sans-serif;
                            font-size: 12px;
                            fill: #0F0F0F;
                            font-weight: normal;
                          }
    rect, circle, polygon {fill: #262626; stroke: #262626;}
    rect.terminal         {fill: #FFFFFF; stroke: #262626;}
    rect.nonterminal      {fill: #FFFFFF; stroke: #262626;}
    rect.text             {fill: none; stroke: none;}    
    polygon.regexp        {fill: #FFFFFF; stroke: #262626;}
  </style>
         </defs>
         <polygon points="9,51 1,47 1,55" />
         <polygon points="17,51 9,47 9,55" /><a xmlns:xlink="http://www.w3.org/1999/xlink" xlink:title="importing" xlink:href="#importing">
            <rect x="51" y="3" width="80" height="32" />
            <rect class="nonterminal" x="49" y="1" width="80" height="32" />
            <text class="nonterminal" x="59" y="21">importing</text></a><a xmlns:xlink="http://www.w3.org/1999/xlink" xlink:title="rule" xlink:href="#rule">
            <rect x="191" y="3" width="44" height="32" />
            <rect class="nonterminal" x="189" y="1" width="44" height="32" />
            <text class="nonterminal" x="199" y="21">rule</text></a><path class="line" d="m 17 51 h 2 m 20 0 h 10 m 0 0 h 90 m -120 0 l 20 0 m -1 0 q -9 0 -9 -10 l 0 -14 q 0 -10 10 -10 m 100 34 l 20 0 m -20 0 q 10 0 10 -10 l 0 -14 q 0 -10 -10 -10 m -100 0 h 10 m 80 0 h 10 m 40 34 h 10 m 0 0 h 54 m -84 0 l 20 0 m -1 0 q -9 0 -9 -10 l 0 -14 q 0 -10 10 -10 m 64 34 l 20 0 m -20 0 q 10 0 10 -10 l 0 -14 q 0 -10 -10 -10 m -64 0 h 10 m 44 0 h 10 m 23 34 h -3" />
         <polygon points="273,51 281,47 281,55" />
         <polygon points="273,51 265,47 265,55" /></svg>