<svg xmlns="http://www.w3.org/2000/svg" width="417" height="69">
         <defs>
            <style type="text/css">
    @namespace "http://www.w3.org/2000/svg";
    .line                 {fill: none; stroke: #262626;}
    .bold-line            {stroke: #0A0A0A; shape-rendering: crispEdges; stroke-width: 2; }
    .thin-line            {stroke: #0F0F0F; shape-rendering: crispEdges}
    .filled               {fill: #262626; stroke: none;}
    text.terminal         {font-family: Verdana, Sans-serif;
                            font-size: 12px;
                            fill: #0A0A0A;
                            font-weight: bold;
                          }
    text.nonterminal      {font-family: Verdana, Sans-serif;
                            font-size: 12px;
                            fill: #0D0D0D;
                            font-weight: normal;
                          }
    text.regexp           {font-family: Verdana, Sans-serif;
                            font-size: 12px;
                            fill: #0F0F0F;
                            font-weight: normal;
                          }
    rect, circle, polygon {fill: #262626; stroke: #262626;}
    rect.terminal         {fill: #FFFFFF; stroke: #262626;}
    rect.nonterminal      {fill: #FFFFFF; stroke: #262626;}
    rect.text             {fill: none; stroke: none;}    
    polygon.regexp        {fill: #FFFFFF; stroke: #262626;}
  </style>
         </defs>
         <polygon points="9,17 1,13 1,21" />
         <polygon points="17,17 9,13 9,21" />
         <rect x="31" y="3" width="106" height="32" rx="10" />
         <rect class="terminal" x="29" y="1" width="106" height="32" rx="10" />
         <text class="terminal" x="39" y="21">import static</text><a xmlns:xlink="http://www.w3.org/1999/xlink" xlink:title="identifier" xlink:href="#identifier">
            <rect x="157" y="3" width="76" height="32" />
            <rect class="nonterminal" x="155" y="1" width="76" height="32" />
            <text class="nonterminal" x="165" y="21">identifier</text></a><rect x="273" y="35" width="32" height="32" rx="10" />
         <rect class="terminal" x="271" y="33" width="32" height="32" rx="10" />
         <text class="terminal" x="281" y="53">.*</text><a xmlns:xlink="http://www.w3.org/1999/xlink" xlink:title="EOL" xlink:href="#EOL">
            <rect x="345" y="3" width="44" height="32" />
            <rect class="nonterminal" x="343" y="1" width="44" height="32" />
            <text class="nonterminal" x="353" y="21">EOL</text></a><path class="line" d="m 17 17 h 2 m 0 0 h 10 m 106 0 h 10 m 0 0 h 10 m 76 0 h 10 m 20 0 h 10 m 0 0 h 42 m -72 0 h 20 m 52 0 h 20 m -92 0 q 10 0 10 10 m 72 0 q 0 -10 10 -10 m -82 10 v 12 m 72 0 v -12 m -72 12 q 0 10 10 10 m 52 0 q 10 0 10 -10 m -62 10 h 10 m 32 0 h 10 m 20 -32 h 10 m 44 0 h 10 m 3 0 h -3" />
         <polygon points="407,17 415,13 415,21" />
         <polygon points="407,17 399,13 399,21" /></svg>