<svg xmlns="http://www.w3.org/2000/svg" width="575" height="113">
         <defs>
            <style type="text/css">
    @namespace "http://www.w3.org/2000/svg";
    .line                 {fill: none; stroke: #262626;}
    .bold-line            {stroke: #0A0A0A; shape-rendering: crispEdges; stroke-width: 2; }
    .thin-line            {stroke: #0F0F0F; shape-rendering: crispEdges}
    .filled               {fill: #262626; stroke: none;}
    text.terminal         {font-family: Verdana, Sans-serif;
                            font-size: 12px;
                            fill: #0A0A0A;
                            font-weight: bold;
                          }
    text.nonterminal      {font-family: Verdana, Sans-serif;
                            font-size: 12px;
                            fill: #0D0D0D;
                            font-weight: normal;
                          }
    text.regexp           {font-family: Verdana, Sans-serif;
                            font-size: 12px;
                            fill: #0F0F0F;
                            font-weight: normal;
                          }
    rect, circle, polygon {fill: #262626; stroke: #262626;}
    rect.terminal         {fill: #FFFFFF; stroke: #262626;}
    rect.nonterminal      {fill: #FFFFFF; stroke: #262626;}
    rect.text             {fill: none; stroke: none;}    
    polygon.regexp        {fill: #FFFFFF; stroke: #262626;}
  </style>
         </defs>
         <polygon points="9,61 1,57 1,65" />
         <polygon points="17,61 9,57 9,65" />
         <rect x="31" y="47" width="106" height="32" rx="10" />
         <rect class="terminal" x="29" y="45" width="106" height="32" rx="10" />
         <text class="terminal" x="39" y="65">import static</text><a xmlns:xlink="http://www.w3.org/1999/xlink" xlink:title="java_identifier" xlink:href="#java_identifier">
            <rect x="177" y="47" width="110" height="32" />
            <rect class="nonterminal" x="175" y="45" width="110" height="32" />
            <text class="nonterminal" x="185" y="65">java_identifier</text></a><rect x="177" y="3" width="24" height="32" rx="10" />
         <rect class="terminal" x="175" y="1" width="24" height="32" rx="10" />
         <text class="terminal" x="185" y="21">.</text>
         <rect x="347" y="79" width="32" height="32" rx="10" />
         <rect class="terminal" x="345" y="77" width="32" height="32" rx="10" />
         <text class="terminal" x="355" y="97">.*</text>
         <rect x="439" y="79" width="24" height="32" rx="10" />
         <rect class="terminal" x="437" y="77" width="24" height="32" rx="10" />
         <text class="terminal" x="447" y="97">;</text><a xmlns:xlink="http://www.w3.org/1999/xlink" xlink:title="EOL" xlink:href="#EOL">
            <rect x="503" y="47" width="44" height="32" />
            <rect class="nonterminal" x="501" y="45" width="44" height="32" />
            <text class="nonterminal" x="511" y="65">EOL</text></a><path class="line" d="m 17 61 h 2 m 0 0 h 10 m 106 0 h 10 m 20 0 h 10 m 110 0 h 10 m -150 0 l 20 0 m -1 0 q -9 0 -9 -10 l 0 -24 q 0 -10 10 -10 m 130 44 l 20 0 m -20 0 q 10 0 10 -10 l 0 -24 q 0 -10 -10 -10 m -130 0 h 10 m 24 0 h 10 m 0 0 h 86 m 40 44 h 10 m 0 0 h 42 m -72 0 h 20 m 52 0 h 20 m -92 0 q 10 0 10 10 m 72 0 q 0 -10 10 -10 m -82 10 v 12 m 72 0 v -12 m -72 12 q 0 10 10 10 m 52 0 q 10 0 10 -10 m -62 10 h 10 m 32 0 h 10 m 40 -32 h 10 m 0 0 h 34 m -64 0 h 20 m 44 0 h 20 m -84 0 q 10 0 10 10 m 64 0 q 0 -10 10 -10 m -74 10 v 12 m 64 0 v -12 m -64 12 q 0 10 10 10 m 44 0 q 10 0 10 -10 m -54 10 h 10 m 24 0 h 10 m 20 -32 h 10 m 44 0 h 10 m 3 0 h -3" />
         <polygon points="565,61 573,57 573,65" />
         <polygon points="565,61 557,57 557,65" /></svg>