<svg xmlns="http://www.w3.org/2000/svg" width="189" height="345">
         <defs>
            <style type="text/css">
    @namespace "http://www.w3.org/2000/svg";
    .line                 {fill: none; stroke: #262626;}
    .bold-line            {stroke: #0A0A0A; shape-rendering: crispEdges; stroke-width: 2; }
    .thin-line            {stroke: #0F0F0F; shape-rendering: crispEdges}
    .filled               {fill: #262626; stroke: none;}
    text.terminal         {font-family: Verdana, Sans-serif;
                            font-size: 12px;
                            fill: #0A0A0A;
                            font-weight: bold;
                          }
    text.nonterminal      {font-family: Verdana, Sans-serif;
                            font-size: 12px;
                            fill: #0D0D0D;
                            font-weight: normal;
                          }
    text.regexp           {font-family: Verdana, Sans-serif;
                            font-size: 12px;
                            fill: #0F0F0F;
                            font-weight: normal;
                          }
    rect, circle, polygon {fill: #262626; stroke: #262626;}
    rect.terminal         {fill: #FFFFFF; stroke: #262626;}
    rect.nonterminal      {fill: #FFFFFF; stroke: #262626;}
    rect.text             {fill: none; stroke: none;}    
    polygon.regexp        {fill: #FFFFFF; stroke: #262626;}
  </style>
         </defs>
         <polygon points="9,17 1,13 1,21" />
         <polygon points="17,17 9,13 9,21" />
         <rect x="51" y="3" width="42" height="32" rx="10" />
         <rect class="terminal" x="49" y="1" width="42" height="32" rx="10" />
         <text class="terminal" x="59" y="21">cell</text>
         <rect x="51" y="47" width="50" height="32" rx="10" />
         <rect class="terminal" x="49" y="45" width="50" height="32" rx="10" />
         <text class="terminal" x="59" y="65">cells</text>
         <rect x="51" y="91" width="52" height="32" rx="10" />
         <rect class="terminal" x="49" y="89" width="52" height="32" rx="10" />
         <text class="terminal" x="59" y="109">label</text>
         <rect x="51" y="135" width="60" height="32" rx="10" />
         <rect class="terminal" x="49" y="133" width="60" height="32" rx="10" />
         <text class="terminal" x="59" y="153">labels</text>
         <rect x="51" y="179" width="56" height="32" rx="10" />
         <rect class="terminal" x="49" y="177" width="56" height="32" rx="10" />
         <text class="terminal" x="59" y="197">entry</text>
         <rect x="51" y="223" width="66" height="32" rx="10" />
         <rect class="terminal" x="49" y="221" width="66" height="32" rx="10" />
         <text class="terminal" x="59" y="241">entries</text>
         <rect x="51" y="267" width="78" height="32" rx="10" />
         <rect class="terminal" x="49" y="265" width="78" height="32" rx="10" />
         <text class="terminal" x="59" y="285">category</text>
         <rect x="51" y="311" width="90" height="32" rx="10" />
         <rect class="terminal" x="49" y="309" width="90" height="32" rx="10" />
         <text class="terminal" x="59" y="329">categories</text>
         <path class="line" d="m 17 17 h 2 m 20 0 h 10 m 42 0 h 10 m 0 0 h 48 m -130 0 h 20 m 110 0 h 20 m -150 0 q 10 0 10 10 m 130 0 q 0 -10 10 -10 m -140 10 v 24 m 130 0 v -24 m -130 24 q 0 10 10 10 m 110 0 q 10 0 10 -10 m -120 10 h 10 m 50 0 h 10 m 0 0 h 40 m -120 -10 v 20 m 130 0 v -20 m -130 20 v 24 m 130 0 v -24 m -130 24 q 0 10 10 10 m 110 0 q 10 0 10 -10 m -120 10 h 10 m 52 0 h 10 m 0 0 h 38 m -120 -10 v 20 m 130 0 v -20 m -130 20 v 24 m 130 0 v -24 m -130 24 q 0 10 10 10 m 110 0 q 10 0 10 -10 m -120 10 h 10 m 60 0 h 10 m 0 0 h 30 m -120 -10 v 20 m 130 0 v -20 m -130 20 v 24 m 130 0 v -24 m -130 24 q 0 10 10 10 m 110 0 q 10 0 10 -10 m -120 10 h 10 m 56 0 h 10 m 0 0 h 34 m -120 -10 v 20 m 130 0 v -20 m -130 20 v 24 m 130 0 v -24 m -130 24 q 0 10 10 10 m 110 0 q 10 0 10 -10 m -120 10 h 10 m 66 0 h 10 m 0 0 h 24 m -120 -10 v 20 m 130 0 v -20 m -130 20 v 24 m 130 0 v -24 m -130 24 q 0 10 10 10 m 110 0 q 10 0 10 -10 m -120 10 h 10 m 78 0 h 10 m 0 0 h 12 m -120 -10 v 20 m 130 0 v -20 m -130 20 v 24 m 130 0 v -24 m -130 24 q 0 10 10 10 m 110 0 q 10 0 10 -10 m -120 10 h 10 m 90 0 h 10 m 23 -308 h -3" />
         <polygon points="179,17 187,13 187,21" />
         <polygon points="179,17 171,13 171,21" /></svg>