<svg xmlns="http://www.w3.org/2000/svg" width="931" height="103">
         <defs>
            <style type="text/css">
    @namespace "http://www.w3.org/2000/svg";
    .line                 {fill: none; stroke: #262626;}
    .bold-line            {stroke: #0A0A0A; shape-rendering: crispEdges; stroke-width: 2; }
    .thin-line            {stroke: #0F0F0F; shape-rendering: crispEdges}
    .filled               {fill: #262626; stroke: none;}
    text.terminal         {font-family: Verdana, Sans-serif;
                            font-size: 12px;
                            fill: #0A0A0A;
                            font-weight: bold;
                          }
    text.nonterminal      {font-family: Verdana, Sans-serif;
                            font-size: 12px;
                            fill: #0D0D0D;
                            font-weight: normal;
                          }
    text.regexp           {font-family: Verdana, Sans-serif;
                            font-size: 12px;
                            fill: #0F0F0F;
                            font-weight: normal;
                          }
    rect, circle, polygon {fill: #262626; stroke: #262626;}
    rect.terminal         {fill: #FFFFFF; stroke: #262626;}
    rect.nonterminal      {fill: #FFFFFF; stroke: #262626;}
    rect.text             {fill: none; stroke: none;}    
    polygon.regexp        {fill: #FFFFFF; stroke: #262626;}
  </style>
         </defs>
         <polygon points="9,51 1,47 1,55" />
         <polygon points="17,51 9,47 9,55" />
         <rect x="31" y="37" width="60" height="32" rx="10" />
         <rect class="terminal" x="29" y="35" width="60" height="32" rx="10" />
         <text class="terminal" x="39" y="55">rule #</text><a xmlns:xlink="http://www.w3.org/1999/xlink" xlink:title="id" xlink:href="#id">
            <rect x="111" y="37" width="30" height="32" />
            <rect class="nonterminal" x="109" y="35" width="30" height="32" />
            <text class="nonterminal" x="119" y="55">id</text></a><a xmlns:xlink="http://www.w3.org/1999/xlink" xlink:title="EOL" xlink:href="#EOL">
            <rect x="161" y="37" width="44" height="32" />
            <rect class="nonterminal" x="159" y="35" width="44" height="32" />
            <text class="nonterminal" x="169" y="55">EOL</text></a><rect x="225" y="37" width="56" height="32" rx="10" />
         <rect class="terminal" x="223" y="35" width="56" height="32" rx="10" />
         <text class="terminal" x="233" y="55">when</text><a xmlns:xlink="http://www.w3.org/1999/xlink" xlink:title="EOL" xlink:href="#EOL">
            <rect x="301" y="37" width="44" height="32" />
            <rect class="nonterminal" x="299" y="35" width="44" height="32" />
            <text class="nonterminal" x="309" y="55">EOL</text></a><a xmlns:xlink="http://www.w3.org/1999/xlink" xlink:title="condition" xlink:href="#condition">
            <rect x="385" y="3" width="78" height="32" />
            <rect class="nonterminal" x="383" y="1" width="78" height="32" />
            <text class="nonterminal" x="393" y="21">condition</text></a><rect x="503" y="37" width="50" height="32" rx="10" />
         <rect class="terminal" x="501" y="35" width="50" height="32" rx="10" />
         <text class="terminal" x="511" y="55">then</text><a xmlns:xlink="http://www.w3.org/1999/xlink" xlink:title="EOL" xlink:href="#EOL">
            <rect x="573" y="37" width="44" height="32" />
            <rect class="nonterminal" x="571" y="35" width="44" height="32" />
            <text class="nonterminal" x="581" y="55">EOL</text></a><a xmlns:xlink="http://www.w3.org/1999/xlink" xlink:title="action" xlink:href="#action">
            <rect x="657" y="3" width="58" height="32" />
            <rect class="nonterminal" x="655" y="1" width="58" height="32" />
            <text class="nonterminal" x="665" y="21">action</text></a><rect x="755" y="37" width="44" height="32" rx="10" />
         <rect class="terminal" x="753" y="35" width="44" height="32" rx="10" />
         <text class="terminal" x="763" y="55">end</text><a xmlns:xlink="http://www.w3.org/1999/xlink" xlink:title="EOL" xlink:href="#EOL">
            <rect x="839" y="69" width="44" height="32" />
            <rect class="nonterminal" x="837" y="67" width="44" height="32" />
            <text class="nonterminal" x="847" y="87">EOL</text></a><path class="line" d="m 17 51 h 2 m 0 0 h 10 m 60 0 h 10 m 0 0 h 10 m 30 0 h 10 m 0 0 h 10 m 44 0 h 10 m 0 0 h 10 m 56 0 h 10 m 0 0 h 10 m 44 0 h 10 m 20 0 h 10 m 0 0 h 88 m -118 0 l 20 0 m -1 0 q -9 0 -9 -10 l 0 -14 q 0 -10 10 -10 m 98 34 l 20 0 m -20 0 q 10 0 10 -10 l 0 -14 q 0 -10 -10 -10 m -98 0 h 10 m 78 0 h 10 m 20 34 h 10 m 50 0 h 10 m 0 0 h 10 m 44 0 h 10 m 20 0 h 10 m 0 0 h 68 m -98 0 l 20 0 m -1 0 q -9 0 -9 -10 l 0 -14 q 0 -10 10 -10 m 78 34 l 20 0 m -20 0 q 10 0 10 -10 l 0 -14 q 0 -10 -10 -10 m -78 0 h 10 m 58 0 h 10 m 20 34 h 10 m 44 0 h 10 m 20 0 h 10 m 0 0 h 54 m -84 0 h 20 m 64 0 h 20 m -104 0 q 10 0 10 10 m 84 0 q 0 -10 10 -10 m -94 10 v 12 m 84 0 v -12 m -84 12 q 0 10 10 10 m 64 0 q 10 0 10 -10 m -74 10 h 10 m 44 0 h 10 m 23 -32 h -3" />
         <polygon points="921,51 929,47 929,55" />
         <polygon points="921,51 913,47 913,55" /></svg>