<svg xmlns="http://www.w3.org/2000/svg" width="447" height="37">
         <defs>
            <style type="text/css">
    @namespace "http://www.w3.org/2000/svg";
    .line                 {fill: none; stroke: #262626;}
    .bold-line            {stroke: #0A0A0A; shape-rendering: crispEdges; stroke-width: 2; }
    .thin-line            {stroke: #0F0F0F; shape-rendering: crispEdges}
    .filled               {fill: #262626; stroke: none;}
    text.terminal         {font-family: Verdana, Sans-serif;
                            font-size: 12px;
                            fill: #0A0A0A;
                            font-weight: bold;
                          }
    text.nonterminal      {font-family: Verdana, Sans-serif;
                            font-size: 12px;
                            fill: #0D0D0D;
                            font-weight: normal;
                          }
    text.regexp           {font-family: Verdana, Sans-serif;
                            font-size: 12px;
                            fill: #0F0F0F;
                            font-weight: normal;
                          }
    rect, circle, polygon {fill: #262626; stroke: #262626;}
    rect.terminal         {fill: #FFFFFF; stroke: #262626;}
    rect.nonterminal      {fill: #FFFFFF; stroke: #262626;}
    rect.text             {fill: none; stroke: none;}    
    polygon.regexp        {fill: #FFFFFF; stroke: #262626;}
  </style>
         </defs>
         <polygon points="9,17 1,13 1,21" />
         <polygon points="17,17 9,13 9,21" />
         <rect x="31" y="3" width="86" height="32" rx="10" />
         <rect class="terminal" x="29" y="1" width="86" height="32" rx="10" />
         <text class="terminal" x="39" y="21">set indent</text><a xmlns:xlink="http://www.w3.org/1999/xlink" xlink:title="operand" xlink:href="#operand">
            <rect x="137" y="3" width="72" height="32" />
            <rect class="nonterminal" x="135" y="1" width="72" height="32" />
            <text class="nonterminal" x="145" y="21">operand</text></a><rect x="229" y="3" width="34" height="32" rx="10" />
         <rect class="terminal" x="227" y="1" width="34" height="32" rx="10" />
         <text class="terminal" x="237" y="21">to</text><a xmlns:xlink="http://www.w3.org/1999/xlink" xlink:title="operand" xlink:href="#operand">
            <rect x="283" y="3" width="72" height="32" />
            <rect class="nonterminal" x="281" y="1" width="72" height="32" />
            <text class="nonterminal" x="291" y="21">operand</text></a><a xmlns:xlink="http://www.w3.org/1999/xlink" xlink:title="EOL" xlink:href="#EOL">
            <rect x="375" y="3" width="44" height="32" />
            <rect class="nonterminal" x="373" y="1" width="44" height="32" />
            <text class="nonterminal" x="383" y="21">EOL</text></a><path class="line" d="m 17 17 h 2 m 0 0 h 10 m 86 0 h 10 m 0 0 h 10 m 72 0 h 10 m 0 0 h 10 m 34 0 h 10 m 0 0 h 10 m 72 0 h 10 m 0 0 h 10 m 44 0 h 10 m 3 0 h -3" />
         <polygon points="437,17 445,13 445,21" />
         <polygon points="437,17 429,13 429,21" /></svg>