<svg xmlns="http://www.w3.org/2000/svg" width="457" height="37">
         <defs>
            <style type="text/css">
    @namespace "http://www.w3.org/2000/svg";
    .line                 {fill: none; stroke: #262626;}
    .bold-line            {stroke: #0A0A0A; shape-rendering: crispEdges; stroke-width: 2; }
    .thin-line            {stroke: #0F0F0F; shape-rendering: crispEdges}
    .filled               {fill: #262626; stroke: none;}
    text.terminal         {font-family: Verdana, Sans-serif;
                            font-size: 12px;
                            fill: #0A0A0A;
                            font-weight: bold;
                          }
    text.nonterminal      {font-family: Verdana, Sans-serif;
                            font-size: 12px;
                            fill: #0D0D0D;
                            font-weight: normal;
                          }
    text.regexp           {font-family: Verdana, Sans-serif;
                            font-size: 12px;
                            fill: #0F0F0F;
                            font-weight: normal;
                          }
    rect, circle, polygon {fill: #262626; stroke: #262626;}
    rect.terminal         {fill: #FFFFFF; stroke: #262626;}
    rect.nonterminal      {fill: #FFFFFF; stroke: #262626;}
    rect.text             {fill: none; stroke: none;}    
    polygon.regexp        {fill: #FFFFFF; stroke: #262626;}
  </style>
         </defs>
         <polygon points="9,17 1,13 1,21" />
         <polygon points="17,17 9,13 9,21" />
         <rect x="31" y="3" width="88" height="32" rx="10" />
         <rect class="terminal" x="29" y="1" width="88" height="32" rx="10" />
         <text class="terminal" x="39" y="21">set parent</text><a xmlns:xlink="http://www.w3.org/1999/xlink" xlink:title="identifier" xlink:href="#identifier">
            <rect x="139" y="3" width="76" height="32" />
            <rect class="nonterminal" x="137" y="1" width="76" height="32" />
            <text class="nonterminal" x="147" y="21">identifier</text></a><rect x="235" y="3" width="34" height="32" rx="10" />
         <rect class="terminal" x="233" y="1" width="34" height="32" rx="10" />
         <text class="terminal" x="243" y="21">to</text><a xmlns:xlink="http://www.w3.org/1999/xlink" xlink:title="identifier" xlink:href="#identifier">
            <rect x="289" y="3" width="76" height="32" />
            <rect class="nonterminal" x="287" y="1" width="76" height="32" />
            <text class="nonterminal" x="297" y="21">identifier</text></a><a xmlns:xlink="http://www.w3.org/1999/xlink" xlink:title="EOL" xlink:href="#EOL">
            <rect x="385" y="3" width="44" height="32" />
            <rect class="nonterminal" x="383" y="1" width="44" height="32" />
            <text class="nonterminal" x="393" y="21">EOL</text></a><path class="line" d="m 17 17 h 2 m 0 0 h 10 m 88 0 h 10 m 0 0 h 10 m 76 0 h 10 m 0 0 h 10 m 34 0 h 10 m 0 0 h 10 m 76 0 h 10 m 0 0 h 10 m 44 0 h 10 m 3 0 h -3" />
         <polygon points="447,17 455,13 455,21" />
         <polygon points="447,17 439,13 439,21" /></svg>