<svg xmlns="http://www.w3.org/2000/svg" width="527" height="81">
         <defs>
            <style type="text/css">
    @namespace "http://www.w3.org/2000/svg";
    .line                 {fill: none; stroke: #262626;}
    .bold-line            {stroke: #0A0A0A; shape-rendering: crispEdges; stroke-width: 2; }
    .thin-line            {stroke: #0F0F0F; shape-rendering: crispEdges}
    .filled               {fill: #262626; stroke: none;}
    text.terminal         {font-family: Verdana, Sans-serif;
                            font-size: 12px;
                            fill: #0A0A0A;
                            font-weight: bold;
                          }
    text.nonterminal      {font-family: Verdana, Sans-serif;
                            font-size: 12px;
                            fill: #0D0D0D;
                            font-weight: normal;
                          }
    text.regexp           {font-family: Verdana, Sans-serif;
                            font-size: 12px;
                            fill: #0F0F0F;
                            font-weight: normal;
                          }
    rect, circle, polygon {fill: #262626; stroke: #262626;}
    rect.terminal         {fill: #FFFFFF; stroke: #262626;}
    rect.nonterminal      {fill: #FFFFFF; stroke: #262626;}
    rect.text             {fill: none; stroke: none;}    
    polygon.regexp        {fill: #FFFFFF; stroke: #262626;}
  </style>
         </defs>
         <polygon points="9,17 1,13 1,21" />
         <polygon points="17,17 9,13 9,21" />
         <rect x="31" y="3" width="104" height="32" rx="10" />
         <rect class="terminal" x="29" y="1" width="104" height="32" rx="10" />
         <text class="terminal" x="39" y="21">set category</text><a xmlns:xlink="http://www.w3.org/1999/xlink" xlink:title="identifier" xlink:href="#identifier">
            <rect x="175" y="3" width="76" height="32" />
            <rect class="nonterminal" x="173" y="1" width="76" height="32" />
            <text class="nonterminal" x="183" y="21">identifier</text></a><a xmlns:xlink="http://www.w3.org/1999/xlink" xlink:title="expression" xlink:href="#expression">
            <rect x="175" y="47" width="90" height="32" />
            <rect class="nonterminal" x="173" y="45" width="90" height="32" />
            <text class="nonterminal" x="183" y="65">expression</text></a><rect x="305" y="3" width="34" height="32" rx="10" />
         <rect class="terminal" x="303" y="1" width="34" height="32" rx="10" />
         <text class="terminal" x="313" y="21">to</text><a xmlns:xlink="http://www.w3.org/1999/xlink" xlink:title="identifier" xlink:href="#identifier">
            <rect x="359" y="3" width="76" height="32" />
            <rect class="nonterminal" x="357" y="1" width="76" height="32" />
            <text class="nonterminal" x="367" y="21">identifier</text></a><a xmlns:xlink="http://www.w3.org/1999/xlink" xlink:title="EOL" xlink:href="#EOL">
            <rect x="455" y="3" width="44" height="32" />
            <rect class="nonterminal" x="453" y="1" width="44" height="32" />
            <text class="nonterminal" x="463" y="21">EOL</text></a><path class="line" d="m 17 17 h 2 m 0 0 h 10 m 104 0 h 10 m 20 0 h 10 m 76 0 h 10 m 0 0 h 14 m -130 0 h 20 m 110 0 h 20 m -150 0 q 10 0 10 10 m 130 0 q 0 -10 10 -10 m -140 10 v 24 m 130 0 v -24 m -130 24 q 0 10 10 10 m 110 0 q 10 0 10 -10 m -120 10 h 10 m 90 0 h 10 m 20 -44 h 10 m 34 0 h 10 m 0 0 h 10 m 76 0 h 10 m 0 0 h 10 m 44 0 h 10 m 3 0 h -3" />
         <polygon points="517,17 525,13 525,21" />
         <polygon points="517,17 509,13 509,21" /></svg>